<?xml version="1.0" encoding="iso-8859-1"?>
<!-- Generator: Adobe Illustrator 19.0.0, SVG Export Plug-In . SVG Version: 6.00 Build 0)  -->
<svg version="1.1" id="Layer_1" xmlns="http://www.w3.org/2000/svg" xmlns:xlink="http://www.w3.org/1999/xlink" x="0px" y="0px"
	 width="595.28px" height="841.89px" viewBox="0 0 595.28 841.89" style="enable-background:new 0 0 595.28 841.89;"
	 xml:space="preserve">
<style type="text/css">
	.st0{fill:#414A73;}
</style>
<g id="XMLID_2_">
	<path id="XMLID_58_" class="st0" d="M64.202,165.49c0.959-0.288,1.872-0.745,2.736-1.368c0.335-0.288,0.636-0.576,0.9-0.864
		c0.263-0.288,0.54-0.576,0.828-0.864c0.047-0.096,0.167-0.24,0.36-0.432c0.191-0.191,0.335-0.191,0.432,0
		c0.096,0.241,0.06,0.517-0.108,0.828c-0.169,0.312-0.3,0.565-0.396,0.756c-0.192,0.288-0.385,0.564-0.576,0.828
		c-0.192,0.263-0.408,0.515-0.648,0.756c-1.104,1.055-2.388,1.716-3.852,1.98c-1.465,0.263-2.844-0.012-4.14-0.828
		c-1.44-0.864-2.592-2.064-3.456-3.6c-0.864-1.536-1.512-3.071-1.944-4.608c-0.529-1.631-0.828-3.336-0.9-5.112
		c-0.072-1.775,0.132-3.503,0.612-5.184c0.288-1.104,0.768-2.196,1.44-3.276c0.671-1.08,1.512-1.955,2.52-2.628
		c-0.241-0.335-0.504-0.767-0.792-1.296c-0.864-1.44-1.501-3.012-1.908-4.716c-0.408-1.703-0.612-3.395-0.612-5.076
		c0.047-1.775,0.216-3.516,0.504-5.22c0.288-1.703,0.839-3.348,1.656-4.932c0.335-0.671,0.756-1.355,1.26-2.052
		c0.504-0.695,1.055-1.332,1.656-1.908c0.6-0.576,1.26-1.044,1.98-1.404c0.72-0.36,1.512-0.54,2.376-0.54
		c0.816,0,1.548,0.229,2.196,0.684c0.648,0.457,1.199,1.021,1.656,1.692c0.456,0.673,0.816,1.393,1.08,2.16
		c0.263,0.768,0.468,1.512,0.612,2.232c0.096,0.385,0.155,0.732,0.18,1.044c0.023,0.313,0.06,0.661,0.108,1.044
		c0.24-0.096,0.456-0.216,0.648-0.36c0.191-0.144,0.407-0.263,0.648-0.36c0.384-0.144,0.9-0.335,1.548-0.576
		c0.648-0.24,1.188-0.263,1.62-0.072c0.191,0.097,0.204,0.205,0.036,0.324c-0.168,0.121-0.3,0.205-0.396,0.252
		c-0.336,0.241-0.673,0.432-1.008,0.576c-0.336,0.144-0.696,0.288-1.08,0.432c-0.769,0.385-1.44,0.768-2.016,1.152
		c0,1.152-0.072,2.316-0.216,3.492c-0.144,1.177-0.336,2.316-0.576,3.42c-0.241,0.816-0.48,1.632-0.72,2.448
		c-0.241,0.817-0.576,1.584-1.008,2.304c-0.192,0.288-0.42,0.576-0.684,0.864c-0.264,0.288-0.552,0.517-0.864,0.684
		c-0.313,0.169-0.637,0.241-0.972,0.216c-0.336-0.023-0.672-0.18-1.008-0.468c-0.576-0.528-0.864-1.188-0.864-1.98
		s0.047-1.523,0.144-2.196c0.288-1.535,0.839-3.047,1.656-4.536c0.767-1.44,1.703-2.711,2.808-3.816v-0.216
		c-0.048-0.911-0.108-1.811-0.18-2.7c-0.072-0.888-0.229-1.764-0.468-2.628c-0.144-0.671-0.373-1.392-0.684-2.16
		c-0.313-0.768-0.853-1.271-1.62-1.512c-0.72-0.24-1.417-0.167-2.088,0.216c-0.673,0.385-1.249,0.84-1.728,1.368
		c-0.529,0.625-0.961,1.296-1.296,2.016c-0.336,0.72-0.625,1.488-0.864,2.304c-0.432,1.44-0.684,2.905-0.756,4.392
		c-0.072,1.489-0.133,3-0.18,4.536c-0.048,1.105-0.025,2.196,0.072,3.276c0.095,1.08,0.239,2.172,0.432,3.276
		c0.096,0.576,0.24,1.177,0.432,1.8c0.191,0.625,0.456,1.2,0.792,1.728c0.096,0,0.167-0.023,0.216-0.072
		c0.624-0.24,1.212-0.335,1.764-0.288c0.551,0.048,1.116,0.144,1.692,0.288c0.384,0.144,0.72,0.324,1.008,0.54
		c0.288,0.216,0.479,0.517,0.576,0.9c0.191,0.672-0.048,1.272-0.72,1.8c-0.576,0.385-1.224,0.517-1.944,0.396
		c-0.72-0.119-1.345-0.371-1.872-0.756c-0.288-0.144-0.553-0.335-0.792-0.576l-0.144,0.144c-1.152,1.2-1.884,2.7-2.196,4.5
		c-0.312,1.8-0.444,3.517-0.396,5.148c0,1.584,0.132,3.216,0.396,4.896c0.263,1.681,0.803,3.216,1.62,4.608
		c0.576,1.057,1.332,1.872,2.268,2.448C61.934,165.634,63.001,165.778,64.202,165.49z M62.762,142.306
		c-0.864-0.144-1.561-0.096-2.088,0.144c0.144,0.097,0.299,0.205,0.468,0.324c0.167,0.121,0.348,0.229,0.54,0.324
		c0.24,0.144,0.551,0.228,0.936,0.252c0.383,0.025,0.695-0.083,0.936-0.324c0.191-0.191,0.144-0.348-0.144-0.468
		C63.122,142.439,62.906,142.354,62.762,142.306z M67.514,130.642c0.047-0.576,0.083-1.163,0.108-1.764
		c0.023-0.6,0.036-1.188,0.036-1.764c-0.385,0.48-0.745,0.984-1.08,1.512c-0.336,0.529-0.648,1.08-0.936,1.656
		c-0.385,0.768-0.696,1.573-0.936,2.412c-0.241,0.84-0.385,1.668-0.432,2.484c0,0.288,0.036,0.648,0.108,1.08
		c0.072,0.432,0.299,0.697,0.684,0.792c0.335,0.097,0.612-0.047,0.828-0.432c0.216-0.384,0.371-0.695,0.468-0.936
		c0.384-0.816,0.648-1.656,0.792-2.52C67.298,132.298,67.417,131.459,67.514,130.642z"/>
	<path id="XMLID_56_" class="st0" d="M80.257,141.226c0.047-0.144,0.144-0.24,0.288-0.288c0.191-0.144,0.443-0.24,0.756-0.288
		c0.312-0.047,0.576-0.036,0.792,0.036c0.216,0.072,0.36,0.205,0.432,0.396c0.072,0.192,0.011,0.457-0.18,0.792
		c-0.288,0.385-0.601,0.769-0.936,1.152c-0.336,0.385-0.624,0.769-0.864,1.152c-0.913,1.344-1.764,2.7-2.556,4.068
		s-1.596,2.749-2.412,4.14l-0.864,1.44c0.144,1.393,0.288,2.796,0.432,4.212c0.144,1.417,0.36,2.797,0.648,4.14
		c0.096,0.385,0.204,0.781,0.324,1.188c0.12,0.408,0.299,0.803,0.54,1.188c0.24,0.335,0.492,0.479,0.756,0.432
		c0.263-0.048,0.54-0.192,0.828-0.432c0.528-0.385,0.972-0.839,1.332-1.368c0.36-0.528,0.659-1.055,0.9-1.584
		c0-0.047,0.072-0.18,0.216-0.396s0.299-0.419,0.468-0.612c0.168-0.191,0.324-0.312,0.468-0.36c0.144-0.047,0.24,0.025,0.288,0.216
		c0.095,0.385,0.036,0.792-0.18,1.224c-0.216,0.432-0.421,0.792-0.612,1.08c-0.241,0.385-0.565,0.84-0.972,1.368
		c-0.408,0.527-0.853,0.983-1.332,1.368c-0.48,0.383-0.984,0.6-1.512,0.648c-0.528,0.047-1.033-0.192-1.512-0.72
		c-0.48-0.48-0.84-1.033-1.08-1.656c-0.241-0.624-0.457-1.248-0.648-1.872c-0.432-1.248-0.792-2.592-1.08-4.032
		c-0.097-0.191-0.144-0.335-0.144-0.432l-2.376,4.608c-0.673,1.249-1.357,2.507-2.052,3.78c-0.695,1.271-1.476,2.484-2.34,3.636
		c-0.096,0.095-0.191,0.216-0.288,0.36c-0.095,0.144-0.216,0.191-0.36,0.144c-0.191,0-0.324-0.133-0.396-0.396
		c-0.072-0.265-0.083-0.468-0.036-0.612c0.049-0.241,0.157-0.457,0.324-0.648c0.169-0.192,0.3-0.36,0.396-0.504l1.008-1.584
		c0.864-1.44,1.681-2.916,2.448-4.428c0.767-1.512,1.536-3.036,2.304-4.572l0.864-1.872c-0.192-0.864-0.373-1.739-0.54-2.628
		c-0.169-0.888-0.324-1.788-0.468-2.7c-0.144-0.72-0.288-1.44-0.432-2.16c-0.144-0.72-0.313-1.416-0.504-2.088
		c-0.048-0.096-0.097-0.204-0.144-0.324c-0.048-0.119-0.072-0.227-0.072-0.324c0-0.096-0.036-0.191-0.108-0.288
		c-0.072-0.096-0.133-0.191-0.18-0.288c-0.097-0.24-0.061-0.492,0.108-0.756c0.167-0.264,0.396-0.348,0.684-0.252
		c0.72,0.144,1.284,0.588,1.692,1.332c0.407,0.745,0.731,1.429,0.972,2.052c0.24,0.673,0.443,1.368,0.612,2.088
		c0.167,0.72,0.299,1.417,0.396,2.088l1.728-3.528c0.527-1.104,1.127-2.22,1.8-3.348C78.553,143.087,79.345,142.09,80.257,141.226z"
		/>
	<path id="XMLID_52_" class="st0" d="M83.785,164.77c-0.097-0.097-0.192-0.241-0.288-0.432c0,1.584,0.011,3.179,0.036,4.788
		c0.023,1.608,0.036,3.228,0.036,4.86c0,0.912-0.013,1.812-0.036,2.7c-0.025,0.888-0.061,1.788-0.108,2.7
		c0,0.911-0.072,1.8-0.216,2.664c-0.097,0.24-0.18,0.492-0.252,0.756c-0.072,0.263-0.229,0.468-0.468,0.612
		c-0.625,0.335-1.116,0.252-1.476-0.252s-0.587-0.997-0.684-1.476c-0.24-0.817-0.371-1.656-0.396-2.52
		c-0.023-0.864-0.036-1.728-0.036-2.592c0-1.825,0.084-3.636,0.252-5.436c0.169-1.8,0.373-3.589,0.612-5.364l0.504-3.6v-3.312
		c-0.097-3.312-0.025-6.624,0.216-9.936c0.096-1.296,0.216-2.592,0.36-3.888c0.144-1.296,0.432-2.567,0.864-3.816
		c0.047-0.096,0.119-0.263,0.216-0.504c0.096-0.24,0.216-0.468,0.36-0.684s0.275-0.348,0.396-0.396
		c0.119-0.047,0.227,0.048,0.324,0.288c0.144,0.672,0.204,1.332,0.18,1.98c-0.025,0.648-0.084,1.308-0.18,1.98
		c-0.144,1.537-0.252,3.06-0.324,4.572c-0.072,1.512-0.133,3.037-0.18,4.572v0.072c0.144-0.384,0.288-0.767,0.432-1.152
		c0.144-0.384,0.312-0.767,0.504-1.152c0.335-0.672,0.731-1.343,1.188-2.016c0.456-0.672,1.044-1.152,1.764-1.44
		c0.767-0.335,1.5-0.324,2.196,0.036c0.695,0.36,1.235,0.876,1.62,1.548c0.432,0.72,0.72,1.512,0.864,2.376
		c0.144,0.864,0.24,1.728,0.288,2.592c0.047,1.584-0.084,3.204-0.396,4.86c-0.312,1.656-0.828,3.181-1.548,4.572
		c-0.336,0.671-0.756,1.296-1.26,1.872c-0.504,0.576-1.116,0.959-1.836,1.152c-0.673,0.144-1.332,0.072-1.98-0.216
		S84.169,165.393,83.785,164.77z M85.225,152.746c-0.385,0.96-0.72,1.933-1.008,2.916c-0.288,0.984-0.553,1.956-0.792,2.916v0.432
		c0.095-0.096,0.239-0.191,0.432-0.288c0.288-0.096,0.42-0.024,0.396,0.216c-0.024,0.241-0.061,0.457-0.108,0.648
		c0,0.241,0.011,0.48,0.036,0.72c0.023,0.241,0.06,0.48,0.108,0.72c0.096,0.529,0.24,1.069,0.432,1.62
		c0.191,0.552,0.479,1.021,0.864,1.404c0.479,0.479,0.936,0.587,1.368,0.324c0.432-0.264,0.803-0.684,1.116-1.26
		c0.312-0.576,0.563-1.2,0.756-1.872c0.191-0.672,0.335-1.152,0.432-1.44c0.335-1.296,0.563-2.628,0.684-3.996
		c0.12-1.368,0.108-2.724-0.036-4.068c0-0.239-0.048-0.563-0.144-0.972c-0.097-0.407-0.229-0.78-0.396-1.116
		c-0.169-0.335-0.385-0.587-0.648-0.756c-0.265-0.167-0.612-0.155-1.044,0.036c-0.672,0.385-1.188,0.948-1.548,1.692
		C85.765,151.367,85.465,152.074,85.225,152.746z"/>
	<path id="XMLID_18_" class="st0" d="M102,161.89c0.432-0.528,0.839-1.068,1.224-1.62c0.384-0.551,0.792-1.091,1.224-1.62
		c0.047-0.047,0.155-0.167,0.324-0.36c0.167-0.191,0.275-0.191,0.324,0c0.096,0.241,0.072,0.529-0.072,0.864
		c-0.144,0.336-0.265,0.625-0.36,0.864c-0.241,0.529-0.552,1.08-0.936,1.656c-0.385,0.576-0.828,1.105-1.332,1.584
		c-0.504,0.48-1.057,0.852-1.656,1.116c-0.601,0.263-1.236,0.348-1.908,0.252c-0.72-0.144-1.345-0.457-1.872-0.936
		c-0.529-0.479-0.961-1.055-1.296-1.728c-0.336-0.671-0.601-1.368-0.792-2.088c-0.192-0.72-0.36-1.392-0.504-2.016
		c-0.383-1.584-0.635-3.179-0.756-4.788c-0.119-1.607-0.204-3.228-0.252-4.86c-0.047-1.824-0.047-3.636,0-5.436
		c0.048-1.8,0.144-3.611,0.288-5.436c0.144-1.824,0.349-3.636,0.612-5.436c0.263-1.8,0.659-3.587,1.188-5.364
		c0.24-0.816,0.504-1.631,0.792-2.448c0.288-0.815,0.695-1.559,1.224-2.232c0.384-0.576,0.9-0.947,1.548-1.116
		c0.648-0.168,1.164,0.133,1.548,0.9c0.384,0.673,0.624,1.44,0.72,2.304c0.096,0.864,0.191,1.705,0.288,2.52
		c0.096,0.864,0.155,1.728,0.18,2.592c0.023,0.864-0.013,1.752-0.108,2.664c-0.144,3.216-0.529,6.42-1.152,9.612
		c-0.625,3.193-1.465,6.3-2.52,9.324c-0.529,1.681-1.128,3.216-1.8,4.608l-0.216,0.432c0.047,1.152,0.24,2.4,0.576,3.744
		c0.144,0.625,0.36,1.296,0.648,2.016s0.744,1.249,1.368,1.584c0.623,0.385,1.248,0.408,1.872,0.072
		C101.039,162.779,101.568,162.37,102,161.89z M95.808,153.25l0.216-0.504c0.959-2.783,1.764-5.604,2.412-8.46
		c0.648-2.855,1.188-5.724,1.62-8.604c0.24-1.775,0.42-3.552,0.54-5.328c0.119-1.775,0.036-3.552-0.252-5.328
		c-0.097-0.432-0.18-0.875-0.252-1.332c-0.072-0.456-0.229-0.875-0.468-1.26c-0.049-0.096-0.108-0.216-0.18-0.36
		c-0.072-0.144-0.18-0.168-0.324-0.072c-0.144,0.097-0.252,0.229-0.324,0.396c-0.072,0.169-0.156,0.324-0.252,0.468
		c-0.385,0.768-0.661,1.596-0.828,2.484c-0.169,0.889-0.3,1.74-0.396,2.556c-0.529,3.6-0.9,7.212-1.116,10.836
		c-0.216,3.625-0.349,7.236-0.396,10.836V153.25z"/>
	<path id="XMLID_16_" class="st0" d="M107.327,144.394c0.288-0.335,0.659-0.659,1.116-0.972c0.456-0.312,0.947-0.492,1.476-0.54
		c0.864-0.335,1.728-0.072,2.592,0.792c0.576,0.576,0.996,1.249,1.26,2.016c0.263,0.769,0.468,1.537,0.612,2.304
		c0.288,1.728,0.36,3.504,0.216,5.328c0,0.097-0.012,0.192-0.036,0.288c-0.025,0.097-0.036,0.192-0.036,0.288
		c0.528-0.24,1.008-0.515,1.44-0.828c0.432-0.312,0.839-0.635,1.224-0.972c0.047-0.047,0.155-0.155,0.324-0.324
		c0.168-0.167,0.335-0.299,0.504-0.396c0.167-0.096,0.335-0.155,0.504-0.18c0.167-0.024,0.252,0.084,0.252,0.324
		c0,0.576-0.265,1.069-0.792,1.476c-0.529,0.408-0.984,0.756-1.368,1.044c-0.72,0.576-1.44,0.961-2.16,1.152
		c-0.144,1.393-0.396,2.785-0.756,4.176c-0.36,1.393-0.925,2.664-1.692,3.816c-0.241,0.336-0.48,0.648-0.72,0.936
		c-0.241,0.288-0.552,0.527-0.936,0.72c-0.336,0.24-0.66,0.36-0.972,0.36c-0.313,0-0.661,0-1.044,0
		c-0.72-0.192-1.309-0.553-1.764-1.08c-0.457-0.528-0.828-1.127-1.116-1.8c-0.288-0.816-0.493-1.656-0.612-2.52
		c-0.12-0.864-0.205-1.728-0.252-2.592c-0.047-0.815-0.06-1.644-0.036-2.484c0.025-0.839,0.083-1.692,0.18-2.556
		c0.144-1.248,0.396-2.507,0.756-3.78c0.36-1.271,0.875-2.459,1.548-3.564L107.327,144.394z M112.367,155.482
		c-1.393-0.096-2.448-0.612-3.168-1.548c-0.72-0.936-1.2-2.027-1.44-3.276c-0.097,0.48-0.169,0.948-0.216,1.404
		c-0.048,0.457-0.097,0.925-0.144,1.404c-0.097,0.864-0.18,1.728-0.252,2.592c-0.072,0.864-0.108,1.752-0.108,2.664
		c0,0.673,0.047,1.488,0.144,2.448c0.096,0.961,0.432,1.705,1.008,2.232c0.288,0.288,0.563,0.409,0.828,0.36
		c0.263-0.047,0.527-0.155,0.792-0.324c0.263-0.167,0.491-0.384,0.684-0.648c0.191-0.263,0.36-0.515,0.504-0.756
		c0.432-0.72,0.779-1.464,1.044-2.232c0.263-0.768,0.492-1.56,0.684-2.376c0.095-0.335,0.167-0.66,0.216-0.972
		c0.047-0.312,0.096-0.636,0.144-0.972C112.847,155.578,112.607,155.578,112.367,155.482z M108.767,147.994
		c-0.048,0.673,0,1.404,0.144,2.196s0.384,1.512,0.72,2.16c0.335,0.648,0.803,1.164,1.404,1.548c0.6,0.385,1.332,0.504,2.196,0.36
		c0.144-1.199,0.204-2.412,0.18-3.636c-0.024-1.224-0.205-2.387-0.54-3.492c-0.144-0.911-0.457-1.656-0.936-2.232
		c-0.144-0.191-0.324-0.396-0.54-0.612c-0.216-0.216-0.444-0.348-0.684-0.396l-0.288,0.216c-0.241,0.241-0.432,0.457-0.576,0.648
		c-0.144,0.192-0.288,0.409-0.432,0.648l-0.216,0.36v0.072C108.959,146.554,108.814,147.274,108.767,147.994z"/>
	<path id="XMLID_26_" class="st0" d="M126.047,146.698c-0.097,0.72-0.097,1.464,0,2.232c0.096,0.768,0.407,1.488,0.936,2.16
		c0.096-0.815,0.252-1.62,0.468-2.412c0.216-0.792,0.515-1.572,0.9-2.34c0.335-0.623,0.767-1.224,1.296-1.8
		c0.528-0.576,1.152-0.959,1.872-1.152c0.815-0.24,1.487-0.096,2.016,0.432c0.527,0.529,0.839,1.152,0.936,1.872
		c0.144,0.817,0.204,1.632,0.18,2.448c-0.024,0.816-0.156,1.681-0.396,2.592c-0.528,1.681-1.32,2.772-2.376,3.276
		c-1.056,0.504-2.041,0.565-2.952,0.18c-0.048,1.152,0,2.293,0.144,3.42c0.144,1.128,0.432,2.196,0.864,3.204
		c0.24,0.625,0.6,1.213,1.08,1.764c0.479,0.552,1.055,0.9,1.728,1.044c0.671,0.097,1.284-0.036,1.836-0.396
		c0.551-0.36,1.019-0.78,1.404-1.26c0.047-0.047,0.168-0.18,0.36-0.396c0.191-0.216,0.407-0.443,0.648-0.684
		c0.24-0.239,0.456-0.432,0.648-0.576c0.191-0.144,0.312-0.168,0.36-0.072c0.096,0.385-0.012,0.84-0.324,1.368
		c-0.313,0.529-0.565,0.936-0.756,1.224c-0.72,0.864-1.573,1.512-2.556,1.944c-0.984,0.432-2.029,0.384-3.132-0.144
		c-1.104-0.529-1.956-1.355-2.556-2.484c-0.601-1.127-1.044-2.243-1.332-3.348c-0.529-2.016-0.72-4.032-0.576-6.048
		c-0.576-0.432-1.105-1.032-1.584-1.8c-0.48-0.767-0.769-1.631-0.864-2.592c-0.097-0.911-0.18-1.775-0.252-2.592
		c-0.072-0.816-0.3-1.368-0.684-1.656c-0.192-0.144-0.421,0.036-0.684,0.54c-0.265,0.504-0.553,1.2-0.864,2.088
		c-0.312,0.889-0.624,1.933-0.936,3.132c-0.312,1.2-0.612,2.424-0.9,3.672c0.096,0.576,0.155,1.152,0.18,1.728
		c0.023,0.576,0.06,1.152,0.108,1.728c0.047,0.816,0.06,1.656,0.036,2.52c-0.025,0.864-0.084,1.728-0.18,2.592
		c-0.097,0.864-0.241,1.728-0.432,2.592c-0.097,0.288-0.228,0.576-0.396,0.864c-0.168,0.288-0.42,0.456-0.756,0.504
		c-0.432,0.047-0.696-0.3-0.792-1.044c-0.096-0.745-0.108-1.607-0.036-2.592c0.072-0.983,0.18-1.932,0.324-2.844
		c0.144-0.911,0.24-1.487,0.288-1.728c0-0.191,0.023-0.36,0.072-0.504c-0.048-0.528-0.097-1.08-0.144-1.656
		c-0.048-0.576-0.12-1.176-0.216-1.8c-0.097-0.623-0.18-1.248-0.252-1.872c-0.072-0.623-0.204-1.271-0.396-1.944
		c-0.144-0.432-0.024-0.744,0.36-0.936c0.24-0.144,0.504-0.155,0.792-0.036c0.288,0.121,0.479,0.301,0.576,0.54
		c0.191,0.385,0.312,0.696,0.36,0.936l0.792-3.384c0.24-0.816,0.479-1.608,0.72-2.376c0.239-0.768,0.551-1.512,0.936-2.232
		c0.335-0.672,0.888-1.127,1.656-1.368c1.248-0.24,2.027,0.205,2.34,1.332C126.25,143.686,126.287,145.067,126.047,146.698z
		 M129.359,150.874c-0.097,0.336-0.156,0.66-0.18,0.972c-0.025,0.312-0.061,0.66-0.108,1.044c0.671,0.288,1.44,0.228,2.304-0.18
		c0.864-0.407,1.416-1.404,1.656-2.988c0.191-1.104,0.216-2.112,0.072-3.024c-0.144-0.912-0.36-1.44-0.648-1.584
		c-0.241-0.096-0.48,0.012-0.72,0.324c-0.241,0.313-0.408,0.517-0.504,0.612c-0.529,0.72-0.925,1.501-1.188,2.34
		C129.779,149.23,129.55,150.058,129.359,150.874z"/>
	<path id="XMLID_29_" class="st0" d="M145.126,150.802c-0.048,0.048-0.025,0.061,0.072,0.036c0.096-0.023,0.216-0.06,0.36-0.108
		c0.144-0.047,0.275-0.108,0.396-0.18c0.119-0.072,0.204-0.108,0.252-0.108c0.383-0.096,0.563,0,0.54,0.288
		c-0.025,0.288-0.108,0.529-0.252,0.72c-0.192,0.241-0.385,0.48-0.576,0.72c-0.192,0.241-0.432,0.409-0.72,0.504
		c-0.385,0.144-0.708,0.157-0.972,0.036c-0.265-0.119-0.48-0.324-0.648-0.612c-0.169-0.288-0.301-0.612-0.396-0.972
		c-0.097-0.36-0.169-0.684-0.216-0.972c-0.144-0.815-0.228-1.644-0.252-2.484c-0.025-0.839-0.061-1.692-0.108-2.556
		c0-0.191,0.011-0.408,0.036-0.648c0.023-0.239-0.013-0.479-0.108-0.72c-0.097-0.191-0.241-0.108-0.432,0.252
		c-0.192,0.36-0.313,0.565-0.36,0.612c-0.672,1.393-1.224,2.844-1.656,4.356c-0.432,1.512-0.792,3.037-1.08,4.572
		c0.096,0.576,0.155,1.152,0.18,1.728c0.023,0.576,0.06,1.152,0.108,1.728c0.047,0.816,0.06,1.656,0.036,2.52
		c-0.025,0.864-0.084,1.728-0.18,2.592c-0.097,0.864-0.241,1.728-0.432,2.592c-0.097,0.288-0.228,0.576-0.396,0.864
		c-0.168,0.288-0.42,0.456-0.756,0.504c-0.432,0.047-0.696-0.3-0.792-1.044c-0.096-0.745-0.108-1.607-0.036-2.592
		c0.072-0.983,0.18-1.932,0.324-2.844c0.144-0.911,0.24-1.487,0.288-1.728c0-0.191,0.023-0.36,0.072-0.504
		c-0.048-0.528-0.097-1.08-0.144-1.656c-0.048-0.576-0.12-1.176-0.216-1.8c-0.097-0.623-0.18-1.248-0.252-1.872
		c-0.072-0.623-0.204-1.271-0.396-1.944c-0.144-0.432-0.024-0.744,0.36-0.936c0.24-0.144,0.504-0.155,0.792-0.036
		c0.288,0.121,0.479,0.301,0.576,0.54c0.191,0.385,0.312,0.696,0.36,0.936l0.792-3.384c0.24-0.816,0.479-1.608,0.72-2.376
		c0.239-0.768,0.551-1.512,0.936-2.232c0.335-0.672,0.888-1.127,1.656-1.368c0.384-0.096,0.731-0.036,1.044,0.18
		c0.312,0.216,0.563,0.468,0.756,0.756c0.432,0.673,0.684,1.417,0.756,2.232c0.072,0.817,0.108,1.609,0.108,2.376
		c0,0.385-0.025,0.792-0.072,1.224c-0.048,0.432-0.072,0.84-0.072,1.224c-0.048,0.241-0.084,0.516-0.108,0.828
		C144.994,150.359,145.03,150.611,145.126,150.802z"/>
	<path id="XMLID_11_" class="st0" d="M176.733,164.194c0.383-0.192,0.744-0.371,1.08-0.54c0.335-0.167,0.695-0.371,1.08-0.612
		c0.288-0.191,0.587-0.396,0.9-0.612c0.312-0.216,0.635-0.372,0.972-0.468c0.288-0.096,0.432-0.072,0.432,0.072
		s-0.048,0.312-0.144,0.504c-0.241,0.48-0.601,0.96-1.08,1.44c-0.912,1.008-2.041,1.788-3.384,2.34
		c-1.345,0.551-2.689,0.468-4.032-0.252c-1.296-0.72-2.316-1.752-3.06-3.096c-0.745-1.343-1.308-2.688-1.692-4.032
		c-0.432-1.536-0.756-3.071-0.972-4.608c-0.216-1.536-0.372-3.071-0.468-4.608c0-0.24,0-0.479,0-0.72c0-0.24,0.096-0.479,0.288-0.72
		c0.096-0.096,0.216-0.155,0.36-0.18c0.144-0.023,0.288-0.083,0.432-0.18l0.504-0.36c1.296-1.055,2.351-2.207,3.168-3.456
		c0.959-1.392,1.716-2.891,2.268-4.5c0.551-1.607,0.996-3.251,1.332-4.932c0.335-1.728,0.551-3.479,0.648-5.256
		c0.096-1.775-0.048-3.503-0.432-5.184c-0.385-1.631-1.056-3.024-2.016-4.176c-0.96-1.152-2.256-1.919-3.888-2.304
		c-1.584-0.383-3.113-0.288-4.587,0.288c-1.474,0.576-2.693,1.512-3.659,2.808c-0.918,1.249-1.535,2.653-1.849,4.212
		c-0.315,1.561-0.399,3.108-0.253,4.644c0.047,0.673,0.131,1.332,0.253,1.98c0.121,0.648,0.278,1.309,0.471,1.98
		c0.047,0.144,0.132,0.349,0.253,0.612c0.122,0.265,0.229,0.553,0.326,0.864c0.097,0.312,0.133,0.588,0.109,0.828
		c-0.024,0.241-0.157,0.385-0.398,0.432c-0.243,0.097-0.496,0.072-0.762-0.072s-0.52-0.288-0.762-0.432
		c-0.289-0.24-0.506-0.492-0.652-0.756c-0.144-0.263-0.289-0.563-0.434-0.9c-0.725-1.44-1.16-3-1.305-4.68
		c-0.096-1.68,0.074-3.3,0.507-4.86c0.436-1.56,1.185-2.988,2.248-4.284c1.062-1.248,2.307-2.243,3.733-2.988
		c1.425-0.744,2.935-1.164,4.528-1.26c1.536-0.096,3.024,0.084,4.464,0.54c1.44,0.457,2.711,1.236,3.816,2.34
		c1.248,1.249,2.16,2.677,2.736,4.284c0.576,1.609,0.888,3.276,0.936,5.004c0.047,1.728-0.12,3.456-0.504,5.184
		c-0.385,1.728-0.889,3.337-1.512,4.824c-0.673,1.537-1.476,3-2.412,4.392c-0.936,1.393-1.98,2.689-3.132,3.888
		c-0.385,0.432-0.792,0.828-1.224,1.188s-0.889,0.732-1.368,1.116c-0.048,0.048-0.168,0.12-0.36,0.216
		c-0.097,0.048-0.216,0.097-0.36,0.144c-0.049,0.192-0.036,0.421,0.036,0.684c0.072,0.264,0.132,0.468,0.18,0.612
		c0.623,3.168,1.607,6.312,2.952,9.432c0.288,0.673,0.623,1.344,1.008,2.016c0.384,0.672,0.864,1.272,1.44,1.8
		c0.528,0.432,1.055,0.659,1.584,0.684C175.605,164.541,176.157,164.433,176.733,164.194z M160.821,151.378
		c0.049-3.744,0.16-7.452,0.332-11.124c0.171-3.672,0.502-7.332,0.994-10.98c0.098-0.864,0.221-1.728,0.369-2.592
		c0.147-0.864,0.295-1.728,0.442-2.592c0.098-0.527,0.196-1.067,0.295-1.62c0.098-0.551,0.319-1.068,0.664-1.548
		c0.191-0.239,0.348-0.371,0.468-0.396c0.119-0.023,0.216,0.036,0.288,0.18c0.072,0.144,0.119,0.312,0.144,0.504
		c0.023,0.192,0.036,0.385,0.036,0.576c0,1.056-0.024,2.1-0.072,3.132c-0.048,1.033-0.072,2.077-0.072,3.132
		c-0.097,3.744-0.18,7.5-0.252,11.268c-0.072,3.769-0.156,7.524-0.252,11.268l-0.368,16.92c0,0.144-0.012,0.348-0.037,0.612
		c-0.025,0.263-0.073,0.515-0.147,0.756c-0.074,0.24-0.172,0.407-0.293,0.504c-0.123,0.096-0.283,0.047-0.479-0.144
		c-0.393-0.336-0.638-0.756-0.735-1.26c-0.099-0.504-0.197-0.972-0.295-1.404c-0.098-0.528-0.171-1.044-0.221-1.548
		c-0.049-0.504-0.098-1.021-0.146-1.548C161.042,159.442,160.821,155.41,160.821,151.378z"/>
	<path id="XMLID_34_" class="st0" d="M187.676,161.962c0.047-0.047,0.167-0.18,0.36-0.396c0.191-0.216,0.407-0.443,0.648-0.684
		c0.24-0.239,0.456-0.432,0.648-0.576c0.191-0.144,0.312-0.168,0.36-0.072c0.096,0.385-0.013,0.84-0.324,1.368
		c-0.312,0.529-0.564,0.936-0.756,1.224c-0.72,0.864-1.573,1.512-2.556,1.944c-0.984,0.432-2.028,0.384-3.132-0.144
		c-1.105-0.529-1.957-1.355-2.556-2.484c-0.601-1.127-1.044-2.243-1.332-3.348c-0.623-2.543-0.744-5.087-0.36-7.632
		c0.241-1.775,0.696-3.384,1.368-4.824c0.335-0.623,0.767-1.224,1.296-1.8c0.528-0.576,1.152-0.959,1.872-1.152
		c0.815-0.24,1.487-0.096,2.016,0.432c0.527,0.529,0.839,1.152,0.936,1.872c0.144,0.817,0.18,1.656,0.108,2.52
		c-0.072,0.864-0.18,1.705-0.324,2.52c-0.241,1.584-0.637,3.145-1.188,4.68c-0.552,1.537-1.213,3.024-1.98,4.464
		c-0.097,0.192-0.216,0.421-0.36,0.684c-0.144,0.264-0.313,0.444-0.504,0.54c-0.048,0.048-0.097,0.072-0.144,0.072
		c0.239,0.576,0.587,1.105,1.044,1.584c0.456,0.48,0.996,0.769,1.62,0.864c0.671,0.097,1.283-0.036,1.836-0.396
		C186.824,162.862,187.292,162.442,187.676,161.962z M181.052,150.874c-0.241,1.393-0.385,2.844-0.432,4.356
		c-0.048,1.512,0.12,2.964,0.504,4.356l0.36-0.648l0.936-2.088c0.671-1.536,1.26-3.12,1.764-4.752
		c0.504-1.631,0.708-3.288,0.612-4.968c0-0.288-0.036-0.659-0.108-1.116c-0.072-0.456-0.252-0.756-0.54-0.9
		c-0.241-0.096-0.48,0.012-0.72,0.324c-0.241,0.313-0.408,0.517-0.504,0.612c-0.529,0.72-0.925,1.501-1.188,2.34
		C181.472,149.23,181.244,150.058,181.052,150.874z"/>
	<path id="XMLID_10_" class="st0" d="M198.979,161.746c0.191-0.24,0.36-0.443,0.504-0.612c0.144-0.167,0.335-0.347,0.576-0.54
		c0.096-0.096,0.312-0.252,0.648-0.468c0.335-0.216,0.551-0.18,0.648,0.108c0.095,0.192,0.095,0.409,0,0.648
		c-0.097,0.241-0.192,0.432-0.288,0.576c-0.241,0.529-0.565,1.021-0.972,1.476c-0.408,0.457-0.828,0.876-1.26,1.26
		c-0.625,0.528-1.272,0.947-1.944,1.26c-0.672,0.312-1.416,0.468-2.232,0.468c-0.864-0.048-1.645-0.288-2.34-0.72
		c-0.696-0.432-1.309-0.984-1.836-1.656c-0.961-1.343-1.597-2.868-1.908-4.572c-0.312-1.703-0.419-3.372-0.324-5.004
		c0.097-1.536,0.407-3.107,0.936-4.716c0.527-1.607,1.392-2.963,2.592-4.068c0.528-0.479,1.163-0.864,1.908-1.152
		c0.744-0.288,1.451-0.191,2.124,0.288c0.623,0.48,0.972,1.152,1.044,2.016c0.072,0.864,0.06,1.632-0.036,2.304
		c-0.097,0.72-0.252,1.465-0.468,2.232c-0.216,0.769-0.588,1.417-1.116,1.944c-0.288,0.336-0.661,0.517-1.116,0.54
		c-0.457,0.025-0.804-0.18-1.044-0.612c-0.336-0.528-0.396-1.212-0.18-2.052c0.216-0.839,0.443-1.523,0.684-2.052
		c0.624-1.343,1.224-2.304,1.8-2.88c-0.241-0.384-0.576-0.551-1.008-0.504c-0.768,0.097-1.356,0.504-1.764,1.224
		c-0.409,0.72-0.709,1.417-0.9,2.088c-0.241,0.817-0.409,1.656-0.504,2.52c-0.097,0.864-0.192,1.705-0.288,2.52
		c-0.097,0.864-0.121,1.741-0.072,2.628c0.047,0.889,0.119,1.764,0.216,2.628c0.096,0.72,0.264,1.416,0.504,2.088
		c0.239,0.673,0.551,1.296,0.936,1.872c1.008,1.296,2.232,1.68,3.672,1.152c0.576-0.24,1.091-0.551,1.548-0.936
		C198.175,162.658,198.595,162.226,198.979,161.746z M194.587,151.45c0.383-0.624,0.671-1.379,0.864-2.268
		c0.191-0.888,0.24-1.716,0.144-2.484c-0.097,0.192-0.241,0.48-0.432,0.864c-0.192,0.385-0.336,0.72-0.432,1.008
		c-0.432,1.008-0.709,1.753-0.828,2.232c-0.121,0.48-0.144,0.792-0.072,0.936c0.072,0.144,0.191,0.169,0.36,0.072
		C194.359,151.714,194.491,151.594,194.587,151.45z"/>
	<path id="XMLID_40_" class="st0" d="M207.763,158.146c0.096-0.24,0.252-0.479,0.468-0.72c0.216-0.24,0.468-0.384,0.756-0.432
		c0.288-0.047,0.479,0.12,0.576,0.504c0,0.241-0.061,0.504-0.18,0.792c-0.121,0.288-0.252,0.552-0.396,0.792l-0.864,1.728
		c-0.385,0.673-0.792,1.308-1.224,1.908c-0.432,0.601-0.984,1.141-1.656,1.62c-0.625,0.432-1.272,0.564-1.944,0.396
		c-0.673-0.168-1.232-0.564-1.68-1.188c-0.448-0.671-0.771-1.404-0.969-2.196c-0.199-0.792-0.349-1.572-0.448-2.34
		c-0.097-0.864-0.18-1.716-0.252-2.556c-0.072-0.839-0.108-1.692-0.108-2.556c0-1.44,0.048-2.88,0.144-4.32
		c0.095-1.44,0.216-2.855,0.36-4.248c0.049-0.335,0.099-0.636,0.148-0.9c0.049-0.263,0.272-0.372,0.669-0.324
		c0.248,0.048,0.653,0.156,1.217,0.324c0.562,0.168,0.868,0.396,0.917,0.684c0.095,0.241,0.108,0.493,0.036,0.756
		c-0.072,0.264-0.108,0.516-0.108,0.756l-0.216,2.016c-0.097,0.912-0.18,1.8-0.252,2.664c-0.072,0.864-0.133,1.728-0.18,2.592
		c-0.097,0.913-0.18,1.812-0.252,2.7c-0.072,0.889-0.084,1.789-0.036,2.7c0,0.432,0.024,0.864,0.072,1.296
		c0.047,0.432,0.144,0.864,0.288,1.296c0.096,0.241,0.204,0.516,0.324,0.828c0.119,0.312,0.348,0.516,0.684,0.612
		c0.288,0.097,0.576,0.048,0.864-0.144c0.288-0.191,0.551-0.419,0.792-0.684c0.24-0.263,0.456-0.551,0.648-0.864
		c0.191-0.312,0.36-0.564,0.504-0.756C206.946,160.066,207.378,159.154,207.763,158.146z M203.443,133.378
		c0.768,0,1.308,0.313,1.62,0.936c0.312,0.625,0.396,1.272,0.252,1.944c-0.192,0.673-0.564,1.272-1.116,1.8
		c-0.553,0.529-1.188,0.792-1.908,0.792c-0.817,0-1.38-0.312-1.692-0.936c-0.313-0.623-0.373-1.271-0.18-1.944
		c0.144-0.672,0.504-1.271,1.08-1.8C202.075,133.642,202.723,133.378,203.443,133.378z"/>
	<path id="XMLID_43_" class="st0" d="M210.642,164.77c-0.097-0.097-0.192-0.241-0.288-0.432c0,1.584,0.011,3.179,0.036,4.788
		c0.023,1.608,0.036,3.228,0.036,4.86c0,0.912-0.013,1.812-0.036,2.7c-0.025,0.888-0.061,1.788-0.108,2.7
		c0,0.911-0.072,1.8-0.216,2.664c-0.097,0.24-0.18,0.492-0.252,0.756c-0.072,0.263-0.229,0.468-0.468,0.612
		c-0.625,0.335-1.116,0.252-1.476-0.252s-0.587-0.997-0.684-1.476c-0.24-0.817-0.371-1.656-0.396-2.52
		c-0.023-0.864-0.036-1.728-0.036-2.592c0-1.825,0.084-3.636,0.252-5.436c0.169-1.8,0.373-3.589,0.612-5.364l0.504-3.6v-3.312
		c-0.097-3.312-0.025-6.624,0.216-9.936c0.096-1.296,0.216-2.592,0.36-3.888c0.144-1.296,0.432-2.567,0.864-3.816
		c0.047-0.096,0.119-0.263,0.216-0.504c0.096-0.24,0.216-0.468,0.36-0.684s0.275-0.348,0.396-0.396
		c0.119-0.047,0.227,0.048,0.324,0.288c0.144,0.672,0.204,1.332,0.18,1.98c-0.025,0.648-0.084,1.308-0.18,1.98
		c-0.144,1.537-0.252,3.06-0.324,4.572c-0.072,1.512-0.133,3.037-0.18,4.572v0.072c0.144-0.384,0.288-0.767,0.432-1.152
		c0.144-0.384,0.312-0.767,0.504-1.152c0.335-0.672,0.731-1.343,1.188-2.016c0.456-0.672,1.044-1.152,1.764-1.44
		c0.767-0.335,1.5-0.324,2.196,0.036c0.695,0.36,1.235,0.876,1.62,1.548c0.432,0.72,0.72,1.512,0.864,2.376
		c0.144,0.864,0.24,1.728,0.288,2.592c0.047,1.584-0.084,3.204-0.396,4.86c-0.312,1.656-0.828,3.181-1.548,4.572
		c-0.336,0.671-0.756,1.296-1.26,1.872c-0.504,0.576-1.116,0.959-1.836,1.152c-0.673,0.144-1.332,0.072-1.98-0.216
		S211.026,165.393,210.642,164.77z M212.082,152.746c-0.385,0.96-0.72,1.933-1.008,2.916c-0.288,0.984-0.553,1.956-0.792,2.916
		v0.432c0.095-0.096,0.239-0.191,0.432-0.288c0.288-0.096,0.42-0.024,0.396,0.216c-0.024,0.241-0.061,0.457-0.108,0.648
		c0,0.241,0.011,0.48,0.036,0.72c0.023,0.241,0.06,0.48,0.108,0.72c0.096,0.529,0.24,1.069,0.432,1.62
		c0.191,0.552,0.479,1.021,0.864,1.404c0.479,0.479,0.936,0.587,1.368,0.324c0.432-0.264,0.803-0.684,1.116-1.26
		c0.312-0.576,0.563-1.2,0.756-1.872c0.191-0.672,0.335-1.152,0.432-1.44c0.335-1.296,0.563-2.628,0.684-3.996
		c0.12-1.368,0.108-2.724-0.036-4.068c0-0.239-0.048-0.563-0.144-0.972c-0.097-0.407-0.229-0.78-0.396-1.116
		c-0.169-0.335-0.385-0.587-0.648-0.756c-0.265-0.167-0.612-0.155-1.044,0.036c-0.672,0.385-1.188,0.948-1.548,1.692
		C212.622,151.367,212.322,152.074,212.082,152.746z"/>
	<path id="XMLID_5_" class="st0" d="M228.929,161.962c0.047-0.047,0.167-0.18,0.36-0.396c0.191-0.216,0.407-0.443,0.648-0.684
		c0.24-0.239,0.456-0.432,0.648-0.576c0.191-0.144,0.312-0.168,0.36-0.072c0.096,0.385-0.013,0.84-0.324,1.368
		c-0.312,0.529-0.564,0.936-0.756,1.224c-0.72,0.864-1.573,1.512-2.556,1.944c-0.984,0.432-2.028,0.384-3.132-0.144
		c-1.105-0.529-1.957-1.355-2.556-2.484c-0.601-1.127-1.044-2.243-1.332-3.348c-0.623-2.543-0.744-5.087-0.36-7.632
		c0.241-1.775,0.696-3.384,1.368-4.824c0.335-0.623,0.767-1.224,1.296-1.8c0.528-0.576,1.152-0.959,1.872-1.152
		c0.815-0.24,1.487-0.096,2.016,0.432c0.527,0.529,0.839,1.152,0.936,1.872c0.144,0.817,0.18,1.656,0.108,2.52
		c-0.072,0.864-0.18,1.705-0.324,2.52c-0.241,1.584-0.637,3.145-1.188,4.68c-0.552,1.537-1.213,3.024-1.98,4.464
		c-0.097,0.192-0.216,0.421-0.36,0.684c-0.144,0.264-0.313,0.444-0.504,0.54c-0.048,0.048-0.097,0.072-0.144,0.072
		c0.239,0.576,0.587,1.105,1.044,1.584c0.456,0.48,0.996,0.769,1.62,0.864c0.671,0.097,1.283-0.036,1.836-0.396
		C228.076,162.862,228.544,162.442,228.929,161.962z M222.305,150.874c-0.241,1.393-0.385,2.844-0.432,4.356
		c-0.048,1.512,0.12,2.964,0.504,4.356l0.36-0.648l0.936-2.088c0.671-1.536,1.26-3.12,1.764-4.752
		c0.504-1.631,0.708-3.288,0.612-4.968c0-0.288-0.036-0.659-0.108-1.116c-0.072-0.456-0.252-0.756-0.54-0.9
		c-0.241-0.096-0.48,0.012-0.72,0.324c-0.241,0.313-0.408,0.517-0.504,0.612c-0.529,0.72-0.925,1.501-1.188,2.34
		C222.725,149.23,222.496,150.058,222.305,150.874z"/>
	<path id="XMLID_4_" class="st0" d="M231.808,164.626c-0.385-0.576-0.529-1.224-0.432-1.944c0-0.144,0.096-0.407,0.288-0.792
		c0.191-0.384,0.407-0.479,0.648-0.288c0.191,0.144,0.312,0.396,0.36,0.756c0.047,0.36,0.096,0.637,0.144,0.828
		c0.239,0.576,0.504,1.008,0.792,1.296c0.432,0.432,0.996,0.672,1.692,0.72c0.695,0.047,1.307-0.121,1.836-0.504
		c0.623-0.48,0.996-1.104,1.116-1.872c0.119-0.768,0.131-1.487,0.036-2.16c-0.097-0.815-0.336-1.584-0.72-2.304
		c-0.385-0.72-0.84-1.392-1.368-2.016l-1.584-1.872c-1.105,2.352-2.401,4.68-3.888,6.984c-0.097,0.097-0.264,0.324-0.504,0.684
		c-0.241,0.36-0.457,0.372-0.648,0.036c-0.24-0.432-0.227-0.852,0.036-1.26c0.263-0.407,0.515-0.803,0.756-1.188
		c0.672-0.959,1.296-1.98,1.872-3.06s1.104-2.171,1.584-3.276c-0.097-0.191-0.205-0.384-0.324-0.576
		c-0.12-0.191-0.228-0.407-0.324-0.648c-0.385-0.815-0.661-1.62-0.828-2.412c-0.168-0.792-0.156-1.595,0.036-2.412
		c0.096-0.576,0.275-1.14,0.54-1.692c0.263-0.551,0.636-0.996,1.116-1.332c0.624-0.288,1.224-0.276,1.8,0.036
		c0.576,0.313,0.911,0.805,1.008,1.476c0.096,1.008,0.024,2.028-0.216,3.06c-0.241,1.033-0.552,2.052-0.936,3.06
		c0.288,0.529,0.587,1.056,0.9,1.584c0.312,0.529,0.659,1.056,1.044,1.584c0.432,0.673,0.839,1.404,1.224,2.196
		c0.384,0.792,0.659,1.597,0.828,2.412c0.167,0.817,0.204,1.645,0.108,2.484c-0.097,0.84-0.36,1.645-0.792,2.412
		c-0.385,0.672-0.9,1.163-1.548,1.476c-0.648,0.312-1.321,0.468-2.016,0.468c-0.696,0-1.368-0.168-2.016-0.504
		C232.78,165.729,232.24,165.249,231.808,164.626z M234.328,147.346c0.047,0.529,0.132,1.033,0.252,1.512
		c0.12,0.48,0.276,0.961,0.468,1.44c0.335-1.055,0.551-2.135,0.648-3.24c0-0.24-0.036-0.587-0.108-1.044
		c-0.072-0.456-0.301-0.636-0.684-0.54c-0.336,0.097-0.529,0.372-0.576,0.828C234.279,146.759,234.279,147.106,234.328,147.346z"/>
</g>
</svg>
