<?xml version="1.0" encoding="iso-8859-1"?>
<!-- Generator: Adobe Illustrator 19.0.0, SVG Export Plug-In . SVG Version: 6.00 Build 0)  -->
<svg version="1.1" id="Layer_1" xmlns="http://www.w3.org/2000/svg" xmlns:xlink="http://www.w3.org/1999/xlink" x="0px" y="0px"
	 width="595.28px" height="841.89px" viewBox="0 0 595.28 841.89" style="enable-background:new 0 0 595.28 841.89;"
	 xml:space="preserve">
<style type="text/css">
	.st0{fill:#414A73;}
</style>
<g id="XMLID_5_">
	<path id="XMLID_207_" class="st0" d="M187.891,96.161c2.16-0.479,4.32-0.972,6.48-1.476c2.16-0.504,4.32-1.02,6.48-1.548
		c1.008-0.239,2.016-0.468,3.024-0.684c1.008-0.216,2.016-0.443,3.024-0.684c0.959-0.191,2.003-0.299,3.132-0.324
		c1.127-0.023,2.052,0.324,2.772,1.044c0.384,0.385,0.504,0.745,0.36,1.08c-0.144,0.336-0.396,0.648-0.756,0.936
		c-0.36,0.288-0.781,0.529-1.26,0.72c-0.48,0.192-0.864,0.336-1.152,0.432c-0.864,0.241-1.741,0.444-2.628,0.612
		c-0.889,0.168-1.789,0.324-2.7,0.468c-1.488,0.241-2.964,0.457-4.428,0.648c-1.465,0.192-2.916,0.36-4.356,0.504
		c-0.048,0.144-0.072,0.313-0.072,0.504c0,0.432-0.013,0.853-0.036,1.26c-0.025,0.408-0.061,0.828-0.108,1.26
		c-0.192,3.456-0.349,6.912-0.468,10.368c-0.12,3.456-0.252,6.912-0.396,10.368l-0.144,1.8c0.624-0.239,1.235-0.468,1.836-0.684
		c0.6-0.216,1.188-0.443,1.764-0.684c0.624-0.335,1.224-0.528,1.8-0.576c0.576-0.047,1.152-0.023,1.728,0.072
		c0.576,0.097,1.127,0.192,1.656,0.288c0.384,0.097,0.744,0.192,1.08,0.288c0.335,0.097,0.695,0.192,1.08,0.288
		c0.24,0.097,0.443,0.205,0.612,0.324c0.167,0.121,0.228,0.301,0.18,0.54c0,0.48-0.288,0.792-0.864,0.936
		c-0.576,0.144-1.033,0.265-1.368,0.36c-1.105,0.288-2.208,0.528-3.312,0.72c-1.105,0.192-2.208,0.409-3.312,0.648l-2.952,0.504
		c-0.097,2.353-0.192,4.705-0.288,7.056c-0.097,2.353-0.192,4.705-0.288,7.056c-0.048,0.24-0.072,0.492-0.072,0.756
		c0,0.263,0,0.515,0,0.756c0,0.144-0.024,0.312-0.07,0.504c-0.047,0.191-0.117,0.36-0.21,0.504s-0.198,0.227-0.315,0.252
		c-0.117,0.023-0.268-0.061-0.455-0.252c-0.327-0.385-0.538-0.828-0.631-1.332c-0.094-0.504-0.187-0.972-0.279-1.404
		c-0.187-1.152-0.304-2.304-0.351-3.456c-0.047-1.152-0.117-2.304-0.209-3.456c-0.048-0.912-0.084-1.812-0.108-2.7
		c-0.025-0.888-0.013-1.764,0.036-2.628v-1.224c-0.144,0-0.3,0.025-0.468,0.072c-0.169,0.048-0.324,0.072-0.468,0.072
		c-0.817,0.097-1.62,0.192-2.412,0.288c-0.792,0.097-1.597,0.144-2.412,0.144c-0.384,0-0.6-0.108-0.648-0.324
		c-0.047-0.216,0.048-0.443,0.288-0.684c0.336-0.288,0.732-0.468,1.188-0.54c0.456-0.072,0.875-0.155,1.26-0.252
		c1.199-0.191,2.472-0.527,3.816-1.008c0.14-3.215,0.351-6.503,0.632-9.864c0.234-2.592,0.479-5.195,0.737-7.812
		c0.257-2.616,0.643-5.22,1.158-7.812l0.281-1.08l-2.232,0.144c-0.673,0.048-1.321,0.097-1.944,0.144
		c-0.625,0.048-1.272,0.072-1.944,0.072c-0.336,0-0.732-0.023-1.188-0.072c-0.457-0.047-0.779-0.264-0.972-0.648
		c-0.144-0.24-0.144-0.443,0-0.612c0.144-0.167,0.324-0.324,0.54-0.468c0.216-0.144,0.456-0.252,0.72-0.324
		C187.542,96.269,187.747,96.209,187.891,96.161z"/>
	<path id="XMLID_209_" class="st0" d="M213.738,134.465c0.096-0.24,0.252-0.479,0.468-0.72c0.216-0.24,0.468-0.384,0.756-0.432
		c0.288-0.047,0.479,0.12,0.576,0.504c0,0.241-0.061,0.504-0.18,0.792c-0.121,0.288-0.252,0.552-0.396,0.792l-0.864,1.728
		c-0.385,0.673-0.792,1.308-1.224,1.908c-0.432,0.601-0.984,1.141-1.656,1.62c-0.625,0.432-1.272,0.564-1.944,0.396
		c-0.673-0.168-1.232-0.564-1.68-1.188c-0.448-0.671-0.771-1.404-0.969-2.196c-0.199-0.792-0.349-1.572-0.448-2.34
		c-0.097-0.864-0.18-1.716-0.252-2.556c-0.072-0.839-0.108-1.692-0.108-2.556c0-1.44,0.048-2.88,0.144-4.32
		c0.095-1.44,0.216-2.855,0.36-4.248c0.049-0.335,0.099-0.636,0.148-0.9c0.049-0.263,0.272-0.372,0.669-0.324
		c0.248,0.048,0.653,0.156,1.217,0.324c0.562,0.168,0.868,0.396,0.917,0.684c0.095,0.241,0.108,0.493,0.036,0.756
		c-0.072,0.264-0.108,0.516-0.108,0.756l-0.216,2.016c-0.097,0.912-0.18,1.8-0.252,2.664c-0.072,0.864-0.133,1.728-0.18,2.592
		c-0.097,0.913-0.18,1.812-0.252,2.7c-0.072,0.889-0.084,1.789-0.036,2.7c0,0.432,0.024,0.864,0.072,1.296
		c0.047,0.432,0.144,0.864,0.288,1.296c0.096,0.241,0.204,0.516,0.324,0.828c0.119,0.312,0.348,0.516,0.684,0.612
		c0.288,0.097,0.576,0.048,0.864-0.144c0.288-0.191,0.551-0.419,0.792-0.684c0.24-0.263,0.456-0.551,0.648-0.864
		c0.191-0.312,0.36-0.564,0.504-0.756C212.921,136.385,213.354,135.473,213.738,134.465z M209.418,109.697
		c0.768,0,1.308,0.313,1.62,0.936c0.312,0.625,0.396,1.272,0.252,1.944c-0.192,0.673-0.564,1.272-1.116,1.8
		c-0.553,0.529-1.188,0.792-1.908,0.792c-0.817,0-1.38-0.312-1.692-0.936c-0.313-0.623-0.373-1.271-0.18-1.944
		c0.144-0.672,0.504-1.271,1.08-1.8C208.05,109.961,208.698,109.697,209.418,109.697z"/>
	<path id="XMLID_212_" class="st0" d="M226.049,138.137c0.383-0.432,0.767-0.875,1.152-1.332c0.384-0.456,0.792-0.875,1.224-1.26
		c0.047-0.047,0.155-0.144,0.324-0.288c0.168-0.144,0.299-0.144,0.396,0c0.047,0.097,0.024,0.252-0.072,0.468
		c-0.097,0.216-0.192,0.372-0.288,0.468c-0.241,0.385-0.48,0.756-0.72,1.116c-0.241,0.36-0.48,0.708-0.72,1.044
		c-0.241,0.336-0.54,0.72-0.9,1.152c-0.36,0.432-0.745,0.828-1.152,1.188c-0.408,0.36-0.84,0.648-1.296,0.864
		c-0.457,0.216-0.925,0.252-1.404,0.108c-0.529-0.097-0.925-0.396-1.188-0.9c-0.265-0.504-0.444-0.996-0.54-1.476
		c-0.288-1.199-0.432-2.423-0.432-3.672c-0.097-1.728-0.061-3.443,0.108-5.148c0.168-1.703,0.348-3.42,0.54-5.148
		c0.096-0.864,0.167-1.739,0.216-2.628c0.047-0.888,0-1.764-0.144-2.628c-0.048-0.576-0.241-0.624-0.576-0.144
		c-0.44,0.576-0.83,1.272-1.171,2.088c-0.684,1.393-1.282,2.833-1.794,4.32c-0.513,1.488-0.964,3-1.354,4.536
		c-0.047,1.393-0.105,2.785-0.175,4.176c-0.069,1.393-0.195,2.784-0.38,4.176c0,0.144-0.024,0.385-0.07,0.72
		c-0.046,0.336-0.116,0.671-0.208,1.008c-0.092,0.335-0.22,0.6-0.381,0.792c-0.162,0.191-0.381,0.167-0.658-0.072
		c-0.288-0.241-0.432-0.601-0.432-1.08c0-0.479,0.023-0.888,0.072-1.224c0.047-0.432,0.096-0.864,0.144-1.296
		c0.047-0.432,0.12-0.839,0.216-1.224c0-0.24,0.023-0.432,0.072-0.576c-0.048-0.239-0.072-0.623-0.072-1.152
		c-0.048-1.104-0.097-2.22-0.144-3.348c-0.048-1.127-0.121-2.243-0.216-3.348c-0.095-0.96-0.18-1.944-0.252-2.952
		c-0.072-1.008-0.131-1.991-0.18-2.952c-0.047-0.383-0.06-0.779-0.036-1.188c0.025-0.407,0.133-0.779,0.324-1.116
		c0.095-0.191,0.204-0.348,0.324-0.468c0.119-0.119,0.276-0.131,0.468-0.036c0.274,0.192,0.525,0.432,0.753,0.72
		c0.366,0.48,0.572,1.057,0.618,1.728c0.045,0.673,0.069,1.272,0.069,1.8c0.047,0.673,0.083,1.345,0.108,2.016
		c0.023,0.673,0.036,1.345,0.036,2.016c0.144-0.72,0.312-1.343,0.504-1.872c0.243-0.864,0.485-1.703,0.728-2.52
		c0.243-0.815,0.535-1.631,0.875-2.448c0.193-0.576,0.497-1.26,0.91-2.052c0.412-0.792,1.007-1.211,1.784-1.26
		c0.437-0.047,0.777,0.061,1.021,0.324c0.243,0.265,0.424,0.576,0.545,0.936s0.206,0.745,0.255,1.152
		c0.048,0.408,0.073,0.756,0.073,1.044c0.096,0.912,0.132,1.8,0.108,2.664c-0.025,0.864-0.036,1.753-0.036,2.664
		c-0.048,1.632-0.12,3.265-0.216,4.896c-0.097,1.632-0.169,3.265-0.216,4.896c-0.097,0.72-0.097,1.417,0,2.088
		c0,0.241,0.011,0.552,0.036,0.936c0.024,0.384,0.132,0.648,0.324,0.792c0.096,0.095,0.24,0.119,0.432,0.072
		c0.191-0.047,0.396-0.144,0.612-0.288s0.407-0.288,0.576-0.432c0.167-0.144,0.299-0.263,0.396-0.36
		C225.304,138.929,225.665,138.569,226.049,138.137z"/>
	<path id="XMLID_214_" class="st0" d="M240.881,139.865c0.24-0.096,0.443-0.167,0.612-0.216c0.167-0.047,0.371-0.144,0.612-0.288
		c0.24-0.191,0.456-0.384,0.648-0.576c0.191-0.191,0.384-0.407,0.576-0.648l1.008-1.296c0.096-0.096,0.191-0.216,0.288-0.36
		c0.096-0.144,0.216-0.24,0.36-0.288c0.096,0,0.144,0.084,0.144,0.252c0,0.169-0.025,0.36-0.072,0.576
		c-0.048,0.216-0.108,0.432-0.18,0.648c-0.072,0.216-0.108,0.349-0.108,0.396c-0.241,0.432-0.48,0.864-0.72,1.296
		c-0.241,0.432-0.552,0.817-0.936,1.152c-0.385,0.335-0.84,0.612-1.368,0.828c-0.529,0.216-1.033,0.204-1.512-0.036
		c-0.48-0.241-0.828-0.612-1.044-1.116s-0.373-0.996-0.468-1.476c-0.241-1.104-0.384-2.232-0.432-3.384
		c-0.048-1.152-0.072-2.279-0.072-3.384c-0.048-0.911-0.061-1.824-0.036-2.736c0.023-0.911,0.036-1.847,0.036-2.808
		c-0.288,1.008-0.576,2.005-0.864,2.988c-0.288,0.984-0.601,1.957-0.936,2.916c-0.288,0.817-0.588,1.656-0.9,2.52
		c-0.313,0.864-0.661,1.705-1.044,2.52c-0.336,0.673-0.709,1.393-1.116,2.16c-0.408,0.769-0.948,1.368-1.62,1.8
		c-0.432,0.24-0.889,0.348-1.368,0.324c-0.48-0.025-0.913-0.229-1.296-0.612c-0.528-0.529-0.84-1.212-0.936-2.052
		c-0.095-0.839-0.144-1.644-0.144-2.412c0-1.584,0.167-3.179,0.504-4.788c0.335-1.607,0.767-3.179,1.296-4.716
		c0.479-1.248,1.044-2.508,1.692-3.78c0.648-1.271,1.476-2.364,2.484-3.276c0.528-0.527,1.14-0.947,1.836-1.26
		c0.695-0.312,1.404-0.371,2.124-0.18c0.096,0.048,0.216,0.084,0.36,0.108c0.144,0.025,0.263,0.084,0.36,0.18
		c0.096-1.104,0.191-2.184,0.288-3.24c0.096-1.056,0.191-2.135,0.288-3.24c0.239-1.775,0.468-3.539,0.684-5.292
		c0.216-1.751,0.468-3.516,0.756-5.292c0.144-0.864,0.288-1.739,0.432-2.628c0.144-0.888,0.335-1.739,0.576-2.556
		c0.096-0.335,0.252-0.731,0.468-1.188c0.216-0.456,0.54-0.659,0.972-0.612c0.096,0.048,0.191,0.072,0.288,0.072
		c0.047,0,0.083,0.013,0.108,0.036c0.024,0.025,0.06,0.036,0.108,0.036h0.144c0,0.048,0.072,0.12,0.216,0.216
		c0.144,0.097,0.24,0.192,0.288,0.288c0.144,0.241,0.216,0.48,0.216,0.72c0.096,0.817,0.072,1.633-0.072,2.448
		c-0.144,0.817-0.265,1.632-0.36,2.448c-0.288,1.776-0.612,3.541-0.972,5.292c-0.36,1.753-0.732,3.517-1.116,5.292
		c-0.097,0.528-0.205,1.068-0.324,1.62c-0.12,0.553-0.252,1.092-0.396,1.62c-0.144,1.344-0.288,2.664-0.432,3.96
		s-0.265,2.617-0.36,3.96c-0.144,1.632-0.264,3.265-0.36,4.896c-0.097,1.632-0.168,3.265-0.216,4.896
		c0,1.393,0.072,2.808,0.216,4.248c0.047,0.336,0.096,0.673,0.144,1.008c0.047,0.336,0.119,0.673,0.216,1.008
		c0.096,0.385,0.191,0.648,0.288,0.792c0,0.048,0.024,0.097,0.072,0.144C240.809,139.841,240.833,139.865,240.881,139.865z
		 M236.417,127.553c0.767-2.543,1.415-5.015,1.944-7.416c-0.432-0.047-0.816,0.025-1.152,0.216
		c-0.288,0.192-0.552,0.385-0.792,0.576c-0.241,0.192-0.48,0.409-0.72,0.648c-0.529,0.625-0.984,1.285-1.368,1.98
		c-0.385,0.697-0.745,1.38-1.08,2.052c-0.72,1.537-1.357,3.108-1.908,4.716c-0.552,1.609-0.997,3.252-1.332,4.932
		c-0.097,0.432-0.168,0.864-0.216,1.296c-0.048,0.432-0.072,0.889-0.072,1.368c0,0.336,0.012,0.696,0.036,1.08
		c0.024,0.385,0.155,0.696,0.396,0.936c0.24,0.288,0.504,0.349,0.792,0.18c0.288-0.167,0.564-0.419,0.828-0.756
		c0.263-0.335,0.492-0.695,0.684-1.08c0.191-0.383,0.335-0.648,0.432-0.792c0.815-1.536,1.487-3.156,2.016-4.86
		C235.433,130.926,235.937,129.233,236.417,127.553z"/>
	<path id="XMLID_217_" class="st0" d="M271.912,137.489c0.096-0.096,0.252-0.288,0.468-0.576c0.216-0.288,0.396-0.384,0.54-0.288
		c0.144,0.097,0.168,0.288,0.072,0.576c-0.097,0.288-0.169,0.48-0.216,0.576c-0.48,1.152-1.152,2.185-2.016,3.096
		c-0.48,0.527-1.069,0.936-1.764,1.224c-0.696,0.288-1.38,0.24-2.052-0.144c-0.673-0.384-1.177-0.948-1.512-1.692
		c-0.336-0.744-0.576-1.451-0.72-2.124c-0.241-0.864-0.385-1.728-0.432-2.592c-0.048,0.048-0.072,0.097-0.072,0.144
		c-0.576,1.104-1.212,2.232-1.908,3.384c-0.696,1.152-1.548,2.088-2.556,2.808c-0.432,0.288-0.889,0.468-1.368,0.54
		c-0.48,0.072-0.936-0.061-1.368-0.396c-0.48-0.336-0.805-0.781-0.972-1.332c-0.169-0.551-0.277-1.091-0.324-1.62
		c-0.191-1.68-0.119-3.395,0.216-5.148c0.335-1.751,0.767-3.42,1.296-5.004c0.528-1.487,1.163-2.976,1.908-4.464
		c0.744-1.487,1.739-2.76,2.988-3.816c0.528-0.479,1.14-0.852,1.836-1.116c0.695-0.263,1.404-0.348,2.124-0.252
		c0.288,0.048,0.576,0.12,0.864,0.216c0.288,0.097,0.551,0.265,0.792,0.504c0.144,0.192,0.263,0.385,0.36,0.576
		c0,0.097-0.072,0.156-0.216,0.18c-0.144,0.024-0.265,0.036-0.36,0.036c-0.673,0.048-1.272,0.121-1.8,0.216
		c-0.529,0.097-1.057,0.336-1.584,0.72c-0.625,0.48-1.165,1.021-1.62,1.62c-0.457,0.601-0.876,1.236-1.26,1.908
		c-0.817,1.393-1.537,2.869-2.16,4.428c-0.625,1.561-1.128,3.132-1.512,4.716c-0.192,0.816-0.349,1.668-0.468,2.556
		c-0.121,0.889-0.133,1.741-0.036,2.556c0.047,0.288,0.132,0.612,0.252,0.972c0.119,0.36,0.372,0.587,0.756,0.684
		c0.288,0.096,0.576,0.024,0.864-0.216c0.288-0.241,0.551-0.48,0.792-0.72c0.576-0.624,1.08-1.296,1.512-2.016
		c0.432-0.72,0.839-1.464,1.224-2.232c0.335-0.624,0.648-1.271,0.936-1.944c0.288-0.671,0.576-1.343,0.864-2.016
		c0.047-0.72,0.108-1.44,0.18-2.16c0.072-0.72,0.18-1.416,0.324-2.088c0.096-0.768,0.24-1.572,0.432-2.412
		c0.191-0.839,0.479-1.595,0.864-2.268c0.24-0.432,0.624-0.695,1.152-0.792c0.096,0,0.191,0.012,0.288,0.036
		c0.096,0.024,0.168,0.036,0.216,0.036c0.527,0.192,0.815,0.529,0.864,1.008c0.047,0.48,0.023,0.936-0.072,1.368
		c-0.097,0.624-0.241,1.236-0.432,1.836c-0.192,0.601-0.408,1.212-0.648,1.836l-0.432,1.008c-0.144,1.296-0.216,2.568-0.216,3.816
		c-0.048,1.008-0.097,2.028-0.144,3.06c-0.048,1.033,0.047,2.028,0.288,2.988c0.095,0.288,0.216,0.624,0.36,1.008
		s0.407,0.6,0.792,0.648c0.432,0.047,0.828-0.084,1.188-0.396s0.659-0.612,0.9-0.9L271.912,137.489z"/>
	<path id="XMLID_219_" class="st0" d="M301.646,140.513c0.383-0.192,0.744-0.371,1.08-0.54c0.335-0.167,0.695-0.371,1.08-0.612
		c0.288-0.191,0.587-0.396,0.9-0.612c0.312-0.216,0.635-0.372,0.972-0.468c0.288-0.096,0.432-0.072,0.432,0.072
		s-0.048,0.312-0.144,0.504c-0.241,0.48-0.601,0.96-1.08,1.44c-0.912,1.008-2.041,1.788-3.384,2.34
		c-1.345,0.551-2.689,0.468-4.032-0.252c-1.296-0.72-2.316-1.752-3.06-3.096c-0.745-1.343-1.308-2.688-1.692-4.032
		c-0.432-1.536-0.756-3.071-0.972-4.608c-0.216-1.536-0.372-3.071-0.468-4.608c0-0.24,0-0.479,0-0.72c0-0.24,0.096-0.479,0.288-0.72
		c0.096-0.096,0.216-0.155,0.36-0.18c0.144-0.023,0.288-0.083,0.432-0.18l0.504-0.36c1.296-1.055,2.351-2.207,3.168-3.456
		c0.959-1.392,1.716-2.891,2.268-4.5c0.551-1.607,0.996-3.251,1.332-4.932c0.335-1.728,0.551-3.479,0.648-5.256
		c0.096-1.775-0.048-3.503-0.432-5.184c-0.385-1.631-1.056-3.024-2.016-4.176c-0.96-1.152-2.256-1.919-3.888-2.304
		c-1.584-0.383-3.113-0.288-4.587,0.288c-1.474,0.576-2.693,1.512-3.659,2.808c-0.918,1.249-1.535,2.653-1.849,4.212
		c-0.315,1.561-0.399,3.108-0.253,4.644c0.047,0.673,0.131,1.332,0.253,1.98c0.121,0.648,0.278,1.309,0.471,1.98
		c0.047,0.144,0.132,0.349,0.253,0.612c0.122,0.265,0.229,0.553,0.326,0.864c0.097,0.312,0.133,0.588,0.109,0.828
		c-0.024,0.241-0.157,0.385-0.398,0.432c-0.243,0.097-0.496,0.072-0.762-0.072s-0.52-0.288-0.762-0.432
		c-0.289-0.24-0.506-0.492-0.652-0.756c-0.144-0.263-0.289-0.563-0.434-0.9c-0.725-1.44-1.16-3-1.305-4.68
		c-0.096-1.68,0.074-3.3,0.507-4.86c0.436-1.56,1.185-2.988,2.248-4.284c1.062-1.248,2.307-2.243,3.733-2.988
		c1.425-0.744,2.935-1.164,4.528-1.26c1.536-0.096,3.024,0.084,4.464,0.54c1.44,0.457,2.711,1.236,3.816,2.34
		c1.248,1.249,2.16,2.677,2.736,4.284c0.576,1.609,0.888,3.276,0.936,5.004c0.047,1.728-0.12,3.456-0.504,5.184
		c-0.385,1.728-0.889,3.337-1.512,4.824c-0.673,1.537-1.476,3-2.412,4.392c-0.936,1.393-1.98,2.689-3.132,3.888
		c-0.385,0.432-0.792,0.828-1.224,1.188s-0.889,0.732-1.368,1.116c-0.048,0.048-0.168,0.12-0.36,0.216
		c-0.097,0.048-0.216,0.097-0.36,0.144c-0.049,0.192-0.036,0.421,0.036,0.684c0.072,0.264,0.132,0.468,0.18,0.612
		c0.623,3.168,1.607,6.312,2.952,9.432c0.288,0.673,0.623,1.344,1.008,2.016c0.384,0.672,0.864,1.272,1.44,1.8
		c0.528,0.432,1.055,0.659,1.584,0.684C300.518,140.86,301.07,140.752,301.646,140.513z M285.734,127.697
		c0.049-3.744,0.16-7.452,0.332-11.124c0.171-3.672,0.502-7.332,0.994-10.98c0.098-0.864,0.221-1.728,0.369-2.592
		c0.147-0.864,0.295-1.728,0.442-2.592c0.098-0.527,0.196-1.067,0.295-1.62c0.098-0.551,0.319-1.068,0.664-1.548
		c0.191-0.239,0.348-0.371,0.468-0.396c0.119-0.023,0.216,0.036,0.288,0.18c0.072,0.144,0.119,0.312,0.144,0.504
		c0.023,0.192,0.036,0.385,0.036,0.576c0,1.056-0.024,2.1-0.072,3.132c-0.048,1.033-0.072,2.077-0.072,3.132
		c-0.097,3.744-0.18,7.5-0.252,11.268c-0.072,3.769-0.156,7.524-0.252,11.268l-0.368,16.92c0,0.144-0.012,0.348-0.037,0.612
		c-0.025,0.263-0.073,0.515-0.147,0.756c-0.074,0.24-0.172,0.407-0.293,0.504c-0.123,0.096-0.283,0.047-0.479-0.144
		c-0.393-0.336-0.638-0.756-0.735-1.26c-0.099-0.504-0.197-0.972-0.295-1.404c-0.098-0.528-0.171-1.044-0.221-1.548
		c-0.049-0.504-0.098-1.021-0.146-1.548C285.955,135.761,285.734,131.729,285.734,127.697z"/>
	<path id="XMLID_222_" class="st0" d="M312.589,138.281c0.047-0.047,0.167-0.18,0.36-0.396c0.191-0.216,0.407-0.443,0.648-0.684
		c0.24-0.239,0.456-0.432,0.648-0.576c0.191-0.144,0.312-0.168,0.36-0.072c0.096,0.385-0.013,0.84-0.324,1.368
		c-0.312,0.529-0.564,0.936-0.756,1.224c-0.72,0.864-1.573,1.512-2.556,1.944c-0.984,0.432-2.028,0.384-3.132-0.144
		c-1.105-0.529-1.957-1.355-2.556-2.484c-0.601-1.127-1.044-2.243-1.332-3.348c-0.623-2.543-0.744-5.087-0.36-7.632
		c0.241-1.775,0.696-3.384,1.368-4.824c0.335-0.623,0.767-1.224,1.296-1.8c0.528-0.576,1.152-0.959,1.872-1.152
		c0.815-0.24,1.487-0.096,2.016,0.432c0.527,0.529,0.839,1.152,0.936,1.872c0.144,0.817,0.18,1.656,0.108,2.52
		c-0.072,0.864-0.18,1.705-0.324,2.52c-0.241,1.584-0.637,3.145-1.188,4.68c-0.552,1.537-1.213,3.024-1.98,4.464
		c-0.097,0.192-0.216,0.421-0.36,0.684c-0.144,0.264-0.313,0.444-0.504,0.54c-0.048,0.048-0.097,0.072-0.144,0.072
		c0.239,0.576,0.587,1.105,1.044,1.584c0.456,0.48,0.996,0.769,1.62,0.864c0.671,0.097,1.283-0.036,1.836-0.396
		C311.737,139.181,312.205,138.761,312.589,138.281z M305.965,127.193c-0.241,1.393-0.385,2.844-0.432,4.356
		c-0.048,1.512,0.12,2.964,0.504,4.356l0.36-0.648l0.936-2.088c0.671-1.536,1.26-3.12,1.764-4.752
		c0.504-1.631,0.708-3.288,0.612-4.968c0-0.288-0.036-0.659-0.108-1.116c-0.072-0.456-0.252-0.756-0.54-0.9
		c-0.241-0.096-0.48,0.012-0.72,0.324c-0.241,0.313-0.408,0.517-0.504,0.612c-0.529,0.72-0.925,1.501-1.188,2.34
		C306.385,125.549,306.157,126.377,305.965,127.193z"/>
	<path id="XMLID_225_" class="st0" d="M315.468,140.945c-0.385-0.576-0.529-1.224-0.432-1.944c0-0.144,0.096-0.407,0.288-0.792
		c0.191-0.384,0.407-0.479,0.648-0.288c0.191,0.144,0.312,0.396,0.36,0.756c0.047,0.36,0.096,0.637,0.144,0.828
		c0.239,0.576,0.504,1.008,0.792,1.296c0.432,0.432,0.996,0.672,1.692,0.72c0.695,0.047,1.307-0.121,1.836-0.504
		c0.623-0.48,0.996-1.104,1.116-1.872c0.119-0.768,0.131-1.487,0.036-2.16c-0.097-0.815-0.336-1.584-0.72-2.304
		c-0.385-0.72-0.84-1.392-1.368-2.016l-1.584-1.872c-1.105,2.352-2.401,4.68-3.888,6.984c-0.097,0.097-0.264,0.324-0.504,0.684
		c-0.241,0.36-0.457,0.372-0.648,0.036c-0.24-0.432-0.227-0.852,0.036-1.26c0.263-0.407,0.515-0.803,0.756-1.188
		c0.672-0.959,1.296-1.98,1.872-3.06s1.104-2.171,1.584-3.276c-0.097-0.191-0.205-0.384-0.324-0.576
		c-0.12-0.191-0.228-0.407-0.324-0.648c-0.385-0.815-0.661-1.62-0.828-2.412c-0.168-0.792-0.156-1.595,0.036-2.412
		c0.096-0.576,0.275-1.14,0.54-1.692c0.263-0.551,0.636-0.996,1.116-1.332c0.624-0.288,1.224-0.276,1.8,0.036
		c0.576,0.313,0.911,0.805,1.008,1.476c0.096,1.008,0.024,2.028-0.216,3.06c-0.241,1.033-0.552,2.052-0.936,3.06
		c0.288,0.529,0.587,1.056,0.9,1.584c0.312,0.529,0.659,1.056,1.044,1.584c0.432,0.673,0.839,1.404,1.224,2.196
		c0.384,0.792,0.659,1.597,0.828,2.412c0.167,0.817,0.204,1.645,0.108,2.484c-0.097,0.84-0.36,1.645-0.792,2.412
		c-0.385,0.672-0.9,1.163-1.548,1.476c-0.648,0.312-1.321,0.468-2.016,0.468c-0.696,0-1.368-0.168-2.016-0.504
		C316.44,142.048,315.9,141.568,315.468,140.945z M317.988,123.665c0.047,0.529,0.132,1.033,0.252,1.512
		c0.12,0.48,0.276,0.961,0.468,1.44c0.335-1.055,0.551-2.135,0.648-3.24c0-0.24-0.036-0.587-0.108-1.044
		c-0.072-0.456-0.301-0.636-0.684-0.54c-0.336,0.097-0.529,0.372-0.576,0.828C317.94,123.078,317.94,123.425,317.988,123.665z"/>
	<path id="XMLID_228_" class="st0" d="M323.316,115.673c1.296-0.623,2.736-1.08,4.32-1.368l0.72-3.096l0.792-2.664
		c0.191-0.432,0.468-0.576,0.828-0.432c0.36,0.144,0.636,0.385,0.828,0.72c0.096,0.241,0.132,0.468,0.108,0.684
		c-0.024,0.216-0.061,0.444-0.108,0.684l-0.216,1.656c-0.097,0.336-0.157,0.673-0.18,1.008c-0.025,0.336-0.061,0.673-0.108,1.008
		l1.224-0.144l3.312-0.432c0.864-0.096,1.607-0.072,2.232,0.072c0.383,0.097,0.792,0.216,1.224,0.36
		c0.432,0.144,0.743,0.408,0.936,0.792c0.144,0.385,0.072,0.72-0.216,1.008s-0.552,0.504-0.792,0.648
		c-0.912,0.576-1.896,0.997-2.952,1.26c-1.056,0.264-2.088,0.516-3.096,0.756c-0.385,0.097-0.792,0.192-1.224,0.288
		c-0.432,0.097-0.864,0.192-1.296,0.288c-0.192,1.344-0.373,2.688-0.54,4.032c-0.169,1.344-0.324,2.689-0.468,4.032
		c-0.192,1.728-0.349,3.492-0.468,5.292c-0.121,1.8-0.061,3.589,0.18,5.364c0.047,0.288,0.095,0.637,0.144,1.044
		c0.047,0.409,0.144,0.792,0.288,1.152c0.144,0.36,0.335,0.671,0.576,0.936c0.24,0.263,0.551,0.396,0.936,0.396
		c0.671-0.049,1.224-0.396,1.656-1.044c0.432-0.648,0.768-1.235,1.008-1.764c0-0.047,0.083-0.204,0.252-0.468
		c0.167-0.263,0.348-0.515,0.54-0.756c0.191-0.24,0.383-0.407,0.576-0.504c0.191-0.096,0.36-0.047,0.504,0.144
		c0.239,0.385,0.227,0.828-0.036,1.332c-0.265,0.504-0.468,0.9-0.612,1.188c-0.288,0.529-0.601,1.033-0.936,1.512
		c-0.336,0.479-0.769,0.888-1.296,1.224c-0.528,0.384-1.141,0.6-1.836,0.648c-0.696,0.047-1.285-0.192-1.764-0.72
		c-0.625-0.529-1.057-1.224-1.296-2.088c-0.241-0.864-0.408-1.68-0.504-2.448c-0.288-1.728-0.432-3.503-0.432-5.328
		c-0.095-1.824-0.095-3.624,0-5.4c0.096-1.775,0.24-3.575,0.432-5.4c0.047-0.384,0.083-0.744,0.108-1.08
		c0.024-0.335,0.083-0.695,0.18-1.08c-0.288,0-0.48-0.023-0.576-0.072c-0.527-0.096-1.08-0.252-1.656-0.468s-1.08-0.515-1.512-0.9
		c-0.383-0.335-0.551-0.672-0.504-1.008C322.645,116.202,322.884,115.914,323.316,115.673z"/>
	<path id="XMLID_230_" class="st0" d="M350.099,137.489c0.096-0.096,0.252-0.288,0.468-0.576c0.216-0.288,0.396-0.384,0.54-0.288
		c0.144,0.097,0.168,0.288,0.072,0.576c-0.097,0.288-0.169,0.48-0.216,0.576c-0.48,1.152-1.152,2.185-2.016,3.096
		c-0.48,0.527-1.069,0.936-1.764,1.224c-0.696,0.288-1.38,0.24-2.052-0.144c-0.673-0.384-1.177-0.948-1.512-1.692
		c-0.336-0.744-0.576-1.451-0.72-2.124c-0.241-0.864-0.385-1.728-0.432-2.592c-0.048,0.048-0.072,0.097-0.072,0.144
		c-0.576,1.104-1.212,2.232-1.908,3.384c-0.696,1.152-1.548,2.088-2.556,2.808c-0.432,0.288-0.889,0.468-1.368,0.54
		c-0.48,0.072-0.936-0.061-1.368-0.396c-0.48-0.336-0.805-0.781-0.972-1.332c-0.169-0.551-0.277-1.091-0.324-1.62
		c-0.191-1.68-0.119-3.395,0.216-5.148c0.335-1.751,0.767-3.42,1.296-5.004c0.528-1.487,1.163-2.976,1.908-4.464
		c0.744-1.487,1.739-2.76,2.988-3.816c0.528-0.479,1.14-0.852,1.836-1.116c0.695-0.263,1.404-0.348,2.124-0.252
		c0.288,0.048,0.576,0.12,0.864,0.216c0.288,0.097,0.551,0.265,0.792,0.504c0.144,0.192,0.263,0.385,0.36,0.576
		c0,0.097-0.072,0.156-0.216,0.18c-0.144,0.024-0.265,0.036-0.36,0.036c-0.673,0.048-1.272,0.121-1.8,0.216
		c-0.529,0.097-1.057,0.336-1.584,0.72c-0.625,0.48-1.165,1.021-1.62,1.62c-0.457,0.601-0.876,1.236-1.26,1.908
		c-0.817,1.393-1.537,2.869-2.16,4.428c-0.625,1.561-1.128,3.132-1.512,4.716c-0.192,0.816-0.349,1.668-0.468,2.556
		c-0.121,0.889-0.133,1.741-0.036,2.556c0.047,0.288,0.132,0.612,0.252,0.972c0.119,0.36,0.372,0.587,0.756,0.684
		c0.288,0.096,0.576,0.024,0.864-0.216c0.288-0.241,0.551-0.48,0.792-0.72c0.576-0.624,1.08-1.296,1.512-2.016
		c0.432-0.72,0.839-1.464,1.224-2.232c0.335-0.624,0.648-1.271,0.936-1.944c0.288-0.671,0.576-1.343,0.864-2.016
		c0.047-0.72,0.108-1.44,0.18-2.16c0.072-0.72,0.18-1.416,0.324-2.088c0.096-0.768,0.24-1.572,0.432-2.412
		c0.191-0.839,0.479-1.595,0.864-2.268c0.24-0.432,0.624-0.695,1.152-0.792c0.096,0,0.191,0.012,0.288,0.036
		c0.096,0.024,0.168,0.036,0.216,0.036c0.527,0.192,0.815,0.529,0.864,1.008c0.047,0.48,0.023,0.936-0.072,1.368
		c-0.097,0.624-0.241,1.236-0.432,1.836c-0.192,0.601-0.408,1.212-0.648,1.836l-0.432,1.008c-0.144,1.296-0.216,2.568-0.216,3.816
		c-0.048,1.008-0.097,2.028-0.144,3.06c-0.048,1.033,0.047,2.028,0.288,2.988c0.095,0.288,0.216,0.624,0.36,1.008
		s0.407,0.6,0.792,0.648c0.432,0.047,0.828-0.084,1.188-0.396s0.659-0.612,0.9-0.9L350.099,137.489z"/>
	<path id="XMLID_232_" class="st0" d="M362.41,137.921c0.288,0,0.551-0.083,0.792-0.252c0.24-0.167,0.479-0.324,0.72-0.468
		c0.191-0.144,0.396-0.312,0.612-0.504c0.216-0.191,0.443-0.263,0.684-0.216c0.24,0,0.299,0.144,0.18,0.432
		c-0.121,0.288-0.229,0.48-0.324,0.576c-0.241,0.385-0.624,0.745-1.152,1.08c-0.432,0.288-0.889,0.457-1.368,0.504
		c-0.48,0.048-0.936-0.096-1.368-0.432c-0.432-0.335-0.769-0.756-1.008-1.26c-0.241-0.504-0.457-1.019-0.648-1.548
		c-0.097-0.288-0.18-0.587-0.252-0.9c-0.072-0.312-0.156-0.612-0.252-0.9c-0.097,0.817-0.216,1.645-0.36,2.484
		c-0.144,0.84-0.336,1.668-0.576,2.484c-0.241,0.673-0.54,1.368-0.9,2.088s-0.9,1.199-1.62,1.44
		c-0.817,0.288-1.548,0.191-2.196-0.288c-0.648-0.48-1.165-1.056-1.548-1.728c-0.432-0.767-0.768-1.571-1.008-2.412
		c-0.241-0.839-0.432-1.667-0.576-2.484c-0.335-1.584-0.515-3.191-0.54-4.824c-0.023-1.631,0.084-3.24,0.324-4.824
		c0.096-0.671,0.227-1.332,0.396-1.98c0.167-0.648,0.371-1.307,0.612-1.98c0.144-0.479,0.312-0.983,0.504-1.512
		c0.191-0.528,0.456-0.983,0.792-1.368c0.239-0.288,0.432-0.335,0.576-0.144c0.144,0.192,0.263,0.408,0.36,0.648
		c0.095,0.288,0.144,0.565,0.144,0.828c0,0.264-0.024,0.54-0.072,0.828c-0.097,0.576-0.169,1.141-0.216,1.692
		c-0.048,0.552-0.097,1.116-0.144,1.692c-0.144,1.632-0.252,3.252-0.324,4.86c-0.072,1.609-0.061,3.229,0.036,4.86
		c0.047,0.864,0.108,1.74,0.18,2.628c0.072,0.889,0.252,1.74,0.54,2.556c0.144,0.336,0.312,0.661,0.504,0.972
		c0.191,0.312,0.479,0.515,0.864,0.612c0.384,0.047,0.695-0.061,0.936-0.324c0.24-0.265,0.432-0.517,0.576-0.756
		c0.432-0.768,0.756-1.584,0.972-2.448c0.216-0.864,0.396-1.728,0.54-2.592c0.144-0.864,0.263-1.739,0.36-2.628
		c0.095-0.888,0.144-1.788,0.144-2.7c0.047-0.911,0.072-1.811,0.072-2.7c0-0.887,0.096-1.788,0.288-2.7
		c0.047-0.191,0.119-0.492,0.216-0.9c0.096-0.407,0.24-0.803,0.432-1.188c0.191-0.384,0.407-0.684,0.648-0.9
		c0.24-0.216,0.528-0.252,0.864-0.108c0.288,0.144,0.443,0.349,0.468,0.612c0.023,0.264,0.011,0.54-0.036,0.828l-0.144,2.376
		c0,1.728-0.072,3.409-0.216,5.04c-0.048,0.817-0.084,1.62-0.108,2.412c-0.025,0.792,0.011,1.596,0.108,2.412
		c0.047,0.48,0.155,1.08,0.324,1.8C361.39,137.417,361.786,137.825,362.41,137.921z"/>
	<path id="XMLID_234_" class="st0" d="M372.706,127.121c-0.048,0.048-0.025,0.061,0.072,0.036c0.096-0.023,0.216-0.06,0.36-0.108
		c0.144-0.047,0.275-0.108,0.396-0.18c0.119-0.072,0.204-0.108,0.252-0.108c0.383-0.096,0.563,0,0.54,0.288
		c-0.025,0.288-0.108,0.529-0.252,0.72c-0.192,0.241-0.385,0.48-0.576,0.72c-0.192,0.241-0.432,0.409-0.72,0.504
		c-0.385,0.144-0.708,0.157-0.972,0.036c-0.265-0.119-0.48-0.324-0.648-0.612c-0.169-0.288-0.301-0.612-0.396-0.972
		c-0.097-0.36-0.169-0.684-0.216-0.972c-0.144-0.815-0.228-1.644-0.252-2.484c-0.025-0.839-0.061-1.692-0.108-2.556
		c0-0.191,0.011-0.408,0.036-0.648c0.023-0.239-0.013-0.479-0.108-0.72c-0.097-0.191-0.241-0.108-0.432,0.252
		c-0.192,0.36-0.313,0.565-0.36,0.612c-0.672,1.393-1.224,2.844-1.656,4.356c-0.432,1.512-0.792,3.037-1.08,4.572
		c0.096,0.576,0.155,1.152,0.18,1.728c0.023,0.576,0.06,1.152,0.108,1.728c0.047,0.816,0.06,1.656,0.036,2.52
		c-0.025,0.864-0.084,1.728-0.18,2.592c-0.097,0.864-0.241,1.728-0.432,2.592c-0.097,0.288-0.228,0.576-0.396,0.864
		c-0.168,0.288-0.42,0.456-0.756,0.504c-0.432,0.047-0.696-0.3-0.792-1.044c-0.096-0.745-0.108-1.607-0.036-2.592
		c0.072-0.983,0.18-1.932,0.324-2.844c0.144-0.911,0.24-1.487,0.288-1.728c0-0.191,0.023-0.36,0.072-0.504
		c-0.048-0.528-0.097-1.08-0.144-1.656c-0.048-0.576-0.12-1.176-0.216-1.8c-0.097-0.623-0.18-1.248-0.252-1.872
		c-0.072-0.623-0.204-1.271-0.396-1.944c-0.144-0.432-0.024-0.744,0.36-0.936c0.24-0.144,0.504-0.155,0.792-0.036
		c0.288,0.121,0.479,0.301,0.576,0.54c0.191,0.385,0.312,0.696,0.36,0.936l0.792-3.384c0.24-0.816,0.479-1.608,0.72-2.376
		c0.239-0.768,0.551-1.512,0.936-2.232c0.335-0.672,0.888-1.127,1.656-1.368c0.384-0.096,0.731-0.036,1.044,0.18
		c0.312,0.216,0.563,0.468,0.756,0.756c0.432,0.673,0.684,1.417,0.756,2.232c0.072,0.817,0.108,1.609,0.108,2.376
		c0,0.385-0.025,0.792-0.072,1.224c-0.048,0.432-0.072,0.84-0.072,1.224c-0.048,0.241-0.084,0.516-0.108,0.828
		C372.573,126.678,372.609,126.93,372.706,127.121z"/>
	<path id="XMLID_236_" class="st0" d="M390.777,137.489c0.096-0.096,0.252-0.288,0.468-0.576c0.216-0.288,0.396-0.384,0.54-0.288
		c0.144,0.097,0.168,0.288,0.072,0.576c-0.097,0.288-0.169,0.48-0.216,0.576c-0.48,1.152-1.152,2.185-2.016,3.096
		c-0.48,0.527-1.069,0.936-1.764,1.224c-0.696,0.288-1.38,0.24-2.052-0.144c-0.673-0.384-1.177-0.948-1.512-1.692
		c-0.336-0.744-0.576-1.451-0.72-2.124c-0.241-0.864-0.385-1.728-0.432-2.592c-0.048,0.048-0.072,0.097-0.072,0.144
		c-0.576,1.104-1.212,2.232-1.908,3.384c-0.696,1.152-1.548,2.088-2.556,2.808c-0.432,0.288-0.889,0.468-1.368,0.54
		c-0.48,0.072-0.936-0.061-1.368-0.396c-0.48-0.336-0.805-0.781-0.972-1.332c-0.169-0.551-0.277-1.091-0.324-1.62
		c-0.191-1.68-0.119-3.395,0.216-5.148c0.335-1.751,0.767-3.42,1.296-5.004c0.528-1.487,1.163-2.976,1.908-4.464
		c0.744-1.487,1.739-2.76,2.988-3.816c0.528-0.479,1.14-0.852,1.836-1.116c0.695-0.263,1.404-0.348,2.124-0.252
		c0.288,0.048,0.576,0.12,0.864,0.216c0.288,0.097,0.551,0.265,0.792,0.504c0.144,0.192,0.263,0.385,0.36,0.576
		c0,0.097-0.072,0.156-0.216,0.18c-0.144,0.024-0.265,0.036-0.36,0.036c-0.673,0.048-1.272,0.121-1.8,0.216
		c-0.529,0.097-1.057,0.336-1.584,0.72c-0.625,0.48-1.165,1.021-1.62,1.62c-0.457,0.601-0.876,1.236-1.26,1.908
		c-0.817,1.393-1.537,2.869-2.16,4.428c-0.625,1.561-1.128,3.132-1.512,4.716c-0.192,0.816-0.349,1.668-0.468,2.556
		c-0.121,0.889-0.133,1.741-0.036,2.556c0.047,0.288,0.132,0.612,0.252,0.972c0.119,0.36,0.372,0.587,0.756,0.684
		c0.288,0.096,0.576,0.024,0.864-0.216c0.288-0.241,0.551-0.48,0.792-0.72c0.576-0.624,1.08-1.296,1.512-2.016
		c0.432-0.72,0.839-1.464,1.224-2.232c0.335-0.624,0.648-1.271,0.936-1.944c0.288-0.671,0.576-1.343,0.864-2.016
		c0.047-0.72,0.108-1.44,0.18-2.16c0.072-0.72,0.18-1.416,0.324-2.088c0.096-0.768,0.24-1.572,0.432-2.412
		c0.191-0.839,0.479-1.595,0.864-2.268c0.24-0.432,0.624-0.695,1.152-0.792c0.096,0,0.191,0.012,0.288,0.036
		c0.096,0.024,0.168,0.036,0.216,0.036c0.527,0.192,0.815,0.529,0.864,1.008c0.047,0.48,0.023,0.936-0.072,1.368
		c-0.097,0.624-0.241,1.236-0.432,1.836c-0.192,0.601-0.408,1.212-0.648,1.836l-0.432,1.008c-0.144,1.296-0.216,2.568-0.216,3.816
		c-0.048,1.008-0.097,2.028-0.144,3.06c-0.048,1.033,0.047,2.028,0.288,2.988c0.095,0.288,0.216,0.624,0.36,1.008
		s0.407,0.6,0.792,0.648c0.432,0.047,0.828-0.084,1.188-0.396s0.659-0.612,0.9-0.9L390.777,137.489z"/>
	<path id="XMLID_238_" class="st0" d="M402.801,138.137c0.384-0.432,0.768-0.875,1.152-1.332c0.384-0.456,0.792-0.875,1.224-1.26
		c0.047-0.047,0.155-0.144,0.324-0.288c0.168-0.144,0.299-0.144,0.396,0c0.048,0.097,0.024,0.252-0.071,0.468
		c-0.097,0.216-0.192,0.372-0.288,0.468c-0.241,0.385-0.48,0.756-0.721,1.116c-0.24,0.36-0.479,0.708-0.72,1.044
		c-0.24,0.336-0.54,0.72-0.899,1.152c-0.36,0.432-0.745,0.828-1.152,1.188c-0.408,0.36-0.841,0.648-1.296,0.864
		c-0.457,0.216-0.925,0.252-1.404,0.108c-0.529-0.097-0.925-0.396-1.188-0.9c-0.265-0.504-0.444-0.996-0.54-1.476
		c-0.288-1.199-0.432-2.423-0.432-3.672c-0.097-1.728-0.061-3.443,0.108-5.148c0.168-1.703,0.348-3.42,0.54-5.148
		c0.096-0.864,0.167-1.739,0.216-2.628c0.047-0.888,0-1.764-0.144-2.628c-0.048-0.576-0.241-0.624-0.576-0.144
		c-0.44,0.576-0.83,1.272-1.171,2.088c-0.684,1.393-1.282,2.833-1.794,4.32c-0.513,1.488-0.964,3-1.354,4.536
		c-0.047,1.393-0.105,2.785-0.175,4.176c-0.069,1.393-0.195,2.784-0.38,4.176c0,0.144-0.024,0.385-0.07,0.72
		c-0.046,0.336-0.116,0.671-0.208,1.008c-0.092,0.335-0.22,0.6-0.381,0.792c-0.162,0.191-0.381,0.167-0.658-0.072
		c-0.288-0.241-0.432-0.601-0.432-1.08c0-0.479,0.023-0.888,0.072-1.224c0.047-0.432,0.096-0.864,0.144-1.296
		c0.047-0.432,0.12-0.839,0.216-1.224c0-0.24,0.023-0.432,0.072-0.576c-0.048-0.239-0.072-0.623-0.072-1.152
		c-0.048-1.104-0.097-2.22-0.144-3.348c-0.048-1.127-0.121-2.243-0.216-3.348c-0.095-0.96-0.18-1.944-0.252-2.952
		c-0.072-1.008-0.131-1.991-0.18-2.952c-0.047-0.383-0.06-0.779-0.036-1.188c0.025-0.407,0.133-0.779,0.324-1.116
		c0.095-0.191,0.204-0.348,0.324-0.468c0.119-0.119,0.276-0.131,0.468-0.036c0.274,0.192,0.525,0.432,0.753,0.72
		c0.366,0.48,0.572,1.057,0.618,1.728c0.045,0.673,0.069,1.272,0.069,1.8c0.047,0.673,0.083,1.345,0.108,2.016
		c0.023,0.673,0.036,1.345,0.036,2.016c0.144-0.72,0.312-1.343,0.504-1.872c0.243-0.864,0.485-1.703,0.728-2.52
		c0.243-0.815,0.535-1.631,0.875-2.448c0.193-0.576,0.497-1.26,0.91-2.052c0.412-0.792,1.007-1.211,1.784-1.26
		c0.437-0.047,0.777,0.061,1.021,0.324c0.243,0.265,0.424,0.576,0.545,0.936s0.206,0.745,0.255,1.152
		c0.048,0.408,0.073,0.756,0.073,1.044c0.096,0.912,0.132,1.8,0.108,2.664c-0.025,0.864-0.036,1.753-0.036,2.664
		c-0.048,1.632-0.12,3.265-0.216,4.896c-0.097,1.632-0.169,3.265-0.216,4.896c-0.097,0.72-0.097,1.417,0,2.088
		c0,0.241,0.011,0.552,0.036,0.936c0.024,0.384,0.132,0.648,0.324,0.792c0.096,0.095,0.24,0.119,0.432,0.072
		c0.191-0.047,0.396-0.144,0.612-0.288s0.408-0.288,0.577-0.432c0.167-0.144,0.299-0.263,0.396-0.36
		C402.056,138.929,402.416,138.569,402.801,138.137z"/>
	<path id="XMLID_240_" class="st0" d="M402.081,115.673c1.296-0.623,2.735-1.08,4.319-1.368l0.721-3.096l0.792-2.664
		c0.19-0.432,0.468-0.576,0.827-0.432c0.36,0.144,0.636,0.385,0.829,0.72c0.096,0.241,0.131,0.468,0.107,0.684
		c-0.024,0.216-0.061,0.444-0.107,0.684l-0.217,1.656c-0.096,0.336-0.156,0.673-0.18,1.008c-0.025,0.336-0.061,0.673-0.108,1.008
		l1.224-0.144l3.312-0.432c0.865-0.096,1.607-0.072,2.232,0.072c0.383,0.097,0.791,0.216,1.225,0.36
		c0.432,0.144,0.742,0.408,0.936,0.792c0.145,0.385,0.072,0.72-0.217,1.008c-0.287,0.288-0.553,0.504-0.791,0.648
		c-0.912,0.576-1.896,0.997-2.953,1.26c-1.057,0.264-2.088,0.516-3.096,0.756c-0.385,0.097-0.791,0.192-1.224,0.288
		c-0.433,0.097-0.864,0.192-1.296,0.288c-0.192,1.344-0.373,2.688-0.54,4.032c-0.169,1.344-0.324,2.689-0.469,4.032
		c-0.192,1.728-0.349,3.492-0.468,5.292c-0.12,1.8-0.061,3.589,0.181,5.364c0.047,0.288,0.095,0.637,0.144,1.044
		c0.047,0.409,0.144,0.792,0.288,1.152c0.144,0.36,0.335,0.671,0.576,0.936c0.239,0.263,0.551,0.396,0.936,0.396
		c0.672-0.049,1.224-0.396,1.657-1.044c0.432-0.648,0.766-1.235,1.008-1.764c0-0.047,0.082-0.204,0.252-0.468
		c0.168-0.263,0.348-0.515,0.539-0.756c0.191-0.24,0.385-0.407,0.576-0.504c0.191-0.096,0.359-0.047,0.504,0.144
		c0.24,0.385,0.229,0.828-0.035,1.332c-0.266,0.504-0.469,0.9-0.613,1.188c-0.287,0.529-0.6,1.033-0.936,1.512
		c-0.336,0.479-0.768,0.888-1.295,1.224c-0.529,0.384-1.142,0.6-1.837,0.648c-0.696,0.047-1.285-0.192-1.764-0.72
		c-0.625-0.529-1.057-1.224-1.297-2.088c-0.24-0.864-0.408-1.68-0.504-2.448c-0.288-1.728-0.432-3.503-0.432-5.328
		c-0.096-1.824-0.096-3.624,0-5.4c0.096-1.775,0.239-3.575,0.432-5.4c0.048-0.384,0.084-0.744,0.108-1.08
		c0.023-0.335,0.083-0.695,0.18-1.08c-0.288,0-0.48-0.023-0.576-0.072c-0.527-0.096-1.079-0.252-1.655-0.468s-1.08-0.515-1.513-0.9
		c-0.383-0.335-0.551-0.672-0.504-1.008C401.409,116.202,401.648,115.914,402.081,115.673z"/>
</g>
</svg>
