<?xml version="1.0" encoding="iso-8859-1"?>
<!-- Generator: Adobe Illustrator 19.0.0, SVG Export Plug-In . SVG Version: 6.00 Build 0)  -->
<svg version="1.1" id="Layer_1" xmlns="http://www.w3.org/2000/svg" xmlns:xlink="http://www.w3.org/1999/xlink" x="0px" y="0px"
	 width="595.28px" height="841.89px" viewBox="0 0 595.28 841.89" style="enable-background:new 0 0 595.28 841.89;"
	 xml:space="preserve">
<style type="text/css">
	.st0{fill:#414A73;}
</style>
<g id="XMLID_8_">
	<path id="XMLID_87_" class="st0" d="M241.048,99.558c-0.383,0.864-0.671,1.908-0.864,3.133c-0.191,1.224-0.228,2.447-0.108,3.672
		c0.12,1.224,0.372,2.4,0.756,3.527c0.384,1.129,0.959,2.053,1.728,2.772c0.288-2.16,0.756-4.284,1.404-6.372
		s1.595-4.043,2.844-5.868c0.432-0.623,0.923-1.235,1.476-1.836c0.551-0.6,1.152-1.104,1.8-1.512
		c0.648-0.407,1.343-0.695,2.088-0.864c0.744-0.168,1.523-0.131,2.34,0.107c0.767,0.241,1.404,0.613,1.908,1.117
		s0.9,1.092,1.188,1.764s0.456,1.393,0.505,2.16c0.048,0.768,0.048,1.512-0.001,2.231c0.495,1.152,0.868,2.329,1.116,3.528
		c0.248,1.2,0.471,2.424,0.669,3.672c0.248,1.584,0.396,3.168,0.445,4.752c0.048,1.584,0.048,3.168,0.001,4.752
		c0,1.729-0.087,3.456-0.261,5.184c-0.173,1.729-0.385,3.434-0.632,5.112c-0.248,1.776-0.593,3.553-1.035,5.328
		c-0.443,1.776-1,3.505-1.671,5.185c-0.241,0.576-0.517,1.176-0.828,1.799c-0.313,0.624-0.684,1.213-1.116,1.765
		c-0.432,0.552-0.925,1.019-1.476,1.403c-0.553,0.385-1.165,0.624-1.836,0.721c-0.864,0.145-1.645,0.047-2.34-0.288
		c-0.696-0.337-1.321-0.804-1.872-1.403c-0.552-0.602-1.021-1.285-1.404-2.053c-0.385-0.768-0.696-1.487-0.936-2.16
		c-0.673-1.631-1.188-3.299-1.548-5.004c-0.36-1.703-0.661-3.42-0.9-5.148c-0.241-1.822-0.396-3.623-0.468-5.399
		c-0.072-1.775-0.084-3.575-0.036-5.399c0-1.393,0.072-2.855,0.216-4.393c-1.152-0.623-2.076-1.512-2.772-2.664
		c-0.695-1.152-1.2-2.399-1.512-3.744c-0.312-1.343-0.443-2.736-0.396-4.176c0.048-1.439,0.264-2.76,0.648-3.96
		c0.432-1.247,1.105-2.483,2.016-3.708s2.088-1.955,3.528-2.195c0.144-0.048,0.384-0.084,0.72-0.109
		c0.335-0.023,0.551,0.062,0.648,0.252c0.047,0.049,0.011,0.133-0.108,0.253c-0.121,0.12-0.277,0.228-0.468,0.323
		c-0.192,0.098-0.36,0.193-0.504,0.289s-0.241,0.168-0.288,0.215c-0.529,0.433-1.033,0.926-1.512,1.477
		C241.72,98.347,241.336,98.935,241.048,99.558z M257.896,122.67c0-2.304-0.084-4.632-0.252-6.983
		c-0.169-2.352-0.517-4.681-1.044-6.984c-0.72,1.537-1.656,2.88-2.808,4.031c-1.056,1.057-2.304,1.957-3.744,2.701
		s-2.928,1.092-4.464,1.043c-0.241,2.592-0.385,5.209-0.432,7.849c-0.048,2.64,0.047,5.256,0.288,7.848
		c0.144,1.681,0.348,3.409,0.612,5.185c0.264,1.775,0.756,3.455,1.476,5.039c0.335,0.674,0.744,1.32,1.224,1.944
		c0.479,0.624,1.127,0.96,1.944,1.009c0.72,0.096,1.368-0.108,1.944-0.613c0.576-0.504,1.055-1.043,1.44-1.619
		c0.911-1.487,1.595-3.096,2.052-4.824c0.456-1.729,0.803-3.432,1.044-5.111c0.24-1.729,0.42-3.468,0.54-5.221
		C257.836,126.21,257.896,124.447,257.896,122.67z M245.873,114.031c0.24,0,0.468,0,0.684,0c0.216,0,0.443-0.023,0.684-0.072
		c1.584-0.288,3.024-0.924,4.32-1.908c1.296-0.982,2.376-2.147,3.24-3.492c0.191-0.335,0.384-0.684,0.576-1.043
		c0.191-0.361,0.36-0.757,0.504-1.188l-0.936-3.312c-0.097-0.336-0.205-0.66-0.324-0.973c-0.121-0.312-0.252-0.636-0.396-0.973
		c-0.097-0.19-0.205-0.371-0.324-0.539c-0.12-0.168-0.229-0.371-0.324-0.612c-0.097-0.335,0.023-0.491,0.36-0.468
		c0.335,0.024,0.6,0.084,0.792,0.18c0.24,0.097,0.479,0.229,0.72,0.396c0.24,0.168,0.456,0.349,0.648,0.539l0.72,0.865
		c-0.048-0.768-0.264-1.513-0.648-2.232c-0.385-0.672-0.925-1.152-1.62-1.44c-0.696-0.288-1.404-0.312-2.124-0.071
		c-0.672,0.191-1.249,0.539-1.728,1.043c-0.48,0.504-0.889,1.045-1.224,1.621c-0.864,1.488-1.489,3.084-1.872,4.787
		c-0.385,1.705-0.745,3.373-1.08,5.004L245.873,114.031z"/>
	<path id="XMLID_91_" class="st0" d="M276.039,141.103c0.288,0,0.551-0.084,0.792-0.252c0.24-0.168,0.479-0.324,0.72-0.469
		c0.191-0.145,0.396-0.312,0.612-0.504c0.216-0.191,0.443-0.264,0.684-0.216c0.24,0,0.299,0.144,0.18,0.433
		c-0.121,0.287-0.229,0.479-0.324,0.575c-0.241,0.385-0.624,0.745-1.152,1.08c-0.432,0.288-0.889,0.456-1.368,0.504
		c-0.48,0.048-0.936-0.096-1.368-0.432c-0.432-0.335-0.769-0.757-1.008-1.261c-0.241-0.504-0.457-1.019-0.648-1.547
		c-0.097-0.289-0.18-0.588-0.252-0.9c-0.072-0.312-0.156-0.612-0.252-0.9c-0.097,0.816-0.216,1.645-0.36,2.484
		s-0.336,1.668-0.576,2.484c-0.241,0.672-0.54,1.367-0.9,2.088c-0.36,0.72-0.9,1.199-1.62,1.439
		c-0.817,0.288-1.548,0.191-2.196-0.288s-1.165-1.056-1.548-1.728c-0.432-0.768-0.768-1.572-1.008-2.412
		c-0.241-0.84-0.432-1.668-0.576-2.484c-0.335-1.584-0.515-3.191-0.54-4.824c-0.023-1.631,0.084-3.24,0.324-4.824
		c0.096-0.671,0.227-1.332,0.396-1.979c0.167-0.647,0.371-1.308,0.612-1.979c0.144-0.479,0.312-0.984,0.504-1.512
		c0.191-0.528,0.456-0.984,0.792-1.369c0.239-0.287,0.432-0.335,0.576-0.144c0.144,0.192,0.263,0.408,0.36,0.647
		c0.095,0.289,0.144,0.565,0.144,0.828c0,0.265-0.024,0.541-0.072,0.828c-0.097,0.576-0.169,1.141-0.216,1.692
		c-0.048,0.552-0.097,1.116-0.144,1.692c-0.144,1.632-0.252,3.252-0.324,4.859c-0.072,1.609-0.061,3.229,0.036,4.86
		c0.047,0.864,0.108,1.74,0.18,2.628c0.072,0.889,0.252,1.74,0.54,2.556c0.144,0.337,0.312,0.661,0.504,0.972
		c0.191,0.312,0.479,0.516,0.864,0.612c0.384,0.048,0.695-0.061,0.936-0.323c0.24-0.266,0.432-0.518,0.576-0.756
		c0.432-0.768,0.756-1.584,0.972-2.449c0.216-0.863,0.396-1.728,0.54-2.592c0.144-0.863,0.263-1.738,0.36-2.627
		c0.095-0.889,0.144-1.788,0.144-2.701c0.047-0.91,0.072-1.811,0.072-2.699c0-0.888,0.096-1.788,0.288-2.7
		c0.047-0.191,0.119-0.491,0.216-0.899c0.096-0.408,0.24-0.804,0.432-1.188c0.191-0.384,0.407-0.685,0.648-0.9
		c0.24-0.216,0.528-0.252,0.864-0.108c0.288,0.145,0.443,0.35,0.468,0.613c0.023,0.264,0.011,0.539-0.036,0.827l-0.144,2.376
		c0,1.729-0.072,3.408-0.216,5.04c-0.048,0.817-0.084,1.62-0.108,2.412c-0.025,0.792,0.011,1.597,0.108,2.412
		c0.047,0.48,0.155,1.08,0.324,1.8C275.019,140.599,275.415,141.007,276.039,141.103z"/>
	<path id="XMLID_93_" class="st0" d="M286.334,130.302c-0.048,0.049-0.025,0.061,0.072,0.036c0.096-0.023,0.216-0.06,0.36-0.108
		c0.144-0.047,0.275-0.107,0.396-0.18c0.119-0.072,0.204-0.107,0.252-0.107c0.383-0.096,0.563,0,0.54,0.287
		c-0.025,0.289-0.108,0.529-0.252,0.721c-0.192,0.24-0.385,0.48-0.576,0.72c-0.192,0.241-0.432,0.409-0.72,0.504
		c-0.385,0.144-0.708,0.157-0.972,0.036c-0.265-0.119-0.48-0.324-0.648-0.611c-0.169-0.289-0.301-0.613-0.396-0.973
		c-0.097-0.359-0.169-0.684-0.216-0.973c-0.144-0.814-0.228-1.643-0.252-2.483c-0.025-0.839-0.061-1.692-0.108-2.556
		c0-0.191,0.011-0.408,0.036-0.648c0.023-0.239-0.013-0.479-0.108-0.72c-0.097-0.191-0.241-0.108-0.432,0.252
		c-0.192,0.36-0.313,0.565-0.36,0.612c-0.672,1.393-1.224,2.844-1.656,4.355s-0.792,3.037-1.08,4.572
		c0.096,0.576,0.155,1.152,0.18,1.729c0.023,0.575,0.06,1.151,0.108,1.728c0.047,0.816,0.06,1.655,0.036,2.521
		c-0.025,0.863-0.084,1.728-0.18,2.592c-0.097,0.863-0.241,1.728-0.432,2.592c-0.097,0.287-0.228,0.576-0.396,0.863
		c-0.168,0.289-0.42,0.456-0.756,0.504c-0.432,0.048-0.696-0.3-0.792-1.043c-0.096-0.745-0.108-1.607-0.036-2.592
		c0.072-0.984,0.18-1.932,0.324-2.845c0.144-0.911,0.24-1.487,0.288-1.728c0-0.191,0.023-0.36,0.072-0.504
		c-0.048-0.528-0.097-1.08-0.144-1.656c-0.048-0.576-0.12-1.176-0.216-1.801c-0.097-0.623-0.18-1.247-0.252-1.871
		c-0.072-0.623-0.204-1.271-0.396-1.944c-0.144-0.433-0.024-0.743,0.36-0.937c0.24-0.144,0.504-0.154,0.792-0.035
		c0.288,0.12,0.479,0.301,0.576,0.539c0.191,0.385,0.312,0.697,0.36,0.937l0.792-3.384c0.24-0.816,0.479-1.607,0.72-2.376
		c0.239-0.768,0.551-1.513,0.936-2.231c0.335-0.672,0.888-1.128,1.656-1.369c0.384-0.096,0.731-0.035,1.044,0.181
		c0.312,0.216,0.563,0.468,0.756,0.756c0.432,0.673,0.684,1.417,0.756,2.231c0.072,0.817,0.108,1.609,0.108,2.377
		c0,0.385-0.025,0.791-0.072,1.224c-0.048,0.433-0.072,0.841-0.072,1.224c-0.048,0.241-0.084,0.517-0.108,0.828
		C286.202,129.859,286.238,130.111,286.334,130.302z"/>
	<path id="XMLID_95_" class="st0" d="M310.381,144.991c0.959-0.288,1.872-0.745,2.736-1.368c0.335-0.288,0.636-0.576,0.9-0.864
		c0.263-0.288,0.54-0.575,0.828-0.864c0.047-0.096,0.167-0.239,0.36-0.432c0.191-0.191,0.335-0.191,0.432,0
		c0.096,0.24,0.06,0.517-0.108,0.828c-0.169,0.312-0.3,0.564-0.396,0.756c-0.192,0.288-0.385,0.564-0.576,0.828
		c-0.192,0.264-0.408,0.516-0.648,0.756c-1.104,1.055-2.388,1.716-3.852,1.98c-1.465,0.263-2.844-0.013-4.14-0.828
		c-1.44-0.864-2.592-2.064-3.456-3.6c-0.864-1.536-1.512-3.072-1.944-4.608c-0.529-1.632-0.828-3.336-0.9-5.112
		c-0.072-1.775,0.132-3.503,0.612-5.184c0.288-1.104,0.768-2.196,1.44-3.276c0.671-1.08,1.512-1.955,2.52-2.628
		c-0.241-0.336-0.504-0.768-0.792-1.296c-0.864-1.44-1.501-3.012-1.908-4.716c-0.408-1.703-0.612-3.396-0.612-5.076
		c0.047-1.775,0.216-3.516,0.504-5.221c0.288-1.703,0.839-3.348,1.656-4.932c0.335-0.672,0.756-1.355,1.26-2.052
		c0.504-0.695,1.055-1.332,1.656-1.908c0.6-0.575,1.26-1.044,1.98-1.403c0.72-0.36,1.512-0.541,2.376-0.541
		c0.816,0,1.548,0.229,2.196,0.685s1.199,1.021,1.656,1.692c0.456,0.672,0.816,1.393,1.08,2.16c0.263,0.768,0.468,1.512,0.612,2.231
		c0.096,0.385,0.155,0.732,0.18,1.044c0.023,0.312,0.06,0.66,0.108,1.044c0.24-0.096,0.456-0.216,0.648-0.36
		c0.191-0.144,0.407-0.263,0.648-0.359c0.384-0.145,0.9-0.336,1.548-0.576s1.188-0.264,1.62-0.072
		c0.191,0.098,0.204,0.205,0.036,0.324c-0.168,0.121-0.3,0.205-0.396,0.252c-0.336,0.24-0.673,0.432-1.008,0.576
		c-0.336,0.145-0.696,0.288-1.08,0.432c-0.769,0.385-1.44,0.769-2.016,1.152c0,1.152-0.072,2.316-0.216,3.492
		s-0.336,2.316-0.576,3.42c-0.241,0.816-0.48,1.633-0.72,2.447c-0.241,0.817-0.576,1.584-1.008,2.305
		c-0.192,0.288-0.42,0.576-0.684,0.863c-0.264,0.289-0.552,0.518-0.864,0.685c-0.313,0.169-0.637,0.241-0.972,0.216
		c-0.336-0.023-0.672-0.18-1.008-0.468c-0.576-0.528-0.864-1.188-0.864-1.979c0-0.793,0.047-1.523,0.144-2.197
		c0.288-1.535,0.839-3.047,1.656-4.535c0.767-1.439,1.703-2.711,2.808-3.816v-0.216c-0.048-0.911-0.108-1.812-0.18-2.7
		c-0.072-0.887-0.229-1.764-0.468-2.628c-0.144-0.671-0.373-1.392-0.684-2.159c-0.313-0.768-0.853-1.271-1.62-1.513
		c-0.72-0.239-1.417-0.167-2.088,0.216c-0.673,0.385-1.249,0.841-1.728,1.368c-0.529,0.624-0.961,1.296-1.296,2.017
		c-0.336,0.72-0.625,1.488-0.864,2.304c-0.432,1.44-0.684,2.905-0.756,4.392c-0.072,1.488-0.133,3-0.18,4.536
		c-0.048,1.104-0.025,2.196,0.072,3.276c0.095,1.08,0.239,2.172,0.432,3.275c0.096,0.576,0.24,1.178,0.432,1.801
		c0.191,0.624,0.456,1.199,0.792,1.728c0.096,0,0.167-0.023,0.216-0.071c0.624-0.24,1.212-0.336,1.764-0.289
		c0.551,0.049,1.116,0.145,1.692,0.289c0.384,0.143,0.72,0.323,1.008,0.539c0.288,0.217,0.479,0.517,0.576,0.9
		c0.191,0.672-0.048,1.271-0.72,1.8c-0.576,0.385-1.224,0.517-1.944,0.396c-0.72-0.119-1.345-0.371-1.872-0.756
		c-0.288-0.144-0.553-0.335-0.792-0.576l-0.144,0.145c-1.152,1.2-1.884,2.7-2.196,4.5c-0.312,1.8-0.444,3.517-0.396,5.148
		c0,1.584,0.132,3.216,0.396,4.896c0.263,1.681,0.803,3.216,1.62,4.608c0.576,1.057,1.332,1.871,2.268,2.447
		S309.181,145.279,310.381,144.991z M308.941,121.806c-0.864-0.144-1.561-0.096-2.088,0.145c0.144,0.097,0.299,0.205,0.468,0.324
		c0.167,0.12,0.348,0.229,0.54,0.324c0.24,0.144,0.551,0.228,0.936,0.252c0.383,0.024,0.695-0.084,0.936-0.324
		c0.191-0.191,0.144-0.348-0.144-0.469C309.301,121.939,309.085,121.855,308.941,121.806z M313.693,110.142
		c0.047-0.576,0.083-1.162,0.108-1.764c0.023-0.6,0.036-1.188,0.036-1.764c-0.385,0.48-0.745,0.984-1.08,1.512
		c-0.336,0.529-0.648,1.08-0.936,1.656c-0.385,0.768-0.696,1.572-0.936,2.412c-0.241,0.84-0.385,1.668-0.432,2.484
		c0,0.287,0.036,0.647,0.108,1.079c0.072,0.433,0.299,0.696,0.684,0.792c0.335,0.098,0.612-0.047,0.828-0.432
		c0.216-0.384,0.371-0.695,0.468-0.936c0.384-0.816,0.648-1.656,0.792-2.521C313.477,111.798,313.597,110.959,313.693,110.142z"/>
	<path id="XMLID_99_" class="st0" d="M324.06,123.462c0.191-0.335,0.504-0.695,0.936-1.08c0.432-0.383,0.839-0.551,1.224-0.504
		c0.191,0,0.275,0.229,0.252,0.684c-0.025,0.457-0.108,0.973-0.252,1.549s-0.288,1.141-0.432,1.691
		c-0.144,0.553-0.241,0.9-0.288,1.045c-0.385,1.536-0.72,3.096-1.008,4.68s-0.601,3.145-0.936,4.68
		c-0.192,0.863-0.385,1.717-0.576,2.557c-0.192,0.84-0.432,1.668-0.72,2.483c-0.241,0.624-0.553,1.213-0.936,1.765
		c-0.385,0.551-0.984,0.779-1.8,0.684c-0.768-0.145-1.38-0.527-1.836-1.152c-0.457-0.623-0.828-1.271-1.116-1.943
		c-0.288-0.768-0.54-1.549-0.756-2.341c-0.216-0.792-0.42-1.595-0.612-2.411c-0.335-1.536-0.563-3.156-0.684-4.861
		c-0.119-1.703,0.156-3.322,0.828-4.859c0.24-0.527,0.515-1.031,0.828-1.512c0.312-0.479,0.731-0.84,1.26-1.08
		c0.576-0.336,0.864-0.145,0.864,0.576c0,0.24-0.025,0.48-0.072,0.72c-0.048,0.241-0.12,0.48-0.216,0.72
		c-0.432,1.393-0.72,2.809-0.864,4.248s-0.241,2.881-0.288,4.32c0,0.816,0.024,1.668,0.072,2.556
		c0.047,0.89,0.191,1.741,0.432,2.556c0.096,0.289,0.216,0.612,0.36,0.973c0.144,0.359,0.324,0.709,0.54,1.044
		c0.216,0.337,0.456,0.612,0.72,0.828c0.264,0.216,0.587,0.3,0.972,0.252l-0.072,0.071l0.216-0.071c0-0.096,0.036-0.191,0.108-0.288
		c0.072-0.096,0.132-0.191,0.18-0.288c0.096-0.239,0.167-0.456,0.216-0.647c0.047-0.191,0.119-0.408,0.216-0.648
		c0.095-0.479,0.167-0.947,0.216-1.404c0.047-0.455,0.096-0.947,0.144-1.476c0.096-1.009,0.191-2.017,0.288-3.024
		c0.096-1.008,0.216-2.016,0.36-3.023c0.191-1.393,0.443-2.772,0.756-4.141C322.896,126.019,323.387,124.711,324.06,123.462z"/>
	<path id="XMLID_101_" class="st0" d="M335.94,141.462c0.047-0.047,0.167-0.18,0.36-0.396c0.191-0.215,0.407-0.443,0.648-0.684
		c0.24-0.239,0.456-0.432,0.648-0.576c0.191-0.144,0.312-0.168,0.36-0.072c0.096,0.385-0.013,0.841-0.324,1.369
		c-0.312,0.528-0.564,0.936-0.756,1.224c-0.72,0.864-1.573,1.512-2.556,1.944c-0.984,0.432-2.028,0.383-3.132-0.145
		c-1.105-0.529-1.957-1.355-2.556-2.484c-0.601-1.127-1.044-2.242-1.332-3.348c-0.623-2.543-0.744-5.088-0.36-7.632
		c0.241-1.775,0.696-3.384,1.368-4.824c0.335-0.623,0.767-1.224,1.296-1.8c0.528-0.576,1.152-0.959,1.872-1.152
		c0.815-0.239,1.487-0.096,2.016,0.432c0.527,0.529,0.839,1.152,0.936,1.873c0.144,0.816,0.18,1.656,0.108,2.52
		c-0.072,0.864-0.18,1.705-0.324,2.52c-0.241,1.584-0.637,3.145-1.188,4.681c-0.552,1.536-1.213,3.024-1.98,4.464
		c-0.097,0.192-0.216,0.421-0.36,0.684c-0.144,0.265-0.313,0.445-0.504,0.541c-0.048,0.048-0.097,0.071-0.144,0.071
		c0.239,0.576,0.587,1.104,1.044,1.584c0.456,0.48,0.996,0.769,1.62,0.864c0.671,0.097,1.283-0.036,1.836-0.396
		C335.087,142.363,335.555,141.943,335.94,141.462z M329.316,130.374c-0.241,1.393-0.385,2.844-0.432,4.355
		c-0.048,1.513,0.12,2.965,0.504,4.356l0.36-0.647l0.936-2.088c0.671-1.536,1.26-3.12,1.764-4.752
		c0.504-1.632,0.708-3.288,0.612-4.969c0-0.288-0.036-0.659-0.108-1.115c-0.072-0.456-0.252-0.757-0.54-0.9
		c-0.241-0.096-0.48,0.012-0.72,0.324c-0.241,0.312-0.408,0.516-0.504,0.611c-0.529,0.721-0.925,1.501-1.188,2.34
		C329.736,128.731,329.507,129.559,329.316,130.374z"/>
	<path id="XMLID_104_" class="st0" d="M348.827,141.318c0.383-0.432,0.767-0.875,1.152-1.332c0.384-0.455,0.792-0.875,1.224-1.26
		c0.047-0.047,0.155-0.144,0.324-0.287c0.168-0.145,0.299-0.145,0.396,0c0.047,0.096,0.024,0.252-0.072,0.468
		c-0.097,0.216-0.192,0.372-0.288,0.468c-0.241,0.385-0.48,0.756-0.72,1.116c-0.241,0.36-0.48,0.708-0.72,1.044
		c-0.241,0.336-0.54,0.72-0.9,1.152c-0.36,0.432-0.745,0.828-1.152,1.188c-0.408,0.359-0.84,0.648-1.296,0.863
		c-0.457,0.217-0.925,0.253-1.404,0.109c-0.529-0.098-0.925-0.396-1.188-0.9c-0.265-0.504-0.444-0.996-0.54-1.477
		c-0.288-1.199-0.432-2.423-0.432-3.672c-0.097-1.729-0.061-3.443,0.108-5.148c0.168-1.703,0.348-3.42,0.54-5.147
		c0.096-0.864,0.167-1.739,0.216-2.628c0.047-0.888,0-1.764-0.144-2.628c-0.048-0.576-0.241-0.624-0.576-0.144
		c-0.44,0.576-0.83,1.271-1.171,2.088c-0.684,1.393-1.282,2.832-1.794,4.32c-0.513,1.488-0.964,3-1.354,4.535
		c-0.047,1.393-0.105,2.785-0.175,4.176c-0.069,1.393-0.195,2.785-0.38,4.176c0,0.145-0.024,0.385-0.07,0.721
		c-0.046,0.336-0.116,0.672-0.208,1.008s-0.22,0.6-0.381,0.792c-0.162,0.191-0.381,0.167-0.658-0.071
		c-0.288-0.241-0.432-0.602-0.432-1.08c0-0.48,0.023-0.889,0.072-1.225c0.047-0.432,0.096-0.863,0.144-1.296
		c0.047-0.433,0.12-0.839,0.216-1.224c0-0.24,0.023-0.433,0.072-0.576c-0.048-0.24-0.072-0.623-0.072-1.152
		c-0.048-1.104-0.097-2.22-0.144-3.348c-0.048-1.127-0.121-2.244-0.216-3.348c-0.095-0.961-0.18-1.945-0.252-2.953
		c-0.072-1.008-0.131-1.99-0.18-2.951c-0.047-0.384-0.06-0.779-0.036-1.188c0.025-0.407,0.133-0.779,0.324-1.116
		c0.095-0.191,0.204-0.348,0.324-0.468c0.119-0.119,0.276-0.132,0.468-0.036c0.274,0.193,0.525,0.432,0.753,0.721
		c0.366,0.48,0.572,1.057,0.618,1.728c0.045,0.673,0.069,1.272,0.069,1.8c0.047,0.673,0.083,1.345,0.108,2.016
		c0.023,0.674,0.036,1.346,0.036,2.017c0.144-0.72,0.312-1.343,0.504-1.872c0.243-0.863,0.485-1.703,0.728-2.52
		c0.243-0.816,0.535-1.632,0.875-2.448c0.193-0.576,0.497-1.261,0.91-2.052c0.412-0.793,1.007-1.212,1.784-1.26
		c0.437-0.048,0.777,0.061,1.021,0.323c0.243,0.265,0.424,0.576,0.545,0.937c0.122,0.359,0.206,0.744,0.255,1.152
		c0.048,0.408,0.073,0.756,0.073,1.043c0.096,0.912,0.132,1.801,0.108,2.664c-0.025,0.864-0.036,1.753-0.036,2.664
		c-0.048,1.633-0.12,3.266-0.216,4.896c-0.097,1.632-0.169,3.265-0.216,4.896c-0.097,0.72-0.097,1.417,0,2.089
		c0,0.24,0.011,0.552,0.036,0.936c0.024,0.385,0.132,0.648,0.324,0.792c0.096,0.095,0.24,0.119,0.432,0.071
		c0.191-0.047,0.396-0.144,0.612-0.287c0.216-0.145,0.407-0.289,0.576-0.433c0.167-0.144,0.299-0.263,0.396-0.36
		C348.082,142.111,348.442,141.75,348.827,141.318z"/>
	<path id="XMLID_106_" class="st0" d="M348.107,118.855c1.296-0.623,2.736-1.08,4.32-1.369l0.72-3.096l0.792-2.664
		c0.191-0.432,0.468-0.576,0.828-0.432c0.36,0.145,0.636,0.385,0.828,0.721c0.096,0.24,0.132,0.467,0.108,0.684
		c-0.024,0.216-0.061,0.444-0.108,0.684l-0.216,1.656c-0.097,0.336-0.157,0.673-0.18,1.008c-0.025,0.336-0.061,0.673-0.108,1.008
		l1.224-0.144l3.312-0.433c0.864-0.096,1.607-0.071,2.232,0.072c0.383,0.098,0.792,0.217,1.224,0.36
		c0.432,0.144,0.743,0.408,0.936,0.792c0.144,0.385,0.072,0.72-0.216,1.008s-0.552,0.504-0.792,0.648
		c-0.912,0.576-1.896,0.996-2.952,1.26c-1.056,0.264-2.088,0.516-3.096,0.756c-0.385,0.097-0.792,0.192-1.224,0.288
		c-0.432,0.097-0.864,0.192-1.296,0.288c-0.192,1.344-0.373,2.688-0.54,4.031c-0.169,1.345-0.324,2.689-0.468,4.033
		c-0.192,1.728-0.349,3.491-0.468,5.291c-0.121,1.801-0.061,3.59,0.18,5.364c0.047,0.288,0.095,0.637,0.144,1.044
		c0.047,0.408,0.144,0.792,0.288,1.152c0.144,0.359,0.335,0.672,0.576,0.936c0.24,0.264,0.551,0.396,0.936,0.396
		c0.671-0.049,1.224-0.396,1.656-1.045c0.432-0.647,0.768-1.234,1.008-1.764c0-0.047,0.083-0.203,0.252-0.468
		c0.167-0.263,0.348-0.515,0.54-0.756c0.191-0.239,0.383-0.407,0.576-0.504c0.191-0.096,0.36-0.048,0.504,0.144
		c0.239,0.385,0.227,0.828-0.036,1.332c-0.265,0.504-0.468,0.9-0.612,1.188c-0.288,0.528-0.601,1.032-0.936,1.512
		c-0.336,0.479-0.769,0.888-1.296,1.224c-0.528,0.385-1.141,0.6-1.836,0.648c-0.696,0.047-1.285-0.192-1.764-0.72
		c-0.625-0.528-1.057-1.224-1.296-2.089c-0.241-0.863-0.408-1.68-0.504-2.447c-0.288-1.729-0.432-3.504-0.432-5.328
		c-0.095-1.824-0.095-3.623,0-5.4c0.096-1.775,0.24-3.574,0.432-5.399c0.047-0.384,0.083-0.743,0.108-1.08
		c0.024-0.335,0.083-0.695,0.18-1.08c-0.288,0-0.48-0.023-0.576-0.071c-0.527-0.096-1.08-0.253-1.656-0.469s-1.08-0.516-1.512-0.9
		c-0.383-0.335-0.551-0.672-0.504-1.008C347.435,119.383,347.675,119.095,348.107,118.855z"/>
</g>
</svg>
