<?xml version="1.0" encoding="UTF-8"?>
<svg width="190px" height="82px" viewBox="0 0 190 82" version="1.1" xmlns="http://www.w3.org/2000/svg" xmlns:xlink="http://www.w3.org/1999/xlink">
    <!-- Generator: Sketch 46.2 (44496) - http://www.bohemiancoding.com/sketch -->
    <title>our event</title>
    <desc>Created with Sketch.</desc>
    <defs></defs>
    <g id="Page-1" stroke="none" stroke-width="1" fill="none" fill-rule="evenodd" stroke-linecap="round" stroke-linejoin="round">
        <g id="Desktop" transform="translate(-45.000000, -876.000000)" stroke="#414972" stroke-width="3">
            <g id="our-event" transform="translate(47.000000, 878.000000)">
                <path d="M7.00195312,0.5 C2.00390625,6.38378239e-15 -5.58107634,26.5676553 7.00195312,30 C18,33 28,19.1183145 28,9.5 C28,-2.5 0,-3.5 7.00195312,51.5 C15.2135779,116.001911 43,46.5 24.5,9.5" id="Path-105"></path>
                <path d="M41,43.25 C37.1666667,64.4166667 38.25,75 44.25,75 C53.25,75 54.8038903,45.75 52.25,45.25 C49.6961097,44.75 50.0549723,78.849655 59.4980469,67.9980469 C64.5,62.25 57.75,52.5 59.4980469,51.5 C61.2460937,50.5 59.4980469,76 60.5,76 C61.5019531,76 60.0039062,42.5 68.0019531,40 C76,37.5 62,58.5019531 73,55" id="Path-106"></path>
                <path d="M122.75,10.75 C109.416016,18.25 104.499023,25.4166667 107.999023,32.25 C113.249023,42.5 121.248047,-0.501953125 107.999023,0.249023437 C94.75,1 89.75,43.25 105.499023,43.4990234 C112.999865,43.6176267 97.25,29.5 94.25,51.75 C90.4479833,79.9482909 112.998047,80.4980469 114.999023,70.7490234" id="Path-107"></path>
                <path d="M118.500977,44.5 C113.4375,47 114.25,70.5 121.5,72.25 C128.755221,74.0012601 120.5,57.25 130.75,42" id="Path-108"></path>
                <path d="M136.5,68 C144.832031,51.499349 146.081706,43.2490234 140.249023,43.2490234 C131.5,43.2490234 130.693977,87.176425 147.5,69.25 C151.25,65.25 149.095826,43.2490234 147.5,43.2490234 C145.904174,43.2490234 150.691651,71.2480469 149.095826,73.4990234 C147.5,75.75 151,41.5 157.5,40 C164,38.5 149.095826,93.25 168.499023,66.9990234 C171.647694,62.7391236 175.25,26.5 173.75,26 C172.25,25.5 162.5,98.25 181,68" id="Path-109"></path>
                <path d="M166.750977,39 L185.750977,34.5" id="Path-110"></path>
            </g>
        </g>
    </g>
</svg>