<?xml version="1.0" encoding="UTF-8"?>
<svg width="1216px" height="3046px" viewBox="0 0 1216 3046" version="1.1" xmlns="http://www.w3.org/2000/svg" xmlns:xlink="http://www.w3.org/1999/xlink">
    <!-- Generator: Sketch 46.2 (44496) - http://www.bohemiancoding.com/sketch -->
    <title>Group 4</title>
    <desc>Created with Sketch.</desc>
    <defs></defs>
    <g id="Page-1" stroke="none" stroke-width="1" fill="none" fill-rule="evenodd">
        <g id="1.-Home-page" transform="translate(-24.000000, -1064.000000)">
            <g id="Group-4" transform="translate(31.000000, 1071.000000)">
                <circle id="Oval-5" fill="#414972" cx="199.5" cy="2665.5" r="8.5"></circle>
                <circle id="Oval-5-Copy" fill="#414972" cx="191.5" cy="2702.5" r="8.5"></circle>
                <path d="M1066.75543,1784 C1066.75543,1784 1218.69259,2009.9855 908.81263,1981.99414 C598.932665,1954.00278 417.980889,1890.52385 375.996094,2036.51953" id="Path-25" stroke="#414972" stroke-width="13" stroke-linecap="round"></path>
                <path d="M368.585938,2268.97266 C411.528646,2392.32422 465.666667,2442 531,2418 C629,2382 721,2304 835,2432" id="Path-26" stroke="#414972" stroke-width="13" stroke-linecap="round"></path>
                <path d="M876.003911,0 C876.003911,0 1016.28028,94.6075977 915.669652,235.649623 C788.063411,414.535714 432.847656,84.2851562 363.820312,390.527344" id="Path-9" stroke="#414972" stroke-width="13" stroke-linecap="round"></path>
                <path d="M350.34375,582.203125 C343.447917,786.734375 406.666667,898.333333 540,917" id="Path-23" stroke="#414972" stroke-width="13" stroke-linecap="round"></path>
                <path d="M934.765959,977 C994.730278,1032.32893 1002.05792,1082.99504 956.748885,1128.99832 C888.785332,1198.00323 709.852907,1190.99532 610.898505,1140.99849 C511.944102,1091.00167 396.984725,1081.99372 370,1244" id="Path-29" stroke="#414972" stroke-width="13" stroke-linecap="round"></path>
                <path d="M923.699048,2629 C929.020674,2774.32812 863.767033,2849.66146 727.938126,2855 C524.194766,2863.00781 582.108412,2750.99219 630.057665,2742 C678.006919,2733.00781 739.915686,2774.99219 711.957643,2973" id="Path-27" stroke="#414972" stroke-width="13" stroke-linecap="round"></path>
                <path d="M310,1471 C293.989583,1505.65625 275.320313,1522.98698 253.992188,1522.99219 C222,1523 180,1457.00391 136,1471 C92,1484.99609 74,1531 70,1551 C66,1571 52,1721 158,1775 C264,1829 450,1767 488,1697 C526,1627 420,1597 402,1647 C384,1697 526.015625,1887 724.007812,1697" id="Path-10" stroke="#414972" stroke-width="13" stroke-linecap="round"></path>
                <path d="M713.996094,635.996094 C744.660156,673.326823 785.326823,691.99349 835.996094,691.996094" id="Path-6" stroke="#414972" stroke-width="15" stroke-linecap="round"></path>
                <circle id="Oval-2" fill="#414972" cx="687.5" cy="611.5" r="8.5"></circle>
                <circle id="Oval-2-Copy" fill="#414972" cx="665.5" cy="585.5" r="8.5"></circle>
                <circle id="Oval-2-Copy-2" fill="#414972" cx="648.5" cy="554.5" r="8.5"></circle>
                <path d="M1198,544 C1122,650 1023.66667,702.333333 903,701" id="Path-24" stroke="#414972" stroke-width="15" stroke-linecap="round" transform="translate(1050.500000, 622.512422) rotate(2.000000) translate(-1050.500000, -622.512422) "></path>
                <path d="M699,1248 C699,1248 738,1275.99609 738,1297 C738,1318.00391 768.003906,1438.00391 788.003906,1441.00391 C808.003906,1444.00391 1016.01172,1353.00391 1072.00781,1363.00391" id="Path-32" stroke="#414972" stroke-width="12" stroke-linecap="round"></path>
                <circle id="Oval-3" fill="#414972" cx="731.5" cy="1398.5" r="7.5"></circle>
                <circle id="Oval-3-Copy" fill="#414972" cx="716.5" cy="1366.5" r="7.5"></circle>
                <circle id="Oval-3-Copy-2" fill="#414972" cx="708.5" cy="1332.5" r="7.5"></circle>
                <circle id="Oval-4" fill="#414972" cx="697.5" cy="3000.5" r="8.5"></circle>
                <circle id="Oval-4-Copy" fill="#414972" cx="680.5" cy="3030.5" r="8.5"></circle>
                <path d="M232.007812,2457 C211.992187,2486.32292 193.320312,2506.98698 175.992187,2518.99219 C150,2537 208.222874,2573 204,2623" id="Path-34" stroke="#414972" stroke-width="13" stroke-linecap="round"></path>
                <path d="M0,2121 C70.6666667,2113 127.333333,2127 170,2163" id="Path-33" stroke="#414972" stroke-width="13" stroke-linecap="round"></path>
            </g>
        </g>
    </g>
</svg>