<?xml version="1.0" encoding="UTF-8"?>
<svg width="524px" height="103px" viewBox="0 0 524 103" version="1.1" xmlns="http://www.w3.org/2000/svg" xmlns:xlink="http://www.w3.org/1999/xlink">
    <!-- Generator: Sketch 46.2 (44496) - http://www.bohemiancoding.com/sketch -->
    <title>resources and inspirational</title>
    <desc>Created with Sketch.</desc>
    <defs></defs>
    <g id="Page-1" stroke="none" stroke-width="1" fill="none" fill-rule="evenodd">
        <g id="Desktop" transform="translate(-45.000000, -762.000000)">
            <g id="resources-and-inspirational" transform="translate(46.000000, 763.000000)">
                <path d="M10.5,7.75 C5.99869792,49.0820312 5.16503906,72.4983724 7.99902344,77.9990234" id="Path-84" stroke="#414972" stroke-width="3" stroke-linecap="round" stroke-linejoin="round"></path>
                <path d="M2,28.75 C-1.66796875,9.74869792 3.33170573,0.748372396 16.9990234,1.74902344 C37.5,3.25 30.5974838,35.75 15.7490234,48.7490234 C8.92501743,54.7230714 25.25,86.7480469 34,69.9990234 C42.75,53.25 46.25,42.4990234 38.2490234,42.4990234 C30.2480469,42.4990234 33,82.4980469 45,69.9990234 C57,57.5 58.7480469,41.5009766 53.25,44 C47.7519531,46.4990234 56.4980469,55.2509766 59.5,63 C62.5019531,70.7490234 57.25,80.5 49.75,71.25" id="Path-85" stroke="#414972" stroke-width="3" stroke-linecap="round" stroke-linejoin="round"></path>
                <path d="M74.5,41.25 C67.5,41.25 63.25,72 71.5,73 C79.75,74 81.75,41.25 75.5,41.25 C69.25,41.25 67.6067935,69.4117404 87.3001063,53 C90,50.75 90.9990234,41.25 89.25,41.25 C83.9612185,41.25 86.0000021,74.75 91.75,74.75 C99.75,74.75 102.5,44 101.25,44 C100,44 93.5,77.5 108,67" id="Path-86" stroke="#414972" stroke-width="3" stroke-linecap="round" stroke-linejoin="round"></path>
                <path d="M107.749023,50.9990234 C110.583008,64.4996745 111,72.0833333 109,73.75 C106,76.25 108,43 114.75,39.25 C121.5,35.5 113.25,58.5 120.25,53.25" id="Path-87" stroke="#414972" stroke-width="3" stroke-linecap="round" stroke-linejoin="round"></path>
                <path d="M132.500977,45 C128.834961,52 128.251628,55.3333333 130.750977,55 C134.5,54.5 134.75,34 126,47 C117.25,60 128.75,86.75 141.499023,67.4990234 C152.383247,51.0638875 147.501953,41.25 144.526367,41.75 C139.850613,42.5356861 132.500977,68.75 147.501953,72.9990234 C153.210304,74.6159126 165.750977,43.5009766 160.75,43.25 C155.749023,42.9990234 156.5,53.25 163.25,59.5 C170,65.75 164.75,83.75 156.25,70" id="Path-88" stroke="#414972" stroke-width="3" stroke-linecap="round" stroke-linejoin="round"></path>
                <path d="M205.75,42 C197.500977,37 184.25,66 191.749023,74.2490234 C196.811678,79.8180093 207.75,46 205.75,45.75 C203.75,45.5 197.998047,89.2480469 213.999023,67.9990234" id="Path-89" stroke="#414972" stroke-width="3" stroke-linecap="round" stroke-linejoin="round"></path>
                <path d="M213.499023,42.4990234 C216.331706,60.1650391 216.665039,70.4150391 214.499023,73.2490234 C211.25,77.5 218.5,40.25 223.999023,39.5 C229.498047,38.75 216.498047,90.9990234 234.499023,66.7490234" id="Path-90" stroke="#414972" stroke-width="3" stroke-linecap="round" stroke-linejoin="round"></path>
                <path d="M249.499023,40.4990234 C240,39.4980469 230.75,70.75 237.250977,72.75 C243.751953,74.75 260.998047,5.24804687 257.499023,5.24902344 C254,5.25 240.246094,94.0009766 258.998047,67.25" id="Path-91" stroke="#414972" stroke-width="3" stroke-linecap="round" stroke-linejoin="round"></path>
                <path d="M278.75,9.25 C293.751302,5.08333333 303.084961,2.25 306.750977,0.75" id="Path-92" stroke="#414972" stroke-width="3" stroke-linecap="round" stroke-linejoin="round"></path>
                <path d="M292.750977,5.75 C289.584961,45.75 289.084961,68.6666667 291.250977,74.5" id="Path-93" stroke="#414972" stroke-width="3" stroke-linecap="round" stroke-linejoin="round"></path>
                <path d="M277,77.7490234 C288.833984,74.9163411 297.500977,73 303.000977,72" id="Path-94" stroke="#414972" stroke-width="3" stroke-linecap="round" stroke-linejoin="round"></path>
                <path d="M306.250977,42.25 C308.918294,59.75 309.334961,69.9166667 307.500977,72.75 C304.75,77 307.248047,43.9980469 315.749023,39.2490234 C324.25,34.5 308.001953,90.5 327.000977,65.75 C346,41 332,40.5 331.5,45.5 C331,50.5 341.75,65.25 340.5,69.75 C339.25,74.25 333.000977,76.75 330.000977,69.75" id="Path-95" stroke="#414972" stroke-width="3" stroke-linecap="round" stroke-linejoin="round"></path>
                <path d="" id="Path-96" stroke="#414972"></path>
                <path d="M349,39.25 C349,79.0833333 348.5,99.3333333 347.5,100 C346,101 342.501953,55.25 355.250977,47.5 C368,39.75 359,92.25 349,67" id="Path-97" stroke="#414972" stroke-width="3" stroke-linecap="round" stroke-linejoin="round"></path>
                <path d="M367.250977,44 C364.750326,73.6666667 368.497204,79.75 378.491611,62.25 C381.009004,57.8420961 379.25,50.5 377.5,50.75 C375.75,51 377.250488,74.25 378.500488,74 C379.750488,73.75 379.248047,40.7480469 384.999023,38.9990234 C390.75,37.25 383.25,58 389.75,53.25" id="Path-98" stroke="#414972" stroke-width="3" stroke-linecap="round" stroke-linejoin="round"></path>
                <path d="M407.499023,41.7490234 C403.748047,38.7480469 386.75,63.25 395,73.75 C399.164975,79.0508772 411.49707,46.2480469 409.498047,46.2490234 C407.499023,46.25 399.75,88.5 417,69" id="Path-99" stroke="#414972" stroke-width="3"></path>
                <path d="M412.499023,32.2490234 L425.749023,27.9990234" id="Path-100" stroke="#414972" stroke-width="3" stroke-linecap="round" stroke-linejoin="round"></path>
                <path d="M421.999023,25.2490234 C415.999674,70.4163411 418.416667,84.1666667 429.25,66.5" id="Path-101" stroke="#414972" stroke-width="3" stroke-linecap="round" stroke-linejoin="round"></path>
                <path d="M430.25,43.25 C428.415365,72.9153646 431.748372,79.9983724 440.249023,64.4990234" id="Path-102" stroke="#414972" stroke-width="3" stroke-linecap="round" stroke-linejoin="round"></path>
                <path d="M446.749023,41.2490234 C439.265034,42.5797271 439.498047,73 446.749023,73 C454,73 454.998047,36.4980469 448.499023,41.2490234 C442,46 446.749023,68 460.249023,53.5 C463.455465,50.0560445 460.936279,42.25 460.249023,42.25 C459.561768,42.25 460.936279,73 460.936279,73 C460.936279,73 464.498047,39.7480469 470.249023,39.4990234 C476,39.25 462.498047,90.4980469 480.499023,66.9990234" id="Path-103" stroke="#414972" stroke-width="3" stroke-linecap="round" stroke-linejoin="round"></path>
                <path d="M497.5,41.2324089 C492,38.2148178 474,63.5 483.750977,74.25 C488.257148,79.2178457 500.75,46 498.5,45.75 C496.25,45.5 490.501953,89.25 506.000977,67.5 C521.5,45.75 517.75,7.75 513,7.75 C508.25,7.75 496.5,97.75 521.5,64.75" id="Path-104" stroke="#414972" stroke-width="3" stroke-linecap="round" stroke-linejoin="round"></path>
                <ellipse id="Oval" fill="#414972" transform="translate(368.392437, 29.851188) rotate(35.000000) translate(-368.392437, -29.851188) " cx="368.392437" cy="29.8511877" rx="2.62182993" ry="3.91361838"></ellipse>
                <ellipse id="Oval" fill="#414972" transform="translate(432.392437, 29.851188) rotate(35.000000) translate(-432.392437, -29.851188) " cx="432.392437" cy="29.8511877" rx="2.62182993" ry="3.91361838"></ellipse>
            </g>
        </g>
    </g>
</svg>