<?xml version="1.0" encoding="iso-8859-1"?>
<!-- Generator: Adobe Illustrator 19.0.0, SVG Export Plug-In . SVG Version: 6.00 Build 0)  -->
<svg version="1.1" id="Layer_1" xmlns="http://www.w3.org/2000/svg" xmlns:xlink="http://www.w3.org/1999/xlink" x="0px" y="0px"
	 width="595.28px" height="841.89px" viewBox="0 0 595.28 841.89" style="enable-background:new 0 0 595.28 841.89;"
	 xml:space="preserve">
<style type="text/css">
	.st0{fill:#414A73;}
</style>
<g id="XMLID_7_">
	<path id="XMLID_108_" class="st0" d="M143.041,154.782c0.383-0.192,0.744-0.371,1.08-0.54c0.335-0.168,0.695-0.371,1.08-0.612
		c0.288-0.191,0.587-0.396,0.9-0.611c0.312-0.217,0.635-0.372,0.972-0.469c0.288-0.096,0.432-0.071,0.432,0.072
		c0,0.145-0.048,0.312-0.144,0.504c-0.241,0.48-0.601,0.961-1.08,1.44c-0.912,1.008-2.041,1.787-3.384,2.34
		c-1.345,0.551-2.689,0.468-4.032-0.252c-1.296-0.72-2.316-1.753-3.06-3.096c-0.745-1.344-1.308-2.688-1.692-4.032
		c-0.432-1.536-0.756-3.071-0.972-4.608c-0.216-1.535-0.372-3.071-0.468-4.607c0-0.24,0-0.479,0-0.721
		c0-0.239,0.096-0.479,0.288-0.72c0.096-0.096,0.216-0.155,0.36-0.18c0.144-0.023,0.288-0.084,0.432-0.181l0.504-0.359
		c1.296-1.056,2.351-2.207,3.168-3.456c0.959-1.392,1.716-2.892,2.268-4.5c0.551-1.607,0.996-3.251,1.332-4.933
		c0.335-1.728,0.551-3.479,0.648-5.256c0.096-1.775-0.048-3.503-0.432-5.184c-0.385-1.632-1.056-3.024-2.016-4.176
		c-0.96-1.152-2.256-1.92-3.888-2.305c-1.584-0.383-3.113-0.288-4.587,0.288c-1.474,0.576-2.693,1.513-3.659,2.809
		c-0.918,1.248-1.535,2.652-1.849,4.212c-0.315,1.561-0.399,3.108-0.253,4.644c0.047,0.673,0.131,1.332,0.253,1.98
		c0.121,0.647,0.278,1.309,0.471,1.979c0.047,0.145,0.132,0.349,0.253,0.612c0.122,0.265,0.229,0.553,0.326,0.864
		c0.097,0.312,0.133,0.588,0.109,0.828c-0.024,0.24-0.157,0.385-0.398,0.432c-0.243,0.097-0.496,0.072-0.762-0.072
		c-0.266-0.144-0.52-0.288-0.762-0.432c-0.289-0.24-0.506-0.492-0.652-0.756c-0.144-0.264-0.289-0.563-0.434-0.9
		c-0.725-1.439-1.16-2.999-1.305-4.68c-0.096-1.68,0.074-3.3,0.507-4.86c0.436-1.56,1.185-2.988,2.248-4.284
		c1.062-1.247,2.307-2.243,3.733-2.987c1.425-0.744,2.935-1.164,4.528-1.261c1.536-0.096,3.024,0.085,4.464,0.54
		c1.44,0.457,2.711,1.236,3.816,2.34c1.248,1.249,2.16,2.677,2.736,4.284c0.576,1.609,0.888,3.276,0.936,5.004
		c0.047,1.729-0.12,3.456-0.504,5.185c-0.385,1.728-0.889,3.337-1.512,4.824c-0.673,1.536-1.476,3-2.412,4.392
		c-0.936,1.393-1.98,2.688-3.132,3.888c-0.385,0.433-0.792,0.828-1.224,1.188c-0.432,0.359-0.889,0.732-1.368,1.116
		c-0.048,0.048-0.168,0.12-0.36,0.216c-0.097,0.048-0.216,0.097-0.36,0.144c-0.049,0.192-0.036,0.421,0.036,0.685
		c0.072,0.264,0.132,0.468,0.18,0.611c0.623,3.168,1.607,6.312,2.952,9.433c0.288,0.673,0.623,1.344,1.008,2.016
		c0.384,0.673,0.864,1.272,1.44,1.8c0.528,0.433,1.055,0.659,1.584,0.685C141.913,155.129,142.465,155.021,143.041,154.782z
		 M127.129,141.965c0.049-3.744,0.16-7.451,0.332-11.124c0.171-3.672,0.502-7.331,0.994-10.979c0.098-0.864,0.221-1.729,0.369-2.592
		c0.147-0.864,0.295-1.729,0.442-2.593c0.098-0.527,0.196-1.067,0.295-1.619c0.098-0.552,0.319-1.068,0.664-1.549
		c0.191-0.239,0.348-0.371,0.468-0.396c0.119-0.023,0.216,0.036,0.288,0.18c0.072,0.145,0.119,0.312,0.144,0.504
		c0.023,0.192,0.036,0.385,0.036,0.576c0,1.057-0.024,2.101-0.072,3.132c-0.048,1.033-0.072,2.077-0.072,3.132
		c-0.097,3.744-0.18,7.501-0.252,11.269c-0.072,3.769-0.156,7.523-0.252,11.268l-0.368,16.92c0,0.145-0.012,0.348-0.037,0.612
		c-0.025,0.264-0.073,0.516-0.147,0.756s-0.172,0.407-0.293,0.504c-0.123,0.096-0.283,0.048-0.479-0.144
		c-0.393-0.337-0.638-0.756-0.735-1.26c-0.099-0.504-0.197-0.973-0.295-1.404c-0.098-0.528-0.171-1.044-0.221-1.548
		c-0.049-0.504-0.098-1.021-0.146-1.548C127.349,150.03,127.129,145.997,127.129,141.965z"/>
	<path id="XMLID_111_" class="st0" d="M153.984,152.549c0.047-0.047,0.167-0.18,0.36-0.396c0.191-0.216,0.407-0.443,0.648-0.685
		c0.24-0.239,0.456-0.432,0.648-0.575c0.191-0.145,0.312-0.168,0.36-0.072c0.096,0.385-0.013,0.84-0.324,1.368
		c-0.312,0.528-0.564,0.936-0.756,1.224c-0.72,0.864-1.573,1.512-2.556,1.944c-0.984,0.432-2.028,0.384-3.132-0.145
		c-1.105-0.528-1.957-1.355-2.556-2.483c-0.601-1.128-1.044-2.243-1.332-3.349c-0.623-2.543-0.744-5.087-0.36-7.632
		c0.241-1.775,0.696-3.384,1.368-4.824c0.335-0.623,0.767-1.224,1.296-1.8c0.528-0.576,1.152-0.959,1.872-1.151
		c0.815-0.24,1.487-0.096,2.016,0.432c0.527,0.528,0.839,1.152,0.936,1.872c0.144,0.816,0.18,1.656,0.108,2.52
		c-0.072,0.864-0.18,1.705-0.324,2.521c-0.241,1.584-0.637,3.145-1.188,4.68c-0.552,1.537-1.213,3.024-1.98,4.464
		c-0.097,0.192-0.216,0.421-0.36,0.685s-0.313,0.444-0.504,0.54c-0.048,0.048-0.097,0.071-0.144,0.071
		c0.239,0.576,0.587,1.105,1.044,1.584c0.456,0.48,0.996,0.769,1.62,0.864c0.671,0.097,1.283-0.036,1.836-0.396
		C153.131,153.45,153.599,153.03,153.984,152.549z M147.36,141.461c-0.241,1.393-0.385,2.845-0.432,4.356
		c-0.048,1.512,0.12,2.964,0.504,4.355l0.36-0.647l0.936-2.088c0.671-1.536,1.26-3.12,1.764-4.752
		c0.504-1.632,0.708-3.288,0.612-4.969c0-0.288-0.036-0.659-0.108-1.115c-0.072-0.456-0.252-0.757-0.54-0.9
		c-0.241-0.096-0.48,0.013-0.72,0.324c-0.241,0.312-0.408,0.517-0.504,0.611c-0.529,0.721-0.925,1.501-1.188,2.341
		C147.78,139.818,147.551,140.646,147.36,141.461z"/>
	<path id="XMLID_114_" class="st0" d="M156.863,155.213c-0.385-0.576-0.529-1.224-0.432-1.943c0-0.145,0.096-0.407,0.288-0.792
		c0.191-0.384,0.407-0.479,0.648-0.288c0.191,0.144,0.312,0.396,0.36,0.756c0.047,0.36,0.096,0.637,0.144,0.828
		c0.239,0.576,0.504,1.008,0.792,1.296c0.432,0.432,0.996,0.672,1.692,0.72c0.695,0.048,1.307-0.12,1.836-0.504
		c0.623-0.48,0.996-1.104,1.116-1.872c0.119-0.768,0.131-1.487,0.036-2.16c-0.097-0.815-0.336-1.584-0.72-2.304
		c-0.385-0.72-0.84-1.392-1.368-2.016l-1.584-1.872c-1.105,2.352-2.401,4.68-3.888,6.983c-0.097,0.097-0.264,0.324-0.504,0.685
		c-0.241,0.359-0.457,0.372-0.648,0.036c-0.24-0.433-0.227-0.853,0.036-1.261c0.263-0.407,0.515-0.803,0.756-1.188
		c0.672-0.96,1.296-1.98,1.872-3.061s1.104-2.171,1.584-3.275c-0.097-0.191-0.205-0.384-0.324-0.576
		c-0.12-0.191-0.228-0.407-0.324-0.648c-0.385-0.815-0.661-1.62-0.828-2.412c-0.168-0.792-0.156-1.595,0.036-2.411
		c0.096-0.576,0.275-1.14,0.54-1.692c0.263-0.552,0.636-0.996,1.116-1.332c0.624-0.288,1.224-0.275,1.8,0.036
		c0.576,0.312,0.911,0.805,1.008,1.476c0.096,1.008,0.024,2.028-0.216,3.061c-0.241,1.032-0.552,2.052-0.936,3.06
		c0.288,0.529,0.587,1.057,0.9,1.584c0.312,0.529,0.659,1.057,1.044,1.584c0.432,0.673,0.839,1.404,1.224,2.196
		c0.384,0.792,0.659,1.597,0.828,2.412c0.167,0.816,0.204,1.645,0.108,2.483c-0.097,0.841-0.36,1.646-0.792,2.412
		c-0.385,0.672-0.9,1.163-1.548,1.477c-0.648,0.312-1.321,0.468-2.016,0.468c-0.696,0-1.368-0.169-2.016-0.504
		C157.835,156.317,157.295,155.837,156.863,155.213z M159.383,137.934c0.047,0.528,0.132,1.032,0.252,1.512
		c0.12,0.48,0.276,0.961,0.468,1.439c0.335-1.055,0.551-2.135,0.648-3.239c0-0.24-0.036-0.588-0.108-1.044
		c-0.072-0.456-0.301-0.636-0.684-0.54c-0.336,0.097-0.529,0.372-0.576,0.828C159.334,137.346,159.334,137.694,159.383,137.934z"/>
	<path id="XMLID_117_" class="st0" d="M170.183,134.982c0.288-0.336,0.659-0.659,1.116-0.973c0.456-0.312,0.947-0.491,1.476-0.54
		c0.864-0.335,1.728-0.071,2.592,0.792c0.576,0.576,0.996,1.249,1.26,2.017c0.263,0.769,0.468,1.536,0.612,2.304
		c0.288,1.729,0.36,3.505,0.216,5.328c0,0.097-0.012,0.192-0.036,0.288c-0.025,0.097-0.036,0.192-0.036,0.288
		c0.528-0.24,1.008-0.516,1.44-0.828c0.432-0.312,0.839-0.636,1.224-0.972c0.047-0.048,0.155-0.155,0.324-0.324
		c0.168-0.168,0.335-0.3,0.504-0.396c0.167-0.096,0.335-0.155,0.504-0.18c0.167-0.023,0.252,0.084,0.252,0.324
		c0,0.576-0.265,1.068-0.792,1.476c-0.529,0.408-0.984,0.756-1.368,1.044c-0.72,0.576-1.44,0.961-2.16,1.152
		c-0.144,1.393-0.396,2.784-0.756,4.176c-0.36,1.393-0.925,2.664-1.692,3.816c-0.241,0.336-0.48,0.647-0.72,0.936
		c-0.241,0.288-0.552,0.527-0.936,0.72c-0.336,0.24-0.66,0.36-0.972,0.36c-0.313,0-0.661,0-1.044,0
		c-0.72-0.192-1.309-0.553-1.764-1.08c-0.457-0.527-0.828-1.127-1.116-1.8c-0.288-0.815-0.493-1.656-0.612-2.52
		c-0.12-0.864-0.205-1.729-0.252-2.593c-0.047-0.815-0.06-1.644-0.036-2.483c0.025-0.84,0.083-1.692,0.18-2.557
		c0.144-1.247,0.396-2.507,0.756-3.779c0.36-1.271,0.875-2.46,1.548-3.564L170.183,134.982z M175.223,146.07
		c-1.393-0.096-2.448-0.612-3.168-1.548c-0.72-0.937-1.2-2.027-1.44-3.276c-0.097,0.48-0.169,0.948-0.216,1.404
		c-0.048,0.456-0.097,0.925-0.144,1.403c-0.097,0.864-0.18,1.729-0.252,2.593c-0.072,0.863-0.108,1.752-0.108,2.664
		c0,0.673,0.047,1.488,0.144,2.447c0.096,0.961,0.432,1.705,1.008,2.232c0.288,0.288,0.563,0.408,0.828,0.36
		c0.263-0.048,0.527-0.155,0.792-0.324c0.263-0.168,0.491-0.384,0.684-0.648c0.191-0.263,0.36-0.515,0.504-0.756
		c0.432-0.72,0.779-1.464,1.044-2.231c0.263-0.768,0.492-1.56,0.684-2.376c0.095-0.336,0.167-0.66,0.216-0.973
		c0.047-0.312,0.096-0.636,0.144-0.972C175.702,146.166,175.462,146.166,175.223,146.07z M171.623,138.581
		c-0.048,0.673,0,1.404,0.144,2.196s0.384,1.512,0.72,2.16c0.335,0.647,0.803,1.164,1.404,1.548c0.6,0.385,1.332,0.504,2.196,0.359
		c0.144-1.199,0.204-2.411,0.18-3.636c-0.024-1.224-0.205-2.387-0.54-3.492c-0.144-0.911-0.457-1.655-0.936-2.231
		c-0.144-0.191-0.324-0.396-0.54-0.612c-0.216-0.216-0.444-0.348-0.684-0.396l-0.288,0.216c-0.241,0.24-0.432,0.457-0.576,0.647
		c-0.144,0.192-0.288,0.409-0.432,0.648l-0.216,0.36v0.071C171.814,137.142,171.67,137.862,171.623,138.581z"/>
	<path id="XMLID_121_" class="st0" d="M193.006,152.19c0.288,0,0.551-0.084,0.792-0.252c0.24-0.168,0.479-0.324,0.72-0.469
		c0.191-0.144,0.396-0.312,0.612-0.504c0.216-0.19,0.443-0.263,0.684-0.216c0.24,0,0.299,0.145,0.18,0.433
		c-0.121,0.287-0.229,0.479-0.324,0.575c-0.241,0.385-0.624,0.745-1.152,1.08c-0.432,0.288-0.889,0.457-1.368,0.504
		c-0.48,0.049-0.936-0.096-1.368-0.432c-0.432-0.335-0.769-0.756-1.008-1.26c-0.241-0.504-0.457-1.02-0.648-1.548
		c-0.097-0.288-0.18-0.588-0.252-0.9c-0.072-0.312-0.156-0.612-0.252-0.9c-0.097,0.817-0.216,1.646-0.36,2.484
		c-0.144,0.841-0.336,1.668-0.576,2.484c-0.241,0.673-0.54,1.367-0.9,2.088c-0.36,0.72-0.9,1.199-1.62,1.439
		c-0.817,0.288-1.548,0.191-2.196-0.288s-1.165-1.056-1.548-1.728c-0.432-0.768-0.768-1.571-1.008-2.412
		c-0.241-0.839-0.432-1.667-0.576-2.484c-0.335-1.584-0.515-3.191-0.54-4.823c-0.023-1.632,0.084-3.24,0.324-4.824
		c0.096-0.672,0.227-1.332,0.396-1.98c0.167-0.647,0.371-1.307,0.612-1.979c0.144-0.479,0.312-0.983,0.504-1.512
		c0.191-0.528,0.456-0.983,0.792-1.368c0.239-0.288,0.432-0.336,0.576-0.145c0.144,0.192,0.263,0.408,0.36,0.648
		c0.095,0.288,0.144,0.564,0.144,0.828s-0.024,0.54-0.072,0.828c-0.097,0.575-0.169,1.141-0.216,1.691
		c-0.048,0.553-0.097,1.116-0.144,1.692c-0.144,1.632-0.252,3.252-0.324,4.859c-0.072,1.609-0.061,3.229,0.036,4.86
		c0.047,0.864,0.108,1.74,0.18,2.628c0.072,0.889,0.252,1.74,0.54,2.556c0.144,0.337,0.312,0.661,0.504,0.973
		c0.191,0.312,0.479,0.515,0.864,0.611c0.384,0.048,0.695-0.061,0.936-0.323c0.24-0.265,0.432-0.517,0.576-0.756
		c0.432-0.768,0.756-1.584,0.972-2.448c0.216-0.864,0.396-1.729,0.54-2.592c0.144-0.864,0.263-1.739,0.36-2.628
		c0.095-0.888,0.144-1.788,0.144-2.7c0.047-0.911,0.072-1.812,0.072-2.7c0-0.888,0.096-1.788,0.288-2.7
		c0.047-0.191,0.119-0.491,0.216-0.899c0.096-0.407,0.24-0.804,0.432-1.188c0.191-0.384,0.407-0.684,0.648-0.9
		c0.24-0.216,0.528-0.252,0.864-0.107c0.288,0.144,0.443,0.349,0.468,0.612c0.023,0.264,0.011,0.539-0.036,0.827l-0.144,2.376
		c0,1.729-0.072,3.409-0.216,5.04c-0.048,0.817-0.084,1.62-0.108,2.412c-0.025,0.792,0.011,1.597,0.108,2.412
		c0.047,0.48,0.155,1.08,0.324,1.8C191.986,151.686,192.382,152.094,193.006,152.19z"/>
	<path id="XMLID_123_" class="st0" d="M203.302,141.39c-0.048,0.048-0.025,0.061,0.072,0.035c0.096-0.023,0.216-0.06,0.36-0.107
		s0.275-0.108,0.396-0.181c0.119-0.071,0.204-0.107,0.252-0.107c0.383-0.096,0.563,0,0.54,0.288
		c-0.025,0.288-0.108,0.528-0.252,0.72c-0.192,0.241-0.385,0.48-0.576,0.72c-0.192,0.241-0.432,0.409-0.72,0.504
		c-0.385,0.145-0.708,0.157-0.972,0.036c-0.265-0.119-0.48-0.323-0.648-0.611c-0.169-0.288-0.301-0.612-0.396-0.973
		c-0.097-0.359-0.169-0.684-0.216-0.972c-0.144-0.815-0.228-1.644-0.252-2.484c-0.025-0.839-0.061-1.691-0.108-2.556
		c0-0.191,0.011-0.407,0.036-0.648c0.023-0.239-0.013-0.479-0.108-0.72c-0.097-0.191-0.241-0.107-0.432,0.252
		c-0.192,0.36-0.313,0.565-0.36,0.612c-0.672,1.393-1.224,2.844-1.656,4.355c-0.432,1.513-0.792,3.037-1.08,4.572
		c0.096,0.576,0.155,1.152,0.18,1.729c0.023,0.575,0.06,1.151,0.108,1.728c0.047,0.816,0.06,1.656,0.036,2.521
		c-0.025,0.863-0.084,1.728-0.18,2.592c-0.097,0.864-0.241,1.728-0.432,2.592c-0.097,0.288-0.228,0.576-0.396,0.864
		c-0.168,0.288-0.42,0.455-0.756,0.504c-0.432,0.047-0.696-0.301-0.792-1.044c-0.096-0.745-0.108-1.607-0.036-2.592
		c0.072-0.983,0.18-1.932,0.324-2.845c0.144-0.911,0.24-1.487,0.288-1.728c0-0.191,0.023-0.36,0.072-0.504
		c-0.048-0.528-0.097-1.08-0.144-1.656c-0.048-0.576-0.12-1.176-0.216-1.8c-0.097-0.623-0.18-1.248-0.252-1.872
		c-0.072-0.623-0.204-1.271-0.396-1.944c-0.144-0.432-0.024-0.743,0.36-0.936c0.24-0.145,0.504-0.155,0.792-0.036
		c0.288,0.12,0.479,0.301,0.576,0.54c0.191,0.385,0.312,0.696,0.36,0.936l0.792-3.384c0.24-0.815,0.479-1.607,0.72-2.376
		c0.239-0.768,0.551-1.512,0.936-2.231c0.335-0.672,0.888-1.128,1.656-1.368c0.384-0.096,0.731-0.036,1.044,0.18
		c0.312,0.216,0.563,0.468,0.756,0.756c0.432,0.673,0.684,1.417,0.756,2.232c0.072,0.816,0.108,1.608,0.108,2.376
		c0,0.385-0.025,0.792-0.072,1.224c-0.048,0.433-0.072,0.841-0.072,1.225c-0.048,0.24-0.084,0.516-0.108,0.827
		C203.169,140.947,203.205,141.199,203.302,141.39z"/>
	<path id="XMLID_125_" class="st0" d="M215.613,152.333c0.191-0.239,0.36-0.443,0.504-0.612c0.144-0.167,0.335-0.347,0.576-0.539
		c0.096-0.096,0.312-0.253,0.648-0.469c0.335-0.216,0.551-0.18,0.648,0.108c0.095,0.192,0.095,0.408,0,0.647
		c-0.097,0.241-0.192,0.433-0.288,0.576c-0.241,0.529-0.565,1.021-0.972,1.477c-0.408,0.456-0.828,0.876-1.26,1.26
		c-0.625,0.527-1.272,0.947-1.944,1.26c-0.672,0.312-1.416,0.468-2.232,0.468c-0.864-0.048-1.645-0.288-2.34-0.72
		c-0.696-0.432-1.309-0.984-1.836-1.656c-0.961-1.343-1.597-2.867-1.908-4.571c-0.312-1.703-0.419-3.372-0.324-5.004
		c0.097-1.536,0.407-3.107,0.936-4.717c0.527-1.607,1.392-2.963,2.592-4.067c0.528-0.479,1.163-0.864,1.908-1.152
		c0.744-0.288,1.451-0.191,2.124,0.288c0.623,0.48,0.972,1.152,1.044,2.016c0.072,0.864,0.06,1.633-0.036,2.305
		c-0.097,0.72-0.252,1.465-0.468,2.231c-0.216,0.769-0.588,1.417-1.116,1.944c-0.288,0.336-0.661,0.517-1.116,0.54
		c-0.457,0.024-0.804-0.18-1.044-0.612c-0.336-0.527-0.396-1.212-0.18-2.052c0.216-0.839,0.443-1.523,0.684-2.052
		c0.624-1.344,1.224-2.305,1.8-2.88c-0.241-0.384-0.576-0.552-1.008-0.505c-0.768,0.098-1.356,0.505-1.764,1.225
		c-0.409,0.72-0.709,1.416-0.9,2.088c-0.241,0.816-0.409,1.656-0.504,2.52c-0.097,0.864-0.192,1.705-0.288,2.521
		c-0.097,0.864-0.121,1.74-0.072,2.628c0.047,0.889,0.119,1.764,0.216,2.628c0.096,0.72,0.264,1.416,0.504,2.088
		c0.239,0.673,0.551,1.296,0.936,1.872c1.008,1.296,2.232,1.68,3.672,1.152c0.576-0.24,1.091-0.552,1.548-0.937
		C214.809,153.245,215.229,152.814,215.613,152.333z M211.221,142.037c0.383-0.623,0.671-1.379,0.864-2.268
		c0.191-0.888,0.24-1.716,0.144-2.484c-0.097,0.192-0.241,0.48-0.432,0.864c-0.192,0.385-0.336,0.72-0.432,1.008
		c-0.432,1.008-0.709,1.753-0.828,2.232c-0.121,0.479-0.144,0.792-0.072,0.936c0.072,0.144,0.191,0.169,0.36,0.072
		C210.993,142.302,211.125,142.182,211.221,142.037z"/>
	<path id="XMLID_128_" class="st0" d="M224.757,152.549c0.047-0.047,0.167-0.18,0.36-0.396c0.191-0.216,0.407-0.443,0.648-0.685
		c0.24-0.239,0.456-0.432,0.648-0.575c0.191-0.145,0.312-0.168,0.36-0.072c0.096,0.385-0.013,0.84-0.324,1.368
		c-0.312,0.528-0.564,0.936-0.756,1.224c-0.72,0.864-1.573,1.512-2.556,1.944c-0.984,0.432-2.028,0.384-3.132-0.145
		c-1.105-0.528-1.957-1.355-2.556-2.483c-0.601-1.128-1.044-2.243-1.332-3.349c-0.623-2.543-0.744-5.087-0.36-7.632
		c0.241-1.775,0.696-3.384,1.368-4.824c0.335-0.623,0.767-1.224,1.296-1.8c0.528-0.576,1.152-0.959,1.872-1.151
		c0.815-0.24,1.487-0.096,2.016,0.432c0.527,0.528,0.839,1.152,0.936,1.872c0.144,0.816,0.18,1.656,0.108,2.52
		c-0.072,0.864-0.18,1.705-0.324,2.521c-0.241,1.584-0.637,3.145-1.188,4.68c-0.552,1.537-1.213,3.024-1.98,4.464
		c-0.097,0.192-0.216,0.421-0.36,0.685s-0.313,0.444-0.504,0.54c-0.048,0.048-0.097,0.071-0.144,0.071
		c0.239,0.576,0.587,1.105,1.044,1.584c0.456,0.48,0.996,0.769,1.62,0.864c0.671,0.097,1.283-0.036,1.836-0.396
		C223.904,153.45,224.372,153.03,224.757,152.549z M218.133,141.461c-0.241,1.393-0.385,2.845-0.432,4.356
		c-0.048,1.512,0.12,2.964,0.504,4.355l0.36-0.647l0.936-2.088c0.671-1.536,1.26-3.12,1.764-4.752
		c0.504-1.632,0.708-3.288,0.612-4.969c0-0.288-0.036-0.659-0.108-1.115c-0.072-0.456-0.252-0.757-0.54-0.9
		c-0.241-0.096-0.48,0.013-0.72,0.324c-0.241,0.312-0.408,0.517-0.504,0.611c-0.529,0.721-0.925,1.501-1.188,2.341
		C218.553,139.818,218.324,140.646,218.133,141.461z"/>
	<path id="XMLID_131_" class="st0" d="M227.636,155.213c-0.385-0.576-0.529-1.224-0.432-1.943c0-0.145,0.096-0.407,0.288-0.792
		c0.191-0.384,0.407-0.479,0.648-0.288c0.191,0.144,0.312,0.396,0.36,0.756c0.047,0.36,0.096,0.637,0.144,0.828
		c0.239,0.576,0.504,1.008,0.792,1.296c0.432,0.432,0.996,0.672,1.692,0.72c0.695,0.048,1.307-0.12,1.836-0.504
		c0.623-0.48,0.996-1.104,1.116-1.872c0.119-0.768,0.131-1.487,0.036-2.16c-0.097-0.815-0.336-1.584-0.72-2.304
		c-0.385-0.72-0.84-1.392-1.368-2.016l-1.584-1.872c-1.105,2.352-2.401,4.68-3.888,6.983c-0.097,0.097-0.264,0.324-0.504,0.685
		c-0.241,0.359-0.457,0.372-0.648,0.036c-0.24-0.433-0.227-0.853,0.036-1.261c0.263-0.407,0.515-0.803,0.756-1.188
		c0.672-0.96,1.296-1.98,1.872-3.061s1.104-2.171,1.584-3.275c-0.097-0.191-0.205-0.384-0.324-0.576
		c-0.12-0.191-0.228-0.407-0.324-0.648c-0.385-0.815-0.661-1.62-0.828-2.412c-0.168-0.792-0.156-1.595,0.036-2.411
		c0.096-0.576,0.275-1.14,0.54-1.692c0.263-0.552,0.636-0.996,1.116-1.332c0.624-0.288,1.224-0.275,1.8,0.036
		c0.576,0.312,0.911,0.805,1.008,1.476c0.096,1.008,0.024,2.028-0.216,3.061c-0.241,1.032-0.552,2.052-0.936,3.06
		c0.288,0.529,0.587,1.057,0.9,1.584c0.312,0.529,0.659,1.057,1.044,1.584c0.432,0.673,0.839,1.404,1.224,2.196
		c0.384,0.792,0.659,1.597,0.828,2.412c0.167,0.816,0.204,1.645,0.108,2.483c-0.097,0.841-0.36,1.646-0.792,2.412
		c-0.385,0.672-0.9,1.163-1.548,1.477c-0.648,0.312-1.321,0.468-2.016,0.468c-0.696,0-1.368-0.169-2.016-0.504
		C228.608,156.317,228.068,155.837,227.636,155.213z M230.156,137.934c0.047,0.528,0.132,1.032,0.252,1.512
		c0.12,0.48,0.276,0.961,0.468,1.439c0.335-1.055,0.551-2.135,0.648-3.239c0-0.24-0.036-0.588-0.108-1.044
		c-0.072-0.456-0.301-0.636-0.684-0.54c-0.336,0.097-0.529,0.372-0.576,0.828C230.107,137.346,230.107,137.694,230.156,137.934z"/>
	<path id="XMLID_134_" class="st0" d="M265.723,151.757c0.096-0.096,0.252-0.288,0.468-0.575c0.216-0.288,0.396-0.384,0.54-0.288
		c0.144,0.097,0.168,0.288,0.072,0.575c-0.097,0.288-0.169,0.48-0.216,0.576c-0.48,1.152-1.152,2.185-2.016,3.097
		c-0.48,0.527-1.069,0.936-1.764,1.224c-0.696,0.288-1.38,0.239-2.052-0.145c-0.673-0.384-1.177-0.948-1.512-1.691
		c-0.336-0.744-0.576-1.451-0.72-2.124c-0.241-0.864-0.385-1.729-0.432-2.592c-0.048,0.048-0.072,0.097-0.072,0.144
		c-0.576,1.104-1.212,2.232-1.908,3.384c-0.696,1.152-1.548,2.088-2.556,2.809c-0.432,0.288-0.889,0.468-1.368,0.54
		c-0.48,0.071-0.936-0.061-1.368-0.396c-0.48-0.336-0.805-0.78-0.972-1.332c-0.169-0.551-0.277-1.091-0.324-1.62
		c-0.191-1.68-0.119-3.395,0.216-5.147c0.335-1.752,0.767-3.42,1.296-5.004c0.528-1.487,1.163-2.976,1.908-4.464
		c0.744-1.487,1.739-2.76,2.988-3.816c0.528-0.479,1.14-0.852,1.836-1.116c0.695-0.263,1.404-0.348,2.124-0.252
		c0.288,0.049,0.576,0.12,0.864,0.216c0.288,0.097,0.551,0.265,0.792,0.504c0.144,0.192,0.263,0.385,0.36,0.576
		c0,0.097-0.072,0.156-0.216,0.181c-0.144,0.024-0.265,0.035-0.36,0.035c-0.673,0.049-1.272,0.121-1.8,0.217
		c-0.529,0.097-1.057,0.336-1.584,0.72c-0.625,0.48-1.165,1.021-1.62,1.62c-0.457,0.601-0.876,1.236-1.26,1.908
		c-0.817,1.393-1.537,2.868-2.16,4.428c-0.625,1.561-1.128,3.132-1.512,4.716c-0.192,0.816-0.349,1.668-0.468,2.556
		c-0.121,0.889-0.133,1.741-0.036,2.557c0.047,0.288,0.132,0.611,0.252,0.972c0.119,0.36,0.372,0.587,0.756,0.684
		c0.288,0.096,0.576,0.024,0.864-0.216s0.551-0.48,0.792-0.72c0.576-0.623,1.08-1.296,1.512-2.016
		c0.432-0.721,0.839-1.464,1.224-2.232c0.335-0.623,0.648-1.271,0.936-1.944c0.288-0.671,0.576-1.343,0.864-2.016
		c0.047-0.72,0.108-1.44,0.18-2.16c0.072-0.72,0.18-1.415,0.324-2.088c0.096-0.768,0.24-1.571,0.432-2.412
		c0.191-0.839,0.479-1.595,0.864-2.268c0.24-0.433,0.624-0.695,1.152-0.792c0.096,0,0.191,0.012,0.288,0.036
		c0.096,0.024,0.168,0.035,0.216,0.035c0.527,0.192,0.815,0.529,0.864,1.009c0.047,0.48,0.023,0.936-0.072,1.368
		c-0.097,0.624-0.241,1.236-0.432,1.836c-0.192,0.601-0.408,1.212-0.648,1.836l-0.432,1.008c-0.144,1.296-0.216,2.568-0.216,3.815
		c-0.048,1.009-0.097,2.028-0.144,3.061c-0.048,1.032,0.047,2.028,0.288,2.988c0.095,0.287,0.216,0.624,0.36,1.008
		s0.407,0.6,0.792,0.647c0.432,0.048,0.828-0.084,1.188-0.396s0.659-0.612,0.9-0.9L265.723,151.757z"/>
	<path id="XMLID_136_" class="st0" d="M277.747,152.406c0.383-0.432,0.767-0.875,1.152-1.332c0.384-0.456,0.792-0.875,1.224-1.26
		c0.047-0.048,0.155-0.145,0.324-0.288c0.168-0.145,0.299-0.145,0.396,0c0.047,0.097,0.024,0.252-0.072,0.468
		c-0.097,0.216-0.192,0.372-0.288,0.468c-0.241,0.385-0.48,0.756-0.72,1.116c-0.241,0.36-0.48,0.709-0.72,1.044
		c-0.241,0.337-0.54,0.72-0.9,1.152c-0.36,0.432-0.745,0.828-1.152,1.188c-0.408,0.36-0.84,0.648-1.296,0.864
		c-0.457,0.216-0.925,0.252-1.404,0.108c-0.529-0.097-0.925-0.396-1.188-0.9c-0.265-0.504-0.444-0.996-0.54-1.476
		c-0.288-1.199-0.432-2.424-0.432-3.673c-0.097-1.728-0.061-3.443,0.108-5.147c0.168-1.703,0.348-3.42,0.54-5.148
		c0.096-0.863,0.167-1.739,0.216-2.628c0.047-0.888,0-1.764-0.144-2.628c-0.048-0.576-0.241-0.623-0.576-0.144
		c-0.44,0.576-0.83,1.272-1.171,2.088c-0.684,1.393-1.282,2.833-1.794,4.32c-0.513,1.488-0.964,3-1.354,4.535
		c-0.047,1.394-0.105,2.785-0.175,4.177c-0.069,1.393-0.195,2.784-0.38,4.176c0,0.144-0.024,0.385-0.07,0.72
		c-0.046,0.337-0.116,0.672-0.208,1.008s-0.22,0.6-0.381,0.792c-0.162,0.191-0.381,0.168-0.658-0.071
		c-0.288-0.241-0.432-0.602-0.432-1.08c0-0.479,0.023-0.888,0.072-1.225c0.047-0.432,0.096-0.863,0.144-1.296
		c0.047-0.432,0.12-0.839,0.216-1.224c0-0.24,0.023-0.433,0.072-0.576c-0.048-0.239-0.072-0.623-0.072-1.152
		c-0.048-1.104-0.097-2.22-0.144-3.348c-0.048-1.127-0.121-2.243-0.216-3.348c-0.095-0.96-0.18-1.944-0.252-2.952
		c-0.072-1.008-0.131-1.991-0.18-2.952c-0.047-0.384-0.06-0.779-0.036-1.188c0.025-0.407,0.133-0.779,0.324-1.115
		c0.095-0.191,0.204-0.348,0.324-0.469c0.119-0.119,0.276-0.131,0.468-0.035c0.274,0.192,0.525,0.432,0.753,0.72
		c0.366,0.48,0.572,1.057,0.618,1.728c0.045,0.673,0.069,1.272,0.069,1.8c0.047,0.673,0.083,1.345,0.108,2.017
		c0.023,0.673,0.036,1.345,0.036,2.016c0.144-0.72,0.312-1.343,0.504-1.872c0.243-0.863,0.485-1.703,0.728-2.52
		c0.243-0.815,0.535-1.632,0.875-2.448c0.193-0.576,0.497-1.26,0.91-2.052c0.412-0.792,1.007-1.212,1.784-1.26
		c0.437-0.048,0.777,0.061,1.021,0.323c0.243,0.265,0.424,0.576,0.545,0.937c0.122,0.359,0.206,0.744,0.255,1.152
		c0.048,0.408,0.073,0.756,0.073,1.044c0.096,0.912,0.132,1.8,0.108,2.663c-0.025,0.864-0.036,1.753-0.036,2.664
		c-0.048,1.633-0.12,3.266-0.216,4.896c-0.097,1.632-0.169,3.265-0.216,4.896c-0.097,0.721-0.097,1.417,0,2.089
		c0,0.24,0.011,0.552,0.036,0.936c0.024,0.385,0.132,0.648,0.324,0.792c0.096,0.096,0.24,0.119,0.432,0.072
		c0.191-0.048,0.396-0.145,0.612-0.288c0.216-0.145,0.407-0.288,0.576-0.433c0.167-0.144,0.299-0.263,0.396-0.359
		C277.001,153.198,277.362,152.837,277.747,152.406z"/>
	<path id="XMLID_138_" class="st0" d="M292.578,154.133c0.24-0.096,0.443-0.167,0.612-0.216c0.167-0.047,0.371-0.144,0.612-0.288
		c0.24-0.191,0.456-0.384,0.648-0.576c0.191-0.19,0.384-0.407,0.576-0.647l1.008-1.296c0.096-0.096,0.191-0.216,0.288-0.36
		c0.096-0.144,0.216-0.239,0.36-0.288c0.096,0,0.144,0.085,0.144,0.252c0,0.169-0.025,0.36-0.072,0.576
		c-0.048,0.216-0.108,0.432-0.18,0.648c-0.072,0.216-0.108,0.349-0.108,0.396c-0.241,0.433-0.48,0.864-0.72,1.296
		c-0.241,0.433-0.552,0.817-0.936,1.152c-0.385,0.335-0.84,0.612-1.368,0.828c-0.529,0.216-1.033,0.203-1.512-0.036
		c-0.48-0.241-0.828-0.612-1.044-1.116s-0.373-0.995-0.468-1.476c-0.241-1.104-0.384-2.232-0.432-3.384
		c-0.048-1.152-0.072-2.279-0.072-3.385c-0.048-0.911-0.061-1.823-0.036-2.735c0.023-0.911,0.036-1.848,0.036-2.809
		c-0.288,1.008-0.576,2.005-0.864,2.988c-0.288,0.984-0.601,1.956-0.936,2.916c-0.288,0.816-0.588,1.656-0.9,2.52
		c-0.313,0.864-0.661,1.705-1.044,2.521c-0.336,0.673-0.709,1.393-1.116,2.16c-0.408,0.769-0.948,1.368-1.62,1.8
		c-0.432,0.239-0.889,0.348-1.368,0.324c-0.48-0.025-0.913-0.229-1.296-0.612c-0.528-0.528-0.84-1.212-0.936-2.052
		c-0.095-0.84-0.144-1.644-0.144-2.412c0-1.584,0.167-3.18,0.504-4.788c0.335-1.607,0.767-3.18,1.296-4.716
		c0.479-1.248,1.044-2.508,1.692-3.78c0.648-1.271,1.476-2.363,2.484-3.276c0.528-0.527,1.14-0.947,1.836-1.26
		c0.695-0.312,1.404-0.371,2.124-0.18c0.096,0.048,0.216,0.084,0.36,0.107c0.144,0.025,0.263,0.085,0.36,0.181
		c0.096-1.104,0.191-2.184,0.288-3.24c0.096-1.056,0.191-2.135,0.288-3.24c0.239-1.775,0.468-3.539,0.684-5.292
		c0.216-1.751,0.468-3.516,0.756-5.292c0.144-0.863,0.288-1.739,0.432-2.628c0.144-0.888,0.335-1.739,0.576-2.556
		c0.096-0.335,0.252-0.731,0.468-1.188c0.216-0.455,0.54-0.659,0.972-0.611c0.096,0.048,0.191,0.071,0.288,0.071
		c0.047,0,0.083,0.013,0.108,0.036c0.024,0.025,0.06,0.036,0.108,0.036h0.144c0,0.049,0.072,0.12,0.216,0.216
		c0.144,0.097,0.24,0.192,0.288,0.288c0.144,0.241,0.216,0.48,0.216,0.72c0.096,0.817,0.072,1.633-0.072,2.448
		c-0.144,0.817-0.265,1.633-0.36,2.448c-0.288,1.776-0.612,3.54-0.972,5.292c-0.36,1.753-0.732,3.517-1.116,5.292
		c-0.097,0.528-0.205,1.068-0.324,1.62c-0.12,0.553-0.252,1.092-0.396,1.62c-0.144,1.344-0.288,2.664-0.432,3.96
		s-0.265,2.616-0.36,3.96c-0.144,1.632-0.264,3.265-0.36,4.896c-0.097,1.633-0.168,3.265-0.216,4.896
		c0,1.393,0.072,2.808,0.216,4.248c0.047,0.336,0.096,0.673,0.144,1.008c0.047,0.336,0.119,0.673,0.216,1.008
		c0.096,0.385,0.191,0.648,0.288,0.792c0,0.049,0.024,0.097,0.072,0.145C292.506,154.11,292.53,154.133,292.578,154.133z
		 M288.114,141.822c0.767-2.544,1.415-5.016,1.944-7.416c-0.432-0.047-0.816,0.024-1.152,0.216
		c-0.288,0.192-0.552,0.385-0.792,0.576c-0.241,0.192-0.48,0.408-0.72,0.647c-0.529,0.625-0.984,1.285-1.368,1.98
		c-0.385,0.696-0.745,1.38-1.08,2.052c-0.72,1.537-1.357,3.108-1.908,4.716c-0.552,1.609-0.997,3.253-1.332,4.933
		c-0.097,0.432-0.168,0.864-0.216,1.296c-0.048,0.432-0.072,0.889-0.072,1.368c0,0.336,0.012,0.696,0.036,1.08
		c0.024,0.385,0.155,0.696,0.396,0.936c0.24,0.288,0.504,0.349,0.792,0.18c0.288-0.167,0.564-0.419,0.828-0.756
		c0.263-0.335,0.492-0.695,0.684-1.08c0.191-0.383,0.335-0.647,0.432-0.792c0.815-1.535,1.487-3.155,2.016-4.859
		C287.13,145.195,287.634,143.502,288.114,141.822z"/>
	<path id="XMLID_141_" class="st0" d="M309.065,156.438c0.767-0.337,1.548-0.612,2.34-0.828s1.595-0.421,2.412-0.612
		c0.479-0.144,0.959-0.276,1.44-0.396c0.479-0.119,0.983-0.228,1.512-0.324c-0.192-1.104-0.324-2.172-0.396-3.204
		c-0.072-1.031-0.157-2.1-0.252-3.204c-0.097-0.911-0.169-1.8-0.216-2.664c-0.048-0.864-0.072-1.728-0.072-2.592
		c0-2.736,0.036-5.46,0.108-8.172s0.204-5.437,0.396-8.172c0.144-2.88,0.36-5.761,0.648-8.641l0.432-3.239
		c0.047-0.24,0.083-0.505,0.108-0.792c0.023-0.288,0.083-0.576,0.18-0.864h-0.288c-1.105,0.144-2.232,0.276-3.384,0.396
		c-1.152,0.121-2.304,0.229-3.456,0.324c-0.385,0.049-0.781,0.061-1.188,0.036c-0.408-0.023-0.732-0.228-0.972-0.612
		c-0.288-0.527-0.205-0.959,0.252-1.296c0.456-0.335,0.875-0.551,1.26-0.647c2.16-0.624,4.295-1.271,6.408-1.944
		c2.112-0.672,4.248-1.344,6.408-2.016c0.288-0.048,0.9-0.217,1.836-0.505c0.936-0.287,1.896-0.504,2.88-0.647
		c0.983-0.145,1.811-0.132,2.484,0.036c0.672,0.169,0.864,0.66,0.576,1.476c-0.288,0.961-0.889,1.729-1.8,2.304
		c-0.912,0.576-1.776,1.033-2.592,1.368c-0.673,0.241-1.357,0.433-2.052,0.576c-0.697,0.145-1.404,0.288-2.124,0.433l-2.52,0.432
		v0.144c-0.048,0.48-0.072,0.948-0.072,1.404c0,0.457,0,0.948,0,1.476c-0.097,3.553-0.156,7.081-0.18,10.584
		c-0.025,3.505-0.061,7.033-0.108,10.584c0,2.881-0.012,5.737-0.036,8.568c-0.025,2.833-0.061,5.688-0.108,8.568l1.008-0.216
		c0.767-0.145,1.536-0.288,2.304-0.433c0.768-0.144,1.536-0.263,2.304-0.359c0.671-0.096,1.368,0.012,2.088,0.323
		c0.72,0.313,1.127,0.854,1.224,1.62c0.047,0.576-0.072,1.02-0.36,1.332c-0.288,0.312-0.661,0.552-1.116,0.72
		c-0.457,0.168-0.936,0.288-1.44,0.36s-0.948,0.132-1.332,0.18c-1.296,0.145-2.604,0.3-3.924,0.469
		c-1.321,0.167-2.628,0.348-3.924,0.54c-1.008,0.144-2.016,0.275-3.024,0.396c-1.008,0.119-2.016,0.204-3.024,0.252
		c-0.385,0.048-0.769,0.06-1.152,0.036c-0.385-0.024-0.696-0.156-0.936-0.396c-0.241-0.192-0.335-0.409-0.288-0.648
		c0.047-0.241,0.18-0.457,0.396-0.648c0.216-0.192,0.456-0.359,0.72-0.504C308.716,156.654,308.921,156.534,309.065,156.438z"/>
	<path id="XMLID_143_" class="st0" d="M339.376,152.406c0.383-0.432,0.767-0.875,1.152-1.332c0.384-0.456,0.792-0.875,1.224-1.26
		c0.047-0.048,0.155-0.145,0.324-0.288c0.168-0.145,0.299-0.145,0.396,0c0.047,0.097,0.024,0.252-0.072,0.468
		c-0.097,0.216-0.192,0.372-0.288,0.468c-0.241,0.385-0.48,0.756-0.72,1.116c-0.241,0.36-0.48,0.709-0.72,1.044
		c-0.241,0.337-0.54,0.72-0.9,1.152c-0.36,0.432-0.745,0.828-1.152,1.188c-0.408,0.36-0.84,0.648-1.296,0.864
		c-0.457,0.216-0.925,0.252-1.404,0.108c-0.529-0.097-0.925-0.396-1.188-0.9c-0.265-0.504-0.444-0.996-0.54-1.476
		c-0.288-1.199-0.432-2.424-0.432-3.673c-0.097-1.728-0.061-3.443,0.108-5.147c0.168-1.703,0.348-3.42,0.54-5.148
		c0.096-0.863,0.167-1.739,0.216-2.628c0.047-0.888,0-1.764-0.144-2.628c-0.048-0.576-0.241-0.623-0.576-0.144
		c-0.44,0.576-0.83,1.272-1.171,2.088c-0.684,1.393-1.282,2.833-1.794,4.32c-0.513,1.488-0.964,3-1.354,4.535
		c-0.047,1.394-0.105,2.785-0.175,4.177c-0.069,1.393-0.195,2.784-0.38,4.176c0,0.144-0.024,0.385-0.07,0.72
		c-0.046,0.337-0.116,0.672-0.208,1.008s-0.22,0.6-0.381,0.792c-0.162,0.191-0.381,0.168-0.658-0.071
		c-0.288-0.241-0.432-0.602-0.432-1.08c0-0.479,0.023-0.888,0.072-1.225c0.047-0.432,0.096-0.863,0.144-1.296
		c0.047-0.432,0.12-0.839,0.216-1.224c0-0.24,0.023-0.433,0.072-0.576c-0.048-0.239-0.072-0.623-0.072-1.152
		c-0.048-1.104-0.097-2.22-0.144-3.348c-0.048-1.127-0.121-2.243-0.216-3.348c-0.095-0.96-0.18-1.944-0.252-2.952
		c-0.072-1.008-0.131-1.991-0.18-2.952c-0.047-0.384-0.06-0.779-0.036-1.188c0.025-0.407,0.133-0.779,0.324-1.115
		c0.095-0.191,0.204-0.348,0.324-0.469c0.119-0.119,0.276-0.131,0.468-0.035c0.274,0.192,0.525,0.432,0.753,0.72
		c0.366,0.48,0.572,1.057,0.618,1.728c0.045,0.673,0.069,1.272,0.069,1.8c0.047,0.673,0.083,1.345,0.108,2.017
		c0.023,0.673,0.036,1.345,0.036,2.016c0.144-0.72,0.312-1.343,0.504-1.872c0.243-0.863,0.485-1.703,0.728-2.52
		c0.243-0.815,0.535-1.632,0.875-2.448c0.193-0.576,0.497-1.26,0.91-2.052c0.412-0.792,1.007-1.212,1.784-1.26
		c0.437-0.048,0.777,0.061,1.021,0.323c0.243,0.265,0.424,0.576,0.545,0.937c0.122,0.359,0.206,0.744,0.255,1.152
		c0.048,0.408,0.073,0.756,0.073,1.044c0.096,0.912,0.132,1.8,0.108,2.663c-0.025,0.864-0.036,1.753-0.036,2.664
		c-0.048,1.633-0.12,3.266-0.216,4.896c-0.097,1.632-0.169,3.265-0.216,4.896c-0.097,0.721-0.097,1.417,0,2.089
		c0,0.24,0.011,0.552,0.036,0.936c0.024,0.385,0.132,0.648,0.324,0.792c0.096,0.096,0.24,0.119,0.432,0.072
		c0.191-0.048,0.396-0.145,0.612-0.288c0.216-0.145,0.407-0.288,0.576-0.433c0.167-0.144,0.299-0.263,0.396-0.359
		C338.631,153.198,338.992,152.837,339.376,152.406z"/>
	<path id="XMLID_145_" class="st0" d="M343.48,155.213c-0.385-0.576-0.529-1.224-0.432-1.943c0-0.145,0.096-0.407,0.288-0.792
		c0.191-0.384,0.407-0.479,0.648-0.288c0.191,0.144,0.312,0.396,0.36,0.756c0.047,0.36,0.096,0.637,0.144,0.828
		c0.239,0.576,0.504,1.008,0.792,1.296c0.432,0.432,0.996,0.672,1.692,0.72c0.695,0.048,1.308-0.12,1.835-0.504
		c0.623-0.48,0.996-1.104,1.117-1.872c0.119-0.768,0.131-1.487,0.035-2.16c-0.096-0.815-0.336-1.584-0.721-2.304
		s-0.84-1.392-1.367-2.016l-1.584-1.872c-1.105,2.352-2.401,4.68-3.888,6.983c-0.097,0.097-0.264,0.324-0.504,0.685
		c-0.241,0.359-0.457,0.372-0.648,0.036c-0.24-0.433-0.227-0.853,0.036-1.261c0.263-0.407,0.515-0.803,0.756-1.188
		c0.672-0.96,1.296-1.98,1.872-3.061s1.104-2.171,1.584-3.275c-0.097-0.191-0.205-0.384-0.324-0.576
		c-0.12-0.191-0.228-0.407-0.324-0.648c-0.385-0.815-0.661-1.62-0.828-2.412c-0.168-0.792-0.156-1.595,0.036-2.411
		c0.096-0.576,0.275-1.14,0.54-1.692c0.263-0.552,0.636-0.996,1.116-1.332c0.624-0.288,1.224-0.275,1.801,0.036
		c0.576,0.312,0.91,0.805,1.008,1.476c0.096,1.008,0.023,2.028-0.217,3.061s-0.553,2.052-0.936,3.06
		c0.287,0.529,0.588,1.057,0.9,1.584c0.311,0.529,0.658,1.057,1.043,1.584c0.432,0.673,0.84,1.404,1.225,2.196
		c0.383,0.792,0.66,1.597,0.828,2.412c0.168,0.816,0.203,1.645,0.107,2.483c-0.096,0.841-0.359,1.646-0.791,2.412
		c-0.385,0.672-0.9,1.163-1.549,1.477c-0.648,0.312-1.32,0.468-2.016,0.468c-0.696,0-1.368-0.169-2.016-0.504
		C344.452,156.317,343.912,155.837,343.48,155.213z M346,137.934c0.047,0.528,0.132,1.032,0.252,1.512
		c0.12,0.48,0.276,0.961,0.468,1.439c0.335-1.055,0.551-2.135,0.648-3.239c0-0.24-0.036-0.588-0.107-1.044
		c-0.073-0.456-0.301-0.636-0.685-0.54c-0.336,0.097-0.529,0.372-0.576,0.828C345.952,137.346,345.952,137.694,346,137.934z"/>
	<path id="XMLID_148_" class="st0" d="M356.728,155.358c-0.097-0.097-0.192-0.241-0.288-0.433c0,1.584,0.012,3.18,0.036,4.788
		c0.023,1.608,0.036,3.228,0.036,4.86c0,0.911-0.013,1.812-0.036,2.7c-0.024,0.888-0.061,1.787-0.108,2.7
		c0,0.911-0.071,1.8-0.216,2.663c-0.097,0.24-0.18,0.492-0.252,0.757c-0.072,0.263-0.229,0.468-0.468,0.611
		c-0.625,0.336-1.116,0.252-1.477-0.252c-0.359-0.504-0.587-0.996-0.684-1.476c-0.239-0.817-0.371-1.656-0.396-2.521
		c-0.023-0.863-0.035-1.728-0.035-2.592c0-1.824,0.084-3.636,0.252-5.436c0.168-1.801,0.372-3.589,0.611-5.364l0.504-3.6v-3.312
		c-0.097-3.312-0.024-6.624,0.217-9.936c0.096-1.297,0.216-2.593,0.359-3.889c0.145-1.296,0.433-2.567,0.864-3.815
		c0.047-0.096,0.119-0.264,0.216-0.504c0.096-0.24,0.216-0.469,0.36-0.685c0.144-0.216,0.275-0.348,0.396-0.396
		c0.119-0.048,0.228,0.048,0.324,0.288c0.145,0.672,0.204,1.332,0.18,1.979c-0.024,0.648-0.084,1.309-0.18,1.98
		c-0.144,1.536-0.252,3.06-0.324,4.571c-0.071,1.513-0.133,3.037-0.18,4.572v0.072c0.144-0.384,0.288-0.768,0.432-1.152
		c0.145-0.384,0.312-0.767,0.504-1.151c0.336-0.672,0.731-1.344,1.188-2.017c0.456-0.672,1.044-1.152,1.764-1.439
		c0.768-0.336,1.5-0.324,2.196,0.035c0.695,0.36,1.235,0.877,1.62,1.549c0.432,0.72,0.72,1.512,0.864,2.376
		c0.144,0.863,0.239,1.728,0.288,2.592c0.047,1.584-0.085,3.204-0.396,4.859c-0.312,1.656-0.828,3.181-1.548,4.572
		c-0.337,0.672-0.756,1.296-1.26,1.872s-1.116,0.96-1.836,1.152c-0.673,0.144-1.332,0.072-1.98-0.216
		C357.628,156.438,357.111,155.981,356.728,155.358z M358.167,143.333c-0.384,0.961-0.72,1.933-1.008,2.916
		c-0.288,0.984-0.552,1.956-0.792,2.916v0.433c0.096-0.096,0.24-0.191,0.433-0.288c0.288-0.096,0.419-0.024,0.396,0.216
		c-0.024,0.24-0.061,0.457-0.107,0.647c0,0.241,0.011,0.48,0.035,0.721s0.06,0.48,0.108,0.72c0.096,0.528,0.239,1.068,0.432,1.62
		c0.191,0.552,0.479,1.021,0.864,1.403c0.479,0.479,0.937,0.588,1.368,0.324s0.803-0.684,1.116-1.26
		c0.312-0.576,0.563-1.199,0.756-1.872c0.191-0.672,0.335-1.152,0.432-1.439c0.336-1.297,0.563-2.629,0.685-3.996
		c0.119-1.368,0.107-2.724-0.036-4.068c0-0.239-0.049-0.563-0.145-0.972c-0.097-0.407-0.228-0.78-0.396-1.116
		c-0.169-0.335-0.385-0.587-0.648-0.756c-0.264-0.168-0.611-0.155-1.044,0.036c-0.673,0.385-1.188,0.948-1.548,1.691
		C358.707,141.954,358.407,142.661,358.167,143.333z"/>
	<path id="XMLID_151_" class="st0" d="M374.654,148.734c0.096-0.24,0.252-0.479,0.468-0.72s0.468-0.384,0.756-0.433
		c0.288-0.047,0.479,0.12,0.576,0.504c0,0.241-0.061,0.504-0.18,0.792c-0.12,0.288-0.252,0.553-0.396,0.792l-0.863,1.729
		c-0.385,0.673-0.792,1.308-1.225,1.908c-0.432,0.601-0.984,1.141-1.656,1.619c-0.624,0.433-1.271,0.564-1.943,0.396
		c-0.673-0.169-1.232-0.564-1.68-1.188c-0.448-0.671-0.771-1.403-0.969-2.195c-0.199-0.792-0.349-1.572-0.448-2.34
		c-0.097-0.864-0.18-1.716-0.252-2.557c-0.071-0.839-0.107-1.691-0.107-2.556c0-1.44,0.048-2.88,0.144-4.32
		c0.096-1.439,0.216-2.855,0.36-4.248c0.05-0.335,0.099-0.636,0.148-0.899s0.272-0.372,0.669-0.324
		c0.248,0.048,0.654,0.156,1.218,0.324c0.562,0.168,0.868,0.396,0.917,0.684c0.096,0.241,0.107,0.493,0.036,0.756
		c-0.072,0.265-0.108,0.517-0.108,0.756l-0.216,2.017c-0.097,0.912-0.18,1.8-0.252,2.664c-0.072,0.863-0.133,1.728-0.181,2.592
		c-0.097,0.912-0.18,1.812-0.252,2.7c-0.071,0.889-0.084,1.788-0.035,2.699c0,0.433,0.023,0.864,0.071,1.297
		c0.048,0.432,0.145,0.863,0.288,1.296c0.096,0.24,0.204,0.516,0.324,0.828c0.119,0.312,0.348,0.516,0.684,0.611
		c0.288,0.097,0.576,0.049,0.864-0.144c0.288-0.191,0.552-0.42,0.792-0.685c0.24-0.263,0.456-0.551,0.648-0.863
		c0.191-0.312,0.359-0.564,0.504-0.757C373.838,150.654,374.27,149.742,374.654,148.734z M370.334,123.965
		c0.768,0,1.308,0.313,1.62,0.937c0.312,0.624,0.396,1.272,0.252,1.943c-0.192,0.673-0.564,1.272-1.116,1.801
		s-1.188,0.792-1.907,0.792c-0.817,0-1.381-0.312-1.692-0.937c-0.312-0.623-0.372-1.271-0.18-1.943
		c0.144-0.672,0.504-1.271,1.08-1.801C368.966,124.23,369.614,123.965,370.334,123.965z"/>
	<path id="XMLID_154_" class="st0" d="M383.222,141.39c-0.048,0.048-0.024,0.061,0.072,0.035c0.096-0.023,0.216-0.06,0.36-0.107
		c0.144-0.048,0.275-0.108,0.396-0.181c0.119-0.071,0.204-0.107,0.252-0.107c0.384-0.096,0.564,0,0.54,0.288
		s-0.107,0.528-0.252,0.72c-0.192,0.241-0.385,0.48-0.576,0.72c-0.192,0.241-0.432,0.409-0.72,0.504
		c-0.385,0.145-0.709,0.157-0.972,0.036c-0.265-0.119-0.48-0.323-0.648-0.611c-0.169-0.288-0.3-0.612-0.396-0.973
		c-0.097-0.359-0.169-0.684-0.216-0.972c-0.145-0.815-0.229-1.644-0.252-2.484c-0.025-0.839-0.062-1.691-0.108-2.556
		c0-0.191,0.011-0.407,0.036-0.648c0.023-0.239-0.013-0.479-0.108-0.72c-0.097-0.191-0.24-0.107-0.432,0.252
		c-0.192,0.36-0.312,0.565-0.36,0.612c-0.673,1.393-1.224,2.844-1.656,4.355c-0.432,1.513-0.792,3.037-1.079,4.572
		c0.095,0.576,0.155,1.152,0.18,1.729c0.023,0.575,0.06,1.151,0.107,1.728c0.048,0.816,0.061,1.656,0.036,2.521
		c-0.024,0.863-0.084,1.728-0.18,2.592c-0.097,0.864-0.241,1.728-0.432,2.592c-0.097,0.288-0.229,0.576-0.396,0.864
		c-0.169,0.288-0.421,0.455-0.756,0.504c-0.432,0.047-0.696-0.301-0.792-1.044c-0.096-0.745-0.108-1.607-0.036-2.592
		c0.072-0.983,0.18-1.932,0.324-2.845c0.144-0.911,0.239-1.487,0.288-1.728c0-0.191,0.023-0.36,0.072-0.504
		c-0.049-0.528-0.098-1.08-0.145-1.656c-0.048-0.576-0.12-1.176-0.216-1.8c-0.097-0.623-0.18-1.248-0.252-1.872
		c-0.072-0.623-0.204-1.271-0.396-1.944c-0.144-0.432-0.023-0.743,0.36-0.936c0.239-0.145,0.504-0.155,0.792-0.036
		c0.288,0.12,0.479,0.301,0.576,0.54c0.191,0.385,0.312,0.696,0.359,0.936l0.792-3.384c0.24-0.815,0.479-1.607,0.721-2.376
		c0.239-0.768,0.551-1.512,0.936-2.231c0.336-0.672,0.888-1.128,1.656-1.368c0.384-0.096,0.731-0.036,1.044,0.18
		c0.312,0.216,0.563,0.468,0.756,0.756c0.433,0.673,0.685,1.417,0.756,2.232c0.072,0.816,0.108,1.608,0.108,2.376
		c0,0.385-0.024,0.792-0.072,1.224c-0.048,0.433-0.072,0.841-0.072,1.225c-0.048,0.24-0.084,0.516-0.107,0.827
		C383.09,140.947,383.125,141.199,383.222,141.39z"/>
	<path id="XMLID_156_" class="st0" d="M401.293,151.757c0.095-0.096,0.252-0.288,0.468-0.575c0.216-0.288,0.396-0.384,0.54-0.288
		c0.144,0.097,0.167,0.288,0.071,0.575c-0.097,0.288-0.168,0.48-0.216,0.576c-0.48,1.152-1.151,2.185-2.016,3.097
		c-0.48,0.527-1.069,0.936-1.764,1.224c-0.697,0.288-1.381,0.239-2.053-0.145c-0.673-0.384-1.177-0.948-1.512-1.691
		c-0.336-0.744-0.576-1.451-0.72-2.124c-0.241-0.864-0.385-1.729-0.433-2.592c-0.048,0.048-0.071,0.097-0.071,0.144
		c-0.576,1.104-1.213,2.232-1.908,3.384c-0.696,1.152-1.548,2.088-2.557,2.809c-0.432,0.288-0.889,0.468-1.367,0.54
		c-0.48,0.071-0.937-0.061-1.368-0.396c-0.48-0.336-0.805-0.78-0.972-1.332c-0.169-0.551-0.277-1.091-0.324-1.62
		c-0.191-1.68-0.119-3.395,0.216-5.147c0.335-1.752,0.768-3.42,1.296-5.004c0.527-1.487,1.163-2.976,1.908-4.464
		c0.743-1.487,1.739-2.76,2.988-3.816c0.527-0.479,1.139-0.852,1.836-1.116c0.695-0.263,1.403-0.348,2.124-0.252
		c0.287,0.049,0.575,0.12,0.863,0.216c0.288,0.097,0.552,0.265,0.792,0.504c0.145,0.192,0.264,0.385,0.36,0.576
		c0,0.097-0.072,0.156-0.216,0.181c-0.145,0.024-0.265,0.035-0.36,0.035c-0.673,0.049-1.272,0.121-1.8,0.217
		c-0.529,0.097-1.057,0.336-1.584,0.72c-0.624,0.48-1.164,1.021-1.62,1.62c-0.457,0.601-0.876,1.236-1.26,1.908
		c-0.817,1.393-1.537,2.868-2.16,4.428c-0.624,1.561-1.129,3.132-1.512,4.716c-0.192,0.816-0.349,1.668-0.469,2.556
		c-0.12,0.889-0.133,1.741-0.035,2.557c0.047,0.288,0.131,0.611,0.252,0.972c0.119,0.36,0.371,0.587,0.756,0.684
		c0.288,0.096,0.576,0.024,0.863-0.216c0.288-0.24,0.552-0.48,0.792-0.72c0.576-0.623,1.08-1.296,1.513-2.016
		c0.432-0.721,0.839-1.464,1.224-2.232c0.335-0.623,0.648-1.271,0.937-1.944c0.288-0.671,0.575-1.343,0.863-2.016
		c0.048-0.72,0.108-1.44,0.181-2.16c0.071-0.72,0.18-1.415,0.323-2.088c0.096-0.768,0.24-1.571,0.433-2.412
		c0.191-0.839,0.479-1.595,0.864-2.268c0.239-0.433,0.623-0.695,1.151-0.792c0.096,0,0.191,0.012,0.288,0.036
		c0.096,0.024,0.168,0.035,0.216,0.035c0.528,0.192,0.816,0.529,0.864,1.009c0.047,0.48,0.023,0.936-0.072,1.368
		c-0.097,0.624-0.24,1.236-0.432,1.836c-0.192,0.601-0.408,1.212-0.648,1.836l-0.432,1.008c-0.144,1.296-0.216,2.568-0.216,3.815
		c-0.049,1.009-0.097,2.028-0.145,3.061s0.048,2.028,0.288,2.988c0.096,0.287,0.216,0.624,0.36,1.008
		c0.144,0.384,0.407,0.6,0.792,0.647c0.432,0.048,0.828-0.084,1.188-0.396c0.36-0.312,0.66-0.612,0.9-0.9L401.293,151.757z"/>
	<path id="XMLID_158_" class="st0" d="M397.477,126.341c0.912-0.623,1.872-1.055,2.88-1.296c1.008-0.239,1.989-0.455,2.945-0.647
		l0.569-0.072l0.428-1.512c0.188-0.433,0.462-0.576,0.817-0.433c0.355,0.145,0.629,0.385,0.819,0.721
		c0.142,0.24,0.167,0.528,0.072,0.863c0.236-0.047,0.438-0.06,0.604-0.036c0.167,0.025,0.368,0.062,0.605,0.108
		c0.237,0.097,0.522,0.216,0.855,0.36c0.332,0.144,0.545,0.408,0.641,0.792c0.095,0.385,0.047,0.72-0.143,1.008
		c-0.19,0.288-0.38,0.504-0.569,0.647c-0.38,0.385-0.797,0.685-1.246,0.9c-0.451,0.216-0.914,0.396-1.389,0.54l-0.284,2.448
		c-0.239,1.728-0.464,3.456-0.678,5.184c-0.214,1.729-0.415,3.456-0.604,5.185c-0.191,1.728-0.346,3.491-0.464,5.292
		c-0.119,1.8-0.06,3.589,0.178,5.363c0.047,0.288,0.096,0.637,0.143,1.044c0.048,0.409,0.142,0.792,0.285,1.152
		c0.142,0.36,0.332,0.672,0.569,0.937c0.237,0.263,0.545,0.396,0.926,0.396c0.521-0.049,0.996-0.301,1.424-0.756
		c0.428-0.456,0.807-0.983,1.14-1.584c0.332-0.6,0.581-1.212,0.747-1.836c0.167-0.623,0.273-1.104,0.32-1.44v-0.071
		c-0.097-0.864-0.18-1.716-0.252-2.557c-0.071-0.839-0.107-1.691-0.107-2.556c0-1.44,0.047-2.88,0.144-4.32
		c0.096-1.439,0.216-2.855,0.36-4.248c0.049-0.335,0.099-0.636,0.148-0.899s0.272-0.372,0.669-0.324
		c0.248,0.048,0.654,0.156,1.218,0.324c0.562,0.168,0.868,0.396,0.917,0.684c0.096,0.241,0.107,0.493,0.036,0.756
		c-0.072,0.265-0.108,0.517-0.108,0.756l-0.216,2.017c-0.097,0.912-0.181,1.8-0.252,2.664c-0.072,0.863-0.133,1.728-0.181,2.592
		c-0.097,0.912-0.18,1.812-0.252,2.7c-0.071,0.889-0.084,1.788-0.036,2.699c0,0.433,0.024,0.864,0.072,1.297
		c0.048,0.432,0.145,0.863,0.288,1.296c0.096,0.24,0.204,0.516,0.324,0.828c0.119,0.312,0.348,0.516,0.684,0.611
		c0.288,0.097,0.576,0.049,0.864-0.144c0.288-0.191,0.552-0.42,0.792-0.685c0.239-0.263,0.456-0.551,0.648-0.863
		c0.19-0.312,0.359-0.564,0.504-0.757c0.479-0.815,0.911-1.728,1.296-2.735c0.096-0.24,0.252-0.479,0.468-0.72
		s0.468-0.384,0.756-0.433c0.288-0.047,0.479,0.12,0.576,0.504c0,0.241-0.061,0.504-0.18,0.792
		c-0.121,0.288-0.252,0.553-0.396,0.792l-0.864,1.729c-0.385,0.673-0.792,1.308-1.224,1.908s-0.984,1.141-1.656,1.619
		c-0.624,0.433-1.272,0.564-1.943,0.396c-0.673-0.169-1.225-0.564-1.656-1.188c-0.432-0.575-0.696-1.127-0.792-1.655l-0.36,0.936
		c-0.24,0.529-0.54,1.033-0.899,1.512c-0.36,0.479-0.805,0.888-1.332,1.225c-0.529,0.384-1.141,0.6-1.836,0.647
		c-0.696,0.048-1.285-0.192-1.765-0.72c-0.624-0.528-1.056-1.224-1.296-2.088s-0.408-1.68-0.504-2.448
		c-0.288-1.728-0.432-3.503-0.432-5.328c-0.096-1.823-0.096-3.623,0-5.399c0.096-1.775,0.239-3.575,0.432-5.4
		c0.096-1.055,0.216-2.111,0.36-3.168c0.144-1.056,0.335-2.088,0.576-3.096c-0.529,0.144-1.044,0.264-1.549,0.359
		c-0.504,0.097-1.019,0.097-1.548,0c-0.384-0.096-0.779-0.252-1.188-0.468c-0.407-0.216-0.756-0.515-1.044-0.899
		C396.709,127.421,396.757,126.822,397.477,126.341z M413.316,123.965c0.768,0,1.308,0.313,1.62,0.937
		c0.312,0.624,0.396,1.272,0.252,1.943c-0.192,0.673-0.564,1.272-1.116,1.801s-1.188,0.792-1.907,0.792
		c-0.817,0-1.381-0.312-1.692-0.937c-0.312-0.623-0.372-1.271-0.18-1.943c0.144-0.672,0.504-1.271,1.08-1.801
		C411.948,124.23,412.597,123.965,413.316,123.965z"/>
	<path id="XMLID_161_" class="st0" d="M419.651,134.982c0.288-0.336,0.659-0.659,1.115-0.973c0.456-0.312,0.947-0.491,1.477-0.54
		c0.864-0.335,1.728-0.071,2.592,0.792c0.576,0.576,0.996,1.249,1.26,2.017c0.264,0.769,0.469,1.536,0.612,2.304
		c0.288,1.729,0.36,3.505,0.216,5.328c0,0.097-0.012,0.192-0.036,0.288c-0.024,0.097-0.036,0.192-0.036,0.288
		c0.528-0.24,1.009-0.516,1.44-0.828c0.432-0.312,0.839-0.636,1.224-0.972c0.048-0.048,0.155-0.155,0.324-0.324
		c0.168-0.168,0.335-0.3,0.504-0.396c0.168-0.096,0.336-0.155,0.504-0.18c0.168-0.023,0.252,0.084,0.252,0.324
		c0,0.576-0.264,1.068-0.792,1.476c-0.528,0.408-0.984,0.756-1.367,1.044c-0.721,0.576-1.44,0.961-2.16,1.152
		c-0.145,1.393-0.396,2.784-0.756,4.176c-0.36,1.393-0.925,2.664-1.692,3.816c-0.241,0.336-0.48,0.647-0.72,0.936
		c-0.241,0.288-0.553,0.527-0.937,0.72c-0.336,0.24-0.66,0.36-0.972,0.36c-0.312,0-0.66,0-1.044,0
		c-0.72-0.192-1.309-0.553-1.764-1.08c-0.457-0.527-0.828-1.127-1.116-1.8c-0.288-0.815-0.493-1.656-0.612-2.52
		c-0.12-0.864-0.205-1.729-0.252-2.593c-0.047-0.815-0.06-1.644-0.036-2.483c0.024-0.84,0.083-1.692,0.18-2.557
		c0.145-1.247,0.396-2.507,0.757-3.779c0.359-1.271,0.875-2.46,1.548-3.564L419.651,134.982z M424.691,146.07
		c-1.394-0.096-2.448-0.612-3.168-1.548c-0.721-0.937-1.201-2.027-1.44-3.276c-0.097,0.48-0.169,0.948-0.216,1.404
		c-0.049,0.456-0.097,0.925-0.145,1.403c-0.097,0.864-0.18,1.729-0.252,2.593c-0.071,0.863-0.107,1.752-0.107,2.664
		c0,0.673,0.047,1.488,0.144,2.447c0.096,0.961,0.433,1.705,1.008,2.232c0.288,0.288,0.564,0.408,0.828,0.36
		s0.528-0.155,0.792-0.324c0.264-0.168,0.492-0.384,0.685-0.648c0.191-0.263,0.359-0.515,0.504-0.756
		c0.432-0.72,0.779-1.464,1.044-2.231c0.263-0.768,0.491-1.56,0.684-2.376c0.096-0.336,0.168-0.66,0.216-0.973
		c0.048-0.312,0.096-0.636,0.145-0.972C425.17,146.166,424.931,146.166,424.691,146.07z M421.091,138.581
		c-0.048,0.673,0,1.404,0.145,2.196c0.144,0.792,0.384,1.512,0.72,2.16c0.335,0.647,0.803,1.164,1.404,1.548
		c0.6,0.385,1.332,0.504,2.195,0.359c0.145-1.199,0.204-2.411,0.181-3.636c-0.025-1.224-0.205-2.387-0.54-3.492
		c-0.145-0.911-0.457-1.655-0.937-2.231c-0.144-0.191-0.324-0.396-0.54-0.612s-0.444-0.348-0.684-0.396l-0.288,0.216
		c-0.241,0.24-0.432,0.457-0.576,0.647c-0.144,0.192-0.288,0.409-0.432,0.648l-0.216,0.36v0.071
		C421.282,137.142,421.139,137.862,421.091,138.581z"/>
	<path id="XMLID_165_" class="st0" d="M442.187,152.406c0.384-0.432,0.768-0.875,1.152-1.332c0.384-0.456,0.792-0.875,1.224-1.26
		c0.048-0.048,0.155-0.145,0.324-0.288c0.168-0.145,0.3-0.145,0.396,0c0.047,0.097,0.023,0.252-0.072,0.468
		c-0.097,0.216-0.192,0.372-0.288,0.468c-0.241,0.385-0.48,0.756-0.72,1.116c-0.241,0.36-0.48,0.709-0.721,1.044
		c-0.24,0.337-0.54,0.72-0.899,1.152c-0.36,0.432-0.745,0.828-1.152,1.188c-0.408,0.36-0.84,0.648-1.296,0.864
		c-0.457,0.216-0.925,0.252-1.404,0.108c-0.528-0.097-0.925-0.396-1.188-0.9c-0.265-0.504-0.444-0.996-0.54-1.476
		c-0.288-1.199-0.432-2.424-0.432-3.673c-0.098-1.728-0.062-3.443,0.107-5.147c0.168-1.703,0.348-3.42,0.54-5.148
		c0.096-0.863,0.168-1.739,0.216-2.628c0.048-0.888,0-1.764-0.144-2.628c-0.049-0.576-0.241-0.623-0.576-0.144
		c-0.439,0.576-0.83,1.272-1.171,2.088c-0.685,1.393-1.283,2.833-1.795,4.32c-0.513,1.488-0.964,3-1.354,4.535
		c-0.047,1.394-0.104,2.785-0.174,4.177c-0.07,1.393-0.196,2.784-0.381,4.176c0,0.144-0.023,0.385-0.069,0.72
		c-0.046,0.337-0.116,0.672-0.208,1.008c-0.093,0.336-0.22,0.6-0.382,0.792c-0.162,0.191-0.381,0.168-0.658-0.071
		c-0.288-0.241-0.432-0.602-0.432-1.08c0-0.479,0.023-0.888,0.072-1.225c0.047-0.432,0.096-0.863,0.144-1.296
		c0.048-0.432,0.119-0.839,0.216-1.224c0-0.24,0.024-0.433,0.072-0.576c-0.048-0.239-0.072-0.623-0.072-1.152
		c-0.048-1.104-0.097-2.22-0.144-3.348c-0.049-1.127-0.12-2.243-0.216-3.348c-0.096-0.96-0.181-1.944-0.252-2.952
		c-0.072-1.008-0.132-1.991-0.181-2.952c-0.047-0.384-0.06-0.779-0.036-1.188c0.025-0.407,0.133-0.779,0.324-1.115
		c0.096-0.191,0.204-0.348,0.324-0.469c0.119-0.119,0.275-0.131,0.468-0.035c0.274,0.192,0.525,0.432,0.754,0.72
		c0.366,0.48,0.571,1.057,0.618,1.728c0.045,0.673,0.068,1.272,0.068,1.8c0.047,0.673,0.083,1.345,0.107,2.017
		c0.024,0.673,0.036,1.345,0.036,2.016c0.145-0.72,0.312-1.343,0.504-1.872c0.243-0.863,0.485-1.703,0.729-2.52
		c0.243-0.815,0.534-1.632,0.875-2.448c0.193-0.576,0.497-1.26,0.91-2.052c0.412-0.792,1.007-1.212,1.784-1.26
		c0.437-0.048,0.777,0.061,1.021,0.323c0.243,0.265,0.424,0.576,0.546,0.937c0.121,0.359,0.205,0.744,0.255,1.152
		c0.049,0.408,0.073,0.756,0.073,1.044c0.096,0.912,0.132,1.8,0.108,2.663c-0.025,0.864-0.036,1.753-0.036,2.664
		c-0.049,1.633-0.121,3.266-0.216,4.896c-0.098,1.632-0.169,3.265-0.217,4.896c-0.097,0.721-0.097,1.417,0,2.089
		c0,0.24,0.012,0.552,0.036,0.936c0.023,0.385,0.132,0.648,0.324,0.792c0.096,0.096,0.239,0.119,0.432,0.072
		c0.191-0.048,0.396-0.145,0.612-0.288c0.216-0.145,0.407-0.288,0.576-0.433c0.168-0.144,0.299-0.263,0.396-0.359
		C441.442,153.198,441.802,152.837,442.187,152.406z"/>
	<path id="XMLID_167_" class="st0" d="M460.476,151.757c0.095-0.096,0.252-0.288,0.468-0.575c0.216-0.288,0.396-0.384,0.54-0.288
		c0.144,0.097,0.167,0.288,0.071,0.575c-0.097,0.288-0.168,0.48-0.216,0.576c-0.48,1.152-1.151,2.185-2.016,3.097
		c-0.48,0.527-1.069,0.936-1.764,1.224c-0.697,0.288-1.381,0.239-2.053-0.145c-0.673-0.384-1.177-0.948-1.512-1.691
		c-0.336-0.744-0.576-1.451-0.72-2.124c-0.241-0.864-0.385-1.729-0.433-2.592c-0.048,0.048-0.071,0.097-0.071,0.144
		c-0.576,1.104-1.213,2.232-1.908,3.384c-0.696,1.152-1.548,2.088-2.557,2.809c-0.432,0.288-0.889,0.468-1.367,0.54
		c-0.48,0.071-0.937-0.061-1.368-0.396c-0.48-0.336-0.805-0.78-0.972-1.332c-0.169-0.551-0.277-1.091-0.324-1.62
		c-0.191-1.68-0.119-3.395,0.216-5.147c0.335-1.752,0.768-3.42,1.296-5.004c0.527-1.487,1.163-2.976,1.908-4.464
		c0.743-1.487,1.739-2.76,2.988-3.816c0.527-0.479,1.139-0.852,1.836-1.116c0.695-0.263,1.403-0.348,2.124-0.252
		c0.287,0.049,0.575,0.12,0.863,0.216c0.288,0.097,0.552,0.265,0.792,0.504c0.145,0.192,0.264,0.385,0.36,0.576
		c0,0.097-0.072,0.156-0.216,0.181c-0.145,0.024-0.265,0.035-0.36,0.035c-0.673,0.049-1.272,0.121-1.8,0.217
		c-0.529,0.097-1.057,0.336-1.584,0.72c-0.624,0.48-1.164,1.021-1.62,1.62c-0.457,0.601-0.876,1.236-1.26,1.908
		c-0.817,1.393-1.537,2.868-2.16,4.428c-0.624,1.561-1.129,3.132-1.512,4.716c-0.192,0.816-0.349,1.668-0.469,2.556
		c-0.12,0.889-0.133,1.741-0.035,2.557c0.047,0.288,0.131,0.611,0.252,0.972c0.119,0.36,0.371,0.587,0.756,0.684
		c0.288,0.096,0.576,0.024,0.863-0.216c0.288-0.24,0.552-0.48,0.792-0.72c0.576-0.623,1.08-1.296,1.513-2.016
		c0.432-0.721,0.839-1.464,1.224-2.232c0.335-0.623,0.648-1.271,0.937-1.944c0.288-0.671,0.575-1.343,0.863-2.016
		c0.048-0.72,0.108-1.44,0.181-2.16c0.071-0.72,0.18-1.415,0.323-2.088c0.096-0.768,0.24-1.571,0.433-2.412
		c0.191-0.839,0.479-1.595,0.864-2.268c0.239-0.433,0.623-0.695,1.151-0.792c0.096,0,0.191,0.012,0.288,0.036
		c0.096,0.024,0.168,0.035,0.216,0.035c0.528,0.192,0.816,0.529,0.864,1.009c0.047,0.48,0.023,0.936-0.072,1.368
		c-0.097,0.624-0.24,1.236-0.432,1.836c-0.192,0.601-0.408,1.212-0.648,1.836l-0.432,1.008c-0.144,1.296-0.216,2.568-0.216,3.815
		c-0.049,1.009-0.097,2.028-0.145,3.061s0.048,2.028,0.288,2.988c0.096,0.287,0.216,0.624,0.36,1.008
		c0.144,0.384,0.407,0.6,0.792,0.647c0.432,0.048,0.828-0.084,1.188-0.396c0.36-0.312,0.66-0.612,0.9-0.9L460.476,151.757z"/>
	<path id="XMLID_169_" class="st0" d="M468.395,152.478c0.432-0.528,0.839-1.068,1.224-1.62c0.384-0.552,0.792-1.092,1.225-1.62
		c0.047-0.048,0.155-0.168,0.323-0.36c0.168-0.191,0.276-0.191,0.324,0c0.096,0.241,0.072,0.529-0.072,0.864
		c-0.144,0.336-0.264,0.624-0.359,0.864c-0.241,0.528-0.553,1.08-0.937,1.655c-0.385,0.576-0.828,1.105-1.332,1.584
		c-0.504,0.48-1.056,0.853-1.655,1.116c-0.602,0.264-1.236,0.348-1.908,0.252c-0.721-0.144-1.345-0.456-1.872-0.936
		c-0.529-0.479-0.961-1.056-1.296-1.729c-0.337-0.671-0.601-1.367-0.792-2.088c-0.192-0.72-0.36-1.392-0.504-2.016
		c-0.384-1.584-0.636-3.18-0.757-4.788c-0.119-1.607-0.203-3.228-0.252-4.86c-0.047-1.823-0.047-3.636,0-5.436
		c0.049-1.8,0.145-3.611,0.288-5.437c0.145-1.823,0.349-3.636,0.612-5.436s0.659-3.588,1.188-5.364
		c0.239-0.815,0.504-1.631,0.792-2.448c0.287-0.815,0.695-1.559,1.224-2.231c0.384-0.576,0.9-0.947,1.548-1.116
		c0.648-0.168,1.163,0.133,1.548,0.9c0.384,0.673,0.623,1.439,0.721,2.304c0.095,0.864,0.19,1.704,0.287,2.52
		c0.096,0.864,0.155,1.729,0.181,2.593c0.023,0.863-0.013,1.752-0.108,2.664c-0.144,3.216-0.528,6.42-1.151,9.611
		c-0.625,3.193-1.465,6.3-2.521,9.324c-0.528,1.681-1.128,3.217-1.8,4.608l-0.216,0.432c0.047,1.152,0.239,2.4,0.575,3.744
		c0.145,0.624,0.36,1.296,0.648,2.016c0.288,0.721,0.744,1.249,1.368,1.584c0.623,0.385,1.247,0.408,1.872,0.072
		C467.434,153.367,467.962,152.958,468.395,152.478z M462.202,143.837l0.216-0.504c0.96-2.783,1.765-5.604,2.412-8.46
		c0.648-2.855,1.188-5.724,1.62-8.604c0.24-1.775,0.42-3.552,0.54-5.328c0.119-1.775,0.036-3.552-0.252-5.328
		c-0.097-0.432-0.18-0.875-0.252-1.332c-0.072-0.456-0.229-0.875-0.468-1.26c-0.049-0.096-0.108-0.216-0.181-0.36
		c-0.071-0.144-0.18-0.168-0.323-0.072c-0.145,0.097-0.252,0.229-0.324,0.396c-0.072,0.169-0.156,0.324-0.252,0.468
		c-0.385,0.769-0.66,1.597-0.828,2.484c-0.169,0.889-0.301,1.74-0.396,2.556c-0.528,3.6-0.899,7.212-1.115,10.836
		c-0.216,3.625-0.349,7.236-0.396,10.836V143.837z"/>
</g>
</svg>
