<?xml version="1.0" encoding="iso-8859-1"?>
<!-- Generator: Adobe Illustrator 19.0.0, SVG Export Plug-In . SVG Version: 6.00 Build 0)  -->
<svg version="1.1" id="Layer_1" xmlns="http://www.w3.org/2000/svg" xmlns:xlink="http://www.w3.org/1999/xlink" x="0px" y="0px"
	 width="595.28px" height="841.89px" viewBox="0 0 595.28 841.89" style="enable-background:new 0 0 595.28 841.89;"
	 xml:space="preserve">
<style type="text/css">
	.st0{fill:#414A73;}
</style>
<g id="XMLID_4_">
	<path id="XMLID_242_" class="st0" d="M210.537,130.578c0.959,0.241,1.896,0.612,2.808,1.116c0.911,0.504,1.703,1.116,2.376,1.836
		c0.144,0.192,0.324,0.432,0.54,0.72c0.216,0.288,0.324,0.552,0.324,0.792c0,0.144-0.061,0.192-0.18,0.144
		c-0.121-0.047-0.265-0.108-0.432-0.18c-0.169-0.072-0.324-0.168-0.468-0.288c-0.144-0.12-0.241-0.18-0.288-0.18
		c-0.673-0.432-1.368-0.828-2.088-1.188c-0.72-0.36-1.488-0.659-2.304-0.9c0.288,1.393,0.419,2.784,0.396,4.176
		c-0.025,1.393-0.277,2.736-0.756,4.032c-0.576,1.487-1.501,2.7-2.772,3.636c-1.272,0.936-2.748,1.26-4.428,0.972
		c-0.817-0.144-1.524-0.432-2.124-0.864c-0.601-0.432-1.105-0.972-1.512-1.62c-0.408-0.648-0.708-1.345-0.9-2.088
		c-0.192-0.744-0.288-1.5-0.288-2.268c-0.048-1.536,0.288-2.976,1.008-4.32c0.72-1.343,1.775-2.351,3.168-3.024
		c0.72-0.384,1.487-0.636,2.304-0.756c0.816-0.119,1.631-0.155,2.448-0.108c-0.241-0.528-0.468-1.008-0.684-1.44
		c-0.216-0.432-0.444-0.888-0.684-1.368c-0.864-1.487-1.776-2.939-2.736-4.356c-0.961-1.416-1.753-2.94-2.376-4.572
		c-0.48-1.199-0.864-2.412-1.152-3.636c-0.288-1.224-0.457-2.484-0.504-3.78c-0.048-1.248-0.024-2.507,0.072-3.78
		c0.096-1.271,0.263-2.531,0.504-3.78c0.335-1.487,0.828-2.952,1.476-4.392s1.523-2.711,2.628-3.816
		c0.528-0.479,1.127-0.888,1.8-1.224c0.672-0.335,1.343-0.54,2.016-0.612c0.672-0.072,1.332,0.013,1.98,0.252
		c0.648,0.241,1.235,0.673,1.764,1.296c0.864,1.008,1.44,2.185,1.728,3.528c0.288,1.344,0.456,2.712,0.504,4.104
		c0.623-0.384,1.271-0.708,1.944-0.972c0.672-0.263,1.343-0.419,2.016-0.468c0.24,0,0.456,0.036,0.648,0.108
		c0.191,0.072,0.096,0.229-0.288,0.468c-0.288,0.192-0.588,0.36-0.9,0.504c-0.312,0.144-0.637,0.288-0.972,0.432
		c-0.432,0.241-0.853,0.457-1.26,0.648c-0.408,0.192-0.804,0.432-1.188,0.72v0.576c-0.048,1.681-0.229,3.409-0.54,5.184
		c-0.312,1.776-0.804,3.456-1.476,5.04c-0.241,0.576-0.624,1.188-1.152,1.836c-0.529,0.648-1.2,0.853-2.016,0.612
		c-0.768-0.24-1.236-0.744-1.404-1.512c-0.169-0.767-0.229-1.487-0.18-2.16c0.191-1.536,0.636-3.035,1.332-4.5
		c0.695-1.464,1.548-2.796,2.556-3.996c0.096-0.144,0.216-0.275,0.36-0.396c0.144-0.119,0.288-0.252,0.432-0.396l-0.144-1.944
		c-0.048-0.576-0.133-1.284-0.252-2.124c-0.121-0.839-0.324-1.631-0.612-2.376c-0.288-0.744-0.696-1.368-1.224-1.872
		c-0.529-0.504-1.201-0.731-2.016-0.684c-0.769,0.048-1.453,0.277-2.052,0.684c-0.601,0.408-1.141,0.912-1.62,1.512
		c-0.48,0.601-0.876,1.26-1.188,1.98c-0.313,0.72-0.565,1.417-0.756,2.088c-0.48,1.681-0.72,3.396-0.72,5.148
		c0,1.752,0.191,3.468,0.576,5.148c0.384,1.681,0.936,3.276,1.656,4.788c0.72,1.512,1.536,3.013,2.448,4.5
		c0.96,1.488,1.86,2.977,2.7,4.464c0.839,1.488,1.5,3.072,1.98,4.752v0.144H210.537z M209.024,137.13
		c-0.048-1.728-0.385-3.503-1.008-5.328c-1.056-0.096-1.992-0.072-2.808,0.072c-1.584,0.241-2.88,0.913-3.888,2.016
		c-1.008,1.104-1.561,2.448-1.656,4.032c-0.048,0.72,0.024,1.476,0.216,2.268c0.191,0.792,0.491,1.487,0.9,2.088
		c0.407,0.6,0.936,1.067,1.584,1.404c0.648,0.335,1.404,0.432,2.268,0.288c1.631-0.288,2.783-1.116,3.456-2.484
		C208.76,140.118,209.072,138.667,209.024,137.13z M210.896,113.01c0.288-1.104,0.492-2.256,0.612-3.456
		c0.119-1.199,0.18-2.4,0.18-3.6c-0.673,0.817-1.26,1.668-1.764,2.556c-0.504,0.889-0.925,1.812-1.26,2.772
		c-0.097,0.432-0.192,0.864-0.288,1.296c-0.097,0.432-0.168,0.889-0.216,1.368c0,0.336,0.011,0.696,0.036,1.08
		c0.023,0.385,0.155,0.697,0.396,0.936c0.288,0.288,0.551,0.313,0.792,0.072c0.239-0.24,0.468-0.551,0.684-0.936
		c0.216-0.384,0.396-0.792,0.54-1.224C210.752,113.442,210.848,113.154,210.896,113.01z"/>
	<path id="XMLID_246_" class="st0" d="M228.608,122.37c0.335-1.343,1.008-2.423,2.016-3.24c0.095-0.095,0.252-0.216,0.468-0.36
		s0.396-0.167,0.54-0.072c0.096,0.097,0.132,0.252,0.108,0.468c-0.025,0.216-0.036,0.373-0.036,0.468
		c-0.144,0.816-0.336,1.62-0.576,2.412c-0.241,0.792-0.457,1.597-0.648,2.412c-0.336,1.44-0.612,2.88-0.828,4.32
		c-0.216,1.44-0.421,2.88-0.612,4.32l-0.792,5.04c-0.049,0.336-0.108,0.732-0.18,1.188c-0.072,0.457-0.18,0.889-0.324,1.296
		c-0.144,0.408-0.349,0.78-0.612,1.116c-0.264,0.335-0.588,0.576-0.972,0.72c-0.864,0.191-1.512-0.061-1.944-0.756
		s-0.745-1.379-0.936-2.052c-0.48-1.631-0.769-3.335-0.864-5.112c-0.097-0.671-0.133-1.368-0.108-2.088
		c0.024-0.72,0.036-1.44,0.036-2.16c-0.097,0.288-0.144,0.48-0.144,0.576c-0.385,1.44-0.781,2.892-1.188,4.356
		c-0.408,1.465-0.9,2.892-1.476,4.284c-0.097,0.336-0.241,0.684-0.432,1.044c-0.192,0.36-0.457,0.635-0.792,0.828
		c-0.625,0.288-1.201,0.168-1.728-0.36c-0.385-0.384-0.637-0.828-0.756-1.332c-0.12-0.504-0.228-1.019-0.324-1.548
		c-0.672-3.359-0.695-6.647-0.072-9.864c0.24-1.104,0.54-2.207,0.9-3.312c0.36-1.104,0.875-2.111,1.548-3.024
		c0.096-0.144,0.204-0.288,0.324-0.432c0.12-0.144,0.276-0.264,0.468-0.36c0.335-0.144,0.492-0.036,0.468,0.324
		c-0.024,0.36-0.036,0.637-0.036,0.828c-0.097,0.576-0.229,1.164-0.396,1.764c-0.169,0.601-0.324,1.188-0.468,1.764
		c-0.336,1.537-0.588,3.108-0.756,4.716c-0.169,1.609-0.3,3.229-0.396,4.86c-0.048,0.432-0.084,0.876-0.108,1.332
		c-0.025,0.457-0.013,0.925,0.036,1.404c0.047,0.241,0.083,0.54,0.108,0.9c0.023,0.36,0.131,0.637,0.324,0.828
		c0.191,0.192,0.348,0.156,0.468-0.108c0.119-0.264,0.227-0.468,0.324-0.612l0.648-1.8c0.528-1.728,0.996-3.456,1.404-5.184
		c0.407-1.728,0.828-3.479,1.26-5.256c0.096-0.432,0.204-0.875,0.324-1.332c0.119-0.456,0.252-0.9,0.396-1.332
		c0.096-0.24,0.191-0.515,0.288-0.828c0.095-0.312,0.263-0.54,0.504-0.684c0.479-0.239,0.828-0.18,1.044,0.18
		c0.216,0.36,0.324,0.732,0.324,1.116c0.096,1.681,0.12,3.373,0.072,5.076c-0.048,1.705-0.025,3.396,0.072,5.076
		c0,0.864,0.011,1.74,0.036,2.628c0.023,0.889,0.108,1.764,0.252,2.628c0,0.048,0.036,0.169,0.108,0.36
		c0.072,0.192,0.155,0.396,0.252,0.612c0.096,0.216,0.191,0.396,0.288,0.54c0.096,0.144,0.191,0.144,0.288,0
		c0.24-0.24,0.396-0.551,0.468-0.936c0.072-0.384,0.155-0.72,0.252-1.008c0.335-1.68,0.54-3.348,0.612-5.004
		c0.072-1.656,0.204-3.323,0.396-5.004c0.096-1.104,0.227-2.208,0.396-3.312C228.092,124.579,228.32,123.475,228.608,122.37z"/>
	<path id="XMLID_248_" class="st0" d="M241.064,135.33c0.096-0.24,0.252-0.479,0.468-0.72c0.216-0.24,0.468-0.384,0.756-0.432
		c0.288-0.047,0.479,0.12,0.576,0.504c0,0.241-0.061,0.504-0.18,0.792c-0.121,0.288-0.252,0.552-0.396,0.792l-0.864,1.728
		c-0.385,0.673-0.792,1.308-1.224,1.908c-0.432,0.601-0.984,1.141-1.656,1.62c-0.625,0.432-1.272,0.564-1.944,0.396
		c-0.673-0.168-1.232-0.564-1.68-1.188c-0.448-0.671-0.771-1.404-0.969-2.196c-0.199-0.792-0.349-1.572-0.448-2.34
		c-0.097-0.864-0.18-1.716-0.252-2.556c-0.072-0.839-0.108-1.692-0.108-2.556c0-1.44,0.048-2.88,0.144-4.32
		c0.095-1.44,0.216-2.855,0.36-4.248c0.049-0.335,0.099-0.636,0.148-0.9c0.049-0.263,0.272-0.372,0.669-0.324
		c0.248,0.048,0.653,0.156,1.217,0.324c0.562,0.168,0.868,0.396,0.917,0.684c0.095,0.241,0.108,0.493,0.036,0.756
		c-0.072,0.264-0.108,0.516-0.108,0.756l-0.216,2.016c-0.097,0.912-0.18,1.8-0.252,2.664c-0.072,0.864-0.133,1.728-0.18,2.592
		c-0.097,0.913-0.18,1.812-0.252,2.7c-0.072,0.889-0.084,1.789-0.036,2.7c0,0.432,0.024,0.864,0.072,1.296
		c0.047,0.432,0.144,0.864,0.288,1.296c0.096,0.241,0.204,0.516,0.324,0.828c0.119,0.312,0.348,0.516,0.684,0.612
		c0.288,0.097,0.576,0.048,0.864-0.144c0.288-0.191,0.551-0.419,0.792-0.684c0.24-0.263,0.456-0.551,0.648-0.864
		c0.191-0.312,0.36-0.564,0.504-0.756C240.248,137.25,240.68,136.338,241.064,135.33z M236.744,110.562
		c0.768,0,1.308,0.313,1.62,0.936c0.312,0.625,0.396,1.272,0.252,1.944c-0.192,0.673-0.564,1.272-1.116,1.8
		c-0.553,0.529-1.188,0.792-1.908,0.792c-0.817,0-1.38-0.312-1.692-0.936c-0.313-0.623-0.373-1.271-0.18-1.944
		c0.144-0.672,0.504-1.271,1.08-1.8C235.376,110.827,236.024,110.562,236.744,110.562z"/>
	<path id="XMLID_251_" class="st0" d="M251.792,138.93c0.191-0.24,0.36-0.443,0.504-0.612c0.144-0.167,0.335-0.347,0.576-0.54
		c0.096-0.096,0.312-0.252,0.648-0.468c0.335-0.216,0.551-0.18,0.648,0.108c0.095,0.192,0.095,0.409,0,0.648
		c-0.097,0.241-0.192,0.432-0.288,0.576c-0.241,0.529-0.565,1.021-0.972,1.476c-0.408,0.457-0.828,0.876-1.26,1.26
		c-0.625,0.528-1.272,0.947-1.944,1.26c-0.672,0.312-1.416,0.468-2.232,0.468c-0.864-0.048-1.645-0.288-2.34-0.72
		c-0.696-0.432-1.309-0.984-1.836-1.656c-0.961-1.343-1.597-2.868-1.908-4.572c-0.312-1.703-0.419-3.372-0.324-5.004
		c0.097-1.536,0.407-3.107,0.936-4.716c0.527-1.607,1.392-2.963,2.592-4.068c0.528-0.479,1.163-0.864,1.908-1.152
		c0.744-0.288,1.451-0.191,2.124,0.288c0.623,0.48,0.972,1.152,1.044,2.016c0.072,0.864,0.06,1.632-0.036,2.304
		c-0.097,0.72-0.252,1.465-0.468,2.232c-0.216,0.769-0.588,1.417-1.116,1.944c-0.288,0.336-0.661,0.517-1.116,0.54
		c-0.457,0.025-0.804-0.18-1.044-0.612c-0.336-0.528-0.396-1.212-0.18-2.052c0.216-0.839,0.443-1.523,0.684-2.052
		c0.624-1.343,1.224-2.304,1.8-2.88c-0.241-0.384-0.576-0.551-1.008-0.504c-0.768,0.097-1.356,0.504-1.764,1.224
		c-0.409,0.72-0.709,1.417-0.9,2.088c-0.241,0.817-0.409,1.656-0.504,2.52c-0.097,0.864-0.192,1.705-0.288,2.52
		c-0.097,0.864-0.121,1.741-0.072,2.628c0.047,0.889,0.119,1.764,0.216,2.628c0.096,0.72,0.264,1.416,0.504,2.088
		c0.239,0.673,0.551,1.296,0.936,1.872c1.008,1.296,2.232,1.68,3.672,1.152c0.576-0.24,1.091-0.551,1.548-0.936
		C250.987,139.842,251.407,139.411,251.792,138.93z M247.399,128.634c0.383-0.624,0.671-1.379,0.864-2.268
		c0.191-0.888,0.24-1.716,0.144-2.484c-0.097,0.192-0.241,0.48-0.432,0.864c-0.192,0.385-0.336,0.72-0.432,1.008
		c-0.432,1.008-0.709,1.753-0.828,2.232c-0.121,0.48-0.144,0.792-0.072,0.936c0.072,0.144,0.191,0.169,0.36,0.072
		C247.171,128.898,247.303,128.778,247.399,128.634z"/>
	<path id="XMLID_254_" class="st0" d="M250.71,114.018c0.673-0.432,1.368-0.767,2.088-1.008c0.72-0.24,1.463-0.432,2.232-0.576
		c0.047-0.047,0.072-0.096,0.072-0.144c0-0.047,0.024-0.119,0.072-0.216l0.792-2.664c0.191-0.432,0.468-0.576,0.828-0.432
		c0.36,0.144,0.636,0.385,0.828,0.72c0.096,0.241,0.132,0.468,0.108,0.684c-0.024,0.216-0.061,0.444-0.108,0.684
		c-0.048,0.192-0.084,0.36-0.108,0.504c-0.025,0.144-0.036,0.288-0.036,0.432l1.636-0.288c0.664-0.095,1.209-0.072,1.637,0.072
		c0.236,0.097,0.521,0.216,0.853,0.36s0.569,0.385,0.712,0.72c0.095,0.385,0.047,0.72-0.142,1.008
		c-0.19,0.288-0.38,0.504-0.569,0.648c-0.665,0.529-1.377,0.925-2.135,1.188c-0.758,0.265-1.519,0.493-2.279,0.684l-0.288,0.144
		c-0.049,0.144-0.084,0.277-0.108,0.396c-0.024,0.121-0.036,0.252-0.036,0.396c-0.241,1.728-0.468,3.456-0.684,5.184
		c-0.216,1.728-0.421,3.456-0.612,5.184c-0.192,1.728-0.349,3.492-0.468,5.292c-0.121,1.8-0.061,3.589,0.18,5.364
		c0.047,0.288,0.095,0.637,0.144,1.044c0.047,0.409,0.144,0.792,0.288,1.152c0.144,0.36,0.335,0.671,0.576,0.936
		c0.24,0.263,0.551,0.396,0.936,0.396c0.524,0,1.095-0.349,1.711-1.044c0.617-0.695,1.222-1.548,1.815-2.556
		c0.593-1.008,1.138-2.076,1.637-3.204c0.497-1.127,0.889-2.124,1.173-2.988v-3.384c0-3.696,0.025-7.38,0.075-11.052
		c0.051-3.672,0.278-7.355,0.683-11.052c0.201-1.728,0.438-3.492,0.708-5.292c0.27-1.8,0.813-3.492,1.63-5.076
		c0.335-0.671,0.744-1.343,1.224-2.016c0.479-0.672,1.08-1.127,1.8-1.368c0.864-0.24,1.559-0.096,2.088,0.432
		c0.528,0.529,0.864,1.177,1.008,1.944c0.144,0.817,0.204,1.656,0.18,2.52c-0.025,0.864-0.084,1.705-0.18,2.52
		c-0.097,0.817-0.216,1.656-0.36,2.52c-0.144,0.864-0.288,1.705-0.432,2.52c-0.336,1.681-0.696,3.337-1.08,4.968
		c-0.385,1.632-0.792,3.289-1.224,4.968c-0.673,2.64-1.38,5.245-2.124,7.812c-0.745,2.568-1.524,5.148-2.34,7.74l-0.144,0.216
		c0,0.097-0.013,0.192-0.036,0.288c-0.025,0.097-0.036,0.192-0.036,0.288c-0.048,0.625-0.084,1.249-0.108,1.872
		c-0.025,0.625-0.036,1.249-0.036,1.872c0.096-0.335,0.18-0.659,0.252-0.972c0.072-0.312,0.155-0.635,0.252-0.972
		c0.191-0.816,0.407-1.62,0.648-2.412c0.239-0.792,0.479-1.595,0.72-2.412c0.24-0.72,0.504-1.451,0.792-2.196
		c0.288-0.744,0.624-1.451,1.008-2.124c0.335-0.432,0.816-0.839,1.44-1.224c0.623-0.384,1.199-0.312,1.728,0.216
		c0.432,0.529,0.695,1.177,0.792,1.944c0.095,0.768,0.191,1.465,0.288,2.088c0.096,0.817,0.155,1.632,0.18,2.448
		c0.023,0.817,0.06,1.633,0.108,2.448c0,1.44,0.072,2.833,0.216,4.176c0.095,0.529,0.191,1.069,0.288,1.62
		c0.096,0.552,0.264,1.069,0.504,1.548c0.288,0.336,0.695,0.408,1.224,0.216c0.288-0.144,0.576-0.312,0.864-0.504
		c0.288-0.191,0.576-0.384,0.864-0.576c0.047-0.047,0.155-0.144,0.324-0.288c0.167-0.144,0.36-0.288,0.576-0.432
		c0.216-0.144,0.396-0.227,0.54-0.252c0.144-0.023,0.191,0.061,0.144,0.252c-0.097,0.576-0.349,1.152-0.756,1.728
		c-0.408,0.576-0.828,1.057-1.26,1.44c-0.529,0.479-1.152,0.779-1.872,0.9c-0.72,0.119-1.393-0.084-2.016-0.612
		c-0.529-0.479-0.9-1.044-1.116-1.692c-0.216-0.648-0.372-1.307-0.468-1.98c-0.241-1.44-0.385-2.88-0.432-4.32l-0.144-4.968
		c0-0.479,0-0.936,0-1.368c0-0.432-0.024-0.864-0.072-1.296c-0.048-0.191-0.084-0.383-0.108-0.576
		c-0.025-0.191-0.157-0.168-0.396,0.072c-0.48,0.576-0.864,1.236-1.152,1.98c-0.288,0.745-0.552,1.476-0.792,2.196
		c-0.241,0.816-0.48,1.645-0.72,2.484c-0.241,0.84-0.457,1.668-0.648,2.484c-0.192,0.817-0.373,1.632-0.54,2.448
		c-0.169,0.816-0.373,1.632-0.612,2.448c-0.097,0.241-0.205,0.504-0.324,0.792c-0.121,0.288-0.355,0.432-0.707,0.432
		c-0.408,0.048-0.65-0.108-0.727-0.468c-0.076-0.36-0.115-0.659-0.115-0.9c-0.097-0.623-0.132-1.235-0.108-1.836
		c0.024-0.6,0.036-1.211,0.036-1.836c-0.668,1.537-1.431,3-2.288,4.392c-0.858,1.392-1.668,2.351-2.431,2.88
		c-0.524,0.335-1.133,0.54-1.824,0.612c-0.692,0.072-1.276-0.156-1.751-0.684c-0.621-0.529-1.05-1.224-1.288-2.088
		c-0.239-0.864-0.405-1.68-0.501-2.448c-0.286-1.728-0.429-3.503-0.429-5.328c-0.095-1.824-0.095-3.624,0-5.4
		c0.096-1.775,0.24-3.575,0.432-5.4c0.144-1.68,0.36-3.288,0.648-4.824c-0.192,0-0.385,0-0.576,0c-0.192,0-0.385-0.023-0.576-0.072
		c-0.911-0.144-1.68-0.576-2.304-1.296C249.943,115.098,249.991,114.499,250.71,114.018z M265.327,120.93
		c-0.097,1.104-0.169,2.172-0.216,3.204c-0.049,1.033-0.097,2.077-0.144,3.132l0.576-1.728c0.96-3.024,1.836-6.059,2.628-9.108
		c0.792-3.048,1.5-6.156,2.124-9.324c0.335-1.68,0.636-3.408,0.9-5.184c0.263-1.775,0.347-3.528,0.252-5.256
		c0-0.24-0.036-0.54-0.108-0.9c-0.072-0.36-0.18-0.684-0.324-0.972c-0.144-0.288-0.324-0.468-0.54-0.54
		c-0.216-0.072-0.493,0.061-0.828,0.396c-0.529,0.529-0.9,1.224-1.116,2.088c-0.216,0.864-0.421,1.656-0.612,2.376
		c-0.432,1.776-0.768,3.576-1.008,5.4c-0.241,1.825-0.48,3.648-0.72,5.472C265.806,113.73,265.518,117.378,265.327,120.93z"/>
	<path id="XMLID_257_" class="st0" d="M304.854,138.354c0.096-0.096,0.252-0.288,0.468-0.576c0.216-0.288,0.396-0.384,0.54-0.288
		c0.144,0.097,0.168,0.288,0.072,0.576c-0.097,0.288-0.169,0.48-0.216,0.576c-0.48,1.152-1.152,2.185-2.016,3.096
		c-0.48,0.527-1.069,0.936-1.764,1.224c-0.696,0.288-1.38,0.24-2.052-0.144c-0.673-0.384-1.177-0.948-1.512-1.692
		c-0.336-0.744-0.576-1.451-0.72-2.124c-0.241-0.864-0.385-1.728-0.432-2.592c-0.048,0.048-0.072,0.097-0.072,0.144
		c-0.576,1.104-1.212,2.232-1.908,3.384c-0.696,1.152-1.548,2.088-2.556,2.808c-0.432,0.288-0.889,0.468-1.368,0.54
		c-0.48,0.072-0.936-0.061-1.368-0.396c-0.48-0.336-0.805-0.781-0.972-1.332c-0.169-0.551-0.277-1.091-0.324-1.62
		c-0.191-1.68-0.119-3.395,0.216-5.148c0.335-1.751,0.767-3.42,1.296-5.004c0.528-1.487,1.163-2.976,1.908-4.464
		c0.744-1.487,1.739-2.76,2.988-3.816c0.528-0.479,1.14-0.852,1.836-1.116c0.695-0.263,1.404-0.348,2.124-0.252
		c0.288,0.048,0.576,0.12,0.864,0.216c0.288,0.097,0.551,0.265,0.792,0.504c0.144,0.192,0.263,0.385,0.36,0.576
		c0,0.097-0.072,0.156-0.216,0.18c-0.144,0.024-0.265,0.036-0.36,0.036c-0.673,0.048-1.272,0.121-1.8,0.216
		c-0.529,0.097-1.057,0.336-1.584,0.72c-0.625,0.48-1.165,1.021-1.62,1.62c-0.457,0.601-0.876,1.236-1.26,1.908
		c-0.817,1.393-1.537,2.869-2.16,4.428c-0.625,1.561-1.128,3.132-1.512,4.716c-0.192,0.816-0.349,1.668-0.468,2.556
		c-0.121,0.889-0.133,1.741-0.036,2.556c0.047,0.288,0.132,0.612,0.252,0.972c0.119,0.36,0.372,0.587,0.756,0.684
		c0.288,0.096,0.576,0.024,0.864-0.216c0.288-0.241,0.551-0.48,0.792-0.72c0.576-0.624,1.08-1.296,1.512-2.016
		c0.432-0.72,0.839-1.464,1.224-2.232c0.335-0.624,0.648-1.271,0.936-1.944c0.288-0.671,0.576-1.343,0.864-2.016
		c0.047-0.72,0.108-1.44,0.18-2.16c0.072-0.72,0.18-1.416,0.324-2.088c0.096-0.768,0.24-1.572,0.432-2.412
		c0.191-0.839,0.479-1.595,0.864-2.268c0.24-0.432,0.624-0.695,1.152-0.792c0.096,0,0.191,0.012,0.288,0.036
		c0.096,0.024,0.168,0.036,0.216,0.036c0.527,0.192,0.815,0.529,0.864,1.008c0.047,0.48,0.023,0.936-0.072,1.368
		c-0.097,0.624-0.241,1.236-0.432,1.836c-0.192,0.601-0.408,1.212-0.648,1.836l-0.432,1.008c-0.144,1.296-0.216,2.568-0.216,3.816
		c-0.048,1.008-0.097,2.028-0.144,3.06c-0.048,1.033,0.047,2.028,0.288,2.988c0.095,0.288,0.216,0.624,0.36,1.008
		s0.407,0.6,0.792,0.648c0.432,0.047,0.828-0.084,1.188-0.396s0.659-0.612,0.9-0.9L304.854,138.354z"/>
	<path id="XMLID_259_" class="st0" d="M316.877,139.002c0.383-0.432,0.767-0.875,1.152-1.332c0.384-0.456,0.792-0.875,1.224-1.26
		c0.047-0.047,0.155-0.144,0.324-0.288c0.168-0.144,0.299-0.144,0.396,0c0.047,0.097,0.024,0.252-0.072,0.468
		c-0.097,0.216-0.192,0.372-0.288,0.468c-0.241,0.385-0.48,0.756-0.72,1.116c-0.241,0.36-0.48,0.708-0.72,1.044
		c-0.241,0.336-0.54,0.72-0.9,1.152c-0.36,0.432-0.745,0.828-1.152,1.188c-0.408,0.36-0.84,0.648-1.296,0.864
		c-0.457,0.216-0.925,0.252-1.404,0.108c-0.529-0.097-0.925-0.396-1.188-0.9c-0.265-0.504-0.444-0.996-0.54-1.476
		c-0.288-1.199-0.432-2.423-0.432-3.672c-0.097-1.728-0.061-3.443,0.108-5.148c0.168-1.703,0.348-3.42,0.54-5.148
		c0.096-0.864,0.167-1.739,0.216-2.628c0.047-0.888,0-1.764-0.144-2.628c-0.048-0.576-0.241-0.624-0.576-0.144
		c-0.44,0.576-0.83,1.272-1.171,2.088c-0.684,1.393-1.282,2.833-1.794,4.32c-0.513,1.488-0.964,3-1.354,4.536
		c-0.047,1.393-0.105,2.785-0.175,4.176c-0.069,1.393-0.195,2.784-0.38,4.176c0,0.144-0.024,0.385-0.07,0.72
		c-0.046,0.336-0.116,0.671-0.208,1.008c-0.092,0.335-0.22,0.6-0.381,0.792c-0.162,0.191-0.381,0.167-0.658-0.072
		c-0.288-0.241-0.432-0.601-0.432-1.08c0-0.479,0.023-0.888,0.072-1.224c0.047-0.432,0.096-0.864,0.144-1.296
		c0.047-0.432,0.12-0.839,0.216-1.224c0-0.24,0.023-0.432,0.072-0.576c-0.048-0.239-0.072-0.623-0.072-1.152
		c-0.048-1.104-0.097-2.22-0.144-3.348c-0.048-1.127-0.121-2.243-0.216-3.348c-0.095-0.96-0.18-1.944-0.252-2.952
		c-0.072-1.008-0.131-1.991-0.18-2.952c-0.047-0.383-0.06-0.779-0.036-1.188c0.025-0.407,0.133-0.779,0.324-1.116
		c0.095-0.191,0.204-0.348,0.324-0.468c0.119-0.119,0.276-0.131,0.468-0.036c0.274,0.192,0.525,0.432,0.753,0.72
		c0.366,0.48,0.572,1.057,0.618,1.728c0.045,0.673,0.069,1.272,0.069,1.8c0.047,0.673,0.083,1.345,0.108,2.016
		c0.023,0.673,0.036,1.345,0.036,2.016c0.144-0.72,0.312-1.343,0.504-1.872c0.243-0.864,0.485-1.703,0.728-2.52
		c0.243-0.815,0.535-1.631,0.875-2.448c0.193-0.576,0.497-1.26,0.91-2.052c0.412-0.792,1.007-1.211,1.784-1.26
		c0.437-0.047,0.777,0.061,1.021,0.324c0.243,0.265,0.424,0.576,0.545,0.936s0.206,0.745,0.255,1.152
		c0.048,0.408,0.073,0.756,0.073,1.044c0.096,0.912,0.132,1.8,0.108,2.664c-0.025,0.864-0.036,1.753-0.036,2.664
		c-0.048,1.632-0.12,3.265-0.216,4.896c-0.097,1.632-0.169,3.265-0.216,4.896c-0.097,0.72-0.097,1.417,0,2.088
		c0,0.241,0.011,0.552,0.036,0.936c0.024,0.384,0.132,0.648,0.324,0.792c0.096,0.095,0.24,0.119,0.432,0.072
		c0.191-0.047,0.396-0.144,0.612-0.288s0.407-0.288,0.576-0.432c0.167-0.144,0.299-0.263,0.396-0.36
		C316.132,139.794,316.493,139.434,316.877,139.002z"/>
	<path id="XMLID_261_" class="st0" d="M331.709,140.73c0.24-0.096,0.443-0.167,0.612-0.216c0.167-0.047,0.371-0.144,0.612-0.288
		c0.24-0.191,0.456-0.384,0.648-0.576c0.191-0.191,0.384-0.407,0.576-0.648l1.008-1.296c0.096-0.096,0.191-0.216,0.288-0.36
		c0.096-0.144,0.216-0.24,0.36-0.288c0.096,0,0.144,0.084,0.144,0.252c0,0.169-0.025,0.36-0.072,0.576
		c-0.048,0.216-0.108,0.432-0.18,0.648c-0.072,0.216-0.108,0.349-0.108,0.396c-0.241,0.432-0.48,0.864-0.72,1.296
		c-0.241,0.432-0.552,0.817-0.936,1.152c-0.385,0.335-0.84,0.612-1.368,0.828c-0.529,0.216-1.033,0.204-1.512-0.036
		c-0.48-0.241-0.828-0.612-1.044-1.116s-0.373-0.996-0.468-1.476c-0.241-1.104-0.384-2.232-0.432-3.384
		c-0.048-1.152-0.072-2.279-0.072-3.384c-0.048-0.911-0.061-1.824-0.036-2.736c0.023-0.911,0.036-1.847,0.036-2.808
		c-0.288,1.008-0.576,2.005-0.864,2.988c-0.288,0.984-0.601,1.957-0.936,2.916c-0.288,0.817-0.588,1.656-0.9,2.52
		c-0.313,0.864-0.661,1.705-1.044,2.52c-0.336,0.673-0.709,1.393-1.116,2.16c-0.408,0.769-0.948,1.368-1.62,1.8
		c-0.432,0.24-0.889,0.348-1.368,0.324c-0.48-0.025-0.913-0.229-1.296-0.612c-0.528-0.529-0.84-1.212-0.936-2.052
		c-0.095-0.839-0.144-1.644-0.144-2.412c0-1.584,0.167-3.179,0.504-4.788c0.335-1.607,0.767-3.179,1.296-4.716
		c0.479-1.248,1.044-2.508,1.692-3.78c0.648-1.271,1.476-2.364,2.484-3.276c0.528-0.527,1.14-0.947,1.836-1.26
		c0.695-0.312,1.404-0.371,2.124-0.18c0.096,0.048,0.216,0.084,0.36,0.108c0.144,0.025,0.263,0.084,0.36,0.18
		c0.096-1.104,0.191-2.184,0.288-3.24c0.096-1.056,0.191-2.135,0.288-3.24c0.239-1.775,0.468-3.539,0.684-5.292
		c0.216-1.751,0.468-3.516,0.756-5.292c0.144-0.864,0.288-1.739,0.432-2.628c0.144-0.888,0.335-1.739,0.576-2.556
		c0.096-0.335,0.252-0.731,0.468-1.188c0.216-0.456,0.54-0.659,0.972-0.612c0.096,0.048,0.191,0.072,0.288,0.072
		c0.047,0,0.083,0.013,0.108,0.036c0.024,0.025,0.06,0.036,0.108,0.036h0.144c0,0.048,0.072,0.12,0.216,0.216
		c0.144,0.097,0.24,0.192,0.288,0.288c0.144,0.241,0.216,0.48,0.216,0.72c0.096,0.817,0.072,1.633-0.072,2.448
		c-0.144,0.817-0.265,1.632-0.36,2.448c-0.288,1.776-0.612,3.541-0.972,5.292c-0.36,1.753-0.732,3.517-1.116,5.292
		c-0.097,0.528-0.205,1.068-0.324,1.62c-0.12,0.553-0.252,1.092-0.396,1.62c-0.144,1.344-0.288,2.664-0.432,3.96
		s-0.265,2.617-0.36,3.96c-0.144,1.632-0.264,3.265-0.36,4.896c-0.097,1.632-0.168,3.265-0.216,4.896
		c0,1.393,0.072,2.808,0.216,4.248c0.047,0.336,0.096,0.673,0.144,1.008c0.047,0.336,0.119,0.673,0.216,1.008
		c0.096,0.385,0.191,0.648,0.288,0.792c0,0.048,0.024,0.097,0.072,0.144C331.637,140.707,331.661,140.73,331.709,140.73z
		 M327.245,128.418c0.767-2.543,1.415-5.015,1.944-7.416c-0.432-0.047-0.816,0.025-1.152,0.216
		c-0.288,0.192-0.552,0.385-0.792,0.576c-0.241,0.192-0.48,0.409-0.72,0.648c-0.529,0.625-0.984,1.285-1.368,1.98
		c-0.385,0.697-0.745,1.38-1.08,2.052c-0.72,1.537-1.357,3.108-1.908,4.716c-0.552,1.609-0.997,3.252-1.332,4.932
		c-0.097,0.432-0.168,0.864-0.216,1.296c-0.048,0.432-0.072,0.889-0.072,1.368c0,0.336,0.012,0.696,0.036,1.08
		c0.024,0.385,0.155,0.696,0.396,0.936c0.24,0.288,0.504,0.349,0.792,0.18c0.288-0.167,0.564-0.419,0.828-0.756
		c0.263-0.335,0.492-0.695,0.684-1.08c0.191-0.383,0.335-0.648,0.432-0.792c0.815-1.536,1.487-3.156,2.016-4.86
		C326.261,131.791,326.765,130.099,327.245,128.418z"/>
	<path id="XMLID_264_" class="st0" d="M347.98,97.026c2.16-0.479,4.32-0.972,6.48-1.476c2.16-0.504,4.32-1.02,6.48-1.548
		c1.008-0.239,2.016-0.468,3.024-0.684c1.008-0.216,2.016-0.443,3.024-0.684c0.959-0.191,2.003-0.299,3.132-0.324
		c1.127-0.023,2.052,0.324,2.772,1.044c0.384,0.385,0.504,0.745,0.36,1.08c-0.144,0.336-0.396,0.648-0.756,0.936
		c-0.36,0.288-0.781,0.529-1.26,0.72c-0.48,0.192-0.864,0.336-1.152,0.432c-0.864,0.241-1.741,0.444-2.628,0.612
		c-0.889,0.168-1.789,0.324-2.7,0.468c-1.488,0.241-2.964,0.457-4.428,0.648c-1.465,0.192-2.916,0.36-4.356,0.504
		c-0.048,0.144-0.072,0.313-0.072,0.504c0,0.432-0.013,0.853-0.036,1.26c-0.025,0.408-0.061,0.828-0.108,1.26
		c-0.192,3.456-0.349,6.912-0.468,10.368c-0.12,3.456-0.252,6.912-0.396,10.368l-0.144,1.8c0.624-0.239,1.235-0.468,1.836-0.684
		c0.6-0.216,1.188-0.443,1.764-0.684c0.624-0.335,1.224-0.528,1.8-0.576c0.576-0.047,1.152-0.023,1.728,0.072
		c0.576,0.097,1.127,0.192,1.656,0.288c0.384,0.097,0.744,0.192,1.08,0.288c0.335,0.097,0.695,0.192,1.08,0.288
		c0.24,0.097,0.443,0.205,0.612,0.324c0.167,0.121,0.228,0.301,0.18,0.54c0,0.48-0.288,0.792-0.864,0.936
		c-0.576,0.144-1.033,0.265-1.368,0.36c-1.105,0.288-2.208,0.528-3.312,0.72c-1.105,0.192-2.208,0.409-3.312,0.648l-2.952,0.504
		c-0.097,2.353-0.192,4.705-0.288,7.056c-0.097,2.353-0.192,4.705-0.288,7.056c-0.048,0.24-0.072,0.492-0.072,0.756
		c0,0.263,0,0.515,0,0.756c0,0.144-0.024,0.312-0.07,0.504c-0.047,0.191-0.117,0.36-0.21,0.504s-0.198,0.227-0.315,0.252
		c-0.117,0.023-0.268-0.061-0.455-0.252c-0.327-0.385-0.538-0.828-0.631-1.332c-0.094-0.504-0.187-0.972-0.279-1.404
		c-0.187-1.152-0.304-2.304-0.351-3.456c-0.047-1.152-0.117-2.304-0.209-3.456c-0.048-0.912-0.084-1.812-0.108-2.7
		c-0.025-0.888-0.013-1.764,0.036-2.628v-1.224c-0.144,0-0.3,0.025-0.468,0.072c-0.169,0.048-0.324,0.072-0.468,0.072
		c-0.817,0.097-1.62,0.192-2.412,0.288c-0.792,0.097-1.597,0.144-2.412,0.144c-0.384,0-0.6-0.108-0.648-0.324
		c-0.047-0.216,0.048-0.443,0.288-0.684c0.336-0.288,0.732-0.468,1.188-0.54c0.456-0.072,0.875-0.155,1.26-0.252
		c1.199-0.191,2.472-0.527,3.816-1.008c0.14-3.215,0.351-6.503,0.632-9.864c0.234-2.592,0.479-5.195,0.737-7.812
		c0.257-2.616,0.643-5.22,1.158-7.812l0.281-1.08l-2.232,0.144c-0.673,0.048-1.321,0.097-1.944,0.144
		c-0.625,0.048-1.272,0.072-1.944,0.072c-0.336,0-0.732-0.023-1.188-0.072c-0.457-0.047-0.779-0.264-0.972-0.648
		c-0.144-0.24-0.144-0.443,0-0.612c0.144-0.167,0.324-0.324,0.54-0.468c0.216-0.144,0.456-0.252,0.72-0.324
		C347.631,97.134,347.836,97.075,347.98,97.026z"/>
	<path id="XMLID_266_" class="st0" d="M374.115,139.074c0.432-0.528,0.839-1.068,1.224-1.62c0.384-0.551,0.792-1.091,1.224-1.62
		c0.047-0.047,0.155-0.167,0.324-0.36c0.167-0.191,0.275-0.191,0.324,0c0.096,0.241,0.072,0.529-0.072,0.864
		c-0.144,0.336-0.265,0.625-0.36,0.864c-0.241,0.529-0.552,1.08-0.936,1.656c-0.385,0.576-0.828,1.105-1.332,1.584
		c-0.504,0.48-1.057,0.852-1.656,1.116c-0.601,0.263-1.236,0.348-1.908,0.252c-0.72-0.144-1.345-0.457-1.872-0.936
		c-0.529-0.479-0.961-1.055-1.296-1.728c-0.336-0.671-0.601-1.368-0.792-2.088c-0.192-0.72-0.36-1.392-0.504-2.016
		c-0.383-1.584-0.635-3.179-0.756-4.788c-0.119-1.607-0.204-3.228-0.252-4.86c-0.047-1.824-0.047-3.636,0-5.436
		c0.048-1.8,0.144-3.611,0.288-5.436c0.144-1.824,0.349-3.636,0.612-5.436c0.263-1.8,0.659-3.587,1.188-5.364
		c0.24-0.816,0.504-1.631,0.792-2.448c0.288-0.815,0.695-1.559,1.224-2.232c0.384-0.576,0.9-0.947,1.548-1.116
		c0.648-0.168,1.164,0.133,1.548,0.9c0.384,0.673,0.624,1.44,0.72,2.304c0.096,0.864,0.191,1.705,0.288,2.52
		c0.096,0.864,0.155,1.728,0.18,2.592c0.023,0.864-0.013,1.752-0.108,2.664c-0.144,3.216-0.529,6.42-1.152,9.612
		c-0.625,3.193-1.465,6.3-2.52,9.324c-0.529,1.681-1.128,3.216-1.8,4.608l-0.216,0.432c0.047,1.152,0.24,2.4,0.576,3.744
		c0.144,0.625,0.36,1.296,0.648,2.016s0.744,1.249,1.368,1.584c0.623,0.385,1.248,0.408,1.872,0.072
		C373.154,139.963,373.683,139.555,374.115,139.074z M367.923,130.434l0.216-0.504c0.959-2.783,1.764-5.604,2.412-8.46
		c0.648-2.855,1.188-5.724,1.62-8.604c0.24-1.775,0.42-3.552,0.54-5.328c0.119-1.775,0.036-3.552-0.252-5.328
		c-0.097-0.432-0.18-0.875-0.252-1.332c-0.072-0.456-0.229-0.875-0.468-1.26c-0.049-0.096-0.108-0.216-0.18-0.36
		c-0.072-0.144-0.18-0.168-0.324-0.072c-0.144,0.097-0.252,0.229-0.324,0.396c-0.072,0.169-0.156,0.324-0.252,0.468
		c-0.385,0.768-0.661,1.596-0.828,2.484c-0.169,0.889-0.3,1.74-0.396,2.556c-0.529,3.6-0.9,7.212-1.116,10.836
		c-0.216,3.625-0.349,7.236-0.396,10.836V130.434z"/>
	<path id="XMLID_269_" class="st0" d="M379.442,121.578c0.288-0.335,0.659-0.659,1.116-0.972c0.456-0.312,0.947-0.492,1.476-0.54
		c0.864-0.335,1.728-0.072,2.592,0.792c0.576,0.576,0.996,1.249,1.26,2.016c0.263,0.769,0.468,1.537,0.612,2.304
		c0.288,1.728,0.36,3.504,0.216,5.328c0,0.097-0.012,0.192-0.036,0.288c-0.025,0.097-0.036,0.192-0.036,0.288
		c0.528-0.24,1.008-0.515,1.44-0.828c0.432-0.312,0.839-0.635,1.224-0.972c0.047-0.047,0.155-0.155,0.324-0.324
		c0.168-0.167,0.335-0.299,0.504-0.396c0.167-0.096,0.335-0.155,0.504-0.18c0.167-0.024,0.252,0.084,0.252,0.324
		c0,0.576-0.265,1.069-0.792,1.476c-0.529,0.408-0.984,0.756-1.368,1.044c-0.72,0.576-1.44,0.961-2.16,1.152
		c-0.144,1.393-0.396,2.785-0.756,4.176c-0.36,1.393-0.925,2.664-1.692,3.816c-0.241,0.336-0.48,0.648-0.72,0.936
		c-0.241,0.288-0.552,0.527-0.936,0.72c-0.336,0.24-0.66,0.36-0.972,0.36c-0.313,0-0.661,0-1.044,0
		c-0.72-0.192-1.309-0.553-1.764-1.08c-0.457-0.528-0.828-1.127-1.116-1.8c-0.288-0.816-0.493-1.656-0.612-2.52
		c-0.12-0.864-0.205-1.728-0.252-2.592c-0.047-0.815-0.06-1.644-0.036-2.484c0.025-0.839,0.083-1.692,0.18-2.556
		c0.144-1.248,0.396-2.507,0.756-3.78c0.36-1.271,0.875-2.459,1.548-3.564L379.442,121.578z M384.482,132.666
		c-1.393-0.096-2.448-0.612-3.168-1.548c-0.72-0.936-1.2-2.027-1.44-3.276c-0.097,0.48-0.169,0.948-0.216,1.404
		c-0.048,0.457-0.097,0.925-0.144,1.404c-0.097,0.864-0.18,1.728-0.252,2.592c-0.072,0.864-0.108,1.752-0.108,2.664
		c0,0.673,0.047,1.488,0.144,2.448c0.096,0.961,0.432,1.705,1.008,2.232c0.288,0.288,0.563,0.409,0.828,0.36
		c0.263-0.047,0.527-0.155,0.792-0.324c0.263-0.167,0.491-0.384,0.684-0.648c0.191-0.263,0.36-0.515,0.504-0.756
		c0.432-0.72,0.779-1.464,1.044-2.232c0.263-0.768,0.492-1.56,0.684-2.376c0.095-0.335,0.167-0.66,0.216-0.972
		c0.047-0.312,0.096-0.636,0.144-0.972C384.962,132.763,384.722,132.763,384.482,132.666z M380.882,125.178
		c-0.048,0.673,0,1.404,0.144,2.196s0.384,1.512,0.72,2.16c0.335,0.648,0.803,1.164,1.404,1.548c0.6,0.385,1.332,0.504,2.196,0.36
		c0.144-1.199,0.204-2.412,0.18-3.636c-0.024-1.224-0.205-2.387-0.54-3.492c-0.144-0.911-0.457-1.656-0.936-2.232
		c-0.144-0.191-0.324-0.396-0.54-0.612c-0.216-0.216-0.444-0.348-0.684-0.396l-0.288,0.216c-0.241,0.241-0.432,0.457-0.576,0.648
		c-0.144,0.192-0.288,0.409-0.432,0.648l-0.216,0.36v0.072C381.074,123.738,380.93,124.458,380.882,125.178z"/>
	<path id="XMLID_273_" class="st0" d="M403.274,122.37c0.335-1.343,1.008-2.423,2.016-3.24c0.095-0.095,0.252-0.216,0.468-0.36
		s0.396-0.167,0.54-0.072c0.096,0.097,0.132,0.252,0.108,0.468c-0.025,0.216-0.036,0.373-0.036,0.468
		c-0.144,0.816-0.336,1.62-0.576,2.412c-0.241,0.792-0.457,1.597-0.648,2.412c-0.336,1.44-0.612,2.88-0.828,4.32
		c-0.216,1.44-0.421,2.88-0.612,4.32l-0.792,5.04c-0.049,0.336-0.108,0.732-0.18,1.188c-0.072,0.457-0.18,0.889-0.324,1.296
		c-0.144,0.408-0.349,0.78-0.612,1.116c-0.264,0.335-0.588,0.576-0.972,0.72c-0.864,0.191-1.512-0.061-1.944-0.756
		s-0.745-1.379-0.936-2.052c-0.48-1.631-0.769-3.335-0.864-5.112c-0.097-0.671-0.133-1.368-0.108-2.088
		c0.024-0.72,0.036-1.44,0.036-2.16c-0.097,0.288-0.144,0.48-0.144,0.576c-0.385,1.44-0.781,2.892-1.188,4.356
		c-0.408,1.465-0.9,2.892-1.476,4.284c-0.097,0.336-0.241,0.684-0.432,1.044c-0.192,0.36-0.457,0.635-0.792,0.828
		c-0.625,0.288-1.201,0.168-1.728-0.36c-0.385-0.384-0.637-0.828-0.756-1.332c-0.12-0.504-0.228-1.019-0.324-1.548
		c-0.672-3.359-0.695-6.647-0.072-9.864c0.24-1.104,0.54-2.207,0.9-3.312c0.36-1.104,0.875-2.111,1.548-3.024
		c0.096-0.144,0.204-0.288,0.324-0.432c0.12-0.144,0.276-0.264,0.468-0.36c0.335-0.144,0.492-0.036,0.468,0.324
		c-0.024,0.36-0.036,0.637-0.036,0.828c-0.097,0.576-0.229,1.164-0.396,1.764c-0.169,0.601-0.324,1.188-0.468,1.764
		c-0.336,1.537-0.588,3.108-0.756,4.716c-0.169,1.609-0.3,3.229-0.396,4.86c-0.048,0.432-0.084,0.876-0.108,1.332
		c-0.025,0.457-0.013,0.925,0.036,1.404c0.047,0.241,0.083,0.54,0.108,0.9c0.023,0.36,0.131,0.637,0.324,0.828
		c0.191,0.192,0.348,0.156,0.468-0.108c0.119-0.264,0.227-0.468,0.324-0.612l0.648-1.8c0.528-1.728,0.996-3.456,1.404-5.184
		c0.407-1.728,0.828-3.479,1.26-5.256c0.096-0.432,0.204-0.875,0.324-1.332c0.119-0.456,0.252-0.9,0.396-1.332
		c0.096-0.24,0.191-0.515,0.288-0.828c0.095-0.312,0.263-0.54,0.504-0.684c0.479-0.239,0.828-0.18,1.044,0.18
		c0.216,0.36,0.324,0.732,0.324,1.116c0.096,1.681,0.12,3.373,0.072,5.076c-0.048,1.705-0.025,3.396,0.072,5.076
		c0,0.864,0.011,1.74,0.036,2.628c0.023,0.889,0.108,1.764,0.252,2.628c0,0.048,0.036,0.169,0.108,0.36
		c0.072,0.192,0.155,0.396,0.252,0.612c0.096,0.216,0.191,0.396,0.288,0.54c0.096,0.144,0.191,0.144,0.288,0
		c0.24-0.24,0.396-0.551,0.468-0.936c0.072-0.384,0.155-0.72,0.252-1.008c0.335-1.68,0.54-3.348,0.612-5.004
		c0.072-1.656,0.204-3.323,0.396-5.004c0.096-1.104,0.227-2.208,0.396-3.312C402.758,124.579,402.986,123.475,403.274,122.37z"/>
</g>
</svg>
