<?xml version="1.0" encoding="UTF-8"?>
<svg width="264px" height="105px" viewBox="0 0 264 105" version="1.1" xmlns="http://www.w3.org/2000/svg" xmlns:xlink="http://www.w3.org/1999/xlink">
    <!-- Generator: Sketch 46.2 (44496) - http://www.bohemiancoding.com/sketch -->
    <title>Explorer recipe</title>
    <desc>Created with Sketch.</desc>
    <defs></defs>
    <g id="Page-1" stroke="none" stroke-width="1" fill="none" fill-rule="evenodd">
        <g id="Desktop" transform="translate(-45.000000, -198.000000)">
            <g id="Explorer-recipe" transform="translate(46.000000, 199.000000)">
                <path d="M28.75,12.5 C27.5009766,9.75097656 8.75,25.75 15,33.75 C21.25,41.75 27.25,1.5 14.7360201,1 C2.22204021,0.5 -3.5,44 11.25,44 C26,44 -0.25,29.5 0.75,56 C1.9529616,87.8784824 18.5478516,76.1660156 20.796875,73.4160156" id="Path-22" stroke="#414972" stroke-width="3" stroke-linecap="round" stroke-linejoin="round"></path>
                <path d="M16.75,81.25 C29.4166667,56.25 37.25,42.5833333 40.25,40.25" id="Path-23" stroke="#414972" stroke-width="3" stroke-linecap="round" stroke-linejoin="round"></path>
                <path d="M24,44.25 C27.5,43 27.5,91.75 39.4990234,70.4990234" id="Path-24" stroke="#414972" stroke-width="3" stroke-linecap="round"></path>
                <path d="M43,39 C42.1080375,51.1501088 41.607712,59.9001088 41.4990234,65.25 C41.0282889,88.4206029 44.2490234,101.750977 41.4990234,102 C37.9984569,102.31699 37.75,51 49.7509766,49.25 C61.7519531,47.5 50.2509766,96.25 43,67.75" id="Path-25" stroke="#414972" stroke-width="3" stroke-linecap="round" stroke-linejoin="round"></path>
                <path d="M60.2490234,61.9990234 C70.8097647,32.6663411 73.2001128,15.5 67.4200677,10.5 C58.75,3 51.0058594,103.25 75.2529297,66" id="Path-26" stroke="#414972" stroke-width="3" stroke-linecap="round" stroke-linejoin="round"></path>
                <path d="M82,44 C77.5301688,49.4389398 71.6586587,73 80.75,75 C89.8413413,77 94.5019531,41.5 85.0009766,42.5 C75.5,43.5 77.7480469,69.9980469 95.7490234,56.7490234" id="Path-27" stroke="#414972" stroke-width="3" stroke-linecap="round" stroke-linejoin="round"></path>
                <path d="M95.75,52.5 C98.25,64 98.25,71.75 95.75,75.75 C92,81.75 98.25,42 103.25,40.5 C108.25,39 104.75,49 106.25,52.5 C107.75,56 115,64.5 119.25,52.5 C123.5,40.5 113,41.6429355 110.75,50.75 C108.5,59.8570645 109,83.1429355 124,70.75" id="Path-29" stroke="#414972" stroke-width="3" stroke-linecap="round"></path>
                <path d="M149.249023,9.74902344 C149.249023,9.74902344 143.5,66.5 147.5,80.25" id="Path-30" stroke="#414972" stroke-width="3" stroke-linecap="round" stroke-linejoin="round"></path>
                <path d="M142.000977,31.25 C136.333659,14.25 139.75,4.75 152.25,2.75 C171,-0.25 176.5,41 153.75,51.25 C149.52756,53.1524181 159.25,87.75 173.750977,72.25 C188.251953,56.75 182.498047,44.2490234 177,44.75 C171.501953,45.2509766 167.75,86.5 187.000977,69.75" id="Path-31" stroke="#414972" stroke-width="3" stroke-linecap="round" stroke-linejoin="round"></path>
                <path d="M196.25,47.5 C192.583333,52.6156463 191.666667,55.8656463 193.5,57.25 C196.25,59.3265306 202.037661,47.0188046 194.934738,45 C183.5,41.75 182.5,92.25 203.250977,70" id="Path-32" stroke="#414972" stroke-width="3" stroke-linecap="round" stroke-linejoin="round"></path>
                <path d="M205.750977,45 C203.249023,73.6653646 206.415039,80.8317057 215.249023,66.4990234" id="Path-33" stroke="#414972" stroke-width="3" stroke-linecap="round" stroke-linejoin="round"></path>
                <path d="M218.25,39.75 C217.002532,53.4635591 216.335865,62.8802257 216.25,68 C215.871016,90.5971561 217.742704,100.25608 216.25,101.5 C213.25,104 216.251953,53.25 225.500977,50 C234.75,46.75 228.5,79.25 223,76.5 C217.5,73.75 219.250977,70 219.250977,66.5" id="Path-34" stroke="#414972" stroke-width="3" stroke-linecap="round" stroke-linejoin="round"></path>
                <path d="M236.75,68.75 C244.102456,52.4915194 245.602456,44.0748527 241.25,43.5 C228,41.75 234.532568,87.8545754 247.239976,71.25 C260.25,54.25 257.748047,44.2480469 254.999023,44.7490234 C252.25,45.25 251.251953,51.75 258.500977,61.5 C265.75,71.25 258.003906,81.9980469 251.251953,73.2490234" id="Path-35" stroke="#414972" stroke-width="3" stroke-linecap="round" stroke-linejoin="round"></path>
                <ellipse id="Oval" fill="#414972" transform="translate(207.392437, 31.851188) rotate(35.000000) translate(-207.392437, -31.851188) " cx="207.392437" cy="31.8511877" rx="2.62182993" ry="3.91361838"></ellipse>
            </g>
        </g>
    </g>
</svg>