<?xml version="1.0" encoding="UTF-8"?>
<svg width="350px" height="81px" viewBox="0 0 350 81" version="1.1" xmlns="http://www.w3.org/2000/svg" xmlns:xlink="http://www.w3.org/1999/xlink">
    <!-- Generator: Sketch 46.2 (44496) - http://www.bohemiancoding.com/sketch -->
    <title>find a restaurant</title>
    <desc>Created with Sketch.</desc>
    <defs></defs>
    <g id="Page-1" stroke="none" stroke-width="1" fill="none" fill-rule="evenodd">
        <g id="Desktop" transform="translate(-44.000000, -493.000000)">
            <g id="find-a-restaurant" transform="translate(46.000000, 494.000000)">
                <path d="M39.7504883,1.125 C17.1668294,5.375 4.875,7.54166667 2.875,7.625" id="Path-51" stroke="#414972" stroke-width="3" stroke-linecap="round" stroke-linejoin="round"></path>
                <path d="M0.25,51.75 C13.3339844,50 21.9591471,48.0416667 26.1254883,45.875" id="Path-52" stroke="#414972" stroke-width="3" stroke-linecap="round" stroke-linejoin="round"></path>
                <path d="M14.9995117,6.12451172 C11.4998372,41.9581706 10.125,64.7083333 10.875,74.375" id="Path-53" stroke="#414972" stroke-width="3" stroke-linecap="round" stroke-linejoin="round"></path>
                <path d="M33.375,43.375 C31.0416667,72.5416667 34.0833333,79.5 42.5,64.25" id="Path-54" stroke="#414972" stroke-width="3" stroke-linecap="round" stroke-linejoin="round"></path>
                <path d="M43.625,42 C44.875,63.1666667 44.875,73.75 43.625,73.75 C41.75,73.75 45.875,42.625 52.75,39.375 C59.625,36.125 45.8740234,90.4990234 62.9995117,66.4995117" id="Path-55" stroke="#414972" stroke-width="3" stroke-linecap="round" stroke-linejoin="round"></path>
                <path d="M79.75,41.125 C73,38.5 56.7775922,71.375 66.75,73.25 C76.7224078,75.125 89.875,4.875 86.5,4.5 C83.125,4.125 70.7490234,92.6240234 88.2495117,68.3745117" id="Path-56" stroke="#414972" stroke-width="3" stroke-linecap="round" stroke-linejoin="round"></path>
                <path d="M123.25,42.125 C107.75,40 103.375,70.25 108.25,74.125 C113.125,78 126.75,46.75 123.25,46.125 C119.75,45.5 114.75,89.375 130.500488,67.5" id="Path-57" stroke="#414972" stroke-width="3" stroke-linecap="round" stroke-linejoin="round"></path>
                <path d="M155.25,10.5 C151.416667,55.8333333 150.916667,78.5 153.75,78.5" id="Path-58" stroke="#414972" stroke-width="3" stroke-linecap="round" stroke-linejoin="round"></path>
                <path d="M147.499023,29.4990234 C143.166341,11.4996745 146.916667,1.91666667 158.75,0.75 C176.5,-1 180.934124,35.4414709 160.499023,49.4990234 C156.5,52.25 162.25,68 166.25,72.25 C171.454479,77.7797585 181.25,71.75 184.75,59.25 C190.585074,38.410451 181.25,39.25 179,46.5 C176.75,53.75 179,84.5 192.5,67.5 C206,50.5 201.499023,41.25 198.5,42.75 C195.500977,44.25 196.5,53 202,59.25 C207.5,65.5 204.75,80.75 195.25,70" id="Path-59" stroke="#414972" stroke-width="3" stroke-linecap="round" stroke-linejoin="round"></path>
                <path d="M216.249023,26.7490234 C209.249674,68.0830078 211.166667,82.3333333 222,69.5" id="Path-60" stroke="#414972" stroke-width="3" stroke-linecap="round" stroke-linejoin="round"></path>
                <path d="M208.5,38 C220.501302,35.5 226.834961,34.1666667 227.500977,34" id="Path-61" stroke="#414972" stroke-width="3" stroke-linecap="round" stroke-linejoin="round"></path>
                <path d="M240.250977,41.75 C228.75,39.25 219.25,67 224.5,73.5 C229.75,80 242.001953,48.75 240.250977,46.75 C238.5,44.75 229.751953,88 247.250977,68" id="Path-62" stroke="#414972" stroke-width="3" stroke-linecap="round" stroke-linejoin="round"></path>
                <path d="M250.25,42 C247.25,43 247,75.25 253.25,74.25 C259.5,73.25 263.749023,44.4990234 261.75,44.5 C259.750977,44.5009766 255.498047,76.4985352 268.999023,67.2490234" id="Path-63" stroke="#414972" stroke-width="3" stroke-linecap="round" stroke-linejoin="round"></path>
                <path d="M268.25,50 C271.583333,62.8333333 272.166667,70.6666667 270,73.5 C266.75,77.75 271.251953,39 277.250977,39 C283.25,39 272.75,55 281.75,53" id="Path-64" stroke="#414972" stroke-width="3" stroke-linecap="round" stroke-linejoin="round"></path>
                <path d="M301.250977,42.25 C289.5,37.75 278.5,72.25 285.75,74.25 C293,76.25 304.001953,48 301.250977,46.75 C298.5,45.5 290.498047,87.2480469 308.249023,68.2490234" id="Path-65" stroke="#414972" stroke-width="3" stroke-linecap="round" stroke-linejoin="round"></path>
                <path d="M308.749023,42.4990234 C310.748372,58.8330078 310.748372,68.75 308.749023,72.25 C305.75,77.5 311.251953,41 318.500977,39 C325.75,37 309.001953,91.5 329.000977,65.25" id="Path-66" stroke="#414972" stroke-width="3" stroke-linecap="round" stroke-linejoin="round"></path>
                <path d="M334.749023,24.4990234 C328.248372,68.9983724 330.331706,83.5817057 340.999023,68.2490234" id="Path-67" stroke="#414972" stroke-width="3" stroke-linecap="round" stroke-linejoin="round"></path>
                <path d="M326.250977,37 L346.248047,33.9990234" id="Path-68" stroke="#414972" stroke-width="3" stroke-linecap="round" stroke-linejoin="round"></path>
                <ellipse id="Oval" fill="#414972" transform="translate(34.392437, 29.851188) rotate(35.000000) translate(-34.392437, -29.851188) " cx="34.3924366" cy="29.8511877" rx="2.62182993" ry="3.91361838"></ellipse>
            </g>
        </g>
    </g>
</svg>