<?xml version="1.0" encoding="UTF-8"?>
<svg width="299px" height="103px" viewBox="0 0 299 103" version="1.1" xmlns="http://www.w3.org/2000/svg" xmlns:xlink="http://www.w3.org/1999/xlink">
    <!-- Generator: Sketch 46.2 (44496) - http://www.bohemiancoding.com/sketch -->
    <title>tips and tricks</title>
    <desc>Created with Sketch.</desc>
    <defs></defs>
    <g id="Page-1" stroke="none" stroke-width="1" fill="none" fill-rule="evenodd">
        <g id="Desktop" transform="translate(-38.000000, -614.000000)">
            <g id="tips-and-tricks" transform="translate(39.000000, 616.000000)">
                <path d="M0.499023438,9.99902344 C30.1676432,5.66634115 46.4182943,2.75 49.2509766,1.25" id="Path-69" stroke="#414972" stroke-width="3" stroke-linecap="round" stroke-linejoin="round"></path>
                <path d="M21.9990234,7.24902344 C19.3317057,46.7483724 19.3317057,69.4150391 21.9990234,75.2490234" id="Path-70" stroke="#414972" stroke-width="3" stroke-linecap="round" stroke-linejoin="round"></path>
                <path d="M35.7490234,43.9990234 C34.7496745,72.6663411 38.1666667,79.1666667 46,63.5" id="Path-71" stroke="#414972" stroke-width="3" stroke-linecap="round" stroke-linejoin="round"></path>
                <path d="M49.7509766,36.75 C45.0019531,39.5 49.7509766,99.5 46.75,99.5 C43.7490234,99.5 46,47.25 56.25,47.25 C66.5,47.25 54.1205924,95.75 49.7509766,66.25" id="Path-72" stroke="#414972" stroke-width="3" stroke-linecap="round" stroke-linejoin="round"></path>
                <path d="M65,68.25 C75,52.4166667 78.0830078,43.9996745 74.2490234,42.9990234 C68.4980469,41.4980469 66.75,50.75 75.25,59 C83.75,67.25 75.25,82.25 68.25,70.5" id="Path-73" stroke="#414972" stroke-width="3" stroke-linecap="round" stroke-linejoin="round"></path>
                <path d="" id="Path-74" stroke="#414972"></path>
                <path d="M117.25,41.5 C106.75,39.25 96,72 103.749023,73.7490234 C111.498047,75.4980469 121,46.75 118.75,46 C116.5,45.25 108.501953,87.25 124.750977,68.75" id="Path-75" stroke="#414972" stroke-width="3" stroke-linecap="round" stroke-linejoin="round"></path>
                <path d="M126.25,42.25 C128.75,61.0833333 129.083333,71.1666667 127.25,72.5 C124.5,74.5 128.75,43.5 135,39.5 C141.25,35.5 128,90.75 146.25,66.5" id="Path-76" stroke="#414972" stroke-width="3" stroke-linecap="round" stroke-linejoin="round"></path>
                <path d="M162.5,40.4910966 C155.75,38.7321933 141.498047,65.4980469 149.249023,72.7490234 C157,80 170.25,5.75 168.75,5 C167.25,4.25 152,92.25 170.75,68.5" id="Path-77" stroke="#414972" stroke-width="3" stroke-linecap="round" stroke-linejoin="round"></path>
                <path d="M180.750977,8.75 C206.582357,5.74869792 222.415039,3.2483724 228.249023,1.24902344" id="Path-78" stroke="#414972" stroke-width="3" stroke-linecap="round" stroke-linejoin="round"></path>
                <path d="M200.999023,6.49902344 C197.665039,43.6663411 197.665039,66.8333333 200.999023,76" id="Path-79" stroke="#414972" stroke-width="3" stroke-linecap="round" stroke-linejoin="round"></path>
                <path d="M213.25,49.5 C215.583333,62.8333333 215.583333,71.0833333 213.25,74.25 C209.75,79 216.251953,39.5 221.000977,38.75 C225.75,38 218.5,57 225.75,53.25" id="Path-80" stroke="#414972" stroke-width="3" stroke-linecap="round" stroke-linejoin="round"></path>
                <path d="M230.25,43.75 C226.917969,72.9166667 230.001628,79.8333333 239.500977,64.5" id="Path-81" stroke="#414972" stroke-width="3" stroke-linecap="round" stroke-linejoin="round"></path>
                <path d="M250.500977,44.75 C246.333659,52.25 245.75,55.4166667 248.75,54.25 C253.25,52.5 253.749023,36.25 243.75,45.75 C233.750977,55.25 244,86.75 257,68" id="Path-82" stroke="#414972" stroke-width="3" stroke-linecap="round" stroke-linejoin="round"></path>
                <path d="M258.499023,51.7490234 C258.499023,51.7490234 273.248047,0.748046875 263.999023,0.249023438 C254.75,-0.25 262.75,73.5 258.499023,73.75 C254.248047,74 266.751953,33.5 275.000977,40.5 C283.25,47.5 264.75293,61.2490234 261.25,60.5 C258.752288,59.9659199 265.372033,52.4881314 268.25,64 C269.75,70 271.5,76 275.000977,75.75 C278.501953,75.5 298.5,46.75 289.75,43 C283.99434,40.5332886 287.75,53.5 293.75,62.25 C299.75,71 291,79.75 285.250977,69.75" id="Path-83" stroke="#414972" stroke-width="3" stroke-linecap="round" stroke-linejoin="round"></path>
                <ellipse id="Oval" fill="#414972" transform="translate(38.392437, 29.851188) rotate(35.000000) translate(-38.392437, -29.851188) " cx="38.3924366" cy="29.8511877" rx="2.62182993" ry="3.91361838"></ellipse>
                <ellipse id="Oval" fill="#414972" transform="translate(231.392437, 29.851188) rotate(35.000000) translate(-231.392437, -29.851188) " cx="231.392437" cy="29.8511877" rx="2.62182993" ry="3.91361838"></ellipse>
            </g>
        </g>
    </g>
</svg>