<?xml version="1.0" encoding="iso-8859-1"?>
<!-- Generator: Adobe Illustrator 19.0.0, SVG Export Plug-In . SVG Version: 6.00 Build 0)  -->
<svg version="1.1" id="Layer_1" xmlns="http://www.w3.org/2000/svg" xmlns:xlink="http://www.w3.org/1999/xlink" x="0px" y="0px"
	 width="595.28px" height="841.89px" viewBox="0 0 595.28 841.89" style="enable-background:new 0 0 595.28 841.89;"
	 xml:space="preserve">
<style type="text/css">
	.st0{fill:#414A73;}
</style>
<g id="XMLID_6_">
	<path id="XMLID_172_" class="st0" d="M191.4,106.23c4.08-0.72,8.111-1.5,12.096-2.34c3.983-0.839,8.016-1.62,12.096-2.34
		c0.864-0.144,1.728-0.275,2.592-0.396c0.864-0.119,1.751-0.204,2.664-0.252c0.191,0,0.479,0,0.864,0
		c0.384,0,0.768,0.048,1.152,0.144c0.383,0.097,0.708,0.241,0.972,0.432c0.263,0.192,0.372,0.457,0.324,0.792
		c-0.048,0.288-0.169,0.54-0.36,0.756c-0.192,0.216-0.409,0.421-0.648,0.612c-0.384,0.288-0.768,0.54-1.152,0.756
		c-0.385,0.216-0.792,0.444-1.224,0.684c-1.296,0.576-2.64,1.008-4.032,1.296c-1.393,0.288-2.785,0.528-4.176,0.72
		c-1.249,0.144-2.508,0.288-3.78,0.432c-1.272,0.144-2.532,0.264-3.78,0.36c-0.049,0.48-0.072,0.948-0.072,1.404
		c0,0.457,0,0.948,0,1.476c-0.144,7.056-0.216,14.112-0.216,21.168l-0.216,18.648v1.439c0,0.384-0.097,0.731-0.288,1.044
		c-0.192,0.312-0.48,0.228-0.864-0.252c-0.288-0.385-0.48-0.816-0.576-1.296c-0.097-0.48-0.192-0.961-0.288-1.44
		c-0.241-1.151-0.409-2.304-0.504-3.456c-0.097-1.151-0.192-2.304-0.288-3.455c-0.097-0.912-0.169-1.801-0.216-2.664
		c-0.048-0.864-0.072-1.729-0.072-2.593c0-2.735,0.036-5.459,0.108-8.172c0.072-2.711,0.204-5.436,0.396-8.171
		c0.096-1.44,0.191-2.88,0.288-4.32c0.096-1.44,0.24-2.88,0.432-4.32c0.047-0.528,0.095-1.067,0.144-1.62
		c0.047-0.551,0.12-1.091,0.216-1.62c0.047-0.24,0.083-0.504,0.108-0.792c0.023-0.288,0.083-0.576,0.18-0.864
		c-1.296,0.097-2.592,0.192-3.888,0.288c-1.296,0.097-2.568,0.192-3.816,0.288c-0.816,0.048-1.644,0.108-2.484,0.18
		c-0.839,0.072-1.667,0.061-2.484-0.036c-0.288-0.047-0.684-0.155-1.188-0.324c-0.504-0.167-0.708-0.443-0.612-0.828
		c0.097-0.479,0.457-0.803,1.08-0.972C190.513,106.458,191.017,106.327,191.4,106.23z"/>
	<path id="XMLID_174_" class="st0" d="M219.408,144.03c0.096-0.239,0.252-0.479,0.468-0.72c0.216-0.239,0.468-0.384,0.756-0.432
		c0.288-0.048,0.479,0.12,0.576,0.504c0,0.24-0.061,0.504-0.18,0.792c-0.121,0.288-0.252,0.552-0.396,0.792l-0.864,1.728
		c-0.385,0.673-0.792,1.309-1.224,1.908c-0.432,0.601-0.984,1.141-1.656,1.62c-0.625,0.432-1.272,0.563-1.944,0.396
		c-0.673-0.168-1.232-0.564-1.68-1.188c-0.448-0.672-0.771-1.404-0.969-2.196c-0.199-0.792-0.349-1.571-0.448-2.34
		c-0.097-0.864-0.18-1.716-0.252-2.556c-0.072-0.84-0.108-1.692-0.108-2.557c0-1.439,0.048-2.88,0.144-4.319
		c0.095-1.44,0.216-2.855,0.36-4.248c0.049-0.336,0.099-0.636,0.148-0.9c0.049-0.263,0.272-0.371,0.669-0.324
		c0.248,0.049,0.653,0.156,1.217,0.324c0.562,0.169,0.868,0.396,0.917,0.685c0.095,0.24,0.108,0.492,0.036,0.756
		c-0.072,0.264-0.108,0.516-0.108,0.756l-0.216,2.016c-0.097,0.912-0.18,1.8-0.252,2.664c-0.072,0.864-0.133,1.729-0.18,2.592
		c-0.097,0.913-0.18,1.812-0.252,2.7c-0.072,0.889-0.084,1.789-0.036,2.7c0,0.432,0.024,0.864,0.072,1.296
		c0.047,0.432,0.144,0.864,0.288,1.296c0.096,0.241,0.204,0.517,0.324,0.828c0.119,0.312,0.348,0.517,0.684,0.612
		c0.288,0.097,0.576,0.048,0.864-0.145c0.288-0.191,0.551-0.419,0.792-0.684c0.24-0.264,0.456-0.552,0.648-0.864
		c0.191-0.312,0.36-0.563,0.504-0.756C218.591,145.951,219.023,145.037,219.408,144.03z M215.088,119.262
		c0.768,0,1.308,0.313,1.62,0.936c0.312,0.625,0.396,1.272,0.252,1.944c-0.192,0.673-0.564,1.272-1.116,1.8
		c-0.553,0.529-1.188,0.792-1.908,0.792c-0.817,0-1.38-0.312-1.692-0.936c-0.313-0.623-0.373-1.271-0.18-1.944
		c0.144-0.672,0.504-1.271,1.08-1.8C213.72,119.527,214.368,119.262,215.088,119.262z"/>
	<path id="XMLID_177_" class="st0" d="M222.287,150.654c-0.097-0.097-0.192-0.24-0.288-0.432c0,1.584,0.011,3.179,0.036,4.788
		c0.023,1.607,0.036,3.228,0.036,4.859c0,0.912-0.013,1.812-0.036,2.7c-0.025,0.888-0.061,1.788-0.108,2.7
		c0,0.911-0.072,1.8-0.216,2.664c-0.097,0.239-0.18,0.491-0.252,0.756c-0.072,0.264-0.229,0.468-0.468,0.612
		c-0.625,0.335-1.116,0.252-1.476-0.252s-0.587-0.997-0.684-1.477c-0.24-0.816-0.371-1.655-0.396-2.52
		c-0.023-0.864-0.036-1.729-0.036-2.592c0-1.825,0.084-3.637,0.252-5.437c0.169-1.8,0.373-3.589,0.612-5.364l0.504-3.6v-3.312
		c-0.097-3.312-0.025-6.624,0.216-9.937c0.096-1.296,0.216-2.592,0.36-3.888c0.144-1.296,0.432-2.567,0.864-3.816
		c0.047-0.096,0.119-0.263,0.216-0.504c0.096-0.24,0.216-0.468,0.36-0.684s0.275-0.348,0.396-0.396
		c0.119-0.047,0.227,0.048,0.324,0.288c0.144,0.672,0.204,1.332,0.18,1.98c-0.025,0.647-0.084,1.308-0.18,1.979
		c-0.144,1.537-0.252,3.061-0.324,4.572c-0.072,1.512-0.133,3.036-0.18,4.572v0.071c0.144-0.384,0.288-0.767,0.432-1.151
		c0.144-0.384,0.312-0.768,0.504-1.152c0.335-0.672,0.731-1.343,1.188-2.016c0.456-0.672,1.044-1.152,1.764-1.44
		c0.767-0.335,1.5-0.324,2.196,0.036c0.695,0.36,1.235,0.876,1.62,1.548c0.432,0.72,0.72,1.512,0.864,2.376s0.24,1.729,0.288,2.592
		c0.047,1.584-0.084,3.204-0.396,4.86c-0.312,1.656-0.828,3.181-1.548,4.572c-0.336,0.671-0.756,1.296-1.26,1.872
		c-0.504,0.575-1.116,0.959-1.836,1.151c-0.673,0.145-1.332,0.072-1.98-0.216S222.671,151.277,222.287,150.654z M223.727,138.63
		c-0.385,0.96-0.72,1.933-1.008,2.916c-0.288,0.984-0.553,1.956-0.792,2.916v0.432c0.095-0.096,0.239-0.191,0.432-0.288
		c0.288-0.096,0.42-0.023,0.396,0.216c-0.024,0.241-0.061,0.457-0.108,0.648c0,0.24,0.011,0.48,0.036,0.72
		c0.023,0.241,0.06,0.48,0.108,0.72c0.096,0.529,0.24,1.069,0.432,1.62c0.191,0.553,0.479,1.021,0.864,1.404
		c0.479,0.479,0.936,0.587,1.368,0.324c0.432-0.265,0.803-0.685,1.116-1.26c0.312-0.576,0.563-1.2,0.756-1.872
		c0.191-0.672,0.335-1.152,0.432-1.44c0.335-1.296,0.563-2.628,0.684-3.996c0.12-1.368,0.108-2.724-0.036-4.068
		c0-0.239-0.048-0.563-0.144-0.972c-0.097-0.407-0.229-0.779-0.396-1.116c-0.169-0.335-0.385-0.587-0.648-0.756
		c-0.265-0.167-0.612-0.155-1.044,0.036c-0.672,0.385-1.188,0.948-1.548,1.692S223.967,137.958,223.727,138.63z"/>
	<path id="XMLID_180_" class="st0" d="M234.598,150.51c-0.385-0.576-0.529-1.225-0.432-1.944c0-0.144,0.096-0.407,0.288-0.792
		c0.191-0.384,0.407-0.479,0.648-0.288c0.191,0.145,0.312,0.396,0.36,0.756c0.047,0.36,0.096,0.637,0.144,0.828
		c0.239,0.576,0.504,1.008,0.792,1.296c0.432,0.433,0.996,0.672,1.692,0.721c0.695,0.047,1.307-0.121,1.836-0.504
		c0.623-0.48,0.996-1.104,1.116-1.872c0.119-0.768,0.131-1.487,0.036-2.16c-0.097-0.815-0.336-1.584-0.72-2.305
		c-0.385-0.72-0.84-1.392-1.368-2.016l-1.584-1.872c-1.105,2.353-2.401,4.68-3.888,6.984c-0.097,0.097-0.264,0.324-0.504,0.684
		c-0.241,0.36-0.457,0.372-0.648,0.036c-0.24-0.432-0.227-0.852,0.036-1.26c0.263-0.407,0.515-0.804,0.756-1.188
		c0.672-0.959,1.296-1.979,1.872-3.06s1.104-2.172,1.584-3.276c-0.097-0.191-0.205-0.384-0.324-0.576
		c-0.12-0.19-0.228-0.407-0.324-0.647c-0.385-0.815-0.661-1.62-0.828-2.412c-0.168-0.792-0.156-1.596,0.036-2.412
		c0.096-0.576,0.275-1.14,0.54-1.692c0.263-0.551,0.636-0.995,1.116-1.331c0.624-0.288,1.224-0.276,1.8,0.035
		c0.576,0.313,0.911,0.805,1.008,1.477c0.096,1.008,0.024,2.028-0.216,3.06c-0.241,1.033-0.552,2.052-0.936,3.061
		c0.288,0.528,0.587,1.056,0.9,1.584c0.312,0.528,0.659,1.056,1.044,1.584c0.432,0.673,0.839,1.403,1.224,2.195
		c0.384,0.792,0.659,1.597,0.828,2.412c0.167,0.817,0.204,1.646,0.108,2.484c-0.097,0.84-0.36,1.645-0.792,2.412
		c-0.385,0.672-0.9,1.163-1.548,1.476c-0.648,0.312-1.321,0.468-2.016,0.468c-0.696,0-1.368-0.168-2.016-0.504
		S235.03,151.133,234.598,150.51z M237.118,133.23c0.047,0.529,0.132,1.033,0.252,1.512c0.12,0.48,0.276,0.961,0.468,1.44
		c0.335-1.056,0.551-2.136,0.648-3.24c0-0.239-0.036-0.587-0.108-1.044c-0.072-0.455-0.301-0.636-0.684-0.54
		c-0.336,0.097-0.529,0.372-0.576,0.828C237.069,132.643,237.069,132.991,237.118,133.23z"/>
	<path id="XMLID_183_" class="st0" d="M272.685,147.054c0.096-0.096,0.252-0.288,0.468-0.576c0.216-0.288,0.396-0.384,0.54-0.288
		c0.144,0.097,0.168,0.288,0.072,0.576c-0.097,0.288-0.169,0.48-0.216,0.576c-0.48,1.151-1.152,2.185-2.016,3.096
		c-0.48,0.527-1.069,0.937-1.764,1.224c-0.696,0.288-1.38,0.24-2.052-0.144c-0.673-0.385-1.177-0.948-1.512-1.692
		c-0.336-0.743-0.576-1.451-0.72-2.124c-0.241-0.863-0.385-1.728-0.432-2.592c-0.048,0.049-0.072,0.097-0.072,0.145
		c-0.576,1.104-1.212,2.231-1.908,3.384c-0.696,1.152-1.548,2.088-2.556,2.808c-0.432,0.288-0.889,0.468-1.368,0.54
		c-0.48,0.072-0.936-0.061-1.368-0.396c-0.48-0.337-0.805-0.781-0.972-1.332c-0.169-0.552-0.277-1.092-0.324-1.62
		c-0.191-1.68-0.119-3.396,0.216-5.148c0.335-1.751,0.767-3.42,1.296-5.004c0.528-1.487,1.163-2.976,1.908-4.464
		c0.744-1.487,1.739-2.76,2.988-3.815c0.528-0.479,1.14-0.853,1.836-1.116c0.695-0.264,1.404-0.348,2.124-0.252
		c0.288,0.048,0.576,0.12,0.864,0.216c0.288,0.097,0.551,0.265,0.792,0.504c0.144,0.192,0.263,0.385,0.36,0.576
		c0,0.097-0.072,0.156-0.216,0.18c-0.144,0.024-0.265,0.036-0.36,0.036c-0.673,0.048-1.272,0.12-1.8,0.216
		c-0.529,0.097-1.057,0.337-1.584,0.72c-0.625,0.48-1.165,1.021-1.62,1.62c-0.457,0.601-0.876,1.236-1.26,1.908
		c-0.817,1.393-1.537,2.869-2.16,4.428c-0.625,1.561-1.128,3.133-1.512,4.717c-0.192,0.816-0.349,1.668-0.468,2.556
		c-0.121,0.889-0.133,1.74-0.036,2.556c0.047,0.288,0.132,0.612,0.252,0.973c0.119,0.359,0.372,0.587,0.756,0.684
		c0.288,0.096,0.576,0.023,0.864-0.216c0.288-0.241,0.551-0.48,0.792-0.72c0.576-0.624,1.08-1.297,1.512-2.017
		c0.432-0.72,0.839-1.464,1.224-2.231c0.335-0.624,0.648-1.271,0.936-1.944c0.288-0.672,0.576-1.344,0.864-2.016
		c0.047-0.721,0.108-1.44,0.18-2.16c0.072-0.721,0.18-1.416,0.324-2.088c0.096-0.768,0.24-1.572,0.432-2.412
		c0.191-0.84,0.479-1.596,0.864-2.269c0.24-0.432,0.624-0.695,1.152-0.792c0.096,0,0.191,0.013,0.288,0.036
		c0.096,0.024,0.168,0.036,0.216,0.036c0.527,0.192,0.815,0.528,0.864,1.008c0.047,0.48,0.023,0.937-0.072,1.368
		c-0.097,0.624-0.241,1.236-0.432,1.836c-0.192,0.601-0.408,1.213-0.648,1.836l-0.432,1.008c-0.144,1.296-0.216,2.568-0.216,3.816
		c-0.048,1.008-0.097,2.028-0.144,3.06c-0.048,1.033,0.047,2.028,0.288,2.988c0.095,0.288,0.216,0.624,0.36,1.008
		s0.407,0.6,0.792,0.648c0.432,0.047,0.828-0.085,1.188-0.396s0.659-0.611,0.9-0.899L272.685,147.054z"/>
	<path id="XMLID_185_" class="st0" d="M284.708,147.702c0.383-0.432,0.767-0.875,1.152-1.332c0.384-0.455,0.792-0.875,1.224-1.26
		c0.047-0.047,0.155-0.144,0.324-0.288c0.168-0.144,0.299-0.144,0.396,0c0.047,0.097,0.024,0.252-0.072,0.469
		c-0.097,0.216-0.192,0.372-0.288,0.468c-0.241,0.385-0.48,0.756-0.72,1.116c-0.241,0.359-0.48,0.708-0.72,1.044
		c-0.241,0.336-0.54,0.72-0.9,1.151c-0.36,0.433-0.745,0.828-1.152,1.188c-0.408,0.359-0.84,0.647-1.296,0.863
		c-0.457,0.217-0.925,0.253-1.404,0.108c-0.529-0.097-0.925-0.396-1.188-0.9c-0.265-0.504-0.444-0.995-0.54-1.476
		c-0.288-1.199-0.432-2.423-0.432-3.672c-0.097-1.729-0.061-3.443,0.108-5.148c0.168-1.703,0.348-3.42,0.54-5.147
		c0.096-0.864,0.167-1.739,0.216-2.628c0.047-0.888,0-1.765-0.144-2.628c-0.048-0.576-0.241-0.624-0.576-0.145
		c-0.44,0.576-0.83,1.272-1.171,2.088c-0.684,1.394-1.282,2.833-1.794,4.32c-0.513,1.488-0.964,3-1.354,4.536
		c-0.047,1.393-0.105,2.784-0.175,4.176c-0.069,1.393-0.195,2.784-0.38,4.176c0,0.145-0.024,0.385-0.07,0.721
		c-0.046,0.336-0.116,0.671-0.208,1.008c-0.092,0.335-0.22,0.6-0.381,0.792c-0.162,0.191-0.381,0.167-0.658-0.072
		c-0.288-0.24-0.432-0.601-0.432-1.08s0.023-0.888,0.072-1.224c0.047-0.433,0.096-0.864,0.144-1.296
		c0.047-0.433,0.12-0.84,0.216-1.225c0-0.239,0.023-0.432,0.072-0.576c-0.048-0.239-0.072-0.623-0.072-1.151
		c-0.048-1.104-0.097-2.22-0.144-3.349c-0.048-1.127-0.121-2.243-0.216-3.348c-0.095-0.96-0.18-1.944-0.252-2.952
		c-0.072-1.008-0.131-1.991-0.18-2.952c-0.047-0.383-0.06-0.779-0.036-1.188c0.025-0.407,0.133-0.779,0.324-1.116
		c0.095-0.191,0.204-0.348,0.324-0.468c0.119-0.119,0.276-0.132,0.468-0.036c0.274,0.192,0.525,0.432,0.753,0.72
		c0.366,0.48,0.572,1.057,0.618,1.729c0.045,0.673,0.069,1.272,0.069,1.8c0.047,0.673,0.083,1.345,0.108,2.016
		c0.023,0.673,0.036,1.345,0.036,2.017c0.144-0.721,0.312-1.344,0.504-1.872c0.243-0.864,0.485-1.703,0.728-2.521
		c0.243-0.815,0.535-1.631,0.875-2.447c0.193-0.576,0.497-1.261,0.91-2.053c0.412-0.792,1.007-1.211,1.784-1.259
		c0.437-0.047,0.777,0.061,1.021,0.324c0.243,0.265,0.424,0.576,0.545,0.936c0.122,0.36,0.206,0.745,0.255,1.152
		c0.048,0.408,0.073,0.756,0.073,1.044c0.096,0.912,0.132,1.8,0.108,2.664c-0.025,0.864-0.036,1.753-0.036,2.664
		c-0.048,1.632-0.12,3.265-0.216,4.896c-0.097,1.633-0.169,3.266-0.216,4.896c-0.097,0.72-0.097,1.416,0,2.088
		c0,0.241,0.011,0.553,0.036,0.937c0.024,0.384,0.132,0.647,0.324,0.792c0.096,0.095,0.24,0.119,0.432,0.071
		c0.191-0.047,0.396-0.144,0.612-0.288c0.216-0.144,0.407-0.288,0.576-0.432c0.167-0.144,0.299-0.264,0.396-0.36
		C283.963,148.494,284.324,148.134,284.708,147.702z"/>
	<path id="XMLID_187_" class="st0" d="M299.54,149.43c0.24-0.096,0.443-0.168,0.612-0.216c0.167-0.048,0.371-0.145,0.612-0.288
		c0.24-0.191,0.456-0.384,0.648-0.576c0.191-0.191,0.384-0.407,0.576-0.648l1.008-1.296c0.096-0.096,0.191-0.216,0.288-0.359
		c0.096-0.145,0.216-0.24,0.36-0.288c0.096,0,0.144,0.084,0.144,0.252c0,0.169-0.025,0.359-0.072,0.576
		c-0.048,0.216-0.108,0.432-0.18,0.647s-0.108,0.349-0.108,0.396c-0.241,0.432-0.48,0.863-0.72,1.296
		c-0.241,0.432-0.552,0.816-0.936,1.151c-0.385,0.336-0.84,0.612-1.368,0.828c-0.529,0.216-1.033,0.204-1.512-0.036
		c-0.48-0.24-0.828-0.611-1.044-1.115s-0.373-0.996-0.468-1.477c-0.241-1.104-0.384-2.231-0.432-3.384
		c-0.048-1.152-0.072-2.279-0.072-3.384c-0.048-0.911-0.061-1.824-0.036-2.736c0.023-0.911,0.036-1.847,0.036-2.808
		c-0.288,1.008-0.576,2.005-0.864,2.987c-0.288,0.984-0.601,1.957-0.936,2.916c-0.288,0.817-0.588,1.656-0.9,2.521
		c-0.313,0.864-0.661,1.704-1.044,2.52c-0.336,0.673-0.709,1.394-1.116,2.16c-0.408,0.769-0.948,1.368-1.62,1.8
		c-0.432,0.24-0.889,0.348-1.368,0.324c-0.48-0.024-0.913-0.229-1.296-0.611c-0.528-0.529-0.84-1.212-0.936-2.053
		c-0.095-0.839-0.144-1.644-0.144-2.412c0-1.584,0.167-3.179,0.504-4.788c0.335-1.607,0.767-3.179,1.296-4.716
		c0.479-1.247,1.044-2.508,1.692-3.779s1.476-2.364,2.484-3.276c0.528-0.527,1.14-0.947,1.836-1.26
		c0.695-0.312,1.404-0.371,2.124-0.18c0.096,0.048,0.216,0.084,0.36,0.108c0.144,0.024,0.263,0.084,0.36,0.18
		c0.096-1.103,0.191-2.183,0.288-3.239c0.096-1.056,0.191-2.135,0.288-3.24c0.239-1.775,0.468-3.539,0.684-5.292
		c0.216-1.751,0.468-3.516,0.756-5.292c0.144-0.864,0.288-1.739,0.432-2.628c0.144-0.888,0.335-1.739,0.576-2.556
		c0.096-0.335,0.252-0.731,0.468-1.188c0.216-0.456,0.54-0.659,0.972-0.612c0.096,0.048,0.191,0.072,0.288,0.072
		c0.047,0,0.083,0.013,0.108,0.036c0.024,0.025,0.06,0.036,0.108,0.036h0.144c0,0.048,0.072,0.12,0.216,0.216
		c0.144,0.097,0.24,0.192,0.288,0.288c0.144,0.241,0.216,0.48,0.216,0.72c0.096,0.817,0.072,1.633-0.072,2.448
		c-0.144,0.817-0.265,1.632-0.36,2.448c-0.288,1.776-0.612,3.541-0.972,5.292c-0.36,1.753-0.732,3.517-1.116,5.292
		c-0.097,0.528-0.205,1.068-0.324,1.62c-0.12,0.553-0.252,1.092-0.396,1.62c-0.144,1.344-0.288,2.664-0.432,3.959
		c-0.144,1.296-0.265,2.617-0.36,3.96c-0.144,1.633-0.264,3.265-0.36,4.896c-0.097,1.632-0.168,3.265-0.216,4.896
		c0,1.394,0.072,2.809,0.216,4.248c0.047,0.337,0.096,0.673,0.144,1.008c0.047,0.337,0.119,0.673,0.216,1.009
		c0.096,0.385,0.191,0.647,0.288,0.792c0,0.048,0.024,0.097,0.072,0.144C299.468,149.407,299.492,149.43,299.54,149.43z
		 M295.076,137.118c0.767-2.543,1.415-5.015,1.944-7.416c-0.432-0.047-0.816,0.025-1.152,0.217
		c-0.288,0.192-0.552,0.385-0.792,0.575c-0.241,0.192-0.48,0.409-0.72,0.648c-0.529,0.624-0.984,1.285-1.368,1.979
		c-0.385,0.697-0.745,1.381-1.08,2.053c-0.72,1.536-1.357,3.108-1.908,4.716c-0.552,1.608-0.997,3.252-1.332,4.932
		c-0.097,0.433-0.168,0.864-0.216,1.296c-0.048,0.433-0.072,0.889-0.072,1.368c0,0.337,0.012,0.696,0.036,1.08
		c0.024,0.385,0.155,0.696,0.396,0.937c0.24,0.288,0.504,0.349,0.792,0.18c0.288-0.168,0.564-0.42,0.828-0.756
		c0.263-0.336,0.492-0.695,0.684-1.08c0.191-0.384,0.335-0.648,0.432-0.792c0.815-1.536,1.487-3.156,2.016-4.86
		C294.092,140.491,294.596,138.798,295.076,137.118z"/>
	<path id="XMLID_190_" class="st0" d="M310.411,106.23c4.08-0.72,8.111-1.5,12.096-2.34c3.983-0.839,8.016-1.62,12.096-2.34
		c0.864-0.144,1.728-0.275,2.592-0.396c0.864-0.119,1.751-0.204,2.664-0.252c0.191,0,0.479,0,0.864,0
		c0.384,0,0.768,0.048,1.152,0.144c0.383,0.097,0.708,0.241,0.972,0.432c0.263,0.192,0.372,0.457,0.324,0.792
		c-0.048,0.288-0.169,0.54-0.36,0.756c-0.192,0.216-0.409,0.421-0.648,0.612c-0.384,0.288-0.768,0.54-1.152,0.756
		c-0.385,0.216-0.792,0.444-1.224,0.684c-1.296,0.576-2.64,1.008-4.032,1.296c-1.393,0.288-2.785,0.528-4.176,0.72
		c-1.249,0.144-2.508,0.288-3.78,0.432c-1.272,0.144-2.532,0.264-3.78,0.36c-0.049,0.48-0.072,0.948-0.072,1.404
		c0,0.457,0,0.948,0,1.476c-0.144,7.056-0.216,14.112-0.216,21.168l-0.216,18.648v1.439c0,0.384-0.097,0.731-0.288,1.044
		c-0.192,0.312-0.48,0.228-0.864-0.252c-0.288-0.385-0.48-0.816-0.576-1.296c-0.097-0.48-0.192-0.961-0.288-1.44
		c-0.241-1.151-0.409-2.304-0.504-3.456c-0.097-1.151-0.192-2.304-0.288-3.455c-0.097-0.912-0.169-1.801-0.216-2.664
		c-0.048-0.864-0.072-1.729-0.072-2.593c0-2.735,0.036-5.459,0.108-8.172c0.072-2.711,0.204-5.436,0.396-8.171
		c0.096-1.44,0.191-2.88,0.288-4.32c0.096-1.44,0.24-2.88,0.432-4.32c0.047-0.528,0.095-1.067,0.144-1.62
		c0.047-0.551,0.12-1.091,0.216-1.62c0.047-0.24,0.083-0.504,0.108-0.792c0.023-0.288,0.083-0.576,0.18-0.864
		c-1.296,0.097-2.592,0.192-3.888,0.288c-1.296,0.097-2.568,0.192-3.816,0.288c-0.816,0.048-1.644,0.108-2.484,0.18
		c-0.839,0.072-1.667,0.061-2.484-0.036c-0.288-0.047-0.684-0.155-1.188-0.324c-0.504-0.167-0.708-0.443-0.612-0.828
		c0.097-0.479,0.457-0.803,1.08-0.972C309.523,106.458,310.027,106.327,310.411,106.23z"/>
	<path id="XMLID_192_" class="st0" d="M339.066,136.686c-0.048,0.049-0.025,0.061,0.072,0.036c0.096-0.023,0.216-0.06,0.36-0.108
		c0.144-0.047,0.275-0.107,0.396-0.18c0.119-0.072,0.204-0.108,0.252-0.108c0.383-0.096,0.563,0,0.54,0.288
		c-0.025,0.288-0.108,0.529-0.252,0.721c-0.192,0.24-0.385,0.479-0.576,0.72c-0.192,0.24-0.432,0.408-0.72,0.504
		c-0.385,0.144-0.708,0.156-0.972,0.036c-0.265-0.119-0.48-0.324-0.648-0.612c-0.169-0.288-0.301-0.612-0.396-0.972
		c-0.097-0.36-0.169-0.685-0.216-0.973c-0.144-0.815-0.228-1.644-0.252-2.483c-0.025-0.84-0.061-1.692-0.108-2.556
		c0-0.191,0.011-0.408,0.036-0.648c0.023-0.239-0.013-0.479-0.108-0.72c-0.097-0.191-0.241-0.108-0.432,0.252
		c-0.192,0.359-0.313,0.564-0.36,0.611c-0.672,1.394-1.224,2.845-1.656,4.356s-0.792,3.036-1.08,4.572
		c0.096,0.576,0.155,1.151,0.18,1.728c0.023,0.576,0.06,1.152,0.108,1.729c0.047,0.816,0.06,1.655,0.036,2.52
		c-0.025,0.864-0.084,1.729-0.18,2.592c-0.097,0.864-0.241,1.729-0.432,2.593c-0.097,0.287-0.228,0.575-0.396,0.863
		c-0.168,0.288-0.42,0.456-0.756,0.504c-0.432,0.048-0.696-0.3-0.792-1.044s-0.108-1.607-0.036-2.592
		c0.072-0.983,0.18-1.932,0.324-2.844c0.144-0.911,0.24-1.487,0.288-1.729c0-0.19,0.023-0.359,0.072-0.504
		c-0.048-0.527-0.097-1.08-0.144-1.655c-0.048-0.576-0.12-1.176-0.216-1.801c-0.097-0.623-0.18-1.247-0.252-1.872
		c-0.072-0.623-0.204-1.271-0.396-1.943c-0.144-0.433-0.024-0.744,0.36-0.937c0.24-0.144,0.504-0.155,0.792-0.036
		c0.288,0.121,0.479,0.301,0.576,0.54c0.191,0.385,0.312,0.696,0.36,0.937l0.792-3.384c0.24-0.816,0.479-1.608,0.72-2.376
		c0.239-0.768,0.551-1.513,0.936-2.232c0.335-0.671,0.888-1.127,1.656-1.368c0.384-0.096,0.731-0.036,1.044,0.18
		c0.312,0.216,0.563,0.468,0.756,0.756c0.432,0.673,0.684,1.416,0.756,2.231c0.072,0.817,0.108,1.609,0.108,2.376
		c0,0.385-0.025,0.792-0.072,1.225c-0.048,0.432-0.072,0.84-0.072,1.224c-0.048,0.241-0.084,0.517-0.108,0.828
		C338.934,136.243,338.97,136.494,339.066,136.686z"/>
	<path id="XMLID_194_" class="st0" d="M348.57,144.03c0.096-0.239,0.252-0.479,0.468-0.72c0.216-0.239,0.468-0.384,0.756-0.432
		c0.288-0.048,0.479,0.12,0.576,0.504c0,0.24-0.061,0.504-0.18,0.792c-0.121,0.288-0.252,0.552-0.396,0.792l-0.864,1.728
		c-0.385,0.673-0.792,1.309-1.224,1.908c-0.432,0.601-0.984,1.141-1.656,1.62c-0.625,0.432-1.272,0.563-1.944,0.396
		c-0.673-0.168-1.232-0.564-1.68-1.188c-0.448-0.672-0.771-1.404-0.969-2.196c-0.199-0.792-0.349-1.571-0.448-2.34
		c-0.097-0.864-0.18-1.716-0.252-2.556c-0.072-0.84-0.108-1.692-0.108-2.557c0-1.439,0.048-2.88,0.144-4.319
		c0.095-1.44,0.216-2.855,0.36-4.248c0.049-0.336,0.099-0.636,0.148-0.9c0.049-0.263,0.272-0.371,0.669-0.324
		c0.248,0.049,0.653,0.156,1.217,0.324c0.562,0.169,0.868,0.396,0.917,0.685c0.095,0.24,0.108,0.492,0.036,0.756
		c-0.072,0.264-0.108,0.516-0.108,0.756l-0.216,2.016c-0.097,0.912-0.18,1.8-0.252,2.664c-0.072,0.864-0.133,1.729-0.18,2.592
		c-0.097,0.913-0.18,1.812-0.252,2.7c-0.072,0.889-0.084,1.789-0.036,2.7c0,0.432,0.024,0.864,0.072,1.296
		c0.047,0.432,0.144,0.864,0.288,1.296c0.096,0.241,0.204,0.517,0.324,0.828c0.119,0.312,0.348,0.517,0.684,0.612
		c0.288,0.097,0.576,0.048,0.864-0.145c0.288-0.191,0.551-0.419,0.792-0.684c0.24-0.264,0.456-0.552,0.648-0.864
		c0.191-0.312,0.36-0.563,0.504-0.756C347.753,145.951,348.185,145.037,348.57,144.03z M344.25,119.262
		c0.768,0,1.308,0.313,1.62,0.936c0.312,0.625,0.396,1.272,0.252,1.944c-0.192,0.673-0.564,1.272-1.116,1.8
		c-0.553,0.529-1.188,0.792-1.908,0.792c-0.817,0-1.38-0.312-1.692-0.936c-0.313-0.623-0.373-1.271-0.18-1.944
		c0.144-0.672,0.504-1.271,1.08-1.8C342.882,119.527,343.53,119.262,344.25,119.262z"/>
	<path id="XMLID_197_" class="st0" d="M359.297,147.63c0.191-0.24,0.36-0.443,0.504-0.612c0.144-0.168,0.335-0.348,0.576-0.54
		c0.096-0.096,0.312-0.252,0.648-0.468c0.335-0.216,0.551-0.181,0.648,0.107c0.095,0.192,0.095,0.409,0,0.648
		c-0.097,0.24-0.192,0.432-0.288,0.576c-0.241,0.528-0.565,1.021-0.972,1.476c-0.408,0.457-0.828,0.877-1.26,1.26
		c-0.625,0.528-1.272,0.947-1.944,1.261c-0.672,0.312-1.416,0.468-2.232,0.468c-0.864-0.049-1.645-0.288-2.34-0.72
		c-0.696-0.433-1.309-0.984-1.836-1.656c-0.961-1.344-1.597-2.868-1.908-4.572c-0.312-1.703-0.419-3.371-0.324-5.004
		c0.097-1.535,0.407-3.107,0.936-4.716c0.527-1.607,1.392-2.963,2.592-4.068c0.528-0.479,1.163-0.863,1.908-1.151
		c0.744-0.288,1.451-0.191,2.124,0.288c0.623,0.479,0.972,1.151,1.044,2.016c0.072,0.864,0.06,1.632-0.036,2.304
		c-0.097,0.72-0.252,1.465-0.468,2.232c-0.216,0.769-0.588,1.416-1.116,1.943c-0.288,0.337-0.661,0.517-1.116,0.54
		c-0.457,0.025-0.804-0.18-1.044-0.611c-0.336-0.528-0.396-1.212-0.18-2.053c0.216-0.839,0.443-1.522,0.684-2.052
		c0.624-1.343,1.224-2.304,1.8-2.88c-0.241-0.384-0.576-0.551-1.008-0.504c-0.768,0.097-1.356,0.504-1.764,1.224
		c-0.409,0.721-0.709,1.417-0.9,2.088c-0.241,0.817-0.409,1.656-0.504,2.521c-0.097,0.864-0.192,1.704-0.288,2.52
		c-0.097,0.864-0.121,1.741-0.072,2.628c0.047,0.89,0.119,1.765,0.216,2.629c0.096,0.72,0.264,1.416,0.504,2.088
		c0.239,0.673,0.551,1.296,0.936,1.872c1.008,1.296,2.232,1.68,3.672,1.151c0.576-0.239,1.091-0.551,1.548-0.936
		C358.492,148.542,358.912,148.111,359.297,147.63z M354.905,137.334c0.383-0.624,0.671-1.38,0.864-2.269
		c0.191-0.888,0.24-1.716,0.144-2.483c-0.097,0.192-0.241,0.479-0.432,0.863c-0.192,0.385-0.336,0.721-0.432,1.008
		c-0.432,1.009-0.709,1.753-0.828,2.232c-0.121,0.48-0.144,0.792-0.072,0.936c0.072,0.145,0.191,0.169,0.36,0.072
		C354.676,137.598,354.808,137.478,354.905,137.334z"/>
	<path id="XMLID_200_" class="st0" d="M373.696,150.726c0.384-0.192,0.744-0.468,1.08-0.828c0.335-0.36,0.624-0.731,0.864-1.116
		c0.383-0.623,0.684-1.283,0.9-1.979c0.216-0.695,0.443-1.38,0.684-2.052c0-0.096,0.047-0.252,0.144-0.469
		c0.095-0.216,0.191-0.252,0.288-0.107c0.144,0.192,0.204,0.432,0.18,0.72c-0.025,0.288-0.061,0.553-0.108,0.792
		c-0.144,1.345-0.529,2.761-1.152,4.248c-0.288,0.623-0.625,1.224-1.008,1.8c-0.385,0.576-0.912,0.983-1.584,1.225
		c-0.72,0.335-1.44,0.396-2.16,0.18c-0.72-0.216-1.345-0.612-1.872-1.188c-0.529-0.575-0.913-1.236-1.152-1.979
		c-0.241-0.744-0.432-1.5-0.576-2.269c-0.144-0.815-0.313-1.619-0.504-2.411c-0.192-0.792-0.48-1.572-0.864-2.341
		c-0.241-0.335-0.48-0.647-0.72-0.936c-0.241,0.144-0.624,0.288-1.152,0.432c-0.529,0.145-0.984,0.169-1.368,0.072
		c-0.336,1.249-0.625,2.52-0.864,3.816c-0.097,0.624-0.18,1.236-0.252,1.836c-0.072,0.601-0.133,1.236-0.18,1.907l-0.072,1.44
		h-0.216c0,0.047,0.024,0.096,0.072,0.144c0,0.288-0.169,0.433-0.504,0.433c-0.336,0-0.576-0.072-0.72-0.216
		c-0.144-0.145-0.168-0.265-0.072-0.36v-0.072h-0.072c0-0.769,0-1.403,0-1.908c0-0.504,0-0.959,0-1.367c0-0.407,0-0.659,0-0.757
		c0-0.815-0.012-1.631-0.036-2.447c-0.025-0.815-0.036-1.632-0.036-2.448l-0.216-9.648c-0.095-3.646-0.144-7.295-0.144-10.943
		c0-3.647,0.191-7.295,0.576-10.944c0.096-0.864,0.228-1.728,0.396-2.592c0.167-0.864,0.372-1.703,0.612-2.52
		c0.239-0.671,0.54-1.379,0.9-2.124c0.36-0.744,0.875-1.235,1.548-1.476c0.815-0.288,1.44-0.216,1.872,0.216s0.731,1.008,0.9,1.728
		c0.167,0.72,0.263,1.488,0.288,2.304c0.023,0.817,0.036,1.465,0.036,1.944c0,3.265-0.18,6.505-0.54,9.72
		c-0.36,3.216-0.853,6.408-1.476,9.576c-0.241,1.248-0.504,2.483-0.792,3.708c-0.288,1.224-0.673,2.412-1.152,3.563l-0.432,0.864
		c-0.097,0.144-0.205,0.324-0.324,0.54c-0.12,0.216-0.276,0.372-0.468,0.468c0,0.912-0.012,1.812-0.036,2.7
		c-0.025,0.889-0.036,1.789-0.036,2.7v0.647c0.24-1.104,0.551-2.171,0.936-3.204c0.384-1.031,0.792-2.075,1.224-3.132
		c0.623-1.392,1.368-2.808,2.232-4.248c0.864-1.439,1.944-2.592,3.24-3.456c0.432-0.288,0.9-0.504,1.404-0.647
		c0.504-0.144,0.996-0.119,1.476,0.072c0.623,0.287,0.996,0.768,1.116,1.439c0.119,0.673,0.131,1.296,0.036,1.872
		c-0.192,1.488-0.66,2.893-1.404,4.212c-0.745,1.321-1.645,2.484-2.7,3.492c-0.385,0.385-0.768,0.745-1.152,1.08
		c-0.385,0.336-0.817,0.647-1.296,0.936c0.383,0.385,0.671,0.805,0.864,1.261c0.191,0.456,0.407,0.925,0.648,1.403
		c0.335,0.769,0.648,1.524,0.936,2.269s0.624,1.476,1.008,2.195c0.144,0.241,0.312,0.529,0.504,0.864
		c0.191,0.337,0.407,0.648,0.648,0.937c0.24,0.288,0.515,0.491,0.828,0.611C373.036,151.025,373.36,150.965,373.696,150.726z
		 M362.32,131.07c-0.048,0.721-0.072,1.44-0.072,2.16s0,1.44,0,2.16c0.096-0.527,0.227-1.031,0.396-1.512
		c0.167-0.479,0.275-0.768,0.324-0.864c0.384-1.296,0.72-2.592,1.008-3.888c0.288-1.296,0.551-2.616,0.792-3.96
		c0.288-1.68,0.54-3.372,0.756-5.076c0.216-1.703,0.371-3.396,0.468-5.076c0.144-1.775,0.216-3.575,0.216-5.4
		c0-0.864-0.012-1.739-0.036-2.628c-0.024-0.888-0.156-1.739-0.396-2.556c-0.097-0.239-0.216-0.479-0.36-0.72
		c-0.144-0.24-0.36-0.24-0.648,0c-0.241,0.241-0.432,0.504-0.576,0.792c-0.241,0.768-0.408,1.537-0.504,2.304
		c-0.097,0.769-0.192,1.537-0.288,2.304c-0.385,3.648-0.637,7.308-0.756,10.98C362.524,123.762,362.416,127.423,362.32,131.07z
		 M364.192,140.43c0.288-0.096,0.576-0.132,0.864-0.108c0.288,0.025,0.551,0.061,0.792,0.108c0.576-0.384,1.091-0.852,1.548-1.404
		c0.456-0.551,0.875-1.116,1.26-1.691c0.432-0.672,0.828-1.344,1.188-2.017c0.36-0.672,0.708-1.343,1.044-2.016
		c0.144-0.384,0.288-0.731,0.432-1.044c0.144-0.312,0.263-0.659,0.36-1.044c0.047-0.096,0.072-0.3,0.072-0.612
		c0-0.312,0.047-0.491,0.144-0.54l-0.072-0.072c-0.432-0.144-0.876-0.047-1.332,0.288c-0.457,0.337-0.828,0.625-1.116,0.864
		c-0.385,0.385-0.745,0.792-1.08,1.224c-0.336,0.433-0.648,0.864-0.936,1.296c-0.624,0.913-1.152,1.849-1.584,2.809
		c-0.432,0.961-0.84,1.969-1.224,3.023L364.192,140.43z"/>
	<path id="XMLID_204_" class="st0" d="M378.951,150.51c-0.385-0.576-0.529-1.225-0.432-1.944c0-0.144,0.096-0.407,0.288-0.792
		c0.191-0.384,0.407-0.479,0.648-0.288c0.191,0.145,0.312,0.396,0.36,0.756c0.047,0.36,0.096,0.637,0.144,0.828
		c0.239,0.576,0.504,1.008,0.792,1.296c0.432,0.433,0.996,0.672,1.692,0.721c0.695,0.047,1.307-0.121,1.836-0.504
		c0.623-0.48,0.996-1.104,1.116-1.872c0.119-0.768,0.131-1.487,0.036-2.16c-0.097-0.815-0.336-1.584-0.72-2.305
		c-0.385-0.72-0.84-1.392-1.368-2.016l-1.584-1.872c-1.105,2.353-2.401,4.68-3.888,6.984c-0.097,0.097-0.264,0.324-0.504,0.684
		c-0.241,0.36-0.457,0.372-0.648,0.036c-0.24-0.432-0.227-0.852,0.036-1.26c0.263-0.407,0.515-0.804,0.756-1.188
		c0.672-0.959,1.296-1.979,1.872-3.06s1.104-2.172,1.584-3.276c-0.097-0.191-0.205-0.384-0.324-0.576
		c-0.12-0.19-0.228-0.407-0.324-0.647c-0.385-0.815-0.661-1.62-0.828-2.412c-0.168-0.792-0.156-1.596,0.036-2.412
		c0.096-0.576,0.275-1.14,0.54-1.692c0.263-0.551,0.636-0.995,1.116-1.331c0.624-0.288,1.224-0.276,1.8,0.035
		c0.576,0.313,0.911,0.805,1.008,1.477c0.096,1.008,0.024,2.028-0.216,3.06c-0.241,1.033-0.552,2.052-0.936,3.061
		c0.288,0.528,0.587,1.056,0.9,1.584c0.312,0.528,0.659,1.056,1.044,1.584c0.432,0.673,0.839,1.403,1.224,2.195
		c0.384,0.792,0.659,1.597,0.828,2.412c0.167,0.817,0.204,1.646,0.108,2.484c-0.097,0.84-0.36,1.645-0.792,2.412
		c-0.385,0.672-0.9,1.163-1.548,1.476c-0.648,0.312-1.321,0.468-2.016,0.468c-0.696,0-1.368-0.168-2.016-0.504
		S379.383,151.133,378.951,150.51z M381.471,133.23c0.047,0.529,0.132,1.033,0.252,1.512c0.12,0.48,0.276,0.961,0.468,1.44
		c0.335-1.056,0.551-2.136,0.648-3.24c0-0.239-0.036-0.587-0.108-1.044c-0.072-0.455-0.301-0.636-0.684-0.54
		c-0.336,0.097-0.529,0.372-0.576,0.828C381.423,132.643,381.423,132.991,381.471,133.23z"/>
</g>
</svg>
