<?xml version="1.0" encoding="UTF-8"?>
<svg width="377px" height="76px" viewBox="0 0 377 76" version="1.1" xmlns="http://www.w3.org/2000/svg" xmlns:xlink="http://www.w3.org/1999/xlink">
    <!-- Generator: Sketch 46.2 (44496) - http://www.bohemiancoding.com/sketch -->
    <title>Group</title>
    <desc>Created with Sketch.</desc>
    <defs></defs>
    <g id="Page-1" stroke="none" stroke-width="1" fill="none" fill-rule="evenodd" stroke-linecap="round" stroke-linejoin="round">
        <g id="Desktop" transform="translate(-44.000000, -68.000000)" stroke="#414972" stroke-width="3">
            <g id="Group" transform="translate(46.000000, 69.000000)">
                <path d="M6.74902344,0.999023438 C3.08300781,8.66634115 0.916666667,17.75 0.25,28.25 C-0.75,44 2.99804687,66.7480469 5.49902344,67.4990234 C8,68.25 19,6 14.2926037,4.75 C9.58520741,3.5 7.75,57 16.5,70.75 C25.25,84.5 18.5,20.25 28.5009766,3.25" id="Path-2"></path>
                <path d="M31.5,63 C38.1666667,49.6666667 39.25,42.3333333 34.75,41 C28,39 25.305417,81.444583 42.5,64.25 C51,55.75 52,10.75 48,10.75 C44,10.75 32.5019531,88.25 56.2509766,61.75" id="Path-3"></path>
                <path d="M64.765205,44 C61.0884017,51.6462617 61.25,53.9795951 65.25,51 C71.25,46.5306074 63.75,36.5 59.25,45.25 C54.75,54 57.5019531,81.5 72.2509766,63.5" id="Path-4"></path>
                <path d="M75.75,41 C71.9166667,58.75 72.3333333,68.0833333 77,69 C84,70.375 86.5,39.875 78.5,39.875 C70.5,39.875 76.875,65.625 90.25,51.5" id="Path-5"></path>
                <path d="M90,38.75 C91.1245117,56.9160156 91.499349,66.2075195 91.1245117,66.6245117 C90.5622559,67.25 91.6240234,43.4990234 98.8745117,40.1245117 C106.125,36.75 102.435325,66.6245117 99.375,66.6245117 C96.3146754,66.6245117 101.999023,40.4990234 110.124512,37.3745117 C118.25,34.25 105.000977,65.5 112.500488,69.125 C120,72.75 136.625,43.8754883 127.375,40.625 C118.125,37.3745117 115.875,83.25 134,64" id="Path-6"></path>
                <path d="M153.124512,24.7495117 C147.958171,53.0831706 147.708171,68.0831706 152.374512,69.7495117 C157.497341,71.5788637 157.625,64.5 160.375,62.125" id="Path-7"></path>
                <path d="M146.5,37.25 C151.166667,35.75 157.041667,34.3333333 164.125,33" id="Path-8"></path>
                <path d="M163.703268,40.5096324 C160.190778,45.0209267 157.203268,67.1346324 164.453268,67.7596324 C171.703268,68.3846324 177.295201,38.3846324 167.045201,39.0096324 C156.795201,39.6346324 165.704245,64.5096324 178.078757,50.2596324" id="Path-9"></path>
                <path d="M204.125488,6.5 C200.208171,46.1666667 199.249674,67.7916667 201.25,71.375" id="Path-10"></path>
                <path d="M192.375,10.125 C212.541667,6.625 223.75,4.5 226,3.75" id="Path-11"></path>
                <path d="M192,49.875 C204.25,48.0416667 211.875,46.4166667 214.875,45" id="Path-12"></path>
                <path d="M225,40.375 C219.5,42.625 217.375,67.875 224.125,68.625 C230.875,69.375 236.500977,39.375 227.250488,39.5 C218,39.625 221.499023,64.8740234 237.249512,51.8745117" id="Path-13"></path>
                <path d="M241,41.875 C236.5,47.375 235.75,68 241.75,69 C247.75,70 254.25,41.25 244.875,39.875 C235.5,38.5 241.499023,65.1240234 254.999512,51.8745117" id="Path-14"></path>
                <path d="M270,40.125 C265,33.125 250.875,58.75 256.5,68.125 C262.125,77.5 279.625,7 275.25,6.625 C270.875,6.25 266.999023,67.6240234 270.874512,68.7495117 C274.75,69.875 276.041496,62.4809985 277.125,62.875" id="Path-15"></path>
                <path d="M304,8.75 C300,37.9160156 298.916667,57.6660156 300.75,68" id="Path-16"></path>
                <path d="M294,9.99902344 C311.001953,7.49967448 322.085938,5.5 327.251953,4" id="Path-17"></path>
                <path d="M290.999023,50.2490234 L316.500977,43.75" id="Path-18"></path>
                <path d="M321,55.25 C329.5,28.75 331.166667,13.3333333 326,9 C318.25,2.5 312.75,94.25 333.75,61.5" id="Path-19"></path>
                <path d="M338.9375,41.8125 C335.334457,46.2802533 331.75,66.5 338.9375,68.875 C346.125,71.25 349.875,44.75 342.6875,40.3125 C335.5,35.875 333.998047,66.875 352,52.125" id="Path-20"></path>
                <path d="M355.9375,41 C351.069714,48.6128981 349.687012,65.3745117 353.999756,67.6872559 C358.3125,70 361.562012,43.3745117 362.562256,43.3747559 C363.5625,43.375 358.8125,70.0627441 365.4375,68.875 C372.0625,67.6872559 365.499512,42.1870117 373.062256,37.8747559" id="Path-21"></path>
            </g>
        </g>
    </g>
</svg>