<?xml version="1.0" encoding="iso-8859-1"?>
<!-- Generator: Adobe Illustrator 19.0.0, SVG Export Plug-In . SVG Version: 6.00 Build 0)  -->
<svg version="1.1" id="Layer_1" xmlns="http://www.w3.org/2000/svg" xmlns:xlink="http://www.w3.org/1999/xlink" x="0px" y="0px"
	 width="595.28px" height="841.89px" viewBox="0 0 595.28 841.89" style="enable-background:new 0 0 595.28 841.89;"
	 xml:space="preserve">
<g id="XMLID_1_">
	<path id="XMLID_3_" style="fill:#414973;" d="M74.936,46.434c0.288-2.592,1.055-5.015,2.304-7.272
		c0.239-0.432,0.479-0.852,0.72-1.26c0.24-0.408,0.528-0.804,0.864-1.188c0.191-0.239,0.36-0.36,0.504-0.36s0.216,0.192,0.216,0.576
		c-0.048,0.72-0.133,1.452-0.252,2.196c-0.121,0.745-0.229,1.476-0.324,2.196l-1.008,6.336c-0.432,2.784-0.769,5.569-1.008,8.352
		c-0.241,2.784-0.48,5.569-0.72,8.352L75.44,75.018c-0.192,1.728-0.373,3.481-0.54,5.256c-0.168,1.776-0.516,3.504-1.044,5.184
		c-0.241,0.624-0.565,1.212-0.972,1.764c-0.408,0.551-0.997,0.756-1.764,0.612c-0.72-0.144-1.272-0.552-1.656-1.224
		c-0.385-0.673-0.696-1.321-0.936-1.944c-0.624-1.631-1.08-3.312-1.368-5.04s-0.553-3.456-0.792-5.184
		c-0.097-0.383-0.144-0.695-0.144-0.936l-0.216,1.656c-0.144,0.913-0.288,1.812-0.432,2.7c-0.144,0.889-0.313,1.764-0.504,2.628
		c-0.144,0.529-0.288,1.104-0.432,1.728c-0.144,0.624-0.385,1.152-0.72,1.584c-0.48,0.72-1.044,0.936-1.692,0.648
		s-1.141-0.72-1.476-1.296c-0.241-0.432-0.444-0.888-0.612-1.368c-0.169-0.479-0.324-0.983-0.468-1.512
		c-0.48-1.728-0.853-3.467-1.116-5.22c-0.265-1.752-0.517-3.516-0.756-5.292c-0.241-1.728-0.42-3.456-0.54-5.184
		c-0.12-1.728-0.18-3.479-0.18-5.256c0-3.215,0.191-6.456,0.576-9.72c0.384-3.264,1.127-6.408,2.232-9.432
		c0.288-0.815,0.623-1.631,1.008-2.448c0.384-0.816,0.864-1.559,1.44-2.232c0.047-0.096,0.191-0.252,0.432-0.468
		c0.24-0.216,0.407-0.252,0.504-0.108c0.144,0.097,0.18,0.324,0.108,0.684c-0.072,0.36-0.133,0.637-0.18,0.828
		c-0.097,0.672-0.229,1.368-0.396,2.088c-0.169,0.72-0.349,1.417-0.54,2.088c-0.769,2.928-1.249,5.893-1.44,8.892
		c-0.192,3-0.336,6.012-0.432,9.036c-0.097,3.553-0.097,7.081,0,10.584c0.096,1.825,0.204,3.636,0.324,5.436
		c0.12,1.8,0.396,3.588,0.828,5.364c0.096,0.336,0.18,0.673,0.252,1.008c0.072,0.336,0.18,0.648,0.324,0.936
		c0.191,0.385,0.36,0.493,0.504,0.324c0.144-0.167,0.263-0.396,0.36-0.684l0.648-2.664c0.335-1.775,0.636-3.564,0.9-5.364
		c0.263-1.8,0.515-3.611,0.756-5.436l0.216-2.016c-0.144-2.255-0.216-4.488-0.216-6.696c0-2.208,0.047-4.439,0.144-6.696
		c0.096-1.775,0.227-3.539,0.396-5.292c0.167-1.751,0.492-3.492,0.972-5.22c0.191-0.672,0.407-1.343,0.648-2.016
		c0.239-0.672,0.551-1.296,0.936-1.872c0.335-0.479,0.78-0.792,1.332-0.936c0.551-0.144,0.972,0.121,1.26,0.792
		c0.288,0.72,0.36,1.524,0.216,2.412c-0.144,0.889-0.264,1.717-0.36,2.484c-0.144,0.864-0.313,1.728-0.504,2.592
		c-0.192,0.864-0.36,1.728-0.504,2.592l-0.864,5.472c-0.288,1.92-0.576,3.816-0.864,5.688c-0.288,1.872-0.553,3.769-0.792,5.688
		c0.095,0.96,0.191,1.92,0.288,2.88c0.096,0.961,0.191,1.92,0.288,2.88c0.191,1.776,0.42,3.541,0.684,5.292
		c0.263,1.753,0.612,3.492,1.044,5.22c0.096,0.432,0.216,0.853,0.36,1.26c0.144,0.409,0.288,0.828,0.432,1.26
		c0.096,0.241,0.204,0.504,0.324,0.792c0.119,0.288,0.275,0.551,0.468,0.792c0.144,0.144,0.276,0.047,0.396-0.288
		c0.119-0.336,0.18-0.552,0.18-0.648c0.096-0.384,0.18-0.792,0.252-1.224s0.155-0.839,0.252-1.224
		c0.24-1.823,0.407-3.636,0.504-5.436c0.096-1.8,0.191-3.611,0.288-5.436c0.096-1.631,0.18-3.263,0.252-4.896
		c0.072-1.631,0.155-3.263,0.252-4.896c0.144-2.495,0.312-4.979,0.504-7.452C74.263,51.414,74.551,48.931,74.936,46.434z
		 M67.448,48.81c-0.097,0.961-0.169,1.92-0.216,2.88c-0.048,0.961-0.097,1.92-0.144,2.88c0.24-1.392,0.468-2.808,0.684-4.248
		s0.468-2.855,0.756-4.248c0.144-0.72,0.299-1.464,0.468-2.232c0.167-0.768,0.252-1.536,0.252-2.304
		c0.047-0.479-0.036-0.54-0.252-0.18c-0.216,0.36-0.349,0.637-0.396,0.828l-0.36,1.296c-0.192,0.864-0.349,1.741-0.468,2.628
		C67.652,46.999,67.544,47.899,67.448,48.81z"/>
	<path id="XMLID_6_" style="fill:#414973;" d="M87.752,82.146c0.047-0.047,0.167-0.18,0.36-0.396
		c0.191-0.216,0.407-0.443,0.648-0.684c0.24-0.239,0.456-0.432,0.648-0.576c0.191-0.144,0.312-0.168,0.36-0.072
		c0.096,0.385-0.013,0.84-0.324,1.368c-0.312,0.529-0.564,0.936-0.756,1.224c-0.72,0.864-1.573,1.512-2.556,1.944
		c-0.984,0.432-2.028,0.384-3.132-0.144c-1.105-0.529-1.957-1.355-2.556-2.484c-0.601-1.127-1.044-2.243-1.332-3.348
		c-0.623-2.543-0.744-5.087-0.36-7.632c0.241-1.775,0.696-3.384,1.368-4.824c0.335-0.623,0.767-1.224,1.296-1.8
		c0.528-0.576,1.152-0.959,1.872-1.152c0.815-0.24,1.487-0.096,2.016,0.432c0.527,0.529,0.839,1.152,0.936,1.872
		c0.144,0.817,0.18,1.656,0.108,2.52c-0.072,0.864-0.18,1.705-0.324,2.52c-0.241,1.584-0.637,3.145-1.188,4.68
		c-0.552,1.537-1.213,3.024-1.98,4.464c-0.097,0.192-0.216,0.421-0.36,0.684c-0.144,0.264-0.313,0.444-0.504,0.54
		c-0.048,0.048-0.097,0.072-0.144,0.072c0.239,0.576,0.587,1.105,1.044,1.584c0.456,0.48,0.996,0.769,1.62,0.864
		c0.671,0.097,1.283-0.036,1.836-0.396C86.899,83.046,87.367,82.626,87.752,82.146z M81.128,71.058
		c-0.241,1.393-0.385,2.844-0.432,4.356c-0.048,1.512,0.12,2.964,0.504,4.356l0.36-0.648l0.936-2.088
		c0.671-1.536,1.26-3.12,1.764-4.752c0.504-1.631,0.708-3.288,0.612-4.968c0-0.288-0.036-0.659-0.108-1.116
		c-0.072-0.456-0.252-0.756-0.54-0.9c-0.241-0.096-0.48,0.012-0.72,0.324c-0.241,0.313-0.408,0.517-0.504,0.612
		c-0.529,0.72-0.925,1.501-1.188,2.34C81.548,69.414,81.319,70.243,81.128,71.058z"/>
	<path id="XMLID_9_" style="fill:#414973;" d="M96.535,82.074c0.432-0.528,0.839-1.068,1.224-1.62
		c0.384-0.551,0.792-1.091,1.224-1.62c0.047-0.047,0.155-0.167,0.324-0.36c0.167-0.191,0.275-0.191,0.324,0
		c0.096,0.241,0.072,0.529-0.072,0.864c-0.144,0.336-0.265,0.625-0.36,0.864c-0.241,0.529-0.552,1.08-0.936,1.656
		c-0.385,0.576-0.828,1.105-1.332,1.584c-0.504,0.48-1.057,0.852-1.656,1.116c-0.601,0.263-1.236,0.348-1.908,0.252
		c-0.72-0.144-1.345-0.457-1.872-0.936c-0.529-0.479-0.961-1.055-1.296-1.728c-0.336-0.671-0.601-1.368-0.792-2.088
		c-0.192-0.72-0.36-1.392-0.504-2.016c-0.383-1.584-0.635-3.179-0.756-4.788c-0.119-1.607-0.204-3.228-0.252-4.86
		c-0.047-1.824-0.047-3.636,0-5.436c0.048-1.8,0.144-3.611,0.288-5.436c0.144-1.824,0.349-3.636,0.612-5.436
		c0.263-1.8,0.659-3.587,1.188-5.364c0.24-0.816,0.504-1.631,0.792-2.448c0.288-0.815,0.695-1.559,1.224-2.232
		c0.384-0.576,0.9-0.947,1.548-1.116c0.648-0.168,1.164,0.133,1.548,0.9c0.384,0.673,0.624,1.44,0.72,2.304
		c0.096,0.864,0.191,1.705,0.288,2.52c0.096,0.864,0.155,1.728,0.18,2.592c0.023,0.864-0.013,1.752-0.108,2.664
		c-0.144,3.216-0.529,6.42-1.152,9.612c-0.625,3.193-1.465,6.3-2.52,9.324c-0.529,1.681-1.128,3.216-1.8,4.608l-0.216,0.432
		c0.047,1.152,0.24,2.4,0.576,3.744c0.144,0.625,0.36,1.296,0.648,2.016s0.744,1.249,1.368,1.584
		c0.623,0.385,1.248,0.408,1.872,0.072C95.574,82.963,96.103,82.555,96.535,82.074z M90.342,73.434l0.216-0.504
		c0.959-2.783,1.764-5.604,2.412-8.46c0.648-2.855,1.188-5.724,1.62-8.604c0.24-1.775,0.42-3.552,0.54-5.328
		c0.119-1.775,0.036-3.552-0.252-5.328c-0.097-0.432-0.18-0.875-0.252-1.332c-0.072-0.456-0.229-0.875-0.468-1.26
		c-0.049-0.096-0.108-0.216-0.18-0.36c-0.072-0.144-0.18-0.168-0.324-0.072c-0.144,0.097-0.252,0.229-0.324,0.396
		c-0.072,0.169-0.156,0.324-0.252,0.468c-0.385,0.768-0.661,1.596-0.828,2.484c-0.169,0.889-0.3,1.74-0.396,2.556
		c-0.529,3.6-0.9,7.212-1.116,10.836c-0.216,3.625-0.349,7.236-0.396,10.836V73.434z"/>
	<path id="XMLID_12_" style="fill:#414973;" d="M109.638,81.93c0.191-0.24,0.36-0.443,0.504-0.612
		c0.144-0.167,0.335-0.347,0.576-0.54c0.096-0.096,0.312-0.252,0.648-0.468c0.335-0.216,0.551-0.18,0.648,0.108
		c0.095,0.192,0.095,0.409,0,0.648c-0.097,0.241-0.192,0.432-0.288,0.576c-0.241,0.529-0.565,1.021-0.972,1.476
		c-0.408,0.457-0.828,0.876-1.26,1.26c-0.625,0.528-1.272,0.947-1.944,1.26c-0.672,0.312-1.416,0.468-2.232,0.468
		c-0.864-0.048-1.645-0.288-2.34-0.72c-0.696-0.432-1.309-0.984-1.836-1.656c-0.961-1.343-1.597-2.868-1.908-4.572
		c-0.312-1.703-0.419-3.372-0.324-5.004c0.097-1.536,0.407-3.107,0.936-4.716c0.527-1.607,1.392-2.963,2.592-4.068
		c0.528-0.479,1.163-0.864,1.908-1.152c0.744-0.288,1.451-0.191,2.124,0.288c0.623,0.48,0.972,1.152,1.044,2.016
		c0.072,0.864,0.06,1.632-0.036,2.304c-0.097,0.72-0.252,1.465-0.468,2.232c-0.216,0.769-0.588,1.417-1.116,1.944
		c-0.288,0.336-0.661,0.517-1.116,0.54c-0.457,0.025-0.804-0.18-1.044-0.612c-0.336-0.528-0.396-1.212-0.18-2.052
		c0.216-0.839,0.443-1.523,0.684-2.052c0.624-1.343,1.224-2.304,1.8-2.88c-0.241-0.384-0.576-0.551-1.008-0.504
		c-0.768,0.097-1.356,0.504-1.764,1.224c-0.409,0.72-0.709,1.417-0.9,2.088c-0.241,0.817-0.409,1.656-0.504,2.52
		c-0.097,0.864-0.192,1.705-0.288,2.52c-0.097,0.864-0.121,1.741-0.072,2.628c0.047,0.889,0.119,1.764,0.216,2.628
		c0.096,0.72,0.264,1.416,0.504,2.088c0.239,0.673,0.551,1.296,0.936,1.872c1.008,1.296,2.232,1.68,3.672,1.152
		c0.576-0.24,1.091-0.551,1.548-0.936C108.834,82.842,109.254,82.411,109.638,81.93z M105.246,71.634
		c0.383-0.624,0.671-1.379,0.864-2.268c0.191-0.888,0.24-1.716,0.144-2.484c-0.097,0.192-0.241,0.48-0.432,0.864
		c-0.192,0.385-0.336,0.72-0.432,1.008c-0.432,1.008-0.709,1.753-0.828,2.232c-0.121,0.48-0.144,0.792-0.072,0.936
		c0.072,0.144,0.191,0.169,0.36,0.072C105.018,71.898,105.15,71.778,105.246,71.634z"/>
	<path id="XMLID_15_" style="fill:#414973;" d="M113.453,64.578c0.288-0.335,0.659-0.659,1.116-0.972
		c0.456-0.312,0.947-0.492,1.476-0.54c0.864-0.335,1.728-0.072,2.592,0.792c0.576,0.576,0.996,1.249,1.26,2.016
		c0.263,0.769,0.468,1.537,0.612,2.304c0.288,1.728,0.36,3.504,0.216,5.328c0,0.097-0.012,0.192-0.036,0.288
		c-0.025,0.097-0.036,0.192-0.036,0.288c0.528-0.24,1.008-0.515,1.44-0.828c0.432-0.312,0.839-0.635,1.224-0.972
		c0.047-0.047,0.155-0.155,0.324-0.324c0.168-0.167,0.335-0.299,0.504-0.396c0.167-0.096,0.335-0.155,0.504-0.18
		c0.167-0.024,0.252,0.084,0.252,0.324c0,0.576-0.265,1.069-0.792,1.476c-0.529,0.408-0.984,0.756-1.368,1.044
		c-0.72,0.576-1.44,0.961-2.16,1.152c-0.144,1.393-0.396,2.785-0.756,4.176c-0.36,1.393-0.925,2.664-1.692,3.816
		c-0.241,0.336-0.48,0.648-0.72,0.936c-0.241,0.288-0.552,0.527-0.936,0.72c-0.336,0.24-0.66,0.36-0.972,0.36
		c-0.313,0-0.661,0-1.044,0c-0.72-0.192-1.309-0.553-1.764-1.08c-0.457-0.528-0.828-1.127-1.116-1.8
		c-0.288-0.816-0.493-1.656-0.612-2.52c-0.12-0.864-0.205-1.728-0.252-2.592c-0.047-0.815-0.06-1.644-0.036-2.484
		c0.025-0.839,0.083-1.692,0.18-2.556c0.144-1.248,0.396-2.507,0.756-3.78c0.36-1.271,0.875-2.459,1.548-3.564L113.453,64.578z
		 M118.493,75.666c-1.393-0.096-2.448-0.612-3.168-1.548c-0.72-0.936-1.2-2.027-1.44-3.276c-0.097,0.48-0.169,0.948-0.216,1.404
		c-0.048,0.457-0.097,0.925-0.144,1.404c-0.097,0.864-0.18,1.728-0.252,2.592c-0.072,0.864-0.108,1.752-0.108,2.664
		c0,0.673,0.047,1.488,0.144,2.448c0.096,0.961,0.432,1.705,1.008,2.232c0.288,0.288,0.563,0.409,0.828,0.36
		c0.263-0.047,0.527-0.155,0.792-0.324c0.263-0.167,0.491-0.384,0.684-0.648c0.191-0.263,0.36-0.515,0.504-0.756
		c0.432-0.72,0.779-1.464,1.044-2.232c0.263-0.768,0.492-1.56,0.684-2.376c0.095-0.335,0.167-0.66,0.216-0.972
		c0.047-0.312,0.096-0.636,0.144-0.972C118.973,75.763,118.733,75.763,118.493,75.666z M114.893,68.178
		c-0.048,0.673,0,1.404,0.144,2.196s0.384,1.512,0.72,2.16c0.335,0.648,0.803,1.164,1.404,1.548c0.6,0.385,1.332,0.504,2.196,0.36
		c0.144-1.199,0.204-2.412,0.18-3.636c-0.024-1.224-0.205-2.387-0.54-3.492c-0.144-0.911-0.457-1.656-0.936-2.232
		c-0.144-0.191-0.324-0.396-0.54-0.612c-0.216-0.216-0.444-0.348-0.684-0.396l-0.288,0.216c-0.241,0.241-0.432,0.457-0.576,0.648
		c-0.144,0.192-0.288,0.409-0.432,0.648l-0.216,0.36v0.072C115.085,66.738,114.941,67.458,114.893,68.178z"/>
	<path id="XMLID_19_" style="fill:#414973;" d="M142.974,84.45c0.671-0.335,1.271-0.768,1.8-1.296
		c0.528-0.528,1.055-1.056,1.584-1.584c0.191-0.191,0.384-0.407,0.576-0.648c0.191-0.239,0.407-0.432,0.648-0.576
		c0.24-0.096,0.312,0,0.216,0.288c-0.097,0.288-0.168,0.457-0.216,0.504c-0.241,0.576-0.565,1.116-0.972,1.62
		c-0.408,0.504-0.828,0.972-1.26,1.404c-0.529,0.528-1.116,0.972-1.764,1.332s-1.356,0.492-2.124,0.396
		c-0.809-0.097-1.415-0.468-1.819-1.116s-0.701-1.355-0.891-2.124c-0.333-1.536-0.463-3.132-0.392-4.788
		c0.071-1.656,0.178-3.251,0.321-4.788c0.047-0.479,0.142-1.199,0.285-2.16c0.142-0.959,0.285-1.955,0.427-2.988
		c0.143-1.032,0.226-2.027,0.25-2.988c0.023-0.959-0.06-1.656-0.249-2.088c-0.144-0.335-0.371-0.432-0.679-0.288
		s-0.629,0.385-0.962,0.72c-0.333,0.336-0.655,0.72-0.963,1.152s-0.534,0.745-0.677,0.936c-0.713,1.2-1.378,2.568-1.996,4.104
		c0.047,0.576,0.06,1.152,0.036,1.728c-0.024,0.576-0.036,1.152-0.036,1.728c0,0.817-0.05,1.656-0.148,2.52
		c-0.099,0.864-0.223,1.728-0.372,2.592c-0.099,0.72-0.222,1.465-0.37,2.232c-0.148,0.769-0.371,1.512-0.668,2.232
		c-0.099,0.288-0.272,0.588-0.52,0.9c-0.248,0.312-0.539,0.468-0.874,0.468c-0.288,0.048-0.516-0.047-0.684-0.288
		c-0.168-0.239-0.3-0.504-0.396-0.792c-0.144-0.72-0.156-1.487-0.036-2.304c0.12-0.816,0.252-1.584,0.396-2.304
		c0.191-0.959,0.408-1.896,0.648-2.808c0.239-0.911,0.506-1.847,0.798-2.808l-0.223-3.888l-0.36-2.736
		c-0.144-0.768-0.349-1.091-0.612-0.972c-0.265,0.121-0.553,0.421-0.864,0.9c-0.312,0.48-0.601,1.021-0.864,1.62
		c-0.265,0.601-0.421,0.997-0.468,1.188c-0.336,0.864-0.637,1.717-0.9,2.556c-0.264,0.84-0.517,1.692-0.756,2.556
		c-0.192,0.864-0.373,1.717-0.54,2.556c-0.169,0.84-0.324,1.668-0.468,2.484c-0.097,0.288-0.144,0.504-0.144,0.648
		c-0.048,0.336-0.084,0.648-0.108,0.936c-0.024,0.288-0.036,0.576-0.036,0.864c0,0.144-0.012,0.349-0.036,0.612
		c-0.025,0.265-0.061,0.54-0.108,0.828c-0.048,0.288-0.133,0.529-0.252,0.72c-0.12,0.192-0.276,0.288-0.468,0.288
		c-0.288-0.047-0.432-0.216-0.432-0.504s0-0.528,0-0.72c0-0.335,0.047-0.744,0.144-1.224v-0.576c0.047-1.631,0.047-3.287,0-4.968
		l-0.504-8.424l-0.288-3.384c0-0.047,0.013-0.167,0.036-0.36c0.025-0.191,0.072-0.396,0.144-0.612
		c0.072-0.216,0.155-0.396,0.252-0.54c0.096-0.144,0.191-0.191,0.288-0.144c0.335,0.097,0.6,0.336,0.792,0.72
		c0.191,0.385,0.335,0.817,0.432,1.296c0.096,0.48,0.155,0.948,0.18,1.404c0.024,0.457,0.036,0.828,0.036,1.116
		c0.047,0.769,0.083,1.524,0.108,2.268c0.023,0.745,0.036,1.501,0.036,2.268v2.448c0.193-0.767,0.387-1.512,0.581-2.232
		c0.193-0.72,0.411-1.44,0.653-2.16c0.242-0.816,0.52-1.644,0.835-2.484c0.314-0.839,0.688-1.644,1.125-2.412
		c0.193-0.335,0.411-0.648,0.653-0.936c0.242-0.288,0.557-0.479,0.944-0.576c0.532-0.144,0.992-0.072,1.379,0.216
		c0.387,0.288,0.701,0.684,0.943,1.188c0.242,0.504,0.423,1.044,0.544,1.62s0.23,1.057,0.328,1.44
		c0.237-0.671,0.523-1.319,0.856-1.944c0.333-0.624,0.691-1.199,1.071-1.728c0.38-0.576,0.845-1.14,1.392-1.692
		c0.547-0.551,1.178-0.828,1.893-0.828c0.57-0.047,1.01,0.108,1.319,0.468c0.31,0.36,0.536,0.805,0.679,1.332
		c0.238,0.817,0.357,1.681,0.357,2.592c0,0.912-0.024,1.776-0.072,2.592c-0.096,1.681-0.25,3.325-0.463,4.932
		c-0.214,1.609-0.417,3.229-0.606,4.86c-0.095,0.769-0.167,1.537-0.214,2.304c-0.047,0.768,0,1.537,0.143,2.304
		c0.094,0.385,0.201,0.745,0.32,1.08c0.119,0.336,0.344,0.6,0.677,0.792c0.239,0.144,0.526,0.191,0.863,0.144
		C142.445,84.618,142.733,84.546,142.974,84.45z M131.814,79.554c0.096-0.576,0.144-1.164,0.144-1.764c0-0.6,0-1.211,0-1.836
		c-0.241,0.913-0.432,1.825-0.576,2.736c-0.144,0.913-0.216,1.825-0.216,2.736c0,0.192,0.011,0.42,0.036,0.684
		c0.023,0.264,0.108,0.205,0.252-0.18c0.096-0.384,0.167-0.78,0.216-1.188C131.717,80.335,131.765,79.939,131.814,79.554z"/>
	<path id="XMLID_22_" style="fill:#414973;" d="M154.853,82.146c0.047-0.047,0.167-0.18,0.36-0.396
		c0.191-0.216,0.407-0.443,0.648-0.684c0.24-0.239,0.456-0.432,0.648-0.576c0.191-0.144,0.312-0.168,0.36-0.072
		c0.096,0.385-0.013,0.84-0.324,1.368c-0.312,0.529-0.564,0.936-0.756,1.224c-0.72,0.864-1.573,1.512-2.556,1.944
		c-0.984,0.432-2.028,0.384-3.132-0.144c-1.105-0.529-1.957-1.355-2.556-2.484c-0.601-1.127-1.044-2.243-1.332-3.348
		c-0.623-2.543-0.744-5.087-0.36-7.632c0.241-1.775,0.696-3.384,1.368-4.824c0.335-0.623,0.767-1.224,1.296-1.8
		c0.528-0.576,1.152-0.959,1.872-1.152c0.815-0.24,1.487-0.096,2.016,0.432c0.527,0.529,0.839,1.152,0.936,1.872
		c0.144,0.817,0.18,1.656,0.108,2.52c-0.072,0.864-0.18,1.705-0.324,2.52c-0.241,1.584-0.637,3.145-1.188,4.68
		c-0.552,1.537-1.213,3.024-1.98,4.464c-0.097,0.192-0.216,0.421-0.36,0.684c-0.144,0.264-0.313,0.444-0.504,0.54
		c-0.048,0.048-0.097,0.072-0.144,0.072c0.239,0.576,0.587,1.105,1.044,1.584c0.456,0.48,0.996,0.769,1.62,0.864
		c0.671,0.097,1.283-0.036,1.836-0.396C154.001,83.046,154.468,82.626,154.853,82.146z M148.229,71.058
		c-0.241,1.393-0.385,2.844-0.432,4.356c-0.048,1.512,0.12,2.964,0.504,4.356l0.36-0.648l0.936-2.088
		c0.671-1.536,1.26-3.12,1.764-4.752c0.504-1.631,0.708-3.288,0.612-4.968c0-0.288-0.036-0.659-0.108-1.116
		c-0.072-0.456-0.252-0.756-0.54-0.9c-0.241-0.096-0.48,0.012-0.72,0.324c-0.241,0.313-0.408,0.517-0.504,0.612
		c-0.529,0.72-0.925,1.501-1.188,2.34C148.649,69.414,148.421,70.243,148.229,71.058z"/>
	<path id="XMLID_25_" style="fill:#414973;" d="M164.139,59.538c1.296-0.623,2.736-1.08,4.32-1.368l0.72-3.096l0.792-2.664
		c0.191-0.432,0.468-0.576,0.828-0.432c0.36,0.144,0.636,0.385,0.828,0.72c0.096,0.241,0.132,0.468,0.108,0.684
		c-0.024,0.216-0.061,0.444-0.108,0.684l-0.216,1.656c-0.097,0.336-0.157,0.673-0.18,1.008c-0.025,0.336-0.061,0.673-0.108,1.008
		l1.224-0.144l3.312-0.432c0.864-0.096,1.607-0.072,2.232,0.072c0.383,0.097,0.792,0.216,1.224,0.36
		c0.432,0.144,0.743,0.408,0.936,0.792c0.144,0.385,0.072,0.72-0.216,1.008s-0.552,0.504-0.792,0.648
		c-0.912,0.576-1.896,0.997-2.952,1.26c-1.056,0.264-2.088,0.516-3.096,0.756c-0.385,0.097-0.792,0.192-1.224,0.288
		c-0.432,0.097-0.864,0.192-1.296,0.288c-0.192,1.344-0.373,2.688-0.54,4.032c-0.169,1.344-0.324,2.689-0.468,4.032
		c-0.192,1.728-0.349,3.492-0.468,5.292c-0.121,1.8-0.061,3.589,0.18,5.364c0.047,0.288,0.095,0.637,0.144,1.044
		c0.047,0.409,0.144,0.792,0.288,1.152c0.144,0.36,0.335,0.671,0.576,0.936c0.24,0.263,0.551,0.396,0.936,0.396
		c0.671-0.049,1.224-0.396,1.656-1.044c0.432-0.648,0.768-1.235,1.008-1.764c0-0.047,0.083-0.204,0.252-0.468
		c0.167-0.263,0.348-0.515,0.54-0.756c0.191-0.24,0.383-0.407,0.576-0.504c0.191-0.096,0.36-0.047,0.504,0.144
		c0.239,0.385,0.227,0.828-0.036,1.332c-0.265,0.504-0.468,0.9-0.612,1.188c-0.288,0.529-0.601,1.033-0.936,1.512
		c-0.336,0.479-0.769,0.888-1.296,1.224c-0.528,0.384-1.141,0.6-1.836,0.648c-0.696,0.047-1.285-0.192-1.764-0.72
		c-0.625-0.529-1.057-1.224-1.296-2.088c-0.241-0.864-0.408-1.68-0.504-2.448c-0.288-1.728-0.432-3.503-0.432-5.328
		c-0.095-1.824-0.095-3.624,0-5.4c0.096-1.775,0.24-3.575,0.432-5.4c0.047-0.384,0.083-0.744,0.108-1.08
		c0.024-0.335,0.083-0.695,0.18-1.08c-0.288,0-0.48-0.023-0.576-0.072c-0.527-0.096-1.08-0.252-1.656-0.468s-1.08-0.515-1.512-0.9
		c-0.383-0.335-0.551-0.672-0.504-1.008C163.467,60.067,163.707,59.779,164.139,59.538z"/>
	<path id="XMLID_27_" style="fill:#414973;" d="M177.386,64.578c0.288-0.335,0.659-0.659,1.116-0.972
		c0.456-0.312,0.947-0.492,1.476-0.54c0.864-0.335,1.728-0.072,2.592,0.792c0.576,0.576,0.996,1.249,1.26,2.016
		c0.263,0.769,0.468,1.537,0.612,2.304c0.288,1.728,0.36,3.504,0.216,5.328c0,0.097-0.012,0.192-0.036,0.288
		c-0.025,0.097-0.036,0.192-0.036,0.288c0.528-0.24,1.008-0.515,1.44-0.828c0.432-0.312,0.839-0.635,1.224-0.972
		c0.047-0.047,0.155-0.155,0.324-0.324c0.168-0.167,0.335-0.299,0.504-0.396c0.167-0.096,0.335-0.155,0.504-0.18
		c0.167-0.024,0.252,0.084,0.252,0.324c0,0.576-0.265,1.069-0.792,1.476c-0.529,0.408-0.984,0.756-1.368,1.044
		c-0.72,0.576-1.44,0.961-2.16,1.152c-0.144,1.393-0.396,2.785-0.756,4.176c-0.36,1.393-0.925,2.664-1.692,3.816
		c-0.241,0.336-0.48,0.648-0.72,0.936c-0.241,0.288-0.552,0.527-0.936,0.72c-0.336,0.24-0.66,0.36-0.972,0.36
		c-0.313,0-0.661,0-1.044,0c-0.72-0.192-1.309-0.553-1.764-1.08c-0.457-0.528-0.828-1.127-1.116-1.8
		c-0.288-0.816-0.493-1.656-0.612-2.52c-0.12-0.864-0.205-1.728-0.252-2.592c-0.047-0.815-0.06-1.644-0.036-2.484
		c0.025-0.839,0.083-1.692,0.18-2.556c0.144-1.248,0.396-2.507,0.756-3.78c0.36-1.271,0.875-2.459,1.548-3.564L177.386,64.578z
		 M182.426,75.666c-1.393-0.096-2.448-0.612-3.168-1.548c-0.72-0.936-1.2-2.027-1.44-3.276c-0.097,0.48-0.169,0.948-0.216,1.404
		c-0.048,0.457-0.097,0.925-0.144,1.404c-0.097,0.864-0.18,1.728-0.252,2.592c-0.072,0.864-0.108,1.752-0.108,2.664
		c0,0.673,0.047,1.488,0.144,2.448c0.096,0.961,0.432,1.705,1.008,2.232c0.288,0.288,0.563,0.409,0.828,0.36
		c0.263-0.047,0.527-0.155,0.792-0.324c0.263-0.167,0.491-0.384,0.684-0.648c0.191-0.263,0.36-0.515,0.504-0.756
		c0.432-0.72,0.779-1.464,1.044-2.232c0.263-0.768,0.492-1.56,0.684-2.376c0.095-0.335,0.167-0.66,0.216-0.972
		c0.047-0.312,0.096-0.636,0.144-0.972C182.906,75.763,182.666,75.763,182.426,75.666z M178.826,68.178
		c-0.048,0.673,0,1.404,0.144,2.196s0.384,1.512,0.72,2.16c0.335,0.648,0.803,1.164,1.404,1.548c0.6,0.385,1.332,0.504,2.196,0.36
		c0.144-1.199,0.204-2.412,0.18-3.636c-0.024-1.224-0.205-2.387-0.54-3.492c-0.144-0.911-0.457-1.656-0.936-2.232
		c-0.144-0.191-0.324-0.396-0.54-0.612c-0.216-0.216-0.444-0.348-0.684-0.396l-0.288,0.216c-0.241,0.241-0.432,0.457-0.576,0.648
		c-0.144,0.192-0.288,0.409-0.432,0.648l-0.216,0.36v0.072C179.018,66.738,178.874,67.458,178.826,68.178z"/>
	<path id="XMLID_31_" style="fill:#414973;" d="M200.57,40.026c2.16-0.479,4.32-0.972,6.48-1.476c2.16-0.504,4.32-1.02,6.48-1.548
		c1.008-0.239,2.016-0.468,3.024-0.684c1.008-0.216,2.016-0.443,3.024-0.684c0.959-0.191,2.003-0.299,3.132-0.324
		c1.127-0.023,2.052,0.324,2.772,1.044c0.384,0.385,0.504,0.745,0.36,1.08c-0.144,0.336-0.396,0.648-0.756,0.936
		c-0.36,0.288-0.781,0.529-1.26,0.72c-0.48,0.192-0.864,0.336-1.152,0.432c-0.864,0.241-1.741,0.444-2.628,0.612
		c-0.889,0.168-1.789,0.324-2.7,0.468c-1.488,0.241-2.964,0.457-4.428,0.648c-1.465,0.192-2.916,0.36-4.356,0.504
		c-0.048,0.144-0.072,0.313-0.072,0.504c0,0.432-0.013,0.853-0.036,1.26c-0.025,0.408-0.061,0.828-0.108,1.26
		c-0.192,3.456-0.349,6.912-0.468,10.368c-0.12,3.456-0.252,6.912-0.396,10.368l-0.144,1.8c0.624-0.239,1.235-0.468,1.836-0.684
		c0.6-0.216,1.188-0.443,1.764-0.684c0.624-0.335,1.224-0.528,1.8-0.576c0.576-0.047,1.152-0.023,1.728,0.072
		c0.576,0.097,1.127,0.192,1.656,0.288c0.384,0.097,0.744,0.192,1.08,0.288c0.335,0.097,0.695,0.192,1.08,0.288
		c0.24,0.097,0.443,0.205,0.612,0.324c0.167,0.121,0.228,0.301,0.18,0.54c0,0.48-0.288,0.792-0.864,0.936
		c-0.576,0.144-1.033,0.265-1.368,0.36c-1.105,0.288-2.208,0.528-3.312,0.72c-1.105,0.192-2.208,0.409-3.312,0.648l-2.952,0.504
		c-0.097,2.353-0.192,4.705-0.288,7.056c-0.097,2.353-0.192,4.705-0.288,7.056c-0.048,0.24-0.072,0.492-0.072,0.756
		c0,0.263,0,0.515,0,0.756c0,0.144-0.024,0.312-0.07,0.504c-0.047,0.191-0.117,0.36-0.21,0.504s-0.198,0.227-0.315,0.252
		c-0.117,0.023-0.268-0.061-0.455-0.252c-0.327-0.385-0.538-0.828-0.631-1.332c-0.094-0.504-0.187-0.972-0.279-1.404
		c-0.187-1.152-0.304-2.304-0.351-3.456c-0.047-1.152-0.117-2.304-0.209-3.456c-0.048-0.912-0.084-1.812-0.108-2.7
		c-0.025-0.888-0.013-1.764,0.036-2.628V70.77c-0.144,0-0.3,0.025-0.468,0.072c-0.169,0.048-0.324,0.072-0.468,0.072
		c-0.817,0.097-1.62,0.192-2.412,0.288c-0.792,0.097-1.597,0.144-2.412,0.144c-0.384,0-0.6-0.108-0.648-0.324
		c-0.047-0.216,0.048-0.443,0.288-0.684c0.336-0.288,0.732-0.468,1.188-0.54c0.456-0.072,0.875-0.155,1.26-0.252
		c1.199-0.191,2.472-0.527,3.816-1.008c0.14-3.215,0.351-6.503,0.632-9.864c0.234-2.592,0.479-5.195,0.737-7.812
		c0.257-2.616,0.643-5.22,1.158-7.812l0.281-1.08l-2.232,0.144c-0.673,0.048-1.321,0.097-1.944,0.144
		c-0.625,0.048-1.272,0.072-1.944,0.072c-0.336,0-0.732-0.023-1.188-0.072c-0.457-0.047-0.779-0.264-0.972-0.648
		c-0.144-0.24-0.144-0.443,0-0.612c0.144-0.167,0.324-0.324,0.54-0.468c0.216-0.144,0.456-0.252,0.72-0.324
		C200.221,40.134,200.426,40.075,200.57,40.026z"/>
	<path id="XMLID_33_" style="fill:#414973;" d="M221.449,64.578c0.288-0.335,0.659-0.659,1.116-0.972
		c0.456-0.312,0.947-0.492,1.476-0.54c0.864-0.335,1.728-0.072,2.592,0.792c0.576,0.576,0.996,1.249,1.26,2.016
		c0.263,0.769,0.468,1.537,0.612,2.304c0.288,1.728,0.36,3.504,0.216,5.328c0,0.097-0.012,0.192-0.036,0.288
		c-0.025,0.097-0.036,0.192-0.036,0.288c0.528-0.24,1.008-0.515,1.44-0.828c0.432-0.312,0.839-0.635,1.224-0.972
		c0.047-0.047,0.155-0.155,0.324-0.324c0.168-0.167,0.335-0.299,0.504-0.396c0.167-0.096,0.335-0.155,0.504-0.18
		c0.167-0.024,0.252,0.084,0.252,0.324c0,0.576-0.265,1.069-0.792,1.476c-0.529,0.408-0.984,0.756-1.368,1.044
		c-0.72,0.576-1.44,0.961-2.16,1.152c-0.144,1.393-0.396,2.785-0.756,4.176c-0.36,1.393-0.925,2.664-1.692,3.816
		c-0.241,0.336-0.48,0.648-0.72,0.936c-0.241,0.288-0.552,0.527-0.936,0.72c-0.336,0.24-0.66,0.36-0.972,0.36
		c-0.313,0-0.661,0-1.044,0c-0.72-0.192-1.309-0.553-1.764-1.08c-0.457-0.528-0.828-1.127-1.116-1.8
		c-0.288-0.816-0.493-1.656-0.612-2.52c-0.12-0.864-0.205-1.728-0.252-2.592c-0.047-0.815-0.06-1.644-0.036-2.484
		c0.025-0.839,0.083-1.692,0.18-2.556c0.144-1.248,0.396-2.507,0.756-3.78c0.36-1.271,0.875-2.459,1.548-3.564L221.449,64.578z
		 M226.489,75.666c-1.393-0.096-2.448-0.612-3.168-1.548c-0.72-0.936-1.2-2.027-1.44-3.276c-0.097,0.48-0.169,0.948-0.216,1.404
		c-0.048,0.457-0.097,0.925-0.144,1.404c-0.097,0.864-0.18,1.728-0.252,2.592c-0.072,0.864-0.108,1.752-0.108,2.664
		c0,0.673,0.047,1.488,0.144,2.448c0.096,0.961,0.432,1.705,1.008,2.232c0.288,0.288,0.563,0.409,0.828,0.36
		c0.263-0.047,0.527-0.155,0.792-0.324c0.263-0.167,0.491-0.384,0.684-0.648c0.191-0.263,0.36-0.515,0.504-0.756
		c0.432-0.72,0.779-1.464,1.044-2.232c0.263-0.768,0.492-1.56,0.684-2.376c0.095-0.335,0.167-0.66,0.216-0.972
		c0.047-0.312,0.096-0.636,0.144-0.972C226.968,75.763,226.729,75.763,226.489,75.666z M222.889,68.178
		c-0.048,0.673,0,1.404,0.144,2.196s0.384,1.512,0.72,2.16c0.335,0.648,0.803,1.164,1.404,1.548c0.6,0.385,1.332,0.504,2.196,0.36
		c0.144-1.199,0.204-2.412,0.18-3.636c-0.024-1.224-0.205-2.387-0.54-3.492c-0.144-0.911-0.457-1.656-0.936-2.232
		c-0.144-0.191-0.324-0.396-0.54-0.612c-0.216-0.216-0.444-0.348-0.684-0.396l-0.288,0.216c-0.241,0.241-0.432,0.457-0.576,0.648
		c-0.144,0.192-0.288,0.409-0.432,0.648l-0.216,0.36v0.072C223.08,66.738,222.936,67.458,222.889,68.178z"/>
	<path id="XMLID_37_" style="fill:#414973;" d="M234.625,64.578c0.288-0.335,0.659-0.659,1.116-0.972
		c0.456-0.312,0.947-0.492,1.477-0.54c0.864-0.335,1.728-0.072,2.592,0.792c0.576,0.576,0.996,1.249,1.26,2.016
		c0.264,0.769,0.469,1.537,0.612,2.304c0.288,1.728,0.36,3.504,0.216,5.328c0,0.097-0.012,0.192-0.036,0.288
		c-0.024,0.097-0.036,0.192-0.036,0.288c0.528-0.24,1.009-0.515,1.44-0.828c0.432-0.312,0.839-0.635,1.224-0.972
		c0.048-0.047,0.155-0.155,0.324-0.324c0.168-0.167,0.335-0.299,0.504-0.396c0.168-0.096,0.336-0.155,0.504-0.18
		c0.168-0.024,0.252,0.084,0.252,0.324c0,0.576-0.264,1.069-0.792,1.476c-0.528,0.408-0.984,0.756-1.367,1.044
		c-0.721,0.576-1.44,0.961-2.16,1.152c-0.145,1.393-0.396,2.785-0.756,4.176c-0.36,1.393-0.925,2.664-1.692,3.816
		c-0.241,0.336-0.48,0.648-0.72,0.936c-0.241,0.288-0.553,0.527-0.937,0.72c-0.336,0.24-0.66,0.36-0.972,0.36
		c-0.312,0-0.66,0-1.044,0c-0.72-0.192-1.309-0.553-1.764-1.08c-0.457-0.528-0.828-1.127-1.116-1.8
		c-0.288-0.816-0.493-1.656-0.612-2.52c-0.12-0.864-0.205-1.728-0.252-2.592c-0.047-0.815-0.06-1.644-0.036-2.484
		c0.025-0.839,0.083-1.692,0.18-2.556c0.144-1.248,0.396-2.507,0.756-3.78c0.36-1.271,0.875-2.459,1.548-3.564L234.625,64.578z
		 M239.665,75.666c-1.394-0.096-2.448-0.612-3.168-1.548s-1.201-2.027-1.44-3.276c-0.097,0.48-0.169,0.948-0.216,1.404
		c-0.048,0.457-0.097,0.925-0.144,1.404c-0.097,0.864-0.18,1.728-0.252,2.592c-0.072,0.864-0.108,1.752-0.108,2.664
		c0,0.673,0.047,1.488,0.144,2.448c0.096,0.961,0.432,1.705,1.008,2.232c0.289,0.288,0.564,0.409,0.828,0.36
		c0.264-0.047,0.528-0.155,0.792-0.324c0.264-0.167,0.492-0.384,0.685-0.648c0.191-0.263,0.359-0.515,0.504-0.756
		c0.432-0.72,0.779-1.464,1.044-2.232c0.263-0.768,0.491-1.56,0.684-2.376c0.096-0.335,0.168-0.66,0.216-0.972
		c0.048-0.312,0.096-0.636,0.145-0.972C240.144,75.763,239.904,75.763,239.665,75.666z M236.065,68.178
		c-0.048,0.673,0,1.404,0.145,2.196c0.144,0.792,0.384,1.512,0.72,2.16c0.335,0.648,0.803,1.164,1.404,1.548
		c0.6,0.385,1.332,0.504,2.195,0.36c0.145-1.199,0.204-2.412,0.181-3.636c-0.025-1.224-0.205-2.387-0.54-3.492
		c-0.145-0.911-0.457-1.656-0.937-2.232c-0.144-0.191-0.324-0.396-0.54-0.612c-0.216-0.216-0.444-0.348-0.684-0.396l-0.288,0.216
		c-0.241,0.241-0.432,0.457-0.576,0.648c-0.144,0.192-0.288,0.409-0.432,0.648l-0.216,0.36v0.072
		C236.256,66.738,236.112,67.458,236.065,68.178z"/>
	<path id="XMLID_41_" style="fill:#414973;" d="M257.881,83.73c0.239-0.096,0.442-0.167,0.611-0.216
		c0.168-0.047,0.371-0.144,0.612-0.288c0.239-0.191,0.456-0.384,0.648-0.576c0.19-0.191,0.383-0.407,0.575-0.648l1.009-1.296
		c0.095-0.096,0.19-0.216,0.287-0.36c0.096-0.144,0.217-0.24,0.36-0.288c0.096,0,0.145,0.084,0.145,0.252
		c0,0.169-0.025,0.36-0.072,0.576c-0.049,0.216-0.108,0.432-0.181,0.648c-0.071,0.216-0.107,0.349-0.107,0.396
		c-0.241,0.432-0.48,0.864-0.72,1.296c-0.241,0.432-0.553,0.817-0.937,1.152c-0.385,0.335-0.84,0.612-1.368,0.828
		s-1.032,0.204-1.512-0.036c-0.48-0.241-0.828-0.612-1.044-1.116s-0.372-0.996-0.468-1.476c-0.241-1.104-0.385-2.232-0.433-3.384
		c-0.048-1.152-0.071-2.279-0.071-3.384c-0.049-0.911-0.062-1.824-0.036-2.736c0.023-0.911,0.036-1.847,0.036-2.808
		c-0.288,1.008-0.576,2.005-0.864,2.988c-0.288,0.984-0.601,1.957-0.937,2.916c-0.287,0.817-0.588,1.656-0.899,2.52
		c-0.312,0.864-0.66,1.705-1.044,2.52c-0.337,0.673-0.709,1.393-1.116,2.16c-0.408,0.769-0.948,1.368-1.62,1.8
		c-0.432,0.24-0.889,0.348-1.368,0.324c-0.48-0.025-0.912-0.229-1.296-0.612c-0.528-0.529-0.84-1.212-0.936-2.052
		c-0.096-0.839-0.145-1.644-0.145-2.412c0-1.584,0.168-3.179,0.504-4.788c0.336-1.607,0.768-3.179,1.296-4.716
		c0.479-1.248,1.045-2.508,1.692-3.78c0.648-1.271,1.477-2.364,2.484-3.276c0.527-0.527,1.14-0.947,1.836-1.26
		c0.695-0.312,1.403-0.371,2.124-0.18c0.096,0.048,0.216,0.084,0.359,0.108c0.145,0.025,0.264,0.084,0.36,0.18
		c0.096-1.104,0.191-2.184,0.288-3.24c0.096-1.056,0.191-2.135,0.288-3.24c0.239-1.775,0.468-3.539,0.684-5.292
		c0.216-1.751,0.468-3.516,0.756-5.292c0.145-0.864,0.288-1.739,0.433-2.628c0.144-0.888,0.335-1.739,0.576-2.556
		c0.096-0.335,0.252-0.731,0.468-1.188c0.216-0.456,0.54-0.659,0.972-0.612c0.096,0.048,0.191,0.072,0.288,0.072
		c0.047,0,0.083,0.013,0.108,0.036c0.023,0.025,0.06,0.036,0.107,0.036h0.145c0,0.048,0.071,0.12,0.216,0.216
		c0.144,0.097,0.239,0.192,0.288,0.288c0.144,0.241,0.216,0.48,0.216,0.72c0.096,0.817,0.072,1.633-0.072,2.448
		c-0.144,0.817-0.264,1.632-0.359,2.448c-0.288,1.776-0.612,3.541-0.973,5.292c-0.359,1.753-0.732,3.517-1.115,5.292
		c-0.098,0.528-0.205,1.068-0.324,1.62c-0.121,0.553-0.252,1.092-0.396,1.62c-0.144,1.344-0.288,2.664-0.432,3.96
		c-0.145,1.296-0.265,2.617-0.36,3.96c-0.144,1.632-0.265,3.265-0.359,4.896c-0.097,1.632-0.169,3.265-0.217,4.896
		c0,1.393,0.072,2.808,0.217,4.248c0.047,0.336,0.095,0.673,0.144,1.008c0.047,0.336,0.119,0.673,0.216,1.008
		c0.096,0.385,0.191,0.648,0.288,0.792c0,0.048,0.023,0.097,0.072,0.144C257.809,83.706,257.832,83.73,257.881,83.73z
		 M253.416,71.418c0.768-2.543,1.416-5.015,1.944-7.416c-0.432-0.047-0.816,0.025-1.152,0.216c-0.287,0.192-0.552,0.385-0.792,0.576
		c-0.24,0.192-0.479,0.409-0.72,0.648c-0.528,0.625-0.984,1.285-1.368,1.98c-0.385,0.697-0.744,1.38-1.08,2.052
		c-0.72,1.537-1.356,3.108-1.907,4.716c-0.553,1.609-0.997,3.252-1.332,4.932c-0.097,0.432-0.169,0.864-0.217,1.296
		c-0.048,0.432-0.071,0.889-0.071,1.368c0,0.336,0.011,0.696,0.036,1.08c0.023,0.385,0.155,0.696,0.396,0.936
		c0.239,0.288,0.504,0.349,0.792,0.18c0.288-0.167,0.563-0.419,0.828-0.756c0.264-0.335,0.491-0.695,0.684-1.08
		c0.191-0.383,0.336-0.648,0.433-0.792c0.815-1.536,1.487-3.156,2.016-4.86C252.432,74.791,252.937,73.099,253.416,71.418z"/>
	<path id="XMLID_44_" style="fill:#414973;" d="M274.152,40.026c2.16-0.479,4.32-0.972,6.48-1.476
		c2.16-0.504,4.319-1.02,6.479-1.548c1.009-0.239,2.017-0.468,3.024-0.684c1.008-0.216,2.016-0.443,3.023-0.684
		c0.96-0.191,2.004-0.299,3.133-0.324c1.127-0.023,2.052,0.324,2.771,1.044c0.384,0.385,0.504,0.745,0.36,1.08
		c-0.145,0.336-0.396,0.648-0.756,0.936c-0.36,0.288-0.781,0.529-1.261,0.72c-0.479,0.192-0.863,0.336-1.151,0.432
		c-0.864,0.241-1.74,0.444-2.628,0.612c-0.889,0.168-1.789,0.324-2.7,0.468c-1.488,0.241-2.965,0.457-4.428,0.648
		c-1.465,0.192-2.916,0.36-4.356,0.504c-0.048,0.144-0.072,0.313-0.072,0.504c0,0.432-0.012,0.853-0.035,1.26
		c-0.025,0.408-0.062,0.828-0.108,1.26c-0.192,3.456-0.349,6.912-0.468,10.368c-0.121,3.456-0.252,6.912-0.396,10.368l-0.144,1.8
		c0.623-0.239,1.235-0.468,1.836-0.684c0.6-0.216,1.188-0.443,1.764-0.684c0.623-0.335,1.224-0.528,1.8-0.576
		c0.576-0.047,1.152-0.023,1.729,0.072c0.576,0.097,1.127,0.192,1.656,0.288c0.383,0.097,0.743,0.192,1.079,0.288
		c0.336,0.097,0.695,0.192,1.08,0.288c0.24,0.097,0.443,0.205,0.612,0.324c0.168,0.121,0.228,0.301,0.18,0.54
		c0,0.48-0.288,0.792-0.863,0.936c-0.576,0.144-1.033,0.265-1.368,0.36c-1.104,0.288-2.209,0.528-3.312,0.72
		c-1.104,0.192-2.208,0.409-3.312,0.648l-2.952,0.504c-0.097,2.353-0.192,4.705-0.288,7.056c-0.097,2.353-0.192,4.705-0.288,7.056
		c-0.048,0.24-0.072,0.492-0.072,0.756c0,0.263,0,0.515,0,0.756c0,0.144-0.023,0.312-0.069,0.504
		c-0.047,0.191-0.117,0.36-0.21,0.504c-0.094,0.144-0.198,0.227-0.315,0.252c-0.117,0.023-0.268-0.061-0.454-0.252
		c-0.328-0.385-0.538-0.828-0.632-1.332c-0.093-0.504-0.187-0.972-0.278-1.404c-0.188-1.152-0.304-2.304-0.352-3.456
		c-0.047-1.152-0.117-2.304-0.209-3.456c-0.049-0.912-0.084-1.812-0.108-2.7c-0.024-0.888-0.012-1.764,0.036-2.628V70.77
		c-0.144,0-0.3,0.025-0.468,0.072c-0.169,0.048-0.324,0.072-0.468,0.072c-0.817,0.097-1.62,0.192-2.412,0.288
		c-0.792,0.097-1.597,0.144-2.412,0.144c-0.384,0-0.6-0.108-0.648-0.324c-0.047-0.216,0.049-0.443,0.288-0.684
		c0.337-0.288,0.732-0.468,1.188-0.54c0.455-0.072,0.875-0.155,1.26-0.252c1.199-0.191,2.472-0.527,3.816-1.008
		c0.14-3.215,0.351-6.503,0.632-9.864c0.234-2.592,0.479-5.195,0.737-7.812c0.256-2.616,0.642-5.22,1.157-7.812l0.281-1.08
		l-2.231,0.144c-0.673,0.048-1.321,0.097-1.944,0.144c-0.625,0.048-1.272,0.072-1.944,0.072c-0.336,0-0.732-0.023-1.188-0.072
		c-0.457-0.047-0.78-0.264-0.973-0.648c-0.144-0.24-0.144-0.443,0-0.612c0.145-0.167,0.324-0.324,0.54-0.468
		c0.217-0.144,0.456-0.252,0.721-0.324C273.803,40.134,274.008,40.075,274.152,40.026z"/>
	<path id="XMLID_46_" style="fill:#414973;" d="M300.287,82.074c0.432-0.528,0.839-1.068,1.224-1.62
		c0.384-0.551,0.792-1.091,1.225-1.62c0.047-0.047,0.155-0.167,0.323-0.36c0.168-0.191,0.276-0.191,0.324,0
		c0.096,0.241,0.072,0.529-0.072,0.864c-0.144,0.336-0.264,0.625-0.359,0.864c-0.241,0.529-0.553,1.08-0.937,1.656
		c-0.385,0.576-0.828,1.105-1.332,1.584c-0.504,0.48-1.056,0.852-1.655,1.116c-0.602,0.263-1.236,0.348-1.908,0.252
		c-0.721-0.144-1.345-0.457-1.872-0.936c-0.529-0.479-0.961-1.055-1.296-1.728c-0.337-0.671-0.601-1.368-0.792-2.088
		c-0.192-0.72-0.36-1.392-0.504-2.016c-0.384-1.584-0.636-3.179-0.757-4.788c-0.119-1.607-0.203-3.228-0.252-4.86
		c-0.047-1.824-0.047-3.636,0-5.436c0.049-1.8,0.145-3.611,0.288-5.436c0.145-1.824,0.349-3.636,0.612-5.436
		c0.264-1.8,0.659-3.587,1.188-5.364c0.239-0.816,0.504-1.631,0.792-2.448c0.287-0.815,0.695-1.559,1.224-2.232
		c0.384-0.576,0.9-0.947,1.548-1.116c0.648-0.168,1.163,0.133,1.548,0.9c0.384,0.673,0.623,1.44,0.721,2.304
		c0.095,0.864,0.19,1.705,0.287,2.52c0.096,0.864,0.155,1.728,0.181,2.592c0.023,0.864-0.013,1.752-0.108,2.664
		c-0.144,3.216-0.528,6.42-1.151,9.612c-0.625,3.193-1.465,6.3-2.521,9.324c-0.528,1.681-1.128,3.216-1.8,4.608l-0.216,0.432
		c0.047,1.152,0.239,2.4,0.575,3.744c0.145,0.625,0.36,1.296,0.648,2.016s0.744,1.249,1.368,1.584
		c0.623,0.385,1.247,0.408,1.872,0.072C299.326,82.963,299.855,82.555,300.287,82.074z M294.095,73.434l0.216-0.504
		c0.96-2.783,1.765-5.604,2.412-8.46c0.648-2.855,1.188-5.724,1.62-8.604c0.24-1.775,0.42-3.552,0.54-5.328
		c0.119-1.775,0.036-3.552-0.252-5.328c-0.097-0.432-0.18-0.875-0.252-1.332c-0.072-0.456-0.229-0.875-0.468-1.26
		c-0.049-0.096-0.108-0.216-0.181-0.36c-0.071-0.144-0.18-0.168-0.323-0.072c-0.145,0.097-0.252,0.229-0.324,0.396
		c-0.072,0.169-0.156,0.324-0.252,0.468c-0.385,0.768-0.66,1.596-0.828,2.484c-0.169,0.889-0.301,1.74-0.396,2.556
		c-0.528,3.6-0.899,7.212-1.115,10.836c-0.216,3.625-0.349,7.236-0.396,10.836V73.434z"/>
	<path id="XMLID_49_" style="fill:#414973;" d="M305.614,64.578c0.288-0.335,0.659-0.659,1.115-0.972
		c0.456-0.312,0.947-0.492,1.477-0.54c0.864-0.335,1.728-0.072,2.592,0.792c0.576,0.576,0.996,1.249,1.26,2.016
		c0.264,0.769,0.469,1.537,0.612,2.304c0.288,1.728,0.36,3.504,0.216,5.328c0,0.097-0.012,0.192-0.036,0.288
		c-0.024,0.097-0.036,0.192-0.036,0.288c0.528-0.24,1.009-0.515,1.44-0.828c0.432-0.312,0.839-0.635,1.224-0.972
		c0.048-0.047,0.155-0.155,0.324-0.324c0.168-0.167,0.335-0.299,0.504-0.396c0.168-0.096,0.336-0.155,0.504-0.18
		c0.168-0.024,0.252,0.084,0.252,0.324c0,0.576-0.264,1.069-0.792,1.476c-0.528,0.408-0.984,0.756-1.367,1.044
		c-0.721,0.576-1.44,0.961-2.16,1.152c-0.145,1.393-0.396,2.785-0.756,4.176c-0.36,1.393-0.925,2.664-1.692,3.816
		c-0.241,0.336-0.48,0.648-0.72,0.936c-0.241,0.288-0.553,0.527-0.937,0.72c-0.336,0.24-0.66,0.36-0.972,0.36
		c-0.312,0-0.66,0-1.044,0c-0.72-0.192-1.309-0.553-1.764-1.08c-0.457-0.528-0.828-1.127-1.116-1.8
		c-0.288-0.816-0.493-1.656-0.612-2.52c-0.12-0.864-0.205-1.728-0.252-2.592c-0.047-0.815-0.06-1.644-0.036-2.484
		c0.024-0.839,0.083-1.692,0.18-2.556c0.145-1.248,0.396-2.507,0.757-3.78c0.359-1.271,0.875-2.459,1.548-3.564L305.614,64.578z
		 M310.654,75.666c-1.394-0.096-2.448-0.612-3.168-1.548c-0.721-0.936-1.201-2.027-1.44-3.276c-0.097,0.48-0.169,0.948-0.216,1.404
		c-0.049,0.457-0.097,0.925-0.145,1.404c-0.097,0.864-0.18,1.728-0.252,2.592c-0.071,0.864-0.107,1.752-0.107,2.664
		c0,0.673,0.047,1.488,0.144,2.448c0.096,0.961,0.433,1.705,1.008,2.232c0.288,0.288,0.564,0.409,0.828,0.36
		c0.264-0.047,0.528-0.155,0.792-0.324c0.264-0.167,0.492-0.384,0.685-0.648c0.191-0.263,0.359-0.515,0.504-0.756
		c0.432-0.72,0.779-1.464,1.044-2.232c0.263-0.768,0.491-1.56,0.684-2.376c0.096-0.335,0.168-0.66,0.216-0.972
		c0.048-0.312,0.096-0.636,0.145-0.972C311.133,75.763,310.894,75.763,310.654,75.666z M307.054,68.178
		c-0.048,0.673,0,1.404,0.145,2.196c0.144,0.792,0.384,1.512,0.72,2.16c0.335,0.648,0.803,1.164,1.404,1.548
		c0.6,0.385,1.332,0.504,2.195,0.36c0.145-1.199,0.204-2.412,0.181-3.636c-0.025-1.224-0.205-2.387-0.54-3.492
		c-0.145-0.911-0.457-1.656-0.937-2.232c-0.144-0.191-0.324-0.396-0.54-0.612c-0.216-0.216-0.444-0.348-0.684-0.396l-0.288,0.216
		c-0.241,0.241-0.432,0.457-0.576,0.648c-0.144,0.192-0.288,0.409-0.432,0.648l-0.216,0.36v0.072
		C307.245,66.738,307.102,67.458,307.054,68.178z"/>
	<path id="XMLID_53_" style="fill:#414973;" d="M329.445,65.37c0.336-1.343,1.009-2.423,2.017-3.24
		c0.096-0.095,0.252-0.216,0.468-0.36s0.396-0.167,0.54-0.072c0.096,0.097,0.132,0.252,0.108,0.468
		c-0.025,0.216-0.036,0.373-0.036,0.468c-0.145,0.816-0.337,1.62-0.576,2.412c-0.241,0.792-0.457,1.597-0.648,2.412
		c-0.336,1.44-0.611,2.88-0.828,4.32c-0.216,1.44-0.42,2.88-0.611,4.32l-0.792,5.04c-0.049,0.336-0.108,0.732-0.181,1.188
		c-0.071,0.457-0.18,0.889-0.323,1.296c-0.145,0.408-0.349,0.78-0.612,1.116c-0.265,0.335-0.589,0.576-0.972,0.72
		c-0.864,0.191-1.513-0.061-1.944-0.756s-0.745-1.379-0.936-2.052c-0.48-1.631-0.769-3.335-0.864-5.112
		c-0.097-0.671-0.133-1.368-0.108-2.088c0.023-0.72,0.036-1.44,0.036-2.16c-0.097,0.288-0.144,0.48-0.144,0.576
		c-0.385,1.44-0.781,2.892-1.188,4.356c-0.408,1.465-0.899,2.892-1.476,4.284c-0.097,0.336-0.241,0.684-0.433,1.044
		c-0.192,0.36-0.456,0.635-0.792,0.828c-0.624,0.288-1.2,0.168-1.728-0.36c-0.385-0.384-0.637-0.828-0.756-1.332
		c-0.121-0.504-0.229-1.019-0.324-1.548c-0.672-3.359-0.695-6.647-0.072-9.864c0.24-1.104,0.54-2.207,0.9-3.312
		c0.359-1.104,0.875-2.111,1.548-3.024c0.096-0.144,0.203-0.288,0.324-0.432c0.119-0.144,0.275-0.264,0.468-0.36
		c0.335-0.144,0.491-0.036,0.468,0.324c-0.024,0.36-0.036,0.637-0.036,0.828c-0.097,0.576-0.229,1.164-0.396,1.764
		c-0.169,0.601-0.324,1.188-0.468,1.764c-0.337,1.537-0.589,3.108-0.757,4.716c-0.168,1.609-0.3,3.229-0.396,4.86
		c-0.049,0.432-0.084,0.876-0.108,1.332c-0.024,0.457-0.012,0.925,0.036,1.404c0.048,0.241,0.083,0.54,0.108,0.9
		c0.023,0.36,0.132,0.637,0.324,0.828c0.19,0.192,0.348,0.156,0.468-0.108c0.119-0.264,0.228-0.468,0.324-0.612l0.647-1.8
		c0.527-1.728,0.996-3.456,1.404-5.184c0.407-1.728,0.828-3.479,1.26-5.256c0.096-0.432,0.204-0.875,0.324-1.332
		c0.119-0.456,0.252-0.9,0.396-1.332c0.096-0.24,0.191-0.515,0.288-0.828c0.096-0.312,0.264-0.54,0.504-0.684
		c0.479-0.239,0.828-0.18,1.044,0.18c0.217,0.36,0.324,0.732,0.324,1.116c0.096,1.681,0.119,3.373,0.072,5.076
		c-0.049,1.705-0.024,3.396,0.072,5.076c0,0.864,0.011,1.74,0.036,2.628c0.023,0.889,0.107,1.764,0.252,2.628
		c0,0.048,0.035,0.169,0.107,0.36c0.072,0.192,0.155,0.396,0.252,0.612c0.096,0.216,0.191,0.396,0.288,0.54
		c0.096,0.144,0.191,0.144,0.288,0c0.239-0.24,0.396-0.551,0.468-0.936c0.072-0.384,0.155-0.72,0.252-1.008
		c0.336-1.68,0.54-3.348,0.612-5.004c0.072-1.656,0.203-3.323,0.396-5.004c0.096-1.104,0.228-2.208,0.396-3.312
		C328.93,67.579,329.157,66.475,329.445,65.37z"/>
</g>
</svg>
